<svg width="334" height="242" viewBox="0 0 334 242" fill="none" xmlns="http://www.w3.org/2000/svg">
<path d="M190.232 201.686C190.232 203.018 180.033 204.1 167.453 204.1C154.874 204.1 144.679 203.023 144.679 201.686C144.679 200.349 154.874 199.273 167.453 199.273C180.033 199.273 190.232 200.354 190.232 201.686Z" fill="url(#paint0_linear_25_939)"/>
<path opacity="0.72" d="M279.433 212.383C279.433 213.831 268.302 215.013 254.569 215.013C240.835 215.013 229.699 213.831 229.699 212.383C229.699 210.934 240.835 209.747 254.569 209.747C268.302 209.747 279.433 210.906 279.433 212.383Z" fill="url(#paint1_linear_25_939)"/>
<path d="M211.182 81.6466V81.8059C211.178 87.033 209.901 92.1804 207.46 96.803C207.46 96.803 194.234 122.965 192.467 147.717C192.525 159.301 181.519 168.719 167.883 168.786H167.453V44.7693C191.521 44.7307 211.081 61.2145 211.182 81.6466Z" fill="#39AA35" fill-opacity="0.78"/>
<path d="M168.24 169.573H167.019C152.982 169.501 141.609 159.774 141.652 147.881C139.905 123.747 126.872 97.8698 126.741 97.6139C124.241 92.9169 122.935 87.6771 122.938 82.3562V82.1969C123.039 61.5427 142.965 44.7693 167.371 44.7693H168.235L168.24 169.573ZM124.54 82.1969V82.3562C124.54 87.4282 125.786 92.4226 128.17 96.8996C128.305 97.1699 141.493 123.327 143.25 147.799V147.857C143.192 158.804 153.677 167.777 166.686 168.004V46.338C143.448 46.6566 124.613 62.6046 124.54 82.1969Z" fill="#39AA35"/>
<path d="M218.664 31.6015H223.559L222.058 28.4979H217.168L218.664 31.6015Z" fill="#39AA35"/>
<path d="M216.371 31.6015H217.54L216.043 28.4979H214.875L216.371 31.6015Z" fill="#39AA35"/>
<path d="M199.462 27.9042H219.282L218.626 26.3499H198.806L199.462 27.9042Z" fill="#39AA35"/>
<path d="M115.47 35.3376H128.044V34.4543H115.47V35.3376Z" fill="#39AA35"/>
<path d="M115.47 39.8265H128.044V36.1195H115.47V39.8265Z" fill="#39AA35"/>
<path d="M109.566 41.627H116.985V41.0719H109.566V41.627Z" fill="#39AA35"/>
<path d="M109.566 43.3647H116.985V41.8635H109.566V43.3647Z" fill="#39AA35"/>
<path d="M130.115 40.092H130.67V29.7094H130.115V40.092Z" fill="#FFD989"/>
<path d="M95.5723 94.6068H105.478V92.8112H95.5723V94.6068Z" fill="#FFD785"/>
<path d="M95.5723 92.3092H105.478V91.9713H95.5723V92.3092Z" fill="#FFD785"/>
<path d="M223.728 90.7453L222.183 90.4363C225.871 71.8963 222.733 56.8992 213.098 47.0669C208.757 42.6204 203.321 39.3957 197.338 37.7172L197.676 36.1774C203.968 37.9005 209.683 41.2811 214.223 45.9663C221.203 53.0956 228.521 66.6592 223.728 90.7453Z" fill="#39AA35"/>
<path d="M119.423 114.078C104.623 86.0246 113.872 70.791 114.277 70.1538L115.605 70.9889C115.513 71.1385 106.477 86.1597 120.813 113.34L119.423 114.078Z" fill="#39AA35"/>
<path d="M194.813 85.6191C195.223 84.5537 195.48 83.4356 195.576 82.2982L197.821 81.439L197.386 78.8663L196.952 76.2936L194.538 76.2164C194.074 75.1708 193.464 74.1959 192.728 73.3202L193.694 71.1337L191.57 69.618L189.441 68.1072L187.693 69.7484C186.626 69.3393 185.506 69.0826 184.367 68.9857L183.508 66.7412L180.935 67.1756L178.363 67.6101L178.29 70.0235C177.245 70.4893 176.27 71.0986 175.394 71.8336L173.202 70.8682L171.687 72.9968L170.176 75.1207L171.817 76.8728C171.41 77.939 171.153 79.0567 171.054 80.1937L168.814 81.0529L169.249 83.6256L169.679 86.1983L172.092 86.2756C172.557 87.32 173.164 88.2947 173.897 89.1717L172.932 91.3631L175.056 92.8739L177.18 94.3847L178.932 92.7436C179.998 93.1521 181.116 93.4088 182.253 93.5062L183.112 95.7507L185.685 95.3163L188.258 94.8819L188.335 92.4685C189.381 92.0045 190.356 91.3951 191.232 90.6584L193.423 91.6238L194.934 89.4951L196.464 87.3665L194.813 85.6191ZM179.622 86.4445C178.593 85.7094 177.805 84.6857 177.358 83.5028C176.91 82.3199 176.823 81.0309 177.109 79.7988C177.394 78.5666 178.038 77.4466 178.959 76.5804C179.881 75.7141 181.038 75.1405 182.286 74.932C183.533 74.7236 184.814 74.8896 185.968 75.4092C187.121 75.9288 188.094 76.7785 188.764 77.851C189.434 78.9236 189.771 80.1707 189.733 81.4348C189.694 82.6989 189.282 83.9232 188.548 84.953C187.562 86.3339 186.068 87.2666 184.394 87.5463C182.72 87.826 181.004 87.4297 179.622 86.4445Z" fill="white"/>
<path d="M162.018 100.399C162.277 99.7254 162.44 99.0185 162.501 98.2994L163.92 97.7539L163.65 96.1273L163.374 94.5006L161.854 94.4523C161.561 93.7915 161.176 93.1756 160.71 92.623L161.323 91.228L159.981 90.2626L158.634 89.2972L157.529 90.335C156.855 90.0778 156.148 89.9153 155.429 89.8523L154.884 88.4332L153.257 88.7084L151.63 88.9835L151.582 90.4991C150.922 90.7938 150.306 91.1788 149.752 91.6431L148.367 91.0253L147.401 92.372L146.436 93.7138L147.474 94.8192C147.217 95.495 147.054 96.2033 146.991 96.9237L145.591 97.5029L145.866 99.1296L146.142 100.756L147.657 100.805C147.953 101.464 148.338 102.08 148.801 102.634L148.193 104L149.54 104.965L150.882 105.931L151.987 104.893C152.663 105.152 153.371 105.315 154.092 105.376L154.633 106.795L156.259 106.52L157.891 106.249L157.939 104.729C158.598 104.436 159.213 104.051 159.764 103.585L161.149 104.203L162.115 102.861L163.08 101.514L162.018 100.399ZM152.407 100.92C151.755 100.458 151.254 99.8123 150.968 99.0653C150.683 98.3183 150.625 97.5033 150.802 96.7235C150.98 95.9437 151.384 95.2339 151.965 94.6839C152.546 94.1339 153.276 93.7684 154.065 93.6335C154.853 93.4987 155.664 93.6005 156.394 93.9262C157.124 94.2519 157.742 94.7868 158.169 95.4633C158.595 96.1398 158.811 96.9276 158.79 97.7271C158.769 98.5266 158.512 99.3019 158.05 99.955C157.428 100.829 156.484 101.421 155.426 101.6C154.368 101.779 153.283 101.531 152.407 100.911V100.92Z" fill="url(#paint2_radial_25_939)"/>
<path d="M153.878 116.245L152.494 116.42L158.571 164.455L159.955 164.28L153.878 116.245Z" fill="url(#paint3_linear_25_939)"/>
<path d="M178.065 164.198L179.451 164.358L185.033 116.263L183.648 116.102L178.065 164.198Z" fill="url(#paint4_linear_25_939)"/>
<path d="M179.043 123.665L173.791 118.466L168.679 123.631L163.601 118.606L158.663 123.597L153.16 118.147L153.836 117.467L158.658 122.241L163.596 117.25L168.675 122.274L173.786 117.115L179.034 122.313L183.856 117.443L184.537 118.118L179.043 123.665Z" fill="url(#paint5_linear_25_939)"/>
<path d="M185.362 175.061L150.399 175.23C148.161 175.238 146.011 174.357 144.421 172.782C142.831 171.206 141.931 169.065 141.918 166.826L141.831 148.484L193.689 148.229L193.781 166.571C193.786 167.681 193.572 168.781 193.152 169.809C192.731 170.837 192.112 171.772 191.331 172.56C190.549 173.349 189.619 173.975 188.595 174.404C187.571 174.834 186.473 175.057 185.362 175.061Z" fill="url(#paint6_linear_25_939)"/>
<path d="M130.178 86.5796L128.604 86.5314C129.087 70.9068 136.724 62.1219 143.086 57.5025C147.204 54.4717 151.899 52.3149 156.882 51.1649L157.171 52.7095C152.403 53.8385 147.909 55.9114 143.955 58.8058C135.16 65.2304 130.531 74.5704 130.178 86.5796Z" fill="#39AA35"/>
<path d="M93.82 74.778C93.1507 74.5915 92.5587 74.1957 92.1305 73.6485C91.9076 73.3688 91.7488 73.0436 91.6654 72.6958C91.582 72.3479 91.576 71.9861 91.6478 71.6357C91.7924 70.3327 91.7632 69.0164 91.5609 67.7211C90.6812 66.6601 90.1577 65.3491 90.0648 63.974C89.9718 62.5989 90.314 61.2294 91.0429 60.0596C91.7718 58.8898 92.8505 57.9792 94.1259 57.4566C95.4014 56.9341 96.8089 56.8263 98.1491 57.1484C99.4892 57.4706 100.694 58.2063 101.593 59.2514C102.491 60.2965 103.038 61.5979 103.156 62.9711C103.273 64.3443 102.956 65.7197 102.248 66.9024C101.54 68.085 100.478 69.0149 99.212 69.5601C98.5317 70.6105 97.9943 71.7467 97.6142 72.9389C97.3004 74.3484 95.7171 75.2076 94.0759 74.8697L93.82 74.778ZM98.2803 57.7488C97.0368 57.387 95.7097 57.4357 94.496 57.8874C93.2823 58.3392 92.2464 59.1701 91.5421 60.2569C90.8378 61.3436 90.5024 62.6285 90.5858 63.9208C90.6692 65.2132 91.1669 66.4442 92.005 67.4315L92.0581 67.4894V67.5666C92.2744 68.9399 92.3068 70.3359 92.1547 71.7177C92.1011 71.9945 92.1087 72.2797 92.1771 72.5532C92.2455 72.8267 92.3729 73.082 92.5505 73.301C92.9514 73.8291 93.5287 74.1957 94.1773 74.3339C95.5289 74.6284 96.8322 73.9478 97.0735 72.8231C97.4781 71.5582 98.0513 70.3535 98.7775 69.2416L98.8258 69.1692L98.903 69.1354C100.055 68.6567 101.03 67.8322 101.693 66.7757C102.357 65.7193 102.676 64.4829 102.606 63.2374C102.537 61.9919 102.083 60.7986 101.306 59.8224C100.529 58.8462 99.4687 58.1351 98.2707 57.7874L98.2803 57.7488Z" fill="#39AA35"/>
<path d="M93.0864 72.3404L93.714 65.1628L94.9207 66.6737L96.0358 65.8627L96.6199 66.9681L98.2273 66.0993L95.9296 72.9341L95.4179 72.7652L97.286 67.2191L96.4027 67.697L95.8524 66.6592L94.8242 67.4122L94.1339 66.5482L93.6222 72.3887L93.0864 72.3404Z" fill="#39AA35"/>
<path d="M96.4686 74.698L91.9209 73.7123L91.5231 75.5473L96.0709 76.533L96.4686 74.698Z" fill="#39AA35"/>
<path d="M97.6077 72.9806L91.5928 71.6769L90.9526 74.6299L96.9676 75.9336L97.6077 72.9806Z" fill="#39AA35"/>
<path d="M225.306 121.961L224.785 121.782L229.183 108.981L239.006 106.259L242.39 92.2271L249.954 88.7807L251.532 77.8817L252.083 77.9589L250.461 89.1621L242.863 92.6181L239.469 106.708L229.612 109.44L225.306 121.961Z" fill="#39AA35"/>
<path d="M240.391 105.535C240.579 105.759 240.696 106.033 240.728 106.324C240.759 106.614 240.704 106.907 240.569 107.166C240.434 107.426 240.225 107.639 239.969 107.779C239.713 107.919 239.421 107.981 239.13 107.955C238.839 107.929 238.562 107.818 238.334 107.635C238.106 107.452 237.938 107.205 237.85 106.927C237.763 106.648 237.76 106.35 237.842 106.069C237.924 105.789 238.087 105.539 238.311 105.351C238.611 105.1 238.999 104.978 239.389 105.012C239.779 105.047 240.14 105.235 240.391 105.535Z" fill="white"/>
<path d="M240.392 107.832C240.125 108.056 239.799 108.195 239.453 108.232C239.108 108.27 238.759 108.204 238.451 108.044C238.143 107.883 237.889 107.635 237.722 107.33C237.555 107.026 237.482 106.678 237.513 106.332C237.543 105.986 237.675 105.657 237.893 105.386C238.11 105.115 238.403 104.915 238.735 104.81C239.066 104.706 239.421 104.702 239.755 104.799C240.088 104.896 240.385 105.09 240.609 105.356C240.907 105.714 241.052 106.175 241.011 106.639C240.971 107.103 240.748 107.532 240.392 107.832ZM238.461 105.564C238.279 105.717 238.146 105.92 238.079 106.148C238.013 106.376 238.015 106.619 238.087 106.845C238.158 107.072 238.295 107.273 238.48 107.421C238.665 107.57 238.891 107.661 239.127 107.682C239.364 107.703 239.602 107.653 239.81 107.539C240.019 107.425 240.189 107.251 240.299 107.041C240.409 106.83 240.454 106.592 240.428 106.355C240.403 106.119 240.308 105.896 240.155 105.713C240.054 105.592 239.929 105.492 239.789 105.419C239.649 105.346 239.496 105.301 239.339 105.287C239.182 105.274 239.023 105.291 238.872 105.338C238.722 105.386 238.582 105.462 238.461 105.564Z" fill="#39AA35"/>
<path d="M243.799 91.5562C243.988 91.7805 244.107 92.056 244.139 92.3477C244.172 92.6394 244.117 92.9342 243.982 93.1947C243.846 93.4552 243.637 93.6696 243.38 93.8109C243.122 93.9521 242.829 94.0137 242.536 93.988C242.244 93.9622 241.966 93.8501 241.737 93.6661C241.509 93.482 241.34 93.2342 241.252 92.9541C241.165 92.6739 241.162 92.3741 241.245 92.0926C241.328 91.811 241.493 91.5605 241.719 91.3728C242.019 91.1213 242.407 90.9993 242.797 91.0337C243.187 91.0681 243.547 91.256 243.799 91.5562Z" fill="white"/>
<path d="M243.794 93.8538C243.528 94.077 243.202 94.2162 242.856 94.2538C242.511 94.2914 242.162 94.2258 241.854 94.0653C241.546 93.9047 241.292 93.6564 241.125 93.3518C240.958 93.0471 240.885 92.6997 240.915 92.3536C240.946 92.0075 241.078 91.6782 241.296 91.4072C241.513 91.1363 241.806 90.9359 242.137 90.8315C242.469 90.727 242.824 90.7231 243.157 90.8203C243.491 90.9176 243.788 91.1115 244.012 91.3776C244.31 91.7352 244.455 92.1965 244.414 92.6605C244.373 93.1246 244.151 93.5536 243.794 93.8538ZM241.897 91.5852C241.715 91.7375 241.581 91.9407 241.514 92.1689C241.447 92.3972 241.449 92.6402 241.52 92.8673C241.591 93.0944 241.728 93.2953 241.913 93.4445C242.098 93.5937 242.324 93.6846 242.561 93.7056C242.798 93.7266 243.036 93.6767 243.244 93.5624C243.453 93.4481 243.623 93.2744 243.733 93.0633C243.843 92.8523 243.888 92.6134 243.862 92.3768C243.836 92.1403 243.74 91.9169 243.587 91.7348C243.382 91.4915 243.09 91.3392 242.773 91.3112C242.456 91.2831 242.141 91.3816 241.897 91.5852Z" fill="#39AA35"/>
<path d="M251.252 88.0181C251.439 88.2421 251.556 88.5166 251.587 88.8068C251.618 89.097 251.563 89.3899 251.428 89.6486C251.292 89.9073 251.084 90.1201 250.828 90.2602C250.572 90.4003 250.28 90.4615 249.989 90.4359C249.698 90.4103 249.422 90.2992 249.194 90.1165C248.966 89.9339 248.798 89.6878 248.71 89.4095C248.622 89.1312 248.619 88.8331 248.7 88.5528C248.781 88.2725 248.944 88.0226 249.167 87.8347C249.468 87.5829 249.857 87.4608 250.248 87.4952C250.639 87.5296 251 87.7176 251.252 88.0181Z" fill="white"/>
<path d="M251.243 90.3157C250.976 90.5383 250.649 90.6768 250.304 90.7137C249.958 90.7507 249.61 90.6844 249.302 90.5232C248.994 90.362 248.741 90.1132 248.575 89.8082C248.408 89.5033 248.336 89.1558 248.367 88.8098C248.398 88.4638 248.531 88.1347 248.749 87.8642C248.967 87.5937 249.26 87.3939 249.592 87.29C249.923 87.1862 250.278 87.183 250.612 87.2808C250.945 87.3786 251.242 87.573 251.465 87.8395C251.613 88.0163 251.726 88.2209 251.795 88.4413C251.865 88.6617 251.89 88.8936 251.869 89.1238C251.848 89.3539 251.782 89.5777 251.675 89.7823C251.567 89.9869 251.421 90.1681 251.243 90.3157ZM249.346 88.0471C249.164 88.1998 249.031 88.4031 248.964 88.6312C248.898 88.8593 248.9 89.1021 248.972 89.3287C249.043 89.5554 249.18 89.7559 249.365 89.9047C249.55 90.0536 249.776 90.1442 250.012 90.1651C250.249 90.186 250.487 90.1363 250.695 90.0222C250.904 89.9081 251.074 89.7348 251.184 89.5241C251.294 89.3134 251.339 89.0749 251.313 88.8386C251.287 88.6023 251.192 88.379 251.04 88.1967C250.939 88.0755 250.814 87.9755 250.674 87.9024C250.534 87.8293 250.381 87.7846 250.224 87.7707C250.066 87.7568 249.908 87.774 249.757 87.8215C249.607 87.8689 249.467 87.9455 249.346 88.0471Z" fill="#39AA35"/>
<path d="M230.587 108.383C230.776 108.607 230.894 108.883 230.926 109.174C230.958 109.466 230.903 109.76 230.767 110.02C230.632 110.28 230.422 110.494 230.165 110.635C229.908 110.776 229.615 110.838 229.323 110.812C229.031 110.786 228.753 110.675 228.524 110.491C228.296 110.307 228.127 110.06 228.039 109.78C227.951 109.5 227.948 109.201 228.03 108.919C228.113 108.638 228.277 108.387 228.502 108.199C228.803 107.948 229.192 107.825 229.582 107.86C229.973 107.894 230.335 108.082 230.587 108.383Z" fill="white"/>
<path d="M230.582 110.68C230.316 110.904 229.99 111.044 229.644 111.082C229.298 111.12 228.949 111.055 228.641 110.894C228.332 110.734 228.078 110.486 227.911 110.181C227.744 109.876 227.671 109.528 227.701 109.182C227.732 108.835 227.864 108.506 228.082 108.235C228.3 107.964 228.593 107.764 228.925 107.659C229.257 107.555 229.612 107.552 229.946 107.65C230.279 107.747 230.577 107.942 230.8 108.209C231.098 108.566 231.242 109.026 231.202 109.489C231.161 109.953 230.938 110.381 230.582 110.68ZM228.68 108.412C228.498 108.564 228.366 108.768 228.299 108.996C228.233 109.224 228.235 109.467 228.306 109.693C228.378 109.92 228.515 110.12 228.7 110.269C228.885 110.418 229.11 110.509 229.347 110.53C229.584 110.551 229.822 110.501 230.03 110.387C230.238 110.273 230.408 110.099 230.518 109.889C230.628 109.678 230.673 109.439 230.648 109.203C230.622 108.967 230.527 108.744 230.375 108.561C230.169 108.318 229.876 108.165 229.559 108.137C229.241 108.109 228.925 108.208 228.68 108.412Z" fill="#39AA35"/>
<path opacity="0.72" d="M120.736 210.027C120.736 211.572 99.0141 212.827 72.2138 212.827C45.4136 212.827 23.6963 211.572 23.6963 210.027C23.6963 208.482 45.4184 207.232 72.2138 207.232C99.0092 207.232 120.736 208.482 120.736 210.027Z" fill="url(#paint7_linear_25_939)"/>
<path d="M62.4245 151.598C62.4245 151.598 62.7479 157.39 61.6859 158.235C61.2032 158.626 60.035 158.746 58.7896 158.751C58.3793 158.751 57.9545 158.751 57.5442 158.717C55.8982 158.635 54.4211 158.428 54.4211 158.428C54.4211 158.428 50.1636 158.64 50.3711 156.014C50.6431 155.585 51.0386 155.249 51.5055 155.049C52.0896 154.88 54.7735 155.343 55.2417 155.363C55.7099 155.382 59.3882 156.198 59.5475 156.14C59.7068 156.082 60.1219 154.653 60.1461 153.697C60.1847 152.317 60.175 151.047 60.175 151.047L62.4245 151.598Z" fill="#323657"/>
<path d="M39.8434 206.59C39.6722 207.015 39.4519 207.419 39.1869 207.792C38.8828 208.135 37.7388 208.758 37.7388 209.762C37.7388 210.862 39.6696 210.558 40.4468 210.515C41.224 210.471 41.2722 209.887 41.5908 209.264C41.9094 208.642 42.2377 208.748 42.3004 208.246C42.2874 207.694 42.2047 207.146 42.0542 206.614L39.8434 206.59Z" fill="#252840"/>
<path d="M55.1404 206.764C55.7342 207.382 56.4699 207.846 57.2837 208.116C58.365 208.347 59.1228 208.647 59.1277 209.289C59.1325 209.93 56.019 210.35 54.7832 209.708C52.9393 208.743 52.751 209.033 52.5483 208.55C52.3455 208.067 52.7945 206.779 52.78 206.619C52.7655 206.46 55.1404 206.764 55.1404 206.764Z" fill="#252840"/>
<path d="M55.0291 174.492C55.0291 174.492 56.1442 182.61 56.6028 185.357C57.1386 188.567 57.3172 191.217 57.4668 192.877C57.6551 194.967 55.6952 206.209 55.8256 206.817C55.9559 207.425 52.2969 206.566 52.2969 206.566C52.2969 206.566 53.4458 193.191 52.8907 190.966C52.3694 188.895 50.4771 179.787 50.0234 180.347C49.5696 180.906 46.572 190.908 46.2244 192.544C45.8769 194.18 42.4786 206.972 42.4786 206.972C42.4786 206.972 39.9491 207.517 39.3071 207.005C39.3071 207.005 41.5131 195.252 41.7207 192.187C41.8076 191.024 42.4979 178.271 44.4722 173.106C45.5245 170.389 55.0291 174.492 55.0291 174.492Z" fill="#292C47"/>
<path d="M25.8153 152.047L26.018 148.996C26.0278 148.847 26.067 148.701 26.1333 148.567C26.1995 148.433 26.2916 148.314 26.4042 148.216C26.5168 148.118 26.6476 148.042 26.7893 147.995C26.931 147.947 27.0806 147.928 27.2297 147.939L33.7752 148.378C33.9243 148.388 34.07 148.427 34.2039 148.493C34.3378 148.56 34.4573 148.652 34.5556 148.764C34.6538 148.877 34.7288 149.008 34.7763 149.149C34.8238 149.291 34.8429 149.441 34.8324 149.59L34.6296 152.64C34.6086 152.941 34.4693 153.221 34.2422 153.419C34.0151 153.617 33.7188 153.717 33.418 153.697L26.8724 153.258C26.7234 153.248 26.5777 153.209 26.4438 153.143C26.3098 153.077 26.1903 152.985 26.0921 152.872C25.9939 152.759 25.9189 152.629 25.8714 152.487C25.8239 152.345 25.8048 152.196 25.8153 152.047Z" fill="#C4B4AF"/>
<path d="M73.0723 156.53L73.4561 150.828L30.6686 147.949L30.2848 153.651L73.0723 156.53Z" fill="#EB4747"/>
<path d="M30.6729 147.962L30.5449 149.865L73.3324 152.744L73.4604 150.842L30.6729 147.962Z" fill="#6880EB"/>
<path d="M73.2029 154.632L73.3306 152.729L30.5426 149.858L30.4149 151.76L73.2029 154.632Z" fill="#4A64E0"/>
<path d="M73.078 156.538L73.2061 154.635L30.4186 151.756L30.2906 153.658L73.078 156.538Z" fill="#4860CF"/>
<path d="M73.0732 156.531L73.4594 150.83L79.6526 153.524L81.2456 154.219L79.5754 154.692L73.0732 156.531Z" fill="#EDDAD3"/>
<path d="M73.3289 152.732C73.1053 152.68 72.9075 152.55 72.771 152.366C72.6345 152.182 72.5681 151.954 72.5838 151.726C72.5995 151.497 72.6962 151.281 72.8566 151.117C73.017 150.953 73.2307 150.851 73.4592 150.83L73.3289 152.732Z" fill="#DECCC6"/>
<path d="M73.2033 154.629C72.983 154.575 72.7889 154.445 72.655 154.262C72.5211 154.079 72.4559 153.854 72.4709 153.628C72.4858 153.402 72.58 153.188 72.7369 153.024C72.8938 152.86 73.1033 152.757 73.3288 152.732L73.2033 154.629Z" fill="#E3D1CA"/>
<path d="M73.073 156.531C72.8495 156.479 72.6517 156.349 72.5152 156.165C72.3786 155.98 72.3123 155.753 72.3279 155.524C72.3436 155.295 72.4404 155.08 72.6008 154.915C72.7612 154.751 72.9748 154.65 73.2033 154.629L73.073 156.531Z" fill="#EDDAD3"/>
<path d="M29.2044 147.867L29.0767 149.77L31.7064 149.946L31.8341 148.044L29.2044 147.867Z" fill="#B39696"/>
<path d="M31.5769 151.832L31.7046 149.93L29.0749 149.753L28.9472 151.656L31.5769 151.832Z" fill="#DBB8B8"/>
<path d="M31.4451 153.732L31.5728 151.83L28.943 151.654L28.8154 153.556L31.4451 153.732Z" fill="#F2CBCB"/>
<path d="M73.3291 152.732L81.2456 154.219L73.4594 150.83L73.3291 152.732Z" fill="#DECCC6"/>
<path d="M73.2036 154.634L81.2456 154.219L73.3291 152.732L73.2036 154.634Z" fill="#E3D1CA"/>
<path d="M73.2036 154.634L81.2456 154.219L73.0732 156.531L73.2036 154.634Z" fill="#EDDAD3"/>
<path d="M79.5752 154.692L79.6524 153.524L81.2454 154.219L79.5752 154.692Z" fill="#323438"/>
<path d="M60.6094 149.691C60.6094 149.691 60.3874 150.656 60.6094 150.951C60.8315 151.245 60.9232 150.874 60.9232 150.874C60.9232 150.874 60.817 151.216 61.0873 151.332C61.3576 151.448 61.4494 151.033 61.4494 151.033C61.4494 151.112 61.4809 151.188 61.537 151.245C61.5931 151.301 61.6693 151.332 61.7486 151.332C62.0527 151.332 62.0479 150.98 62.0479 150.98C62.0479 150.98 62.2603 151.39 62.5065 151.105C62.6312 150.934 62.7181 150.739 62.7614 150.531C62.8047 150.324 62.8034 150.11 62.7575 149.903C62.7575 149.903 62.7044 149.735 62.4099 149.739C62.3946 149.68 62.3659 149.625 62.3261 149.578C62.2862 149.531 62.2363 149.494 62.1801 149.469C62.1238 149.445 62.0627 149.433 62.0014 149.436C61.94 149.438 61.88 149.455 61.8259 149.484C61.8259 149.484 61.4494 149.141 61.2177 149.484C61.1713 149.434 61.1116 149.399 61.0457 149.382C60.9799 149.366 60.9107 149.369 60.8464 149.391C60.7822 149.413 60.7257 149.453 60.6836 149.506C60.6416 149.559 60.6158 149.623 60.6094 149.691Z" fill="#EFAA88"/>
<path d="M40.3067 174.356C40.9428 174.564 41.6072 174.671 42.2762 174.675C42.8603 174.564 42.5658 167.435 42.59 165.953C42.7277 164.48 42.9533 163.016 43.2658 161.57C43.3333 161.807 44.2312 165.103 44.2312 166.691C44.2312 168.279 44.0188 174.622 44.0188 174.622L46.471 174.863L53.5089 175.037L54.9571 174.863C54.9571 174.863 54.7833 172.17 54.7157 170.896C54.6771 170.08 54.5178 168.627 54.5613 167.213C54.5418 166.499 54.5822 165.786 54.6819 165.079C54.6819 162.241 54.8702 159.432 54.8702 159.432C54.9667 158.143 55.0343 156.941 55.0681 155.816C54.7592 155.652 54.3875 155.464 54.1027 155.334C53.1759 154.894 51.8919 154.301 51.0664 153.924C50.5837 153.702 50.101 153.538 50.101 153.538C50.101 153.538 46.7992 153.224 46.5337 153.239C46.1787 153.335 45.8303 153.454 45.4911 153.596C44.2009 154.062 42.9375 154.598 41.7066 155.203C41.1756 155.58 40.0654 164.548 40.0123 165.176C39.9495 166.305 40.3067 174.356 40.3067 174.356Z" fill="#CAC7D1"/>
<path d="M54.7832 173.768C51.7675 174.001 48.7383 174.001 45.7227 173.768V175.158C45.7227 175.158 52.0752 176.075 54.9956 174.892L54.7832 173.768Z" fill="#1D2033"/>
<path d="M50.6851 153.741C50.6851 153.741 51.4671 155.585 52.0608 159.717C52.2877 161.3 52.7076 163.969 53.0262 166.691C53.2676 168.839 53.813 171.036 53.9916 172.686C54.1702 174.337 54.7157 179.405 54.7157 179.405L55.9949 178.594C56.1832 178.421 56.4487 178.194 56.3714 177.948C55.7172 175.169 55.2336 172.353 54.9233 169.515L54.8654 169.032V169.008C54.7881 168.332 54.7205 167.681 54.6771 167.078C54.6453 166.633 54.6647 166.186 54.735 165.745C54.9185 162.709 55.0102 159.509 55.0102 159.509C55.1067 158.201 55.3481 156.507 55.3867 155.367C54.9899 155.321 54.5975 155.242 54.2137 155.131C54.2137 155.131 51.5926 154.132 50.6851 153.741Z" fill="#323657"/>
<path d="M48.9711 145.024C48.9711 145.024 51.4233 145.439 51.0081 149.276C50.593 153.113 48.4256 152.775 48.2808 152.771C48.136 152.766 46.1038 152.814 45.9976 148.122C45.9976 148.122 45.9686 144.652 48.9711 145.024Z" fill="#EEA987"/>
<path d="M50.0478 151.656C50.0478 151.656 50.0478 153.239 50.1106 153.586C50.1733 153.934 48.1411 155.034 46.8281 153.779C46.9561 153.007 47.0175 152.226 47.0116 151.443C46.9295 150.825 50.0478 151.656 50.0478 151.656Z" fill="#EEA987"/>
<path d="M51.0178 148.383C51.0178 148.383 51.2881 148.098 51.3847 148.383C51.4812 148.668 51.0419 149.908 50.984 150.029C50.984 150.029 50.9309 150.14 50.8682 150.077C50.8843 149.51 50.9343 148.944 51.0178 148.383Z" fill="#EEA987"/>
<path d="M46.0267 148.089C46.0267 148.089 45.766 147.789 45.6598 148.089C45.5536 148.388 45.9446 149.667 45.9929 149.749C45.9929 149.749 46.0798 149.879 46.1425 149.821C46.1401 149.242 46.1014 148.663 46.0267 148.089Z" fill="#EEA987"/>
<path d="M51.2161 147.862C51.1292 148.388 51.052 148.779 51.052 148.779L50.6948 149.261C50.7081 148.864 50.6968 148.466 50.661 148.069C50.661 148.007 50.6176 147.9 50.5886 147.78C50.5596 147.617 50.5226 147.456 50.4776 147.297C50.4341 147.181 48.3778 146.583 46.5483 147.422C46.5483 147.422 46.5483 147.582 46.5483 147.76C46.5483 147.939 46.5483 148.195 46.4276 148.243C46.2538 148.311 46.3262 149.45 46.3262 149.45L46.0414 149.122C46.0414 149.122 45.9594 148.523 45.8773 147.838C45.8773 147.678 45.8387 147.514 45.8242 147.355C45.7808 146.669 45.8483 145.424 46.7462 144.681C47.3544 144.42 48.3198 144.198 49.9321 144.681C49.9321 144.681 50.3038 144.705 50.4148 144.806C51.4237 145.878 51.2161 147.862 51.2161 147.862Z" fill="#D88A51"/>
<path d="M47.1802 152.254C47.3406 152.437 47.5415 152.58 47.767 152.671C47.9925 152.763 48.2362 152.8 48.4787 152.78C48.7172 152.791 48.9554 152.754 49.1792 152.671C49.4031 152.588 49.608 152.461 49.782 152.298C49.6815 152.563 49.5018 152.791 49.2673 152.951C49.0328 153.111 48.7548 153.195 48.471 153.192C48.1871 153.189 47.9111 153.099 47.6802 152.934C47.4493 152.768 47.2748 152.536 47.1802 152.269V152.254Z" fill="#C78D71"/>
<path d="M50.2023 154.779L49.2852 155.454C49.2852 155.454 50.0527 153.828 50.0672 153.176L50.2023 154.779Z" fill="#A09EA6"/>
<path d="M50.0718 153.176L50.6993 153.755L51.351 155.705L50.2069 154.779L50.0718 153.176Z" fill="#EAE6F2"/>
<path d="M49.9559 153.755C49.784 154.34 49.5611 154.909 49.2897 155.454C49.2897 155.454 48.3243 154.614 48.0298 154.315C47.7354 154.016 49.9559 153.755 49.9559 153.755Z" fill="#EEA987"/>
<path d="M48.2712 154.518L49.2752 155.454C49.2752 155.454 48.0878 155.377 47.8657 155.179L48.2712 154.518Z" fill="#A09EA6"/>
<path d="M46.9537 152.785C47.3303 153.412 47.7773 153.993 48.286 154.518L47.3978 155.995L45.9497 153.403L46.9537 152.785Z" fill="#EAE6F2"/>
<path d="M42.6911 166.045C42.5849 167.42 43.1738 175.037 42.5897 175.148C42.0056 175.259 39.872 174.786 39.872 174.786C39.872 174.786 39.6017 166.58 39.6886 165.707C39.7514 165.079 40.7506 155.676 41.2767 155.295C41.5808 155.078 43.8351 154.277 44.9405 153.847C45.1433 153.765 45.7853 153.499 45.9687 153.432C46.2004 153.693 48.2471 158.49 48.4402 162.231C48.4039 164.075 48.2669 165.915 48.0299 167.744C47.8127 169.838 47.5472 171.475 47.3975 173.232C47.05 176.664 46.8231 179.405 46.8231 179.405L43.3862 177.875C42.8262 177.595 42.0587 176.451 42.2663 175.867C43.0628 173.642 44.062 169.838 44.062 167.884C44.062 167.884 43.6806 163.1 43.3765 162.048C43.0571 163.363 42.8281 164.698 42.6911 166.045Z" fill="#323657"/>
<path d="M39.8625 178.672C39.8043 178.533 39.7684 178.387 39.7563 178.237C39.7563 178.237 39.795 177.972 39.8094 177.755C39.814 177.705 39.814 177.655 39.8094 177.605C39.7662 177.335 39.7662 177.059 39.8094 176.789C39.8867 176.437 40.2922 175.211 40.2922 175.211L41.3976 175.375L42.363 175.245C42.6493 176.031 42.8753 176.838 43.0388 177.658V177.755C42.9713 177.968 42.8806 178.174 42.7685 178.368C42.7685 178.421 42.5368 178.942 42.3775 178.99C42.2908 179.024 42.1971 179.034 42.1051 179.022C42.0131 179.009 41.9258 178.973 41.8513 178.918C41.6164 178.986 41.367 178.986 41.1321 178.918C41.0121 178.951 40.8862 178.955 40.764 178.932C40.6419 178.908 40.5267 178.857 40.4273 178.783C40.4273 178.783 40.0122 178.879 39.8625 178.672Z" fill="#EFAA88"/>
<path d="M42.7779 169.872L42.7441 175.925C41.752 175.841 40.7769 175.617 39.8478 175.259L39.7319 166.716L42.7779 169.872Z" fill="#323657"/>
<path d="M51.3463 173.835H49.0679V175.529H51.3463V173.835Z" fill="#3A4066"/>
<path d="M261.409 209.004C261.659 209.48 261.948 209.935 262.273 210.365C262.611 210.751 263.919 211.441 263.928 212.59C263.928 213.835 261.722 213.493 260.858 213.444C259.994 213.396 259.927 212.735 259.565 212.03C259.203 211.325 258.831 211.441 258.763 210.877C258.792 210.239 258.91 209.608 259.116 209.004H261.409Z" fill="#202338"/>
<path d="M248.24 208.883C248.24 208.883 247.178 210.075 246.092 210.331C245.006 210.587 244.253 210.901 244.248 211.581C244.243 212.262 247.362 212.716 248.592 212.025C250.441 211.002 250.63 211.311 250.832 210.794C251.035 210.278 250.591 208.912 250.601 208.748C250.61 208.584 248.24 208.883 248.24 208.883Z" fill="#202338"/>
<path d="M248.361 208.314C248.31 208.501 248.27 208.691 248.24 208.883C248.24 208.883 250.654 209.182 250.606 208.738C250.548 208.376 250.461 207.98 250.461 207.98L248.361 208.314Z" fill="#81807E"/>
<path d="M259.145 208.622C259.106 208.802 259.08 208.984 259.067 209.168C259.067 209.168 261.515 209.612 261.481 209.168C261.452 208.902 261.375 208.644 261.254 208.405L259.145 208.622Z" fill="#81807E"/>
<path d="M250.557 174.95C250.557 174.95 249.679 183.484 249.225 186.409C248.689 189.822 248.506 192.645 248.356 194.417C248.173 196.642 248.134 207.585 248.004 208.231C247.873 208.878 250.9 208.41 250.9 208.41C250.9 208.41 252.396 194.118 252.956 191.748C253.478 189.542 255.404 180.042 255.881 180.646C256.359 181.249 256.943 191.748 257.296 193.466C257.648 195.184 258.734 208.83 258.734 208.83C258.734 208.83 261.148 209.313 261.8 208.762C261.8 208.762 262.094 197.028 261.872 193.765C261.785 192.525 263.32 178.86 261.351 173.362C260.298 170.456 250.557 174.95 250.557 174.95Z" fill="#292C47"/>
<path d="M258.45 173.058C258.45 173.058 257.865 172.17 257.243 172.054C256.62 171.938 265.796 167.507 265.772 165.919C265.772 164.635 262.471 162.502 262.471 162.502C262.403 162.757 261.452 166.281 261.418 167.97C261.384 169.66 261.524 175.771 261.524 175.771L259.174 176.398L251.658 176.471L249.944 175.771C249.944 175.771 250.132 173.84 250.2 172.464C250.243 171.595 250.412 170.051 250.369 168.53C250.389 167.767 250.345 167.003 250.239 166.247C250.239 163.221 250.036 160.218 250.036 160.218C249.935 158.843 249.867 157.559 249.823 156.357C250.157 156.178 250.552 155.976 250.876 155.821C251.841 155.339 253.236 154.721 254.12 154.315C254.636 154.079 255.143 153.905 255.143 153.905C255.143 153.905 258.667 153.567 258.956 153.586C259.333 153.688 259.702 153.814 260.062 153.963C261.441 154.464 262.793 155.038 264.112 155.681C264.672 156.087 268.36 165.818 268.413 166.508C268.505 167.734 258.45 173.058 258.45 173.058Z" fill="#DBD8E3"/>
<path d="M250.166 175.143C253.38 175.392 256.607 175.392 259.821 175.143V176.625C259.821 176.625 253.092 177.267 249.915 176.34L250.166 175.143Z" fill="#1D2033"/>
<path d="M249.737 156.352C249.78 157.573 249.838 158.877 249.939 160.276C249.939 160.276 250.036 163.694 250.234 166.938C250.308 167.408 250.329 167.886 250.297 168.361C250.248 168.994 250.181 169.689 250.099 170.408C250.099 170.408 250.099 170.408 250.099 170.437C250.099 170.611 250.06 170.78 250.036 170.954C249.693 173.984 249.169 176.992 248.467 179.96C248.385 180.221 248.67 180.443 248.868 180.651L250.282 181.539C250.282 181.539 250.861 176.186 251.054 174.366C251.248 172.546 251.832 170.258 252.087 167.966C252.411 165.07 252.86 162.207 253.101 160.518C253.734 156.106 254.549 154.137 254.549 154.137C254.168 154.257 249.737 156.352 249.737 156.352Z" fill="#323657"/>
<path d="M264.72 165.475C265.333 166.817 259.101 169.206 259.246 169.539C259.735 170.398 260.307 171.206 260.955 171.953C260.955 171.953 269.161 167.893 269.064 166.971C268.997 166.305 265.154 156.178 264.594 155.778C264.266 155.541 261.857 154.687 260.68 154.224L259.531 153.789C259.28 154.069 257.552 155.976 256.943 163.177C256.837 164.394 257.161 166.966 257.378 169.066C257.61 171.306 257.861 173.053 258.054 174.926C258.425 178.614 258.686 181.548 258.686 181.548L262.355 179.917C262.953 179.618 263.977 178.841 263.755 178.218C262.905 175.838 261.631 171.335 261.631 169.245C261.631 169.245 262.234 163.491 262.557 162.366C263.41 163.304 264.137 164.349 264.72 165.475Z" fill="#323657"/>
<path d="M258.623 153.977C258.693 152.747 258.854 151.524 259.106 150.319C259.232 149.662 255.298 152.047 255.298 152.047C255.298 152.047 255.298 152.273 255.298 152.582C255.298 152.746 255.298 152.935 255.298 153.123C255.298 153.186 255.298 153.253 255.298 153.316C255.296 153.477 255.286 153.638 255.269 153.799C255.247 153.965 255.203 154.127 255.138 154.281C255.013 154.643 257.286 154.943 258.623 153.977Z" fill="#EEA987"/>
<path d="M256.171 155.247L255.52 156.125C255.647 156.277 255.826 156.374 256.022 156.398C256.219 156.422 256.417 156.371 256.577 156.256L256.171 155.247Z" fill="#E8734D"/>
<path d="M255.693 156.159C255.693 156.159 253.222 165.673 253.729 173.082L254.564 174.53L255.341 172.995C255.341 172.995 255.553 159.75 256.229 156.101L255.693 156.159Z" fill="#E8734D"/>
<path d="M255.471 154.431L256.171 155.247C256.171 155.247 257.291 155.03 257.619 154.446C257.948 153.862 255.471 154.431 255.471 154.431Z" fill="#EEA987"/>
<path d="M255.312 153.717C255.458 154.293 255.755 154.821 256.171 155.247L255.321 156.391L254.873 154.026L255.312 153.717Z" fill="#C4C1CC"/>
<path d="M258.701 153.012C258.701 153.012 257.301 154.788 256.171 155.232L256.697 156.536L259.111 153.639L258.701 153.012Z" fill="#C4C1CC"/>
<path d="M235.371 166.189C235.371 166.189 232.784 166.489 232.639 166.672C232.494 166.855 232.528 166.976 232.769 166.957C233.011 166.938 235.284 166.74 235.284 166.74C235.284 166.74 232.315 167.618 232.166 167.705C232.016 167.792 232.127 168.043 232.262 168.043C232.397 168.043 235.395 167.348 235.395 167.348C235.395 167.348 232.629 168.173 232.528 168.313C232.51 168.349 232.503 168.39 232.507 168.43C232.511 168.47 232.526 168.509 232.55 168.541C232.575 168.573 232.608 168.598 232.646 168.612C232.684 168.626 232.725 168.63 232.764 168.622C232.977 168.579 235.603 167.961 235.603 167.961C235.603 167.961 233.633 168.69 233.619 168.854C233.604 169.018 233.619 169.192 234.145 168.984C234.671 168.777 235.887 168.429 235.887 168.429L235.371 166.189Z" fill="#EEA886"/>
<path d="M238.432 166.31C238.432 166.31 237.572 166.353 237.307 165.919C237.052 165.589 236.734 165.313 236.37 165.108C236.144 164.968 235.593 164.297 235.434 164.568C235.275 164.838 236.288 165.716 236.467 165.938C236.646 166.16 235.405 166.083 235.178 166.247C234.951 166.411 235.077 168.463 235.926 168.424C236.776 168.386 237.625 167.773 237.775 167.792C237.982 167.805 238.19 167.805 238.398 167.792L238.432 166.31Z" fill="#EEA886"/>
<path d="M238.074 168.342C238.074 168.342 244.427 167.454 245.836 167.106C246.488 166.947 247.342 166.049 248.158 164.987C248.429 164.64 248.694 164.278 248.945 163.916C249.944 162.468 250.731 161.087 250.731 161.087C250.731 161.087 253.685 157.622 251.315 156.077C250.775 156.062 250.238 156.157 249.737 156.357C249.162 156.671 247.941 159.224 247.733 159.673C247.526 160.122 245.276 164.326 245.127 164.423C244.977 164.519 242.713 165.002 241.748 165.214L237.577 166.078L238.074 168.342Z" fill="#323657"/>
<path d="M253.97 177.055H256.384V175.225H253.97V177.055Z" fill="#3A4066"/>
<path d="M258.005 173.164C258.151 173.162 258.294 173.134 258.43 173.082L258.821 172.846L258.952 172.783C259.21 172.707 259.455 172.589 259.676 172.435C259.96 172.223 260.878 171.359 260.878 171.359L260.284 170.447L260.009 169.539C259.196 169.606 258.389 169.733 257.595 169.921L257.513 169.974C257.352 170.119 257.206 170.281 257.079 170.456C257.035 170.495 256.664 170.891 256.683 171.055C256.688 171.146 256.716 171.234 256.765 171.311C256.814 171.388 256.882 171.451 256.963 171.494C257.003 171.73 257.109 171.951 257.267 172.131C257.287 172.251 257.334 172.364 257.404 172.463C257.475 172.561 257.566 172.643 257.672 172.701C257.672 172.701 257.769 173.116 258.005 173.164Z" fill="#EFAA88"/>
<path d="M260.955 171.953C260.185 171.28 259.56 170.459 259.116 169.539L262.78 167.531L264.141 170.302L260.955 171.953Z" fill="#323657"/>
<path d="M253.236 146.018C253.236 146.018 252.372 147.62 252.802 147.867C253.154 148.074 252.387 149.648 252.285 149.904C252.184 150.159 252.927 150.348 253.087 150.512C253.246 150.676 253.709 152.708 254.318 152.771C254.926 152.833 257.697 151.873 258.43 151.096C259.164 150.319 259.792 146.8 259.294 145.303C258.797 143.807 254.762 143.223 253.236 146.018Z" fill="#EEA886"/>
<path d="M253.067 146.365C252.823 145.857 252.762 145.28 252.893 144.732C253.024 144.183 253.339 143.697 253.787 143.353C255.384 142.069 258.339 144.319 258.672 144.406C259.005 144.493 260.892 144.623 259.941 147.939C259.121 150.787 259.005 150.907 259.005 150.907C259.005 150.907 258.396 149.257 258.039 149.006C257.499 148.61 256.316 148.706 256.316 148.706C256.316 148.706 256.881 147.205 255.997 146.993C255.114 146.78 253.96 146.032 253.067 146.365Z" fill="#16202E"/>
<path d="M257.286 147.847C257.363 147.644 257.619 146.756 258.377 147.278C259.135 147.799 257.894 149.464 257.774 149.484C257.653 149.503 256.61 149.58 257.286 147.847Z" fill="#EEA886"/>
<path d="M255.355 153.123C255.355 153.186 255.355 153.253 255.355 153.316C257.605 152.563 258.039 151.424 258.039 151.424C257.182 151.896 256.282 152.284 255.351 152.582C255.355 152.747 255.355 152.935 255.355 153.123Z" fill="#A77860"/>
<path d="M214.556 159.808H121.021V189.064H214.556V159.808Z" fill="url(#paint8_linear_25_939)"/>
<path d="M214.557 189.064V159.808H180.516L162.221 188.736L214.557 189.064Z" fill="url(#paint9_linear_25_939)"/>
<path d="M121.306 152.38H120.167V204.095H121.306V152.38Z" fill="#706865"/>
<path d="M92.2946 130.779H122.903C123.352 130.779 123.795 130.868 124.209 131.039C124.624 131.211 125 131.462 125.317 131.779C125.634 132.096 125.885 132.472 126.056 132.886C126.228 133.3 126.316 133.744 126.316 134.192V192.148C126.316 192.597 126.228 193.041 126.056 193.456C125.884 193.871 125.633 194.247 125.315 194.565C124.998 194.882 124.621 195.134 124.206 195.306C123.792 195.477 123.347 195.566 122.899 195.566H92.2946C91.3882 195.566 90.5189 195.206 89.8779 194.565C89.237 193.924 88.877 193.055 88.877 192.148V134.187C88.8795 133.282 89.2407 132.416 89.8814 131.777C90.522 131.138 91.3898 130.779 92.2946 130.779Z" fill="#BDAFAA"/>
<path d="M121.914 131.822H93.2794C91.4159 131.822 89.9053 133.333 89.9053 135.196V189.658C89.9053 191.521 91.4159 193.032 93.2794 193.032H121.914C123.778 193.032 125.288 191.521 125.288 189.658V135.196C125.288 133.333 123.778 131.822 121.914 131.822Z" fill="white"/>
<path d="M113.177 130.287H102.021V132.807H113.177V130.287Z" fill="#706865"/>
<path d="M98.1597 159.398C98.1597 159.398 98.1822 159.409 98.1597 159.398V159.398Z" fill="#323657"/>
<path d="M106.859 154.46C106.554 154.46 106.245 154.46 105.941 154.417C105.607 154.384 105.276 154.334 104.947 154.267C103.526 153.976 102.189 153.367 101.037 152.486C100.697 152.224 100.375 151.94 100.072 151.636L99.8978 151.453C99.6827 151.229 99.4812 150.992 99.2944 150.743C97.9926 149.075 97.2888 147.019 97.296 144.903C97.2985 142.368 98.3068 139.937 100.1 138.144C101.892 136.352 104.323 135.343 106.859 135.341V135.77C105.15 135.767 103.475 136.242 102.023 137.143C100.572 138.044 99.4022 139.335 98.6479 140.868C97.8935 142.4 97.5844 144.114 97.7559 145.814C97.9274 147.514 98.5725 149.131 99.6178 150.483C99.799 150.719 99.9923 150.947 100.197 151.163L100.361 151.332C101.633 152.61 103.253 153.485 105.019 153.847C105.338 153.913 105.661 153.962 105.985 153.992C106.279 154.016 106.574 154.03 106.863 154.03H107.163C107.438 154.03 107.718 154.001 107.983 153.968C109.479 153.783 110.905 153.231 112.135 152.36L112.516 152.08L112.834 151.815C113.2 151.497 113.541 151.152 113.853 150.782C115.234 149.135 115.992 147.056 115.996 144.908C115.996 144.458 115.963 144.01 115.895 143.566L116.32 143.503C116.387 143.968 116.421 144.438 116.421 144.908C116.426 147.166 115.631 149.353 114.176 151.081C113.851 151.47 113.494 151.831 113.11 152.162C112.994 152.259 112.883 152.356 112.772 152.438C112.661 152.52 112.516 152.64 112.381 152.732C111.095 153.645 109.602 154.224 108.036 154.417C107.756 154.45 107.467 154.475 107.177 154.484L106.859 154.46Z" fill="#B5DEFF"/>
<path d="M103.445 160.923C103.445 160.923 103.468 160.935 103.445 160.923V160.923Z" fill="#323657"/>
<path d="M85.1556 175.051C85.2977 175.286 85.3959 175.544 85.4452 175.814C85.5196 176.13 85.6382 176.434 85.7976 176.717C85.9835 177.206 86.1272 177.709 86.2272 178.223C86.1349 178.552 86.0671 178.888 86.0245 179.227C86.0583 179.444 86.1838 179.878 85.9859 179.902C85.7879 179.927 85.5707 179.579 85.5707 179.579C85.5757 179.635 85.5643 179.692 85.5377 179.741C85.5111 179.791 85.4706 179.832 85.4211 179.859C85.3477 179.901 85.2645 179.924 85.1797 179.924C85.095 179.924 85.0118 179.901 84.9384 179.859C84.9384 179.859 84.8225 180.081 84.6729 180.11C84.5353 180.052 84.3861 180.026 84.237 180.036C84.0879 180.045 83.943 180.088 83.8136 180.163C83.728 180.161 83.6444 180.136 83.5714 180.092C83.4984 180.047 83.4388 179.983 83.3985 179.907C83.3985 179.907 83.0317 179.98 82.9158 179.811C82.8454 179.648 82.8014 179.476 82.7855 179.299C82.75 178.418 82.9151 177.54 83.2682 176.731C83.4012 176.411 83.4595 176.064 83.4386 175.718C83.4177 175.372 83.3181 175.035 83.1475 174.733L85.1556 175.051Z" fill="#EEA886"/>
<path d="M85.6236 179.449C85.6236 179.449 85.6526 178.189 85.3243 177.919C84.9961 177.648 84.9527 178.107 84.9527 178.107C84.9527 178.107 85.0009 177.658 84.6389 177.6C84.2769 177.542 84.2576 178.083 84.2576 178.083C84.2492 178.034 84.2308 177.988 84.2036 177.948C84.1765 177.907 84.1411 177.872 84.0997 177.846C84.0584 177.819 84.012 177.802 83.9635 177.795C83.9151 177.787 83.8656 177.79 83.8183 177.803C83.4369 177.875 83.5286 178.319 83.5286 178.319C83.5286 178.319 83.1666 177.885 82.9301 178.319C82.8214 178.561 82.7651 178.822 82.7651 179.087C82.7651 179.351 82.8214 179.613 82.9301 179.854C82.9301 179.854 83.0411 180.043 83.4128 179.951C83.4454 180.022 83.495 180.085 83.5574 180.133C83.6197 180.181 83.6929 180.213 83.7704 180.227C83.848 180.24 83.9277 180.234 84.0025 180.21C84.0773 180.185 84.145 180.143 84.1996 180.086C84.1996 180.086 84.7547 180.395 84.9527 179.903C85.0268 179.934 85.1076 179.946 85.1877 179.939C85.2678 179.931 85.3447 179.903 85.4114 179.858C85.4781 179.813 85.5325 179.752 85.5695 179.68C85.6066 179.609 85.6252 179.529 85.6236 179.449Z" fill="#DB9C7C"/>
<path d="M89.4277 156.912C89.4277 156.912 87.2699 164.094 86.5314 166.749C86.2997 167.579 85.7494 175.515 85.648 175.833C85.5467 176.152 82.8193 176.591 82.8193 176.591C82.8193 176.591 83.1476 166.662 83.1814 166.122C83.2152 165.581 86.1983 154.489 87.0672 154.093C87.7189 153.799 88.0616 154.045 88.8822 154.653C90.0456 155.507 89.4277 156.912 89.4277 156.912Z" fill="#FFDE88"/>
<path d="M115.388 143.621L110.453 146.853L110.694 147.22L115.629 143.989L115.388 143.621Z" fill="#4DA8F2"/>
<path d="M116.155 145.472C116.134 145.609 116.09 145.741 116.025 145.863C116.025 145.863 115.866 146.056 115.76 146.201C115.732 146.238 115.706 146.277 115.682 146.317C115.58 146.548 115.441 146.761 115.272 146.949C115.036 147.186 114.123 147.944 114.123 147.944L113.336 147.282L112.525 146.916C112.684 146.157 112.9 145.411 113.172 144.686L113.23 144.618C113.39 144.485 113.561 144.367 113.742 144.266C113.78 144.237 114.225 143.933 114.35 143.971C114.435 143.985 114.515 144.022 114.581 144.077C114.647 144.132 114.698 144.204 114.727 144.285C114.942 144.351 115.134 144.477 115.282 144.647C115.391 144.68 115.491 144.738 115.575 144.815C115.659 144.893 115.724 144.989 115.764 145.096C115.764 145.096 116.136 145.241 116.155 145.472Z" fill="#EFAA88"/>
<path d="M87.6802 205.968C87.6802 205.968 87.4823 207.334 87.4581 207.536C87.434 207.739 85.2714 207.416 85.2714 207.416L85.0977 205.794C85.0977 205.794 87.4099 205.775 87.6802 205.968Z" fill="#424773"/>
<path d="M87.4822 207.363C87.867 207.824 88.3214 208.223 88.829 208.545C89.4903 208.902 90.5329 209.028 90.9239 209.414C91.2039 209.684 91.9521 210.833 89.2006 210.814C86.4492 210.795 85.1217 210.973 84.8273 210.534C84.5328 210.095 85.2569 207.271 85.2569 207.271C85.9857 207.445 86.7415 207.476 87.4822 207.363Z" fill="#292C47"/>
<path d="M103.166 205.968C103.166 205.968 102.968 207.334 102.943 207.536C102.919 207.739 100.757 207.416 100.757 207.416L100.583 205.794C100.583 205.794 102.895 205.775 103.166 205.968Z" fill="#424773"/>
<path d="M102.967 207.363C103.352 207.824 103.807 208.223 104.314 208.545C104.976 208.902 107.413 209.197 107.809 209.569C108.089 209.834 108.562 210.915 104.691 210.814C101.939 210.741 100.612 210.973 100.317 210.534C100.023 210.095 100.742 207.271 100.742 207.271C100.742 207.271 101.37 207.522 102.967 207.363Z" fill="#292C47"/>
<path d="M89.4663 170.92C89.4663 170.92 87.439 174.149 87.5886 177.064C87.7382 179.98 86.85 183.165 86.5459 186.211C86.208 189.59 84.8178 197.651 84.7647 199.466C84.7116 201.281 84.9819 207.087 84.9819 207.087L87.7672 207.15C87.7672 207.15 90.1084 193.094 90.7117 191.656C91.3151 190.218 94.3273 179.999 94.4286 178.85C94.53 177.701 89.4663 170.92 89.4663 170.92Z" fill="#292C47"/>
<path d="M100.158 171.354C100.158 171.354 101.688 179.347 101.891 181.133C102.094 182.919 102.229 189.773 102.33 190.888C102.432 192.003 103.296 205.456 103.542 207.145H99.9795C99.9795 207.145 97.2473 197.342 97.2473 192.703C97.2473 188.065 95.133 182.62 93.7718 179.56C92.4105 176.5 89.2825 176.427 88.4619 170.751C88.4474 170.756 99.0237 169.559 100.158 171.354Z" fill="#292C47"/>
<path d="M92.8597 143.793C92.8597 143.793 95.5822 142.774 96.842 144.85C98.1019 146.925 97.9764 151.076 96.6007 151.607C95.225 152.138 93.1638 151.854 92.459 150.555C91.7542 149.257 91.1219 147.379 91.1509 146.124C91.1798 144.869 92.1404 144.155 92.8597 143.793Z" fill="#EEA886"/>
<path d="M96.3059 151.685C96.2448 152.052 96.2696 152.429 96.3783 152.785C96.5666 153.147 92.8497 153.152 92.8497 153.152C92.6502 151.92 92.3581 150.705 91.976 149.517C91.4016 147.852 96.3059 151.685 96.3059 151.685Z" fill="#EEA886"/>
<path d="M91.9761 149.517C91.9761 149.517 92.232 149.942 93.2795 149.773C94.3269 149.604 95.6061 148.219 96.0406 148.064C96.475 147.91 96.4847 147.654 96.4847 147.654L96.7598 148.055L97.2425 148.084C97.2425 148.084 96.8177 146.838 97.4598 146.327C98.1018 145.815 96.7936 142.291 93.4339 143.464C93.4339 143.464 90.8514 144.179 90.948 145.646C91.0445 147.114 91.3969 148.784 91.9761 149.517Z" fill="#292C47"/>
<path d="M96.6007 152.742C96.6007 152.742 96.6007 152.047 96.2772 151.979C95.9538 151.911 92.8114 151.612 92.4155 151.762V152.568C92.4155 152.568 93.1637 153.012 96.6007 152.742Z" fill="#E2D2CA"/>
<path d="M96.4174 147.118C96.3546 146.872 95.7319 146.153 95.4906 146.925C95.2492 147.698 95.8526 148.692 96.1905 148.605C96.5284 148.518 96.5429 147.746 96.4174 147.118Z" fill="#EEA886"/>
<path d="M101.814 153.789C99.6516 153.504 96.6008 152.737 96.6008 152.737L92.4254 152.568C92.4254 152.568 88.5926 153.413 87.0817 154.093C86.9369 154.161 86.9369 157.515 86.5459 158.394L87.7961 161.034C87.7961 161.034 88.5202 166.267 88.6698 168.593C88.7374 169.66 87.1783 178.609 87.1783 178.609C88.6667 178.999 90.1841 179.268 91.7158 179.415C94.5638 179.729 101.689 179.299 101.732 178.966C101.776 178.633 100.356 166.416 100.284 165.794C100.187 164.828 100.622 159.673 100.622 159.673C101.278 159.161 107.056 156.478 108.635 155.078C109.06 154.706 110.836 152.973 111.343 152.375C112.573 150.994 113.722 149.544 114.785 148.031C114.987 147.804 112.786 146.616 112.588 146.554C112.39 146.491 110.049 149.652 109.118 150.666C108.431 151.27 107.714 151.839 106.97 152.37C106.97 152.37 103.166 153.866 101.814 153.789Z" fill="#FFDE88"/>
<path d="M92.0825 144.039C92.0825 144.039 88.607 144.309 91.9763 149.517L92.0825 144.039Z" fill="#292C47"/>
<path d="M115.624 143.986L115.914 143.546L115.388 143.619L115.624 143.986Z" fill="#DFE1E8"/>
<path d="M203.222 125.919C203.222 125.919 203.039 125.04 201.774 125.045C199.998 125.045 199.843 127.574 200.157 129.143C200.553 131.228 201.306 132.078 199.872 137.474C199.872 137.474 203.048 130.804 202.546 128.82C202.175 127.362 203.222 125.919 203.222 125.919Z" fill="#3A3F47"/>
<path d="M213.219 142.745C213.219 142.745 213.972 142.364 213.963 141.949C213.984 141.556 214.069 141.17 214.214 140.805C214.305 140.573 214.339 139.748 214.619 139.873C214.899 139.999 214.619 141.239 214.619 141.51C214.619 141.78 215.512 141.027 215.778 141.027C216.043 141.027 217.139 142.716 216.463 143.146C215.907 143.417 215.304 143.581 214.687 143.629L214.035 143.87L213.219 142.745Z" fill="#EEA886"/>
<path d="M215.599 141.109C215.599 141.109 217.752 139.941 217.96 139.994C218.167 140.047 218.22 140.172 218.022 140.293L215.976 141.485C215.976 141.485 218.751 140.563 218.925 140.563C219.099 140.563 219.152 140.81 219.051 140.882C218.949 140.954 216.251 142.04 216.251 142.04C216.251 142.04 218.843 141.181 218.993 141.234C219.029 141.25 219.06 141.276 219.081 141.309C219.103 141.342 219.114 141.381 219.114 141.42C219.114 141.46 219.103 141.498 219.081 141.531C219.06 141.564 219.029 141.59 218.993 141.606L216.444 142.62C216.444 142.62 218.375 142.137 218.471 142.243C218.568 142.349 218.65 142.523 218.148 142.634C217.646 142.745 216.492 143.141 216.492 143.141L215.599 141.109Z" fill="#EEA886"/>
<path d="M206.703 144.372C206.703 144.372 210.232 143.59 210.907 143.382C211.689 143.146 213.22 142.745 213.22 142.745L214.035 143.913C214.035 143.913 209.498 146.254 208.653 146.578C207.808 146.901 205.757 147.654 205.757 147.654L206.703 144.372Z" fill="#EEA886"/>
<path d="M221.976 158.983C221.976 158.983 223.009 163.37 223.042 164.23C223.076 165.089 226.045 176.524 226.262 177.088C226.479 177.653 225.147 178.141 224.771 177.769C224.394 177.397 221.445 171.011 220.774 169.834C220.103 168.656 218.452 165.895 218.36 163.144C218.268 160.392 221.976 158.983 221.976 158.983Z" fill="#DE9673"/>
<path d="M222.724 160.305C222.724 160.305 221.121 164.519 220.668 165.248C220.214 165.977 216.285 177.122 216.145 177.711C216.005 178.3 214.639 177.909 214.537 177.388C214.436 176.866 215.551 169.983 215.657 168.627C215.763 167.271 215.937 164.066 217.4 161.734C218.862 159.403 222.724 160.305 222.724 160.305Z" fill="#EEA886"/>
<path d="M214.465 177.407C214.465 177.407 216.251 176.992 216.309 176.924C216.367 176.857 216.381 176.775 216.618 176.881C216.854 176.987 216.936 177.364 217.168 177.494C217.4 177.624 218.833 178.121 219.611 178.551C219.891 178.705 221.083 179.232 221.242 179.627C221.401 180.023 221.315 180.593 219.229 180.361C217.144 180.129 214.841 180.298 214.402 180.047C213.963 179.796 214.325 178.006 214.465 177.407Z" fill="#E0E0E0"/>
<path d="M224.679 177.812C224.679 177.812 226.335 177.026 226.374 176.968C226.412 176.91 226.412 176.804 226.668 176.862C226.924 176.919 227.083 177.262 227.339 177.344C227.595 177.426 229.101 177.595 229.95 177.851C230.259 177.943 231.539 178.199 231.775 178.556C232.012 178.913 232.055 179.492 229.965 179.7C227.875 179.907 225.669 180.583 225.176 180.433C224.684 180.284 224.66 178.43 224.679 177.812Z" fill="#E0E0E0"/>
<path d="M207.668 152.848C207.668 152.848 221.479 155.879 222.724 160.305C221.024 160.14 219.313 160.487 217.81 161.3C217.81 161.3 211.371 160.851 204.926 161C204.12 161 198.487 159.398 199.361 154.658C200.235 149.918 207.668 152.848 207.668 152.848Z" fill="#2F4563"/>
<path d="M205.322 133.647C205.105 133.867 204.922 134.119 204.782 134.395C204.631 134.67 204.499 134.956 204.386 135.249C204.243 135.617 204.12 135.992 204.019 136.374C204.019 136.374 200.751 134.651 201.547 133.999C202.344 133.347 202.691 130.808 202.691 130.808C202.691 130.808 205.984 133.009 205.322 133.647Z" fill="#EEA987"/>
<path d="M209.145 127.492C209.145 127.492 209.821 128.511 208.802 130.63C208.802 130.63 208.503 132.459 208.686 132.84C208.87 133.222 207.842 133.062 207.673 133.256C207.504 133.449 207.016 134.438 206.143 134.873C205.269 135.307 202.344 132.459 202.474 131.33C202.604 130.2 201.509 124.958 205.336 125.803C209.164 126.648 209.145 127.492 209.145 127.492Z" fill="#EEA886"/>
<path d="M209.116 129.843C209.116 129.843 210.835 125.34 206.119 124.915C201.403 124.49 202.31 130.191 202.455 132.005C202.455 132.005 203.092 129.428 205.274 129.944C207.456 130.461 208.049 130.099 209.116 129.843Z" fill="#3A3F47"/>
<path d="M205.105 129.206C205.048 129.076 204.95 128.969 204.825 128.901C204.701 128.833 204.558 128.809 204.418 128.831C204.278 128.853 204.149 128.92 204.052 129.023C203.954 129.126 203.893 129.258 203.879 129.399C203.782 130.147 204.328 131.064 204.671 130.789C204.895 130.6 205.056 130.348 205.134 130.065C205.211 129.782 205.201 129.483 205.105 129.206Z" fill="#EEA886"/>
<path d="M204.781 134.395C204.631 134.67 204.499 134.956 204.386 135.249C203.377 134.404 202.938 132.551 202.938 132.551C203.454 133.248 204.067 133.869 204.757 134.395H204.781Z" fill="#A77860"/>
<path d="M204.497 135.823C204.497 135.823 207.393 139.115 207.746 139.381C208.098 139.646 209.194 141.992 207.746 143.397C207.691 144.101 207.558 144.797 207.35 145.472C207.089 146.047 207.273 151.965 207.692 152.64C208.112 153.316 202.18 155.575 199.361 154.658C199.361 154.658 200.162 150.869 200.423 148.933C200.683 146.998 199.52 141.374 199.491 139.859C199.462 138.343 200.515 134.501 201.548 134.066C202.581 133.632 204.497 135.823 204.497 135.823Z" fill="#5F8CC9"/>
<path d="M208.859 153.247L219.309 156.731L219.524 156.085L209.074 152.601L208.859 153.247Z" fill="#6E6760"/>
<path d="M219.32 156.699L228.123 150.078L227.714 149.534L218.911 156.155L219.32 156.699Z" fill="#6E6760"/>
<path d="M216.685 155.17C216.772 154.943 216.787 154.576 216.111 154.074C215.435 153.572 213.953 152.177 213.393 152.071C212.99 152.054 212.586 152.089 212.191 152.177C211.964 152.143 211.67 153.5 211.67 153.5L216.685 155.17Z" fill="#EEA886"/>
<path d="M212.191 152.177C212.191 152.177 209.227 150.956 208.725 150.729C208.223 150.502 205.781 149.633 205.573 149.527C205.366 149.421 204.27 143.735 204.183 142.234C204.096 140.732 204.009 137.619 202.334 137.759C200.659 137.899 200.263 138.995 200.476 141.138C200.688 143.281 201.924 151.023 202.44 151.274C202.957 151.525 209.15 152.766 212.095 153.639C215.039 154.513 212.191 152.177 212.191 152.177Z" fill="#EEA886"/>
<path d="M203.053 126.15C203.053 126.15 202.348 127.425 202.421 128.38C202.421 128.395 201.774 126.947 203.053 126.15Z" fill="#5F8CC9"/>
<path d="M280.394 132.729H264.141V144.507V146.988L266.622 144.507H280.394V132.729Z" fill="#518AFA"/>
<path d="M187.525 192.312C187.428 192.988 183.364 195.836 182.562 196.401C181.89 196.845 181.159 197.193 180.39 197.434C178.184 198.013 164.34 202.145 164.34 202.145C164.31 202 164.263 201.859 164.2 201.725C163.683 201.928 163.152 202.063 162.814 202.169C162.298 202.328 158.204 202.458 157.369 202.618C156.534 202.777 154.854 203.038 154.179 202.396C153.503 201.754 154.599 200.364 155.535 200.011C156.472 199.659 159.88 199.558 160.493 199.495C161.106 199.432 161.912 199.205 162.298 199.335C162.76 199.283 163.212 199.165 163.64 198.983C163.64 198.727 163.64 198.573 163.64 198.573L167.275 197.525L166.604 191.086C166.604 191.086 168.182 185.13 174.501 189.672C174.501 189.672 175.91 190.087 176.398 190.218C176.451 190.226 176.504 190.226 176.557 190.218C177.523 190.145 181.664 188.89 183.161 188.89C184.773 188.89 185.29 188.794 185.869 189.083C186.448 189.373 187.621 191.627 187.525 192.312Z" fill="#292C47"/>
<path d="M181.052 202.396C180.376 203.038 178.701 202.782 177.861 202.618C177.021 202.454 172.932 202.328 172.416 202.169C171.661 201.992 170.935 201.711 170.258 201.334C170.143 201.268 170.022 201.215 169.896 201.175L168.873 201.913L154.647 197.385C153.925 197.211 153.25 196.882 152.668 196.42C151.925 195.778 147.802 193.007 147.706 192.332C147.609 191.656 148.801 189.397 149.381 189.107C149.96 188.818 150.477 188.914 152.089 188.914C153.701 188.914 158.364 190.362 158.847 190.237C159.23 190.095 159.6 189.919 159.952 189.711C160.469 189.431 160.951 189.141 160.951 189.141C167.873 186.052 168.641 191.106 168.641 191.106L168.231 197.347L169.558 197.989L172.99 198.954L172.541 199.278C172.664 199.328 172.795 199.353 172.928 199.35C173.314 199.22 174.12 199.447 174.733 199.509C175.346 199.572 178.759 199.669 179.69 200.026C180.622 200.383 181.727 201.763 181.052 202.396Z" fill="#292C47"/>
<path d="M159.957 189.696C160.44 189.73 163.659 191.598 164.427 192.042C163.264 191.434 158.852 190.222 158.852 190.222C159.235 190.081 159.605 189.905 159.957 189.696Z" fill="#292C47"/>
<path d="M176.538 190.222C176.538 190.222 170.987 191.569 169.968 192.153C170.017 192.119 172.894 189.933 174.409 189.638C174.409 189.638 175.891 190.121 176.379 190.237C176.432 190.245 176.485 190.245 176.538 190.237V190.222Z" fill="#292C47"/>
<path d="M181.052 202.396C180.376 203.038 178.701 202.782 177.861 202.618C177.021 202.454 172.932 202.328 172.416 202.169L171.88 202.01C171.312 201.862 170.767 201.634 170.263 201.334C170.148 201.268 170.027 201.215 169.901 201.175L172.474 199.316L172.551 199.263C172.673 199.313 172.805 199.338 172.937 199.336C173.323 199.205 174.129 199.432 174.742 199.495C175.356 199.558 178.768 199.654 179.7 200.011C180.632 200.368 181.727 201.763 181.052 202.396Z" fill="#EEA886"/>
<path d="M181.051 202.396C180.376 203.038 178.701 202.782 177.861 202.618C177.021 202.454 172.932 202.328 172.416 202.169L171.88 202.01C172.211 201.655 172.44 201.218 172.545 200.744C172.649 200.27 172.625 199.777 172.474 199.316L172.551 199.263C172.673 199.313 172.805 199.338 172.937 199.336C173.323 199.205 174.129 199.432 174.742 199.495C175.355 199.558 178.768 199.654 179.7 200.011C180.631 200.368 181.727 201.763 181.051 202.396Z" fill="#5779D4"/>
<path d="M161.371 191.115C161.374 191.121 161.376 191.128 161.376 191.135C161.376 191.141 161.374 191.148 161.371 191.154C161.303 191.197 161.313 191.178 161.371 191.115Z" fill="#E55353"/>
<path d="M179.989 183.581C179.936 183.474 177.001 178.855 176.205 176.751C175.883 175.961 175.394 175.25 174.771 174.667C174.149 174.084 173.408 173.642 172.599 173.372C172.275 173.261 171.706 173.077 171.098 172.889L168.819 172.155H165.059C165.059 172.155 163.755 172.59 162.375 173.077C161.101 173.526 159.759 174.014 159.305 174.241C158.339 174.723 156.771 178.102 156.447 178.469C156.124 178.836 153.647 183.45 153.29 185.227C153.01 186.597 161.149 190.613 161.371 191.13C161.627 190.84 162.819 189.706 162.819 189.706C162.819 189.706 162.438 189.469 161.907 189.117C164.084 189.214 169.408 189.025 170.176 189.069C170.336 189.078 170.498 189.078 170.658 189.069C170.895 189.243 172.42 190.589 172.42 190.589C172.42 190.589 176.181 189.03 177.909 187.283C180.366 184.773 180.259 184.126 179.989 183.581ZM158.619 186.636C157.813 185.671 156.689 185.087 156.983 184.657C157.277 184.227 159.628 180.144 159.628 180.144C160.239 181.469 160.761 182.833 161.192 184.227C161.54 185.622 161.511 186.259 161.366 186.694C161.162 187.279 161.044 187.89 161.014 188.509C160.155 187.966 159.353 187.339 158.619 186.636ZM175.239 186.153C174.403 186.844 173.501 187.45 172.546 187.963C172.464 187.181 172.333 185.955 172.319 185.516C172.347 184.389 172.55 183.274 172.922 182.21C173.208 181.323 173.403 180.409 173.501 179.483C173.501 179.483 176.345 183.344 176.798 183.754C177.252 184.165 176.306 184.961 175.225 186.173L175.239 186.153Z" fill="#E64053"/>
<path d="M167.386 161.826C167.386 161.826 170.326 162.309 169.877 166.889C169.428 171.47 166.836 171.108 166.662 171.103C166.488 171.098 164.06 171.19 163.872 165.576C163.872 165.562 163.79 161.42 167.386 161.826Z" fill="#EEA886"/>
<path d="M169.915 165.591C169.915 165.591 170.238 165.243 170.354 165.591C170.47 165.938 169.915 167.493 169.915 167.565C169.915 167.637 169.857 167.7 169.78 167.628C169.783 166.947 169.829 166.266 169.915 165.591Z" fill="#EEA886"/>
<path d="M163.949 165.528C163.949 165.528 163.635 165.181 163.51 165.528C163.384 165.876 163.906 167.435 163.93 167.507C163.954 167.579 163.988 167.642 164.065 167.57C164.067 166.888 164.028 166.206 163.949 165.528Z" fill="#EEA886"/>
<path d="M169.915 166.296L169.49 166.855C169.503 166.38 169.485 165.905 169.437 165.432C169.37 165.238 169.268 164.645 169.21 164.505C169.152 164.365 166.686 163.675 164.504 164.708C164.504 164.708 164.6 165.596 164.393 165.673C164.185 165.75 164.287 167.121 164.287 167.121L163.939 166.735C163.939 166.735 163.413 163.197 163.543 162.825C163.674 162.453 164.089 160.238 168.559 161.556C168.559 161.556 169.954 161.261 170.234 162.222C170.514 163.182 169.915 166.296 169.915 166.296Z" fill="#434343"/>
<path d="M163.061 195.701C163.061 195.701 158.562 193.003 156.597 192.578C154.739 192.177 154.063 191.482 154.063 191.482C154.063 191.482 157.017 191.482 158.982 192.882C160.319 193.828 163.061 195.701 163.061 195.701Z" fill="#191A2B"/>
<path d="M167.058 197.579C167.058 197.579 174.887 193.471 178.083 192.578C178.99 192.378 179.85 192.006 180.617 191.482C180.617 191.482 175.79 191.965 172.836 193.727C171.431 194.571 167.058 197.579 167.058 197.579Z" fill="#191A2B"/>
<path d="M164.2 201.725C163.683 201.928 163.152 202.063 162.814 202.169C162.298 202.328 158.204 202.459 157.369 202.618C156.534 202.777 154.854 203.038 154.179 202.396C153.503 201.754 154.599 200.364 155.535 200.011C156.472 199.659 159.88 199.558 160.493 199.495C161.106 199.432 161.912 199.205 162.298 199.336C162.76 199.283 163.212 199.165 163.64 198.983C163.664 199.389 164.2 201.725 164.2 201.725Z" fill="#EEA886"/>
<path d="M167.058 201.334L174.742 199.056L173.222 198.573C173.222 198.573 167.082 200.822 167.058 201.334Z" fill="#292C47"/>
<path d="M167.058 201.334L170.659 200.233L168.163 201.686L167.058 201.334Z" fill="#191A2B"/>
<path d="M164.606 192.134L164.446 192.037L164.606 192.134Z" fill="#525252"/>
<path d="M162.814 202.169C162.298 202.328 158.204 202.458 157.369 202.618C156.534 202.777 154.854 203.038 154.179 202.396C153.503 201.754 154.599 200.364 155.535 200.011C156.472 199.659 159.88 199.558 160.493 199.495C161.106 199.432 161.912 199.205 162.298 199.335C162.011 199.786 161.905 200.328 162.001 200.853C162.097 201.379 162.387 201.849 162.814 202.169Z" fill="#5779D4"/>
<path d="M160.261 191.482L159.073 184.725L174.404 184.372L173.415 191.009C173.415 191.009 168.525 192.8 166.864 193.843C166.874 193.857 162.674 192.134 160.261 191.482Z" fill="#525252"/>
<path d="M167.777 188.808C167.75 188.972 167.677 189.124 167.566 189.248C167.456 189.371 167.312 189.461 167.152 189.505C166.993 189.55 166.824 189.547 166.665 189.499C166.507 189.45 166.365 189.358 166.258 189.231C166.15 189.105 166.081 188.951 166.058 188.787C166.036 188.622 166.061 188.455 166.13 188.305C166.199 188.154 166.31 188.026 166.45 187.937C166.589 187.847 166.752 187.8 166.917 187.799C167.162 187.826 167.388 187.945 167.548 188.133C167.707 188.321 167.789 188.562 167.777 188.808Z" fill="#6E6E6E"/>
<path d="M168.781 171.837C168.597 171.426 168.781 169.766 168.781 169.766C168.781 169.766 165.035 168.801 165.141 169.539C165.157 170.312 165.078 171.084 164.905 171.837L162.896 172.913C162.896 172.913 164.943 178.411 167.299 177.701C169.654 176.992 170.538 172.715 170.538 172.715L168.781 171.837Z" fill="#EEA886"/>
<path d="M165.17 170.331C165.375 170.571 165.629 170.764 165.914 170.899C166.199 171.034 166.51 171.107 166.826 171.113C167.175 171.122 167.522 171.053 167.841 170.909C168.159 170.765 168.441 170.551 168.665 170.283C168.548 170.677 168.305 171.023 167.974 171.267C167.643 171.512 167.242 171.642 166.83 171.639C166.83 171.639 165.686 171.779 165.17 170.331Z" fill="#A77860"/>
<defs>
<linearGradient id="paint0_linear_25_939" x1="178.628" y1="217.958" x2="159.094" y2="189.507" gradientUnits="userSpaceOnUse">
<stop stop-color="#97CBEC"/>
<stop offset="0.69" stop-color="#CCC2F5"/>
</linearGradient>
<linearGradient id="paint1_linear_25_939" x1="260.221" y1="225.309" x2="245.278" y2="191.091" gradientUnits="userSpaceOnUse">
<stop stop-color="#97CBEC"/>
<stop offset="0.69" stop-color="#CCC2F5"/>
</linearGradient>
<radialGradient id="paint2_radial_25_939" cx="0" cy="0" r="1" gradientUnits="userSpaceOnUse" gradientTransform="translate(154.753 97.6139) scale(9.1619 9.16141)">
<stop offset="0.01" stop-color="#39AA35"/>
<stop offset="0.99" stop-color="#6BE167"/>
</radialGradient>
<linearGradient id="paint3_linear_25_939" x1="156.226" y1="97.0067" x2="156.226" y2="150.213" gradientUnits="userSpaceOnUse">
<stop offset="0.01" stop-color="#FFDD91"/>
<stop offset="1" stop-color="white"/>
</linearGradient>
<linearGradient id="paint4_linear_25_939" x1="181.536" y1="97.0361" x2="181.536" y2="150.243" gradientUnits="userSpaceOnUse">
<stop offset="0.01" stop-color="#FFDD91"/>
<stop offset="1" stop-color="white"/>
</linearGradient>
<linearGradient id="paint5_linear_25_939" x1="168.848" y1="97.0057" x2="168.848" y2="150.212" gradientUnits="userSpaceOnUse">
<stop offset="0.01" stop-color="#FFDD91"/>
<stop offset="1" stop-color="white"/>
</linearGradient>
<linearGradient id="paint6_linear_25_939" x1="141.817" y1="161.734" x2="193.766" y2="161.734" gradientUnits="userSpaceOnUse">
<stop stop-color="#40D5E6"/>
<stop offset="1" stop-color="#5577FF"/>
</linearGradient>
<linearGradient id="paint7_linear_25_939" x1="81.7619" y1="226.429" x2="63.1451" y2="194.44" gradientUnits="userSpaceOnUse">
<stop stop-color="#97CBEC"/>
<stop offset="0.69" stop-color="#CCC2F5"/>
</linearGradient>
<linearGradient id="paint8_linear_25_939" x1="97.006" y1="174.438" x2="248.361" y2="174.438" gradientUnits="userSpaceOnUse">
<stop stop-color="#39AA35"/>
<stop offset="1" stop-color="#57B554"/>
</linearGradient>
<linearGradient id="paint9_linear_25_939" x1="152.677" y1="174.438" x2="197.058" y2="174.438" gradientUnits="userSpaceOnUse">
<stop stop-color="#39AA35"/>
<stop offset="1" stop-color="#6AD267"/>
</linearGradient>
</defs>
</svg>
