<svg width="36" height="36" viewBox="0 0 36 36" fill="none" xmlns="http://www.w3.org/2000/svg">
<path d="M35.4371 22.2041H34.3364C33.0129 19.3668 33.0127 16.5975 34.3364 13.7408H35.4371C35.748 13.7408 35.9996 13.4889 35.9996 13.1783C35.9996 12.8676 35.748 12.6158 35.4371 12.6158H14.5675V12.1977H32.5142C32.8251 12.1977 33.0767 11.9459 33.0767 11.6352C33.0767 11.3246 32.8251 11.0727 32.5142 11.0727H31.4135C30.0898 8.23565 30.0903 5.46657 31.4137 2.60913H32.5142C32.8251 2.60913 33.0767 2.3573 33.0767 2.04663C33.0767 1.73602 32.8251 1.48413 32.5142 1.48413H2.94999C2.74564 1.48413 2.55726 1.59511 2.45781 1.77393C0.414356 5.46117 0.423131 8.88455 2.48307 11.9492C2.58746 12.1046 2.76268 12.1977 2.94999 12.1977H8.64807V12.6158H5.87291C5.66856 12.6158 5.48018 12.7267 5.38072 12.9055C3.33671 16.5925 3.34549 20.0159 5.40598 23.0805C5.51038 23.2359 5.6856 23.3291 5.87291 23.3291H35.4371C35.748 23.3291 35.9996 23.0772 35.9996 22.7666C35.9996 22.4559 35.748 22.2041 35.4371 22.2041ZM9.77307 6.54939H13.4425V16.3008L11.8401 15.5744C11.6918 15.5074 11.5237 15.5074 11.3754 15.5744L9.77307 16.3008V6.54939ZM3.25543 11.0727C1.63824 8.49839 1.64814 5.72403 3.28564 2.60913H30.1854C29.0126 5.42821 29.0119 8.27024 30.1837 11.0727H14.5675V6.54939H23.5933C23.9042 6.54939 24.1558 6.29756 24.1558 5.98689C24.1558 5.67627 23.9042 5.42439 23.5933 5.42439H6.81336C6.50241 5.42439 6.25086 5.67627 6.25086 5.98689C6.25086 6.29756 6.50241 6.54939 6.81336 6.54939H8.64807V11.0727H3.25543ZM6.20856 13.7408H8.64807V17.1734C8.64807 17.3646 8.74526 17.5426 8.9057 17.6461C9.06662 17.7499 9.26934 17.7651 9.44293 17.6857L11.6078 16.7043L13.7726 17.6857C13.8468 17.7195 13.9259 17.7359 14.005 17.7359C14.1116 17.7359 14.2176 17.7057 14.3099 17.6461C14.4703 17.5426 14.5675 17.3646 14.5675 17.1734V13.7408H33.1082C31.9349 16.5593 31.9347 19.4012 33.1068 22.2041H6.17779C4.5606 19.6297 4.57051 16.8557 6.20856 13.7408Z" fill="black"/>
<path d="M30.4829 24.9272H31.5836C31.8945 24.9272 32.1461 24.6754 32.1461 24.3647C32.1461 24.0541 31.8945 23.8022 31.5836 23.8022H2.0194C1.81504 23.8022 1.62666 23.9132 1.52721 24.092C-0.517307 27.779 -0.508532 31.2023 1.55247 34.267C1.65743 34.4225 1.83209 34.5156 2.0194 34.5156H31.5836C31.8945 34.5156 32.1461 34.2637 32.1461 33.9531C32.1461 33.6424 31.8945 33.3906 31.5836 33.3906H30.4829C29.1593 30.553 29.1592 27.784 30.4829 24.9272ZM2.32427 33.3906C0.706524 30.8162 0.716425 28.0419 2.35504 24.9272H29.2546C28.0814 27.7458 28.0813 30.5875 29.2533 33.3906H2.32427Z" fill="black"/>
</svg>
