<svg width="32" height="32" viewBox="0 0 32 32" fill="none" xmlns="http://www.w3.org/2000/svg">
<path d="M26.1533 17.3334C26.2114 16.8912 26.2426 16.446 26.2467 16C26.2426 15.5541 26.2114 15.1089 26.1533 14.6667L29.04 12.4067C29.1704 12.3071 29.2594 12.163 29.2902 12.0019C29.3209 11.8408 29.2912 11.674 29.2067 11.5334L26.4733 6.79338C26.3942 6.6512 26.2657 6.54289 26.1122 6.48886C25.9587 6.43483 25.7908 6.43881 25.64 6.50005L22.2333 7.87338C21.5245 7.33237 20.7493 6.88428 19.9267 6.54005L19.4133 2.92005C19.3907 2.75986 19.3106 2.61337 19.1879 2.50789C19.0653 2.4024 18.9084 2.34512 18.7467 2.34671H13.2667C13.1049 2.34512 12.9481 2.4024 12.8254 2.50789C12.7028 2.61337 12.6226 2.75986 12.6 2.92005L12.0867 6.54005C11.263 6.88214 10.4875 7.33038 9.78 7.87338L6.35999 6.50005C6.20923 6.43881 6.04126 6.43483 5.88776 6.48886C5.73427 6.54289 5.60583 6.6512 5.52666 6.79338L2.79333 11.5334C2.7088 11.674 2.67907 11.8408 2.70982 12.0019C2.74057 12.163 2.82964 12.3071 2.95999 12.4067L5.84 14.6667C5.78215 15.1089 5.75098 15.5541 5.74666 16C5.75075 16.446 5.78192 16.8912 5.84 17.3334L2.95999 19.5934C2.82964 19.6929 2.74057 19.8371 2.70982 19.9982C2.67907 20.1593 2.7088 20.3261 2.79333 20.4667L5.52666 25.2067C5.60583 25.3489 5.73427 25.4572 5.88776 25.5112C6.04126 25.5653 6.20923 25.5613 6.35999 25.5L9.76666 24.1267C10.4755 24.6677 11.2507 25.1158 12.0733 25.46L12.5867 29.08C12.6093 29.2402 12.6894 29.3867 12.8121 29.4922C12.9347 29.5977 13.0916 29.655 13.2533 29.6534H18.72C18.8818 29.655 19.0386 29.5977 19.1612 29.4922C19.2839 29.3867 19.364 29.2402 19.3867 29.08L19.9 25.46C20.7237 25.1179 21.4991 24.6697 22.2067 24.1267L25.6133 25.5C25.7641 25.5613 25.9321 25.5653 26.0856 25.5112C26.2391 25.4572 26.3675 25.3489 26.4467 25.2067L29.18 20.4667C29.2645 20.3261 29.2943 20.1593 29.2635 19.9982C29.2328 19.8371 29.1437 19.6929 29.0133 19.5934L26.1533 17.3334ZM16 20.7867C15.053 20.788 14.1269 20.5084 13.3389 19.9833C12.5508 19.4581 11.9363 18.711 11.5729 17.8364C11.2096 16.9619 11.1139 15.9993 11.2978 15.0703C11.4818 14.1413 11.9371 13.2878 12.6063 12.6177C13.2754 11.9476 14.1283 11.4911 15.057 11.3058C15.9857 11.1206 16.9485 11.215 17.8236 11.5771C18.6986 11.9392 19.4466 12.5527 19.9728 13.34C20.4991 14.1273 20.78 15.053 20.78 16C20.7809 16.6283 20.6579 17.2506 20.4181 17.8313C20.1782 18.412 19.8263 18.9398 19.3823 19.3843C18.9384 19.8289 18.4111 20.1816 17.8308 20.4222C17.2504 20.6629 16.6283 20.7867 16 20.7867V20.7867Z" stroke="white" stroke-linecap="round" stroke-linejoin="round"/>
</svg>
