<svg width="24" height="24" viewBox="0 0 24 24" fill="none" xmlns="http://www.w3.org/2000/svg">
<path d="M14.005 10.2447C13.8042 10.2447 13.6415 10.4037 13.6415 10.5999V13.2535C13.6415 13.4497 13.8042 13.6087 14.005 13.6087H22.001C22.2017 13.6087 22.3645 13.4497 22.3645 13.2535V10.5999C22.3645 10.4037 22.2017 10.2447 22.001 10.2447H14.005ZM18.9073 1.80099C20.0136 1.85356 20.8098 2.07237 21.3128 2.53539C21.811 2.99394 22.0672 3.65805 22.1173 4.53609V7.05218C22.1173 7.49359 21.7512 7.85142 21.2996 7.85142C20.8479 7.85142 20.4818 7.49359 20.4818 7.05218L20.4831 4.58179C20.4563 4.12453 20.3476 3.84273 20.1915 3.69902C20.0402 3.55978 19.58 3.43331 18.8676 3.39851L3.17672 3.39791C2.53145 3.42237 2.11305 3.54453 1.91004 3.71836C1.75391 3.85204 1.63687 4.2194 1.63555 4.8541L1.63191 18.9777C1.69172 19.5952 1.82808 20.0061 2.00181 20.2118C2.13356 20.3678 2.54304 20.5245 3.14503 20.5999L18.8844 20.6001C19.6211 20.6149 20.0558 20.5046 20.2017 20.3567C20.3635 20.1926 20.4818 19.7607 20.4818 19.0531V16.6001C20.4818 16.1587 20.8479 15.8009 21.2996 15.8009C21.7512 15.8009 22.1173 16.1587 22.1173 16.6001V19.0531C22.1173 20.1348 21.8963 20.9416 21.3794 21.4659C20.8465 22.0063 19.9992 22.2213 18.8676 22.1984L3.04859 22.1928C1.97198 22.0679 1.19887 21.7721 0.74047 21.2294C0.324058 20.7364 0.0915066 20.0356 0 19.0531V4.85247C0.00218844 3.80169 0.25406 3.01112 0.832249 2.51605C1.36355 2.06113 2.12774 1.83801 3.14503 1.80005L18.9073 1.80099ZM22.001 8.64618C23.105 8.64618 24 9.52088 24 10.5999V13.2535C24 14.3325 23.105 15.2072 22.001 15.2072H14.005C12.9009 15.2072 12.006 14.3325 12.006 13.2535V10.5999C12.006 9.52088 12.9009 8.64618 14.005 8.64618H22.001ZM16.004 10.9734C15.452 10.9734 15.0045 11.405 15.0045 11.9375C15.0045 12.47 15.452 12.9017 16.004 12.9017C16.556 12.9017 17.0035 12.47 17.0035 11.9375C17.0035 11.405 16.556 10.9734 16.004 10.9734Z" fill="white"/>
</svg>
