<svg width="50" height="49" viewBox="0 0 50 49" fill="none" xmlns="http://www.w3.org/2000/svg">
<rect width="50" height="49" rx="24.5" fill="#39AA35"/>
<g clip-path="url(#clip0_1486_2416)">
<path d="M34.6733 30.5534C34.0305 29.9802 33.4676 29.3232 33 28.6C32.4895 27.6017 32.1835 26.5115 32.1 25.3934V22.1C32.1044 20.3438 31.4673 18.6463 30.3085 17.3267C29.1496 16.007 27.5488 15.1559 25.8067 14.9333V14.0733C25.8067 13.8373 25.7129 13.6109 25.546 13.444C25.3791 13.2771 25.1527 13.1833 24.9167 13.1833C24.6806 13.1833 24.4542 13.2771 24.2873 13.444C24.1204 13.6109 24.0267 13.8373 24.0267 14.0733V14.9467C22.3002 15.1853 20.7186 16.0415 19.575 17.3568C18.4314 18.672 17.8032 20.3571 17.8067 22.1V25.3934C17.7232 26.5115 17.4172 27.6017 16.9067 28.6C16.4473 29.3216 15.8935 29.9785 15.26 30.5534C15.1889 30.6158 15.1319 30.6927 15.0928 30.7789C15.0537 30.8651 15.0335 30.9587 15.0333 31.0534V31.96C15.0333 32.1368 15.1036 32.3064 15.2286 32.4314C15.3536 32.5564 15.5232 32.6267 15.7 32.6267H34.2333C34.4101 32.6267 34.5797 32.5564 34.7047 32.4314C34.8298 32.3064 34.9 32.1368 34.9 31.96V31.0534C34.8999 30.9587 34.8796 30.8651 34.8405 30.7789C34.8014 30.6927 34.7444 30.6158 34.6733 30.5534ZM16.42 31.2934C17.0403 30.6942 17.5864 30.0227 18.0467 29.2934C18.6897 28.0877 19.065 26.7574 19.1467 25.3934V22.1C19.1202 21.3187 19.2513 20.5401 19.532 19.8105C19.8128 19.0809 20.2375 18.4152 20.7808 17.8532C21.3242 17.2911 21.9751 16.8441 22.6948 16.5389C23.4145 16.2336 24.1882 16.0763 24.97 16.0763C25.7518 16.0763 26.5255 16.2336 27.2452 16.5389C27.9649 16.8441 28.6158 17.2911 29.1592 17.8532C29.7025 18.4152 30.1272 19.0809 30.408 19.8105C30.6887 20.5401 30.8198 21.3187 30.7933 22.1V25.3934C30.875 26.7574 31.2503 28.0877 31.8933 29.2934C32.3536 30.0227 32.8997 30.6942 33.52 31.2934H16.42Z" fill="white"/>
<path d="M25 34.8533C25.42 34.8436 25.823 34.6857 26.1377 34.4075C26.4525 34.1294 26.6588 33.7488 26.72 33.3333H23.2133C23.2763 33.7601 23.4922 34.1496 23.8209 34.4292C24.1495 34.7088 24.5685 34.8595 25 34.8533Z" fill="white"/>
</g>
<defs>
<clipPath id="clip0_1486_2416">
<rect width="24" height="24" fill="white" transform="translate(13 12)"/>
</clipPath>
</defs>
</svg>
