<svg width="26" height="26" viewBox="0 0 26 26" fill="none" xmlns="http://www.w3.org/2000/svg">
<path d="M26 13C26 16.4478 24.6304 19.7544 22.1924 22.1924C19.7544 24.6304 16.4478 26 13 26C9.55219 26 6.24558 24.6304 3.80761 22.1924C1.36964 19.7544 0 16.4478 0 13C0 9.55219 1.36964 6.24558 3.80761 3.80761C6.24558 1.36964 9.55219 0 13 0C16.4478 0 19.7544 1.36964 22.1924 3.80761C24.6304 6.24558 26 9.55219 26 13ZM11.0337 8.27612C10.9123 8.18962 10.7693 8.13823 10.6205 8.12758C10.4718 8.11692 10.323 8.14742 10.1904 8.21572C10.0578 8.28402 9.94659 8.3875 9.86891 8.51481C9.79123 8.64212 9.75009 8.78836 9.75 8.9375V17.0625C9.75009 17.2116 9.79123 17.3579 9.86891 17.4852C9.94659 17.6125 10.0578 17.716 10.1904 17.7843C10.323 17.8526 10.4718 17.8831 10.6205 17.8724C10.7693 17.8618 10.9123 17.8104 11.0337 17.7239L16.7213 13.6614C16.8266 13.5862 16.9124 13.487 16.9717 13.372C17.0309 13.2569 17.0618 13.1294 17.0618 13C17.0618 12.8706 17.0309 12.7431 16.9717 12.628C16.9124 12.513 16.8266 12.4138 16.7213 12.3386L11.0337 8.27612Z" fill="#FF0000"/>
</svg>
