<svg width="85" height="17" viewBox="0 0 85 17" fill="none" xmlns="http://www.w3.org/2000/svg">
<path d="M15.0758 5.86204L10.8606 5.24944L8.97635 1.42943C8.92489 1.32484 8.84022 1.24017 8.73563 1.1887C8.47332 1.05921 8.15457 1.16712 8.02342 1.42943L6.13914 5.24944L1.92401 5.86204C1.8078 5.87864 1.70155 5.93343 1.6202 6.01644C1.52185 6.11752 1.46766 6.25351 1.46953 6.39452C1.4714 6.53554 1.52917 6.67005 1.63016 6.76849L4.67987 9.74183L3.95936 13.9404C3.94246 14.038 3.95327 14.1385 3.99056 14.2303C4.02784 14.3222 4.09012 14.4017 4.17031 14.46C4.25051 14.5182 4.34542 14.5528 4.44429 14.5599C4.54316 14.5669 4.64202 14.5461 4.72967 14.4998L8.49989 12.5176L12.2701 14.4998C12.373 14.5546 12.4926 14.5729 12.6071 14.553C12.896 14.5032 13.0902 14.2292 13.0404 13.9404L12.3199 9.74183L15.3696 6.76849C15.4526 6.68714 15.5074 6.58089 15.524 6.46468C15.5688 6.17415 15.3663 5.90521 15.0758 5.86204Z" fill="#FCB516"/>
<path d="M32.0758 5.86204L27.8606 5.24944L25.9764 1.42943C25.9249 1.32484 25.8402 1.24017 25.7356 1.1887C25.4733 1.05921 25.1546 1.16712 25.0234 1.42943L23.1391 5.24944L18.924 5.86204C18.8078 5.87864 18.7015 5.93343 18.6202 6.01644C18.5219 6.11752 18.4677 6.25351 18.4695 6.39452C18.4714 6.53554 18.5292 6.67005 18.6302 6.76849L21.6799 9.74183L20.9594 13.9404C20.9425 14.038 20.9533 14.1385 20.9906 14.2303C21.0278 14.3222 21.0901 14.4017 21.1703 14.46C21.2505 14.5182 21.3454 14.5528 21.4443 14.5599C21.5432 14.5669 21.642 14.5461 21.7297 14.4998L25.4999 12.5176L29.2701 14.4998C29.373 14.5546 29.4926 14.5729 29.6071 14.553C29.896 14.5032 30.0902 14.2292 30.0404 13.9404L29.3199 9.74183L32.3696 6.76849C32.4526 6.68714 32.5074 6.58089 32.524 6.46468C32.5688 6.17415 32.3663 5.90521 32.0758 5.86204Z" fill="#FCB516"/>
<path d="M49.0758 5.86204L44.8606 5.24944L42.9764 1.42943C42.9249 1.32484 42.8402 1.24017 42.7356 1.1887C42.4733 1.05921 42.1546 1.16712 42.0234 1.42943L40.1391 5.24944L35.924 5.86204C35.8078 5.87864 35.7015 5.93343 35.6202 6.01644C35.5219 6.11752 35.4677 6.25351 35.4695 6.39452C35.4714 6.53554 35.5292 6.67005 35.6302 6.76849L38.6799 9.74183L37.9594 13.9404C37.9425 14.038 37.9533 14.1385 37.9906 14.2303C38.0278 14.3222 38.0901 14.4017 38.1703 14.46C38.2505 14.5182 38.3454 14.5528 38.4443 14.5599C38.5432 14.5669 38.642 14.5461 38.7297 14.4998L42.4999 12.5176L46.2701 14.4998C46.373 14.5546 46.4926 14.5729 46.6071 14.553C46.896 14.5032 47.0902 14.2292 47.0404 13.9404L46.3199 9.74183L49.3696 6.76849C49.4526 6.68714 49.5074 6.58089 49.524 6.46468C49.5688 6.17415 49.3663 5.90521 49.0758 5.86204Z" fill="#FCB516"/>
<path d="M66.0758 5.86204L61.8606 5.24944L59.9764 1.42943C59.9249 1.32484 59.8402 1.24017 59.7356 1.1887C59.4733 1.05921 59.1546 1.16712 59.0234 1.42943L57.1391 5.24944L52.924 5.86204C52.8078 5.87864 52.7015 5.93343 52.6202 6.01644C52.5219 6.11752 52.4677 6.25351 52.4695 6.39452C52.4714 6.53554 52.5292 6.67005 52.6302 6.76849L55.6799 9.74183L54.9594 13.9404C54.9425 14.038 54.9533 14.1385 54.9906 14.2303C55.0278 14.3222 55.0901 14.4017 55.1703 14.46C55.2505 14.5182 55.3454 14.5528 55.4443 14.5599C55.5432 14.5669 55.642 14.5461 55.7297 14.4998L59.4999 12.5176L63.2701 14.4998C63.373 14.5546 63.4926 14.5729 63.6071 14.553C63.896 14.5032 64.0902 14.2292 64.0404 13.9404L63.3199 9.74183L66.3696 6.76849C66.4526 6.68714 66.5074 6.58089 66.524 6.46468C66.5688 6.17415 66.3663 5.90521 66.0758 5.86204Z" fill="#FCB516"/>
<path d="M83.0758 5.86204L78.8606 5.24944L76.9764 1.42943C76.9249 1.32484 76.8402 1.24017 76.7356 1.1887C76.4733 1.05921 76.1546 1.16712 76.0234 1.42943L74.1391 5.24944L69.924 5.86204C69.8078 5.87864 69.7015 5.93343 69.6202 6.01644C69.5219 6.11752 69.4677 6.25351 69.4695 6.39452C69.4714 6.53554 69.5292 6.67005 69.6302 6.76849L72.6799 9.74183L71.9594 13.9404C71.9425 14.038 71.9533 14.1385 71.9906 14.2303C72.0278 14.3222 72.0901 14.4017 72.1703 14.46C72.2505 14.5182 72.3454 14.5528 72.4443 14.5599C72.5432 14.5669 72.642 14.5461 72.7297 14.4998L76.4999 12.5176L80.2701 14.4998C80.373 14.5546 80.4926 14.5729 80.6071 14.553C80.896 14.5032 81.0902 14.2292 81.0404 13.9404L80.3199 9.74183L83.3696 6.76849C83.4526 6.68714 83.5074 6.58089 83.524 6.46468C83.5688 6.17415 83.3663 5.90521 83.0758 5.86204Z" fill="#FCB516"/>
</svg>
