<svg width="31" height="43" viewBox="0 0 31 43" fill="none" xmlns="http://www.w3.org/2000/svg">
<path d="M9.22919 26.5266L8.38377 25.8666C8.24195 25.7559 8.04448 25.7834 7.93354 25.9302L7.62074 26.3433L7.38204 26.0532C7.27333 25.9209 7.09135 25.8944 6.95408 25.9909L6.13806 26.5642C5.98464 26.6718 5.94118 26.8936 6.04086 27.0593C6.14046 27.2252 6.34571 27.2721 6.49896 27.1644L6.60676 27.0887C6.74188 27.6155 7.19046 27.9938 7.70544 27.9938C7.72291 27.9938 7.74038 27.9934 7.75801 27.9925C8.00805 27.98 8.24211 27.8827 8.43593 27.71C8.61535 27.5487 8.74583 27.3265 8.80768 27.0806L8.84138 27.1069C8.98958 27.2227 9.19673 27.1867 9.3037 27.0264C9.41084 26.866 9.37747 26.6423 9.22919 26.5266Z" fill="black"/>
<path d="M6.97926 24.815C7.11639 24.815 7.22756 24.6498 7.22756 24.4459C7.22756 24.2421 7.11639 24.0769 6.97926 24.0769C6.84212 24.0769 6.73096 24.2421 6.73096 24.4459C6.73096 24.6498 6.84212 24.815 6.97926 24.815Z" fill="black"/>
<path d="M7.87965 24.7815C8.01678 24.7815 8.12795 24.6163 8.12795 24.4125C8.12795 24.2087 8.01678 24.0435 7.87965 24.0435C7.74251 24.0435 7.63135 24.2087 7.63135 24.4125C7.63135 24.6163 7.74251 24.7815 7.87965 24.7815Z" fill="black"/>
<path d="M28.3574 13.8781C30.4739 10.1686 31.3641 6.28838 30.8643 2.95217C30.8485 2.84595 30.7892 2.75315 30.7031 2.69946C30.6166 2.6455 30.5127 2.63647 30.4197 2.67485C27.9949 3.67128 25.8439 5.61563 24.0985 8.36347C24.3915 5.1444 24.1535 2.64094 23.387 0.90903C23.3083 0.731043 23.1113 0.655338 22.9463 0.739992C20.8952 1.79181 19.2572 3.65911 18.2099 6.14019C17.6938 7.36293 17.4393 8.4449 17.3233 9.06387C16.2362 8.38745 14.9777 8.00213 13.6406 8.00213C13.6222 8.00213 13.6036 8.00213 13.5852 8.0023L11.5037 8.01895C8.90399 7.59676 6.30077 8.73645 4.70491 10.9964L4.59347 11.1542C4.25029 11.228 3.92639 11.3915 3.6521 11.6324L2.76736 12.4092C2.57403 12.579 2.46243 12.8425 2.49323 13.1096C2.50771 13.2352 2.54919 13.3485 2.60963 13.4451L1.97924 13.8005C1.97071 13.8058 1.96218 13.8112 1.95365 13.8166C0.786587 14.6337 0.283612 16.1988 0.730204 17.6219C1.02917 18.5742 0.995974 19.6095 0.636729 20.5371C0.273263 21.4753 0.471058 22.5436 1.14053 23.2586L2.78665 25.0165L2.78673 25.0166C2.77994 25.0928 2.77663 25.1704 2.77663 25.2537C2.77663 25.8921 2.99173 26.5085 3.38202 26.9893L6.24703 30.5235C6.8208 31.2294 7.63599 31.6232 8.48885 31.6232C8.58879 31.6232 8.68947 31.6157 8.79014 31.6047L9.01841 33.0141C9.11511 33.6112 9.00499 34.2214 8.70834 34.7324C8.22408 35.5666 7.34878 36.7261 5.92852 37.5123C3.71841 38.7358 3.36016 41.3779 3.30519 42.3807C3.2936 42.5915 3.45091 42.7678 3.6463 42.7617C3.81777 42.7565 3.95711 42.6115 3.9682 42.4264C3.99122 42.0428 4.06632 41.3653 4.30733 40.6385C6.95145 41.3345 9.43933 41.6858 11.729 41.6858C12.2416 41.6858 12.7446 41.6682 13.2368 41.633C15.4952 41.4714 17.5418 40.9409 19.3199 40.0558C21.6867 38.8777 22.9359 37.3981 23.4014 36.752C24.0518 37.3197 24.5585 37.8507 24.8295 38.1485C24.9541 38.2853 25.1565 38.2911 25.2882 38.1623C25.4278 38.0258 25.4349 37.7917 25.3034 37.6462C24.6322 36.9038 22.6394 34.8541 20.4333 34.0593L20.3582 34.0319C18.7933 33.4515 17.6642 31.9268 17.4816 30.1476L17.3661 29.0236C17.7785 29.0044 18.1899 28.9104 18.5873 28.7401C18.7401 28.6746 18.8929 28.5853 18.9176 28.5697C20.8483 27.3568 21.8904 24.9598 21.5152 22.5744L21.3081 21.258C23.8763 19.8787 26.4961 17.1405 28.3574 13.8781ZM5.4951 40.1973C5.18048 40.1248 4.87315 40.0494 4.57401 39.9718C4.82438 39.45 5.17717 38.9412 5.67161 38.5319L5.4951 40.1973ZM29.7044 3.79486L21.5194 18.2468C21.5141 18.0214 21.4873 17.7725 21.4309 17.4984C21.4024 17.3593 21.3624 17.2235 21.3129 17.0917C21.3931 16.6953 21.9358 14.1623 23.2443 11.3443C24.4288 8.79336 26.4823 5.52462 29.7044 3.79486ZM22.3029 1.94277C21.4938 3.74976 19.953 7.59264 19.6194 11.3005C19.1494 10.5974 18.5763 9.98397 17.9257 9.48222C18.0879 8.48803 18.9598 4.25607 22.3029 1.94277ZM11.8354 8.73206L13.59 8.7181C13.607 8.71792 13.6235 8.71792 13.6405 8.71792C17.0596 8.71792 19.9224 11.4756 20.3097 15.1533L20.3843 15.8616C20.3579 15.8423 20.3315 15.8232 20.3044 15.805C16.943 13.5524 13.5984 12.0701 10.3595 11.393C10.3014 9.67739 11.5461 8.8909 11.8354 8.73206ZM20.4242 16.8622C20.5989 17.0948 20.725 17.3649 20.7844 17.6537C20.9572 18.4938 20.7933 18.9961 20.6564 19.2458C20.1769 18.9273 19.6906 18.6202 19.1984 18.3243L20.4242 16.8622ZM18.9348 17.5726L18.7764 15.6632C19.2475 15.9488 19.6355 16.1996 19.9243 16.3925L18.9348 17.5726ZM18.1113 15.6638L18.2881 17.7934C17.7133 17.4689 17.1306 17.1605 16.5413 16.8668L18.1113 15.6638ZM16.0668 16.3527L15.3607 13.8468C16.2444 14.2532 17.0503 14.6729 17.7486 15.0642L16.0668 16.3527ZM14.639 13.7427L15.3601 16.3018C14.4278 15.876 13.4799 15.489 12.5201 15.1408L14.639 13.7427ZM11.9548 14.675L11.433 12.3813C12.345 12.6378 13.2275 12.9486 14.061 13.2854L11.9548 14.675ZM10.7597 12.4203L11.2817 14.7149C10.2484 14.3799 9.20279 14.0904 8.14865 13.8473L10.7597 12.4203ZM7.40657 13.4507L7.15504 11.6897C8.1099 11.7158 9.0656 11.8393 10.0023 12.0321L7.40657 13.4507ZM10.7973 8.65922C10.2748 9.1675 9.69782 10.0113 9.69401 11.2635C7.90375 10.9502 6.49153 10.9525 5.53534 11.0318C6.86344 9.41063 8.80322 8.53868 10.7973 8.65922ZM6.75109 13.5536C6.23014 13.4546 5.70763 13.3669 5.18387 13.2908L6.53441 12.0368L6.75109 13.5536ZM4.77288 11.8455C4.77735 11.8447 4.78174 11.8436 4.78621 11.8429C5.14297 11.7836 5.50213 11.7425 5.8627 11.7167L4.75169 12.7484L4.77288 11.8455ZM3.16618 12.9815L4.06988 12.1879C4.08064 12.1785 4.0919 12.1699 4.10291 12.1608L4.07973 13.1477C3.85544 13.1236 3.55771 13.0953 3.18919 13.063C3.18 13.0621 3.1608 13.0605 3.15243 13.031C3.14382 13.001 3.15889 12.9878 3.16618 12.9815ZM2.83906 24.0661L1.60608 22.7493C1.12985 22.2408 0.989185 21.4809 1.24767 20.8135C1.66942 19.7247 1.70834 18.5096 1.35745 17.392C1.01005 16.2852 1.39744 15.0686 2.2999 14.4271L3.41059 13.8011C3.74524 13.8316 4.00629 13.8579 4.1862 13.8793C4.55604 13.9232 4.92539 13.9733 5.29407 14.029L5.08626 15.2296C4.93673 16.103 4.44493 16.8656 3.73738 17.3219L2.37127 18.2006C2.247 18.2806 2.18507 18.4385 2.21835 18.5906L2.4154 19.4908C2.74434 20.9946 2.88575 22.5299 2.83906 24.0661ZM3.23763 20.2475C3.45215 20.2038 3.67892 20.1747 3.91803 20.1633C3.92747 20.1627 3.93674 20.1628 3.94618 20.1624C3.92673 20.2507 3.91555 20.3416 3.91555 20.4348C3.91555 20.9887 4.27504 21.4526 4.75475 21.5708C4.31404 21.6923 3.83905 21.6608 3.40371 21.4564C3.36124 21.052 3.30544 20.6489 3.23763 20.2475ZM4.5779 20.4348C4.5779 20.3729 4.58949 20.3131 4.61135 20.2579C4.90585 20.3543 5.1539 20.5097 5.34913 20.6682C5.2752 20.7983 5.14297 20.8849 4.99436 20.8849C4.76477 20.8849 4.5779 20.683 4.5779 20.4348ZM6.74479 30.0514L3.87995 26.5174C3.59547 26.1671 3.4389 25.7184 3.4389 25.2537C3.4389 25.1946 3.44114 25.1404 3.44594 25.0855C3.50895 24.3116 3.52501 23.5369 3.49611 22.7646C3.52915 22.7414 3.56003 22.7137 3.58462 22.6772L3.82249 22.324C3.9047 22.3374 3.98716 22.3481 4.06963 22.3535L4.04239 22.6681C4.02533 22.8649 4.15913 23.0394 4.34119 23.0578C4.35171 23.0589 4.36214 23.0595 4.37249 23.0595C4.54139 23.0595 4.6857 22.9203 4.70184 22.7349L4.73885 22.3078C4.85973 22.2835 4.97896 22.2508 5.09595 22.2093L5.26054 22.5369C5.32065 22.6563 5.43441 22.7241 5.55198 22.7241C5.60538 22.7241 5.65953 22.7101 5.7097 22.6807C5.8704 22.5863 5.92993 22.369 5.84267 22.1952L5.69761 21.9065C5.9575 21.7315 6.19396 21.5076 6.39424 21.2371C6.48532 21.1141 6.49128 20.9412 6.40906 20.8113C6.4036 20.8027 6.37884 20.7642 6.33546 20.7056L6.58351 20.3791C6.69951 20.2263 6.67906 20.0007 6.53764 19.8753C6.39631 19.75 6.18759 19.772 6.07151 19.9249L5.86651 20.1948C5.77544 20.1134 5.67319 20.031 5.56001 19.9517L5.64446 19.7067C5.70829 19.5215 5.62119 19.3154 5.44973 19.2463C5.27851 19.1772 5.08767 19.2714 5.02375 19.4568L4.96447 19.6287C4.77288 19.5527 4.56333 19.4951 4.33614 19.4662L4.3306 19.0729C4.32778 18.8771 4.18008 18.7205 3.9995 18.7205C3.99776 18.7205 3.99611 18.7205 3.99429 18.7205C3.81139 18.7235 3.66543 18.8863 3.66824 19.084L3.67362 19.4642C3.47773 19.4813 3.28805 19.5086 3.10565 19.5461C3.0905 19.4728 3.07568 19.3994 3.0597 19.3262L2.91862 18.6816L4.07617 17.9371C4.11541 17.9118 4.1535 17.8849 4.19158 17.858C4.52251 17.8647 4.79871 18.0331 5.03104 18.3739C5.2367 18.6758 5.32288 18.9974 5.3252 19.0062C5.36577 19.1647 5.49899 19.2688 5.64429 19.2688C5.67319 19.2688 5.70258 19.2646 5.73189 19.256C5.90832 19.2038 6.01223 19.0069 5.96396 18.8162C5.8483 18.3595 5.48491 17.6058 4.82645 17.2882C5.292 16.7589 5.61217 16.0914 5.73727 15.3607L5.94939 14.1349C7.39829 14.3814 8.83568 14.7178 10.2519 15.1401L10.4209 16.867C8.83286 17.0495 8.02405 18.1734 7.98812 18.2245C7.87775 18.3814 7.90607 18.6045 8.05071 18.7244C8.11065 18.7742 8.18136 18.7981 8.25165 18.7981C8.35092 18.7981 8.44928 18.7502 8.5146 18.6589C8.54391 18.618 9.20519 17.716 10.515 17.5758C10.6467 18.1192 10.9596 18.5814 11.3846 18.8829C11.291 18.9249 11.216 19.0114 11.1896 19.1257L11.1055 19.4893C10.9907 19.4679 10.8743 19.4534 10.7566 19.4479C10.6697 19.4436 10.5832 19.4446 10.4971 19.4492L10.4761 18.9285C10.4681 18.731 10.3161 18.5775 10.1307 18.5866C9.94802 18.5953 9.80636 18.7624 9.81439 18.9598L9.83915 19.5721C9.6613 19.6301 9.48926 19.707 9.32566 19.8024L9.18573 19.3642C9.12604 19.1774 8.9376 19.0781 8.76464 19.1426C8.59177 19.2071 8.49995 19.4109 8.55956 19.5977L8.76365 20.2369C8.72051 20.2799 8.67812 20.3241 8.6373 20.3704L8.47834 20.5506L8.29503 20.1833C8.20826 20.0094 8.00741 19.9441 7.84637 20.0382C7.68542 20.132 7.62523 20.3491 7.71208 20.5231L7.9988 21.0977C7.94655 21.1654 7.91782 21.251 7.92097 21.3396C7.92436 21.4363 7.96386 21.5274 8.03034 21.5921C8.04731 21.6085 8.29437 21.8429 8.80339 22.0485L8.70379 22.5607C8.66612 22.7541 8.7807 22.9439 8.95971 22.9846C8.98264 22.9898 9.00566 22.9923 9.02818 22.9923C9.18151 22.9923 9.3192 22.8766 9.3519 22.708L9.44206 22.2445C9.68316 22.2979 9.95663 22.3376 10.2644 22.3532L10.2799 22.75C10.2875 22.9424 10.4341 23.0928 10.6105 23.0928C10.6153 23.0928 10.62 23.0927 10.6248 23.0925C10.8076 23.0842 10.9494 22.9173 10.9416 22.7198L10.9254 22.3052C11.268 22.2351 11.5668 22.1012 11.8192 21.9442L11.9142 22.2219C11.9636 22.3662 12.0902 22.4556 12.2248 22.4556C12.263 22.4556 12.3019 22.4485 12.3398 22.4332C12.5112 22.3646 12.5989 22.1588 12.5353 21.9733L12.3755 21.5063C12.6463 21.2428 12.7938 21.0144 12.8085 20.9914C12.8908 20.8614 12.8848 20.6885 12.7937 20.5656C12.7826 20.5505 12.7705 20.5361 12.7591 20.5212L13.0783 20.0662C13.0926 20.0458 13.1044 20.0243 13.1141 20.002C13.3254 20.406 13.3681 20.8891 13.2303 21.3289L13.0276 21.9763C12.7349 22.9113 12.7766 23.9234 13.1452 24.8262C13.269 25.1296 13.426 25.5304 13.5419 25.9403L13.5918 26.1172C13.6856 26.4492 13.8182 26.7641 13.9832 27.0562C13.6647 27.6695 13.2711 28.2316 12.8093 28.7281C11.7214 29.8995 10.3426 30.6441 8.82235 30.8815C8.0421 31.0021 7.26549 30.6921 6.74479 30.0514ZM11.83 19.1228C11.9194 19.1571 12.0115 19.1854 12.1065 19.2066C12.3305 19.2568 12.5376 19.3622 12.7156 19.5091C12.6522 19.5306 12.594 19.5721 12.5508 19.6337L12.2748 20.0271C12.1086 19.8948 11.9296 19.7832 11.741 19.6943L11.8324 19.2994C11.8462 19.239 11.8436 19.179 11.83 19.1228ZM12.098 20.8006C11.8217 21.1211 11.2067 21.6812 10.3148 21.6393C9.56576 21.6041 9.06096 21.41 8.7716 21.2555L9.1166 20.8645C9.25785 20.7044 9.41847 20.5699 9.59234 20.4621C9.64682 21.0503 10.1074 21.5112 10.6658 21.5112C11.2122 21.5112 11.6639 21.0687 11.7334 20.4977C11.864 20.5842 11.987 20.6843 12.098 20.8006ZM10.2492 20.3452C10.2492 20.2935 10.2582 20.2432 10.274 20.1951C10.4223 20.1671 10.5744 20.1559 10.7278 20.1632C10.841 20.1685 10.9525 20.1854 11.0619 20.2098C11.0745 20.2534 11.0813 20.2988 11.0813 20.3452C11.0813 20.5933 10.8949 20.7953 10.6657 20.7953C10.4361 20.7953 10.2492 20.5933 10.2492 20.3452ZM6.38861 38.0573C6.51802 37.9813 6.64445 37.9035 6.76533 37.8224C7.17508 37.9264 7.57845 38.0125 7.9752 38.083L6.20903 39.752L6.38861 38.0573ZM6.51264 40.416L8.41368 38.6194L8.97477 40.7998C8.12737 40.7044 7.30192 40.5722 6.51264 40.416ZM9.0016 38.2321C9.63464 38.3039 10.2482 38.3367 10.8396 38.3367C10.9983 38.3367 11.1555 38.3342 11.311 38.3298L9.57983 40.479L9.0016 38.2321ZM10.1162 40.9034L12.0233 38.5355L13.3934 40.895C12.2934 40.9832 11.1924 40.9773 10.1162 40.9034ZM12.6323 38.2375C13.5509 38.1359 14.397 37.9631 15.1607 37.7555L13.93 40.4724L12.6323 38.2375ZM14.5336 40.7682L15.8834 37.7883L18.0064 39.8657C16.8829 40.3098 15.7144 40.599 14.5336 40.7682ZM18.3793 39.2649L16.4294 37.3568C16.6209 37.2881 16.8056 37.2183 16.9816 37.1479C17.6374 36.8859 18.2201 36.6065 18.7251 36.3361L18.3793 39.2649ZM19.0296 39.4117L19.3734 36.4994L20.9082 38.2586C20.3967 38.6423 19.7726 39.0428 19.0296 39.4117ZM21.8443 35.566C22.2073 35.8008 22.554 36.0556 22.8764 36.3134C22.7266 36.5202 22.4797 36.8326 22.1232 37.1979C22.0191 37.3045 21.9009 37.4201 21.7697 37.5415L21.8443 35.566ZM20.8182 34.988C20.9452 35.0483 21.0712 35.1125 21.196 35.18L21.1105 37.4468L19.6664 35.7917C20.2253 35.4424 20.6152 35.1492 20.8182 34.988ZM20.0676 34.6797C19.4602 35.1162 18.3159 35.8516 16.7517 36.4766C14.6567 37.3137 11.3912 38.0995 7.50037 37.2617C8.33246 36.5433 8.90349 35.7431 9.26927 35.113C9.31158 35.0401 9.35049 34.9653 9.38692 34.8894L9.44811 35.2179C9.47974 35.3878 9.61792 35.5053 9.77241 35.5053C9.79402 35.5053 9.81605 35.503 9.83807 35.4982C10.0174 35.4592 10.1335 35.2705 10.0974 35.0767L9.53976 32.0823L9.44331 31.4868C10.8973 31.15 12.214 30.3795 13.2766 29.2354C13.7129 28.7661 14.0934 28.2432 14.4139 27.677C14.7405 28.0663 15.135 28.3894 15.5805 28.6211C15.94 28.8081 16.3153 28.9292 16.6957 28.9873L16.8229 30.2268C17.0307 32.2508 18.3006 33.9888 20.0676 34.6797ZM18.5223 27.9894C18.5074 27.9976 18.4449 28.0311 18.3428 28.0749C17.535 28.4211 16.6558 28.3861 15.8676 27.9761C15.0794 27.5661 14.4807 26.8124 14.2253 25.9082L14.1752 25.7313C14.0493 25.2853 13.8824 24.8589 13.7511 24.5373C13.4496 23.7987 13.4154 22.9707 13.655 22.2059L13.8577 21.5584C14.0571 20.9218 13.9943 20.222 13.6854 19.6387C13.3764 19.0551 12.8499 18.6423 12.2409 18.5056C11.6333 18.3694 11.1812 17.8296 11.1159 17.1626L10.9387 15.3527C14.2731 16.4179 17.4796 17.9612 20.4279 19.9356L20.8618 22.6945C21.195 24.8116 20.2547 26.9388 18.5223 27.9894ZM20.9679 15.0724C20.8659 14.1039 20.6062 13.1945 20.2208 12.37C20.2835 9.73949 21.1258 6.87774 21.8263 4.93026C22.2905 3.64005 22.7543 2.5723 23.0525 1.92183C23.6338 3.77347 23.7109 6.46565 23.2723 9.7811C23.0553 10.1868 22.8456 10.606 22.6445 11.0398C21.8364 12.7835 21.3182 14.3956 21.0133 15.5042L20.9679 15.0724ZM21.1916 20.5189L21.1519 20.2667L30.3154 4.08712C30.6888 10.4565 25.984 17.8315 21.1916 20.5189Z" fill="black"/>
</svg>
