<svg width="40" height="40" viewBox="0 0 40 40" fill="none" xmlns="http://www.w3.org/2000/svg">
<g clip-path="url(#clip0_1299_1128)">
<path d="M39.738 11.6242C39.738 8.10859 37.152 5.28047 33.9567 5.28047C29.6286 5.07812 25.2145 5 20.7036 5H19.2973C14.7973 5 10.3755 5.07812 6.04735 5.28125C2.85985 5.28125 0.273913 8.125 0.273913 11.6406C0.0786001 14.4211 -0.00421242 17.2023 0.000475084 19.9836C-0.00733742 22.7648 0.0812043 25.5487 0.2661 28.3352C0.2661 31.8508 2.85204 34.7023 6.03954 34.7023C10.5864 34.9133 15.2505 35.007 19.9927 34.9992C24.7427 35.0148 29.3937 34.9159 33.9458 34.7023C37.1411 34.7023 39.727 31.8508 39.727 28.3352C39.9145 25.5461 40.0005 22.7648 39.9927 19.9758C40.0104 17.1945 39.9255 14.4107 39.738 11.6242ZM16.1723 27.6477V12.2961L27.5005 19.968L16.1723 27.6477Z" fill="#E71111"/>
</g>
<defs>
<clipPath id="clip0_1299_1128">
<rect width="40" height="40" fill="white"/>
</clipPath>
</defs>
</svg>
