<svg width="38" height="38" viewBox="0 0 38 38" fill="none" xmlns="http://www.w3.org/2000/svg">
<path d="M34.4481 14.2361C32.4101 7.64053 26.2557 2.83472 18.9996 2.83472C11.7435 2.83472 5.58904 7.64053 3.55114 14.2362C1.46953 14.8557 0 16.794 0 18.9999C0 21.2056 1.46953 23.1439 3.55107 23.7634C5.58897 30.3593 11.7435 35.1651 18.9996 35.1651C26.2558 35.1651 32.4102 30.3593 34.4482 23.7635C36.5302 23.1446 38 21.2064 38 18.9999C38 16.7932 36.5301 14.855 34.4481 14.2361ZM3.12082 22.0321C2.0903 21.4005 1.41788 20.2614 1.41788 18.9998C1.41788 17.7381 2.09022 16.599 3.1209 15.9675C2.93364 16.9502 2.83441 17.9635 2.83441 18.9999C2.83441 20.0362 2.93357 21.0496 3.12082 22.0321ZM18.9996 33.7472C10.868 33.7472 4.25236 27.1316 4.25236 18.9999C4.25236 13.3763 7.4169 8.47853 12.0582 5.99176C12.7633 7.49209 14.9811 11.2461 20.2385 13.3491C20.3248 13.3836 20.4139 13.4 20.5015 13.4C20.7828 13.4 21.0491 13.2314 21.16 12.9541C21.3054 12.5905 21.1285 12.178 20.7649 12.0325C15.9881 10.1217 13.9544 6.65936 13.3429 5.38131C14.9533 4.70985 16.7072 4.31627 18.5446 4.26031C19.0359 5.25685 20.4467 7.59637 23.3616 8.9214C23.4568 8.96467 23.5564 8.98508 23.6546 8.98508C23.924 8.98508 24.1817 8.83063 24.3005 8.5693C24.4625 8.21283 24.3049 7.7926 23.9484 7.63058C21.9844 6.73788 20.8058 5.278 20.1951 4.30143C27.7697 4.9121 33.7467 11.2709 33.7467 19C33.7469 27.1316 27.1314 33.7472 18.9996 33.7472ZM34.8782 22.0327C35.0655 21.0499 35.1647 20.0363 35.1647 18.9999C35.1647 17.9635 35.0655 16.9497 34.8781 15.9669C35.9092 16.5981 36.5819 17.7374 36.5819 18.9999C36.5821 20.2622 35.9094 21.4015 34.8782 22.0327Z" fill="black"/>
<path d="M12.929 18.1312C11.234 18.1312 9.85498 19.5102 9.85498 21.2053C9.85498 21.5968 10.1723 21.9142 10.5639 21.9142C10.9555 21.9142 11.2729 21.5968 11.2729 21.2053C11.2729 20.292 12.0158 19.5492 12.929 19.5492C13.8422 19.5492 14.5852 20.2921 14.5852 21.2053C14.5852 21.5968 14.9025 21.9142 15.2941 21.9142C15.6857 21.9142 16.003 21.5968 16.003 21.2053C16.0032 19.5102 14.6241 18.1312 12.929 18.1312Z" fill="black"/>
<path d="M25.0702 18.1312C23.3752 18.1312 21.9961 19.5102 21.9961 21.2053C21.9961 21.5968 22.3135 21.9142 22.705 21.9142C23.0967 21.9142 23.414 21.5968 23.414 21.2053C23.414 20.292 24.1569 19.5492 25.0702 19.5492C25.9835 19.5492 26.7264 20.2921 26.7264 21.2053C26.7264 21.5968 27.0437 21.9142 27.4353 21.9142C27.8269 21.9142 28.1442 21.5968 28.1442 21.2053C28.1442 19.5102 26.7653 18.1312 25.0702 18.1312Z" fill="black"/>
<path d="M23.3388 25.9768C23.0619 25.7 22.6131 25.7 22.3361 25.9768C20.5341 27.7787 17.6021 27.7787 15.8001 25.9768C15.5232 25.7 15.0744 25.7 14.7975 25.9768C14.5206 26.2536 14.5206 26.7026 14.7975 26.9793C15.939 28.1208 17.4557 28.7495 19.0682 28.7495C20.6807 28.7495 22.1974 28.1209 23.3389 26.9793C23.6158 26.7025 23.6158 26.2536 23.3388 25.9768Z" fill="black"/>
<path d="M19.9457 22.2307H18.0537C17.662 22.2307 17.3447 22.5481 17.3447 22.9397C17.3447 23.3312 17.6622 23.6486 18.0537 23.6486H19.9457C20.3374 23.6486 20.6547 23.3312 20.6547 22.9397C20.6547 22.5481 20.3373 22.2307 19.9457 22.2307Z" fill="black"/>
</svg>
