<svg width="33" height="33" viewBox="0 0 33 33" fill="none" xmlns="http://www.w3.org/2000/svg">
<path d="M0.693654 28.3654C0.700447 28.4782 0.730841 28.5842 0.779958 28.6788C0.826028 28.7677 0.889863 28.8491 0.970854 28.9172C0.981479 28.9263 0.992365 28.9349 1.00351 28.9433C1.98334 29.6944 4.32182 29.9622 6.18698 29.9622C6.38702 29.9622 6.59045 29.9592 6.79145 29.9532C7.2241 29.9405 7.56453 29.5793 7.55182 29.1466C7.5391 28.7139 7.17673 28.3717 6.7453 28.3863C6.55963 28.3918 6.37178 28.3946 6.18698 28.3946C4.19075 28.3946 2.85134 28.1057 2.24521 27.8533L1.62245 8.68002C1.82074 8.755 2.03698 8.82476 2.27125 8.88929C3.43047 9.20847 4.95791 9.3843 6.57243 9.3843C7.01335 9.3843 7.44792 9.37123 7.87021 9.34563L7.56122 19.4979C7.54807 19.9305 7.88806 20.292 8.3208 20.3052C8.7538 20.32 9.11495 19.9783 9.12811 19.5455L9.44345 9.184C9.96136 9.10666 10.443 9.0079 10.8736 8.88929C11.1086 8.82458 11.3254 8.75448 11.5242 8.67923L11.2973 15.9436C11.2838 16.3763 11.6236 16.738 12.0562 16.7514C12.49 16.7686 12.8505 16.4252 12.8641 15.9925L13.1424 7.08283C13.1439 7.05749 13.1446 7.03197 13.1446 7.00628C13.1446 6.34049 12.6599 5.80142 11.7038 5.40386C11.3044 5.23761 10.8455 5.42694 10.6791 5.82659C10.5129 6.22632 10.7022 6.68501 11.1019 6.85135C11.2449 6.91083 11.3501 6.965 11.4266 7.01046C11.1123 7.197 10.4571 7.42421 9.49178 7.58977L9.69278 0.986771C9.70593 0.554119 9.36594 0.192704 8.9332 0.179467C8.50247 0.16832 8.13905 0.506482 8.1259 0.939134L8.01216 4.67607C7.54328 4.64437 7.0616 4.62826 6.57225 4.62826C4.95773 4.62826 3.4303 4.80409 2.27107 5.12335C0.768898 5.53711 0.00487692 6.16797 0 6.99844C0 7.00297 0 7.0075 0 7.01203C8.70878e-05 7.03423 0.000696702 7.05627 0.00191593 7.07821L0.692435 28.338C0.692696 28.3472 0.693044 28.3563 0.693654 28.3654ZM6.57225 6.19593C7.04688 6.19593 7.51271 6.21212 7.96444 6.24426L7.91793 7.77265C7.50165 7.80078 7.05272 7.81672 6.57225 7.81672C3.95291 7.81672 2.2716 7.34339 1.71093 7.00637C2.2716 6.66934 3.953 6.19593 6.57225 6.19593ZM3.59664 18.9162C3.29052 18.6101 3.29061 18.1139 3.59672 17.8078C3.90293 17.5018 4.39915 17.5017 4.70518 17.8079L4.98987 18.0926C5.29598 18.3988 5.29589 18.895 4.98978 19.2011C4.83677 19.3541 4.6362 19.4307 4.43564 19.4307C4.23499 19.4307 4.03443 19.3541 3.88141 19.201L3.59664 18.9162ZM18.0963 9.07705C18.2208 8.18937 18.6829 7.25822 19.1299 6.35774C20.1795 4.24298 20.3607 3.50369 19.4496 2.99876C19.0709 2.78888 18.9342 2.31181 19.144 1.93324C19.3538 1.55467 19.8309 1.41812 20.2094 1.62765C21.2639 2.2121 21.7341 3.14603 21.5693 4.32833C21.4451 5.21898 20.9819 6.15221 20.5339 7.05479C19.4878 9.1624 19.3065 9.89864 20.2094 10.3991C20.588 10.609 20.7248 11.0861 20.5149 11.4646C20.3717 11.7229 20.1044 11.8687 19.8287 11.8687C19.7001 11.8687 19.5698 11.8369 19.4494 11.7702C18.3989 11.1878 17.931 10.2565 18.0963 9.07705ZM10.922 31.5153C11.015 31.938 10.7478 32.3562 10.325 32.4493C9.23627 32.6889 7.81177 32.8208 6.31395 32.8208C4.25911 32.8208 1.68567 32.5578 0.625377 31.8199C0.270059 31.5726 0.182536 31.0842 0.429865 30.7289C0.677107 30.3737 1.16567 30.2861 1.5209 30.5334C2.02235 30.8824 3.87253 31.2533 6.31395 31.2533C7.70187 31.2533 9.0067 31.1345 9.98818 30.9184C10.4108 30.8257 10.829 31.0926 10.922 31.5153ZM32.4134 22.0867C32.2301 21.928 31.9834 21.8629 31.7457 21.9108C31.1468 22.0314 30.5322 22.1423 29.9045 22.2436C29.765 22.0062 29.5954 21.7873 29.3967 21.5886L28.0167 20.2086C29.3032 19.8012 30.4947 19.0025 31.4084 17.868C33.2712 15.5546 33.523 12.4117 32.0352 10.0474C31.9422 9.89951 31.8025 9.78699 31.6382 9.7276C29.0111 8.77869 25.9944 9.69511 24.1315 12.0085C22.3958 14.1641 22.0584 17.0394 23.2239 19.3341L23.0613 19.5359C22.7897 19.8731 22.843 20.3665 23.1802 20.638C23.5174 20.9096 24.0108 20.8561 24.2822 20.5191L24.4448 20.3173C24.9924 20.4599 25.5516 20.5256 26.1098 20.5186L28.0954 22.5041C25.4671 22.8388 22.6544 23.0123 19.7944 23.0123C16.9345 23.0123 14.1217 22.8387 11.4935 22.5041L18.5768 15.4209C19.1146 14.883 19.9577 14.7641 20.6273 15.1318C21.0065 15.3402 21.4832 15.2017 21.6916 14.8221C21.9 14.4428 21.7613 13.9662 21.382 13.7578C20.1053 13.0566 18.4959 13.2846 17.4683 14.3124L10.1921 21.5886C9.99358 21.7872 9.82394 22.0062 9.68451 22.2435C9.05695 22.1422 8.44238 22.0312 7.84347 21.9107C7.60572 21.8632 7.35918 21.9278 7.17577 22.0867C6.99236 22.2455 6.89291 22.4802 6.90623 22.7224C7.13658 26.8981 10.5646 30.3753 15.3045 31.743C15.2679 31.8337 15.2477 31.9328 15.2477 32.0366C15.2477 32.4695 15.5986 32.8204 16.0315 32.8204H23.5572C23.9902 32.8204 24.341 32.4695 24.341 32.0366C24.341 31.9328 24.3209 31.8337 24.2843 31.743C29.0241 30.3753 32.4524 26.8981 32.6829 22.7224C32.6962 22.4802 32.5967 22.2455 32.4134 22.0867ZM25.5628 18.9291L28.7032 15.0291C28.9747 14.6919 28.9214 14.1985 28.5843 13.9271C28.2473 13.6556 27.7537 13.7088 27.4823 14.0459L24.3419 17.946C23.8189 16.3288 24.1751 14.4541 25.3526 12.9918C26.7339 11.2763 28.9111 10.5441 30.8468 11.1171C31.8199 12.8863 31.5688 15.1695 30.1876 16.8849C29.2152 18.0923 27.8489 18.8128 26.4498 18.9336C26.3915 18.9314 25.7998 18.9525 25.5628 18.9291ZM27.7236 28.3575C25.59 29.9319 22.7741 30.7989 19.7945 30.7989C16.815 30.7989 13.9991 29.9319 11.8654 28.3575C10.1235 27.0722 8.99382 25.4289 8.6088 23.6511C9.06906 23.733 9.53655 23.8096 10.0111 23.881C10.0251 23.8835 10.039 23.8856 10.053 23.8873C13.096 24.3426 16.4153 24.5801 19.7945 24.5801C23.1741 24.5801 26.4935 24.3424 29.5369 23.8872C29.5503 23.8855 29.5637 23.8835 29.5771 23.8812C30.0519 23.8098 30.5199 23.7331 30.9803 23.6511C30.5952 25.4289 29.4655 27.0722 27.7236 28.3575ZM5.6284 16.1099C5.47538 16.2629 5.27482 16.3394 5.07426 16.3394C4.87361 16.3394 4.67304 16.2628 4.51994 16.1097C4.21392 15.8035 4.21392 15.3073 4.52012 15.0012L4.80498 14.7164C5.11109 14.4103 5.60741 14.4105 5.91343 14.7166C6.21946 15.0228 6.21946 15.519 5.91326 15.8251L5.6284 16.1099ZM3.60622 12.6928L3.32153 12.408C3.01541 12.1019 3.0155 11.6056 3.32161 11.2995C3.62773 10.9935 4.12395 10.9934 4.43007 11.2996L4.71476 11.5844C5.02087 11.8905 5.02078 12.3867 4.71467 12.6928C4.56166 12.8459 4.36109 12.9224 4.16053 12.9224C3.95979 12.9223 3.75923 12.8458 3.60622 12.6928Z" fill="black"/>
</svg>
