<svg width="23" height="23" viewBox="0 0 23 23" fill="none" xmlns="http://www.w3.org/2000/svg">
<g clip-path="url(#clip0_200_1472)">
<path d="M9.64413 18.0958C8.52876 18.0958 7.62134 19.0032 7.62134 20.1186C7.62134 21.234 8.52876 22.1414 9.64413 22.1414C10.7595 22.1414 11.6669 21.234 11.6669 20.1186C11.6669 19.0032 10.7595 18.0958 9.64413 18.0958ZM9.64413 21.0119C9.15151 21.0119 8.75077 20.6111 8.75077 20.1185C8.75077 19.6259 9.15156 19.2252 9.64413 19.2252C10.1367 19.2252 10.5375 19.626 10.5375 20.1185C10.5375 20.6112 10.1367 21.0119 9.64413 21.0119Z" fill="white"/>
<path d="M16.7392 18.0958C15.6239 18.0958 14.7164 19.0032 14.7164 20.1186C14.7164 21.234 15.6239 22.1414 16.7392 22.1414C17.8546 22.1414 18.762 21.234 18.762 20.1186C18.762 19.0032 17.8545 18.0958 16.7392 18.0958ZM16.7392 21.0119C16.2466 21.0119 15.8459 20.6111 15.8459 20.1185C15.8459 19.6259 16.2467 19.2252 16.7392 19.2252C17.2318 19.2252 17.6326 19.626 17.6326 20.1185C17.6326 20.6112 17.2318 21.0119 16.7392 21.0119Z" fill="white"/>
<path d="M17.2373 7.44604H9.14467C8.83278 7.44604 8.57996 7.69887 8.57996 8.01076C8.57996 8.32265 8.83282 8.57547 9.14467 8.57547H17.2373C17.5492 8.57547 17.802 8.32265 17.802 8.01076C17.802 7.69882 17.5492 7.44604 17.2373 7.44604Z" fill="white"/>
<path d="M16.7968 10.3785H9.5851C9.27321 10.3785 9.02039 10.6314 9.02039 10.9433C9.02039 11.2551 9.27321 11.508 9.5851 11.508H16.7967C17.1086 11.508 17.3615 11.2551 17.3615 10.9433C17.3615 10.6314 17.1086 10.3785 16.7968 10.3785Z" fill="white"/>
<path d="M22.7459 4.92992C22.5305 4.6656 22.2114 4.51403 21.8704 4.51403H4.2801L3.92485 2.78952C3.85069 2.42979 3.60532 2.12773 3.26836 1.98142L0.789703 0.905542C0.503551 0.781243 0.170993 0.91255 0.0468738 1.19861C-0.0773803 1.48477 0.0539266 1.81737 0.339945 1.94149L2.81865 3.01741L5.55107 16.2811C5.65871 16.8035 6.12392 17.1826 6.65728 17.1826H20.1862C20.4981 17.1826 20.751 16.9298 20.751 16.6179C20.751 16.306 20.4981 16.0532 20.1862 16.0532H6.65732L6.32494 14.4398H20.2908C20.8241 14.4398 21.2894 14.0606 21.397 13.5383L22.9766 5.87122C23.0453 5.53736 22.9613 5.1942 22.7459 4.92992ZM20.2908 13.3104H6.09229L4.51279 5.64342L21.8703 5.64346L20.2908 13.3104Z" fill="white"/>
</g>
<defs>
<clipPath id="clip0_200_1472">
<rect width="23" height="23" fill="white"/>
</clipPath>
</defs>
</svg>
