<svg width="117" height="45" viewBox="0 0 117 45" fill="none" xmlns="http://www.w3.org/2000/svg">
<g clip-path="url(#clip0_25_942)">
<path d="M0 10.7561H1.64634V13.9665H0V10.7561ZM0 18.6037H1.64634V35.1494H0V18.6037Z" fill="#1D1D1B"/>
<path d="M45.4938 21.128C45.4938 17.0396 45.439 15.2835 45.439 14.5152H47.8262C47.881 15.2835 47.9359 16.8475 47.9359 19.9481C49.3353 16.2988 52.4634 14.1036 56.3871 13.9116V16.5457C51.3384 16.875 47.9359 20.3872 47.9359 26.1768V38.7988H45.4938V21.128Z" fill="#1D1D1B"/>
<path d="M77.4602 34.2165C77.4328 35.753 77.57 37.3171 77.7895 38.8262H75.4572C75.2651 38.25 75.1279 37.1799 75.0181 35.0945C74.195 36.9055 72.0547 39.4299 67.0334 39.4299C61.4084 39.4299 58.9663 35.7805 58.9663 32.1311C58.9663 26.7805 63.0822 24.3384 70.3809 24.3384H74.9907V21.8689C74.9907 19.4268 74.2498 16.189 68.7072 16.189C63.7956 16.189 63.0822 18.7683 62.5334 20.7439H60.0913C60.3931 18.0823 62.0395 13.939 68.7346 13.939C74.2773 13.939 77.3779 16.2713 77.3779 21.622V34.2165H77.4602ZM75.073 26.4238H70.2986C64.8931 26.4238 61.5456 27.8232 61.5456 32.0213C61.5456 35.0945 63.7407 37.1799 67.1431 37.1799C74.0852 37.1799 75.073 32.5701 75.073 27.3018V26.4238Z" fill="#1D1D1B"/>
<path d="M85.5273 14.5153C89.1218 27.0549 91.2072 34.2439 91.6188 36.3842H91.6737C92.0578 34.436 94.4999 26.8079 98.2865 14.5153H100.921C105.448 29.5244 106.793 33.8598 107.232 35.7531H107.286C107.972 33.0915 109.07 29.4421 113.57 14.5153H116.149L108.466 38.8262H105.777C103.171 30.2104 99.9877 19.6738 99.5212 17.4512H99.4663C98.9724 19.8384 96.2011 28.5366 93.0456 38.8262H90.1371L83.0029 14.5153H85.5273Z" fill="#1D1D1B"/>
<path d="M15.6404 0L10.7563 6.39329C10.7563 6.39329 19.4819 2.60671 24.0093 7.02439V9.13719C24.0093 9.13719 20.1404 3.89634 8.80811 7.92988L15.6404 0Z" fill="#39AA35"/>
<path d="M32.3234 0L37.235 6.39329C37.235 6.39329 28.5094 2.60671 23.9819 7.02439V9.13719C23.9819 9.13719 27.8508 3.89634 39.1832 7.92988L32.3234 0Z" fill="#39AA35"/>
<path d="M23.9816 2.46949C23.9816 2.46949 21.3749 -0.658558 14.7896 1.78351C14.7896 1.78351 20.003 -0.0823389 23.9816 2.99083V2.46949Z" fill="#39AA35"/>
<path d="M23.9819 3.95125C23.9819 3.95125 20.2502 0.878076 14.4606 2.936L13.9941 3.5671C13.9941 3.5671 18.5216 1.07015 23.9819 3.95125Z" fill="#39AA35"/>
<path d="M23.9816 5.24087C23.9816 5.24087 19.0426 2.41465 13.9938 4.82929L13.8018 5.10368C13.8018 5.07624 19.1524 2.96343 23.9816 5.24087Z" fill="#39AA35"/>
<path d="M23.9819 2.46949C23.9819 2.46949 26.5886 -0.658558 33.174 1.78351C33.174 1.78351 27.9606 -0.0823389 23.9819 2.99083V2.46949Z" fill="#39AA35"/>
<path d="M23.9819 3.95125C23.9819 3.95125 27.7136 0.878076 33.4758 2.936L33.9697 3.5671C33.9972 3.5671 29.4697 1.07015 23.9819 3.95125Z" fill="#39AA35"/>
<path d="M23.9819 5.24087C23.9819 5.24087 28.8935 2.41465 33.9697 4.82929L34.1618 5.10368C34.1892 5.07624 28.8112 2.96343 23.9819 5.24087Z" fill="#39AA35"/>
<path d="M48.4846 9.9878L46.4541 7.71036C46.4266 7.68292 46.3992 7.62804 46.3717 7.6006V9.9878H46.0425V5.24084H46.3717V7.49084C46.3992 7.43597 46.4266 7.40853 46.4541 7.38109L48.3748 5.24084H48.8138L46.7285 7.54572L48.951 9.9878H48.4846Z" fill="#1D1D1B"/>
<path d="M52.9844 9.9878L50.1582 6.14633C50.1033 6.06402 50.0484 5.9817 49.9935 5.92682L49.9386 5.87194C49.9386 5.92682 49.9386 6.00914 49.9386 6.09145V10.0152H49.6094V5.24084H49.8563L52.6825 9.05487C52.7374 9.13719 52.8197 9.24694 52.8746 9.3567H52.9021C52.9021 9.19206 52.8746 9.05487 52.8746 8.94511V5.24084H53.2039V9.9878H52.9844Z" fill="#1D1D1B"/>
<path d="M56.3871 10.0701C55.7286 10.0701 55.1798 9.85061 54.7682 9.41158C54.3566 8.97256 54.1646 8.39634 54.1646 7.68293C54.1646 6.91463 54.3566 6.31097 54.7682 5.87195C55.1798 5.43293 55.7286 5.18597 56.442 5.18597C57.0731 5.18597 57.5944 5.40549 58.006 5.84451C58.3902 6.28354 58.6097 6.85975 58.6097 7.57317C58.6097 8.3689 58.4176 8.97256 58.006 9.43902C57.6219 9.85061 57.0731 10.0701 56.3871 10.0701ZM56.4146 5.46036C55.8658 5.46036 55.3993 5.65244 55.0426 6.06402C54.6859 6.47561 54.4938 6.99695 54.4938 7.62805C54.4938 8.28658 54.6585 8.80793 54.9877 9.19207C55.317 9.57622 55.7835 9.76829 56.3322 9.76829C56.9085 9.76829 57.3749 9.57622 57.7316 9.19207C58.0609 8.80793 58.253 8.28658 58.253 7.60061C58.253 6.94207 58.0883 6.39329 57.7591 6.03658C57.4298 5.67988 56.9908 5.46036 56.4146 5.46036Z" fill="#1D1D1B"/>
<path d="M63.4936 9.98776H63.2192L62.1765 6.42069C62.1216 6.22862 62.0942 6.09142 62.0942 5.98166H62.0667C62.0667 6.09142 62.0393 6.22862 61.957 6.42069L60.832 10.0152H60.5576L59.1582 5.26825H59.5149L60.585 9.08227C60.6399 9.24691 60.6673 9.3841 60.6948 9.49386C60.6948 9.41154 60.7497 9.27435 60.8045 9.08227L61.9844 5.26825H62.1491L63.2192 9.08227C63.2741 9.24691 63.3015 9.41154 63.3289 9.49386C63.3289 9.43898 63.3564 9.35666 63.3838 9.27435L64.5088 5.26825H64.8655L63.4936 9.98776Z" fill="#1D1D1B"/>
<path d="M65.689 9.9878V5.24084H66.0182V9.68597H67.9115V9.9878H65.689Z" fill="#1D1D1B"/>
<path d="M68.7896 9.9878V5.24084H71.0121V5.54267H69.1188V7.43597H70.8749V7.7378H69.1188V9.68597H71.1219V9.9878H68.7896Z" fill="#1D1D1B"/>
<path d="M72.1919 9.9878V5.24084H73.3718C74.1675 5.24084 74.7712 5.43292 75.1827 5.8445C75.5943 6.25609 75.7864 6.80487 75.7864 7.57316C75.7864 8.28658 75.5669 8.89023 75.1279 9.32926C74.6888 9.76828 74.0852 10.0152 73.2895 10.0152H72.1919V9.9878ZM72.5212 5.54267V9.68597H73.262C73.9754 9.68597 74.4968 9.49389 74.8809 9.13719C75.2651 8.78048 75.4571 8.2317 75.4571 7.54572C75.4571 6.20121 74.7437 5.51523 73.3169 5.51523H72.5212V5.54267Z" fill="#1D1D1B"/>
<path d="M80.2042 9.65851C79.7103 9.9329 79.2164 10.0701 78.695 10.0701C78.0365 10.0701 77.5152 9.85058 77.131 9.41156C76.7194 8.97253 76.5273 8.39631 76.5273 7.6829C76.5273 6.96948 76.7469 6.36583 77.1859 5.87192C77.6249 5.37802 78.2011 5.15851 78.9145 5.15851C79.3261 5.15851 79.7377 5.24083 80.1219 5.40546V5.76217C79.6828 5.54265 79.2712 5.46034 78.8597 5.46034C78.256 5.46034 77.7895 5.65241 77.4054 6.064C77.0487 6.47558 76.8566 6.99692 76.8566 7.62802C76.8566 8.28656 77.0212 8.8079 77.378 9.19204C77.7072 9.57619 78.1737 9.76826 78.7499 9.76826C79.1889 9.76826 79.5456 9.68595 79.8749 9.49387V7.92985H78.7499V7.62802H80.2042V9.65851Z" fill="#1D1D1B"/>
<path d="M81.3018 9.9878V5.24084H83.5243V5.54267H81.631V7.43597H83.3871V7.7378H81.631V9.68597H83.6341V9.9878H81.3018Z" fill="#1D1D1B"/>
<path d="M86.5425 9.9878V5.24084H86.8718V9.9878H86.5425Z" fill="#1D1D1B"/>
<path d="M87.9419 9.82314V9.439C88.2712 9.65851 88.6279 9.76826 88.9846 9.76826C89.3687 9.76826 89.6431 9.68595 89.8352 9.54875C90.0273 9.38412 90.1096 9.19205 90.1096 8.91765C90.1096 8.6707 90.0547 8.47863 89.9175 8.34144C89.7803 8.20424 89.5059 8.01217 89.0669 7.73778C88.573 7.46339 88.2712 7.21644 88.1614 7.02436C88.0516 6.83229 87.9693 6.61278 87.9693 6.36583C87.9693 6.03656 88.1065 5.73473 88.3535 5.51522C88.6279 5.26826 88.9571 5.15851 89.3962 5.15851C89.6705 5.15851 89.9724 5.21339 90.2468 5.2957V5.65241C89.9724 5.51522 89.6706 5.46034 89.3413 5.46034C89.012 5.46034 88.7651 5.54265 88.573 5.70729C88.3809 5.87192 88.2986 6.09144 88.2986 6.33839C88.2986 6.58534 88.3535 6.77741 88.4907 6.91461C88.6279 7.0518 88.9023 7.24387 89.3413 7.49083C89.7803 7.73778 90.0821 7.95729 90.2193 8.14936C90.3565 8.34144 90.4388 8.56095 90.4388 8.83534C90.4388 9.19205 90.3017 9.49387 90.0547 9.74083C89.8078 9.96034 89.451 10.0975 88.9846 10.0975C88.8199 10.0975 88.6279 10.0701 88.4084 10.0152C88.1888 9.96034 88.0517 9.90546 87.9419 9.82314Z" fill="#1D1D1B"/>
<path d="M93.6491 8.0945V9.9878H93.3198V5.24084H94.4723C94.9662 5.24084 95.3229 5.3506 95.5973 5.57011C95.8442 5.78962 95.9814 6.11889 95.9814 6.55792C95.9814 6.99694 95.8442 7.35365 95.5424 7.65548C95.2406 7.92987 94.8564 8.0945 94.3351 8.0945H93.6491ZM93.6491 5.54267V7.79267H94.3351C94.7741 7.79267 95.0759 7.68292 95.3229 7.49084C95.5424 7.29877 95.6521 6.99694 95.6521 6.6128C95.6521 5.89938 95.2406 5.54267 94.4174 5.54267H93.6491Z" fill="#1D1D1B"/>
<path d="M98.9726 10.0701C98.314 10.0701 97.7652 9.85061 97.3537 9.41158C96.9421 8.97256 96.75 8.39634 96.75 7.68293C96.75 6.91463 96.9421 6.31097 97.3537 5.87195C97.7652 5.40549 98.314 5.18597 99.0274 5.18597C99.6585 5.18597 100.18 5.40549 100.591 5.84451C100.976 6.28354 101.195 6.85975 101.195 7.57317C101.195 8.3689 101.003 8.97256 100.591 9.43902C100.207 9.85061 99.6585 10.0701 98.9726 10.0701ZM99 5.46036C98.4512 5.46036 97.9848 5.65244 97.628 6.06402C97.2713 6.47561 97.0793 6.99695 97.0793 7.62805C97.0793 8.28658 97.2439 8.80793 97.5732 9.19207C97.9024 9.57622 98.3689 9.76829 98.9177 9.76829C99.4939 9.76829 99.9604 9.57622 100.317 9.19207C100.646 8.80793 100.838 8.28658 100.838 7.60061C100.838 6.94207 100.674 6.39329 100.345 6.03658C100.043 5.65244 99.5762 5.46036 99 5.46036Z" fill="#1D1D1B"/>
<path d="M106.079 9.98776H105.805L104.762 6.42069C104.707 6.22862 104.68 6.09142 104.68 5.98166H104.652C104.652 6.09142 104.625 6.22862 104.542 6.42069L103.417 10.0152H103.143L101.744 5.26825H102.1L103.17 9.08227C103.225 9.24691 103.253 9.3841 103.28 9.49386C103.28 9.41154 103.335 9.27435 103.39 9.08227L104.57 5.26825H104.735L105.805 9.08227C105.86 9.24691 105.887 9.41154 105.914 9.49386C105.914 9.43898 105.942 9.35666 105.969 9.27435L107.094 5.26825H107.451L106.079 9.98776Z" fill="#1D1D1B"/>
<path d="M108.274 9.9878V5.24084H110.497V5.54267H108.604V7.43597H110.36V7.7378H108.604V9.68597H110.607V9.9878H108.274Z" fill="#1D1D1B"/>
<path d="M114.091 9.9878L113.46 8.58841C113.323 8.31401 113.186 8.12194 113.076 8.01219C112.939 7.90243 112.774 7.87499 112.582 7.87499H112.006V9.9878H111.677V5.24084H112.994C113.405 5.24084 113.735 5.3506 113.982 5.57011C114.229 5.78962 114.338 6.09145 114.338 6.4756C114.338 6.83231 114.229 7.1067 114.037 7.32621C113.844 7.54572 113.57 7.71036 113.213 7.76523C113.405 7.84755 113.597 8.06706 113.762 8.45121L114.476 9.96036H114.091V9.9878ZM111.979 5.54267V7.57316H112.802C113.158 7.57316 113.46 7.49084 113.68 7.29877C113.899 7.1067 114.009 6.85975 114.009 6.50304C114.009 6.20121 113.899 5.95426 113.707 5.78963C113.515 5.62499 113.241 5.54267 112.884 5.54267H111.979Z" fill="#1D1D1B"/>
<path d="M40.3081 43.0244L31.5551 36.7134C36.0825 33.5031 38.2776 27.7409 38.2776 21.5945C38.2776 16.5457 36.7959 12.1829 34.1069 9.10977C33.613 8.56099 32.7624 8.47867 32.1862 8.97258C31.6374 9.46648 31.5825 10.2896 32.049 10.8659C34.3264 13.6098 35.4788 17.5061 35.4788 21.6494C35.4788 29.7165 31.7746 36.9055 22.9941 36.9055C14.8173 36.9055 10.5093 29.5244 10.5093 21.7043C10.5093 17.2866 11.7715 13.0336 14.5154 10.2073C14.9819 9.71343 14.9819 8.94514 14.5154 8.47867C13.9941 7.95733 13.1709 7.95733 12.6221 8.45123C9.38433 11.6616 7.68311 16.4909 7.68311 21.8415C7.68311 31.6098 13.2807 39.3476 22.8569 39.3476C24.9697 39.375 27.0551 38.9634 29.0032 38.1677L38.6069 45.0275L40.3081 43.0244Z" fill="#39AA35"/>
</g>
<defs>
<clipPath id="clip0_25_942">
<rect width="116.122" height="45" fill="white"/>
</clipPath>
</defs>
</svg>
