<svg width="38" height="38" viewBox="0 0 38 38" fill="none" xmlns="http://www.w3.org/2000/svg">
<g clip-path="url(#clip0_124_510)">
<path d="M0.000209738 37.1118L0.821777 37.9333L2.17853 36.5766L1.35696 35.755L0.000209738 37.1118Z" fill="black"/>
<path d="M35.2766 9.97731L36.0981 10.7988L37.0026 9.89434L36.1811 9.07283L35.2766 9.97731Z" fill="black"/>
<path d="M37.4563 6.80945C37.2816 6.63489 37.0803 6.50308 36.8656 6.41254L37.8671 5.41111L32.5227 0.0668945L18.1328 14.4567L18.5851 14.909L5.01698 28.4771L5.46926 28.9294L2.30334 32.0953L3.66012 33.4521L1.80957 35.3027L2.63109 36.1242L4.48164 34.2737L5.83842 35.6305L9.00434 32.4645L9.45662 32.9168L23.0248 19.3487L23.4771 19.8009L35.5817 7.69621L35.647 7.63097C35.7788 7.49909 35.9542 7.4265 36.1408 7.4265C36.3273 7.4265 36.5026 7.49916 36.6345 7.63097C36.9068 7.90328 36.9068 8.34614 36.6345 8.61844L37.4562 9.44004C38.1814 8.71493 38.1814 7.53479 37.4563 6.80945ZM5.8385 33.9874L3.94646 32.0953L6.29085 29.751L8.1829 31.643L5.8385 33.9874ZM9.45677 31.2737L6.66016 28.4771L7.64763 27.4896L10.4442 30.2862L9.45677 31.2737ZM11.2658 29.4647L8.46915 26.668L19.4067 15.7305L22.2033 18.5271L11.2658 29.4647ZM23.4772 18.1578L19.7761 14.4567L20.7636 13.4693L24.4647 17.1704L23.4772 18.1578ZM25.2862 16.3487L21.5851 12.6475L30.7136 3.51922L34.4147 7.22032L25.2862 16.3487ZM35.2363 6.39873L31.5352 2.69755L32.5227 1.71008L36.2238 5.41119L35.2363 6.39873Z" fill="black"/>
<path d="M34.8256 10.4277L26.2739 18.9794L27.5892 20.2947L28.4109 19.4731L27.9171 18.9794L35.6472 11.2493L34.8256 10.4277Z" fill="black"/>
</g>
<defs>
<clipPath id="clip0_124_510">
<rect width="38" height="38" fill="white"/>
</clipPath>
</defs>
</svg>
