<svg width="108" height="108" viewBox="0 0 108 108" fill="none" xmlns="http://www.w3.org/2000/svg">
<rect width="108" height="108" rx="8" fill="#EB89F4" fill-opacity="0.42"/>
<path fill-rule="evenodd" clip-rule="evenodd" d="M72.8224 35.5507L62.7059 45.6076L63.4221 51.2478L65.2723 47.3682L71.0319 54.6498L79.0893 30L52.2312 41.1014L59.4829 44.8913L72.8224 35.5507Z" fill="#722979"/>
<path d="M64.0489 53.1572H53.425C45.3079 54.3808 44.4723 66.1088 53.3355 67.6905H64.0489V57.1263C67.63 57.2456 68.3462 61.6623 65.7201 63.3036C66.2572 63.9005 68.3761 66.1983 68.3761 66.1983C73.9566 61.4236 70.7933 53.5452 64.0489 53.1572ZM60.1396 63.7214H54.2009C50.5303 63.9303 49.3366 57.9022 53.8428 57.1263H60.1396V63.7214Z" fill="#722979"/>
<path fill-rule="evenodd" clip-rule="evenodd" d="M86.2814 58.4397H82.372L80.7009 62.3192H85.6547C86.0725 62.2893 86.4306 62.5878 86.4604 63.0056C86.4903 63.4234 86.1919 63.7815 85.7741 63.8113C85.7442 63.8113 85.6845 63.8113 85.6547 63.8113H77.0601V57.1266H90.2803V53.1576H88.3107C87.7437 44.9808 77.8658 44.7719 75.2696 49.1886C75.7769 49.6063 78.1941 51.7252 78.1941 51.7252C79.1789 50.1734 81.2679 49.6959 82.8495 50.6807C83.715 51.2178 84.282 52.1429 84.4013 53.1576H73.1508V67.6908H85.8338C88.1316 67.6908 90.0714 65.9898 90.3698 63.7218C90.6682 61.1553 88.8478 58.8276 86.2814 58.4397Z" fill="#722979"/>
<path fill-rule="evenodd" clip-rule="evenodd" d="M48.3517 53.1572H43.2189C41.5775 55.1268 38.7425 63.1544 44.3827 69.1826C44.3827 69.1826 46.7999 67.1234 47.3073 66.7057C45.5466 65.0643 42.6817 58.2304 48.3517 53.1572Z" fill="#722979"/>
<path fill-rule="evenodd" clip-rule="evenodd" d="M35.2809 69.332C35.2809 71.0927 33.8186 72.5252 32.0579 72.5252C30.2674 72.5252 28.835 71.0927 28.835 69.332C28.835 67.5713 30.2674 66.1389 32.0579 66.1389C33.8186 66.1389 35.2809 67.5713 35.2809 69.332Z" fill="#722979"/>
<path fill-rule="evenodd" clip-rule="evenodd" d="M28.4171 53.1572C20.3 54.3808 19.4644 66.1088 28.3276 67.6905H28.3873C29.2825 65.691 31.6699 64.7957 33.6992 65.691C34.5945 66.079 35.3107 66.7952 35.7285 67.6905H39.0708V53.1572H28.4171ZM35.1316 63.7214H29.193C25.5224 63.9303 24.3287 57.9022 28.8349 57.1263H35.1018L35.1316 63.7214Z" fill="#722979"/>
<path fill-rule="evenodd" clip-rule="evenodd" d="M32.2072 49.7254C33.5202 49.5165 34.1469 46.8307 32.0281 46.2339H28.5664V51.3071H29.9988V49.7254L31.5805 51.3071H33.8187L32.2072 49.7254ZM32.058 47.9349C32.058 48.114 31.9088 48.2632 31.7297 48.2632H30.0287V47.5768H31.7297C31.9088 47.547 32.058 47.6962 32.058 47.9349Z" fill="#722979"/>
<path fill-rule="evenodd" clip-rule="evenodd" d="M36.2656 46.1746C34.8332 46.1746 33.6693 47.3086 33.6693 48.741C33.6693 50.1436 34.8332 51.3074 36.2358 51.3074C37.6682 51.3074 38.832 50.1734 38.832 48.741C38.8619 47.3086 37.698 46.1746 36.2656 46.1746ZM36.2656 49.875C35.6389 49.875 35.1316 49.3677 35.1316 48.741C35.1316 48.1143 35.6389 47.607 36.2656 47.607C36.8923 47.607 37.3996 48.1143 37.3996 48.741C37.4294 49.3677 36.9221 49.875 36.2656 49.875Z" fill="#722979"/>
<path fill-rule="evenodd" clip-rule="evenodd" d="M50.9183 47.6069H53.246V46.1147H51.2764C49.7843 46.0551 48.5309 47.2189 48.4712 48.6812C48.5309 50.1435 49.7843 51.3073 51.2764 51.2476H53.246V49.7555H50.9183C50.59 49.7555 50.2916 49.6063 50.0827 49.3377H53.246V47.9948H50.0827C50.2916 47.7859 50.59 47.6367 50.9183 47.6069Z" fill="#722979"/>
<path fill-rule="evenodd" clip-rule="evenodd" d="M41.6969 49.7854C41.1001 49.7854 40.6226 49.3079 40.6226 48.7409V48.6812C40.6226 48.0843 41.1001 47.6367 41.6969 47.6069H43.9053V46.1147H41.9357C40.4436 46.0551 39.1902 47.2189 39.1305 48.6812C39.1902 50.1435 40.4436 51.3073 41.9357 51.2476H43.9053V49.7555L41.6969 49.7854Z" fill="#722979"/>
<path fill-rule="evenodd" clip-rule="evenodd" d="M58.6474 46.2339H53.6339V47.5469H55.4543V51.1877H56.7972V47.5768H58.6176L58.6474 46.2339Z" fill="#722979"/>
<path d="M46.7403 48.7108L49.2172 46.2339H47.2476L45.845 47.6066V46.2339H44.5021V51.2176H45.845V49.7851L47.2476 51.2176H49.247L46.7403 48.7108Z" fill="#722979"/>
<path d="M66.8839 70.1679C66.6451 70.2276 66.4064 70.3768 66.287 70.5857C66.1378 70.7946 66.0483 71.0333 66.0483 71.272C66.0483 71.4212 66.0781 71.5406 66.1378 71.66C66.1975 71.8092 66.3169 71.8987 66.4362 71.8987C66.5258 71.8987 66.6153 71.839 66.675 71.8092L66.8242 72.1673C66.7048 72.227 66.5855 72.2867 66.4661 72.2867C66.287 72.2867 66.1378 72.227 65.9886 72.1076C65.8692 71.9883 65.7797 71.8689 65.7499 71.7197C65.72 71.5705 65.6902 71.4212 65.6902 71.3019V71.1825C65.72 70.7946 65.8991 70.4364 66.1677 70.1679C66.2273 70.0783 66.3467 69.9888 66.5258 69.8396H67.0331V70.1977L66.8839 70.1679Z" fill="#722979"/>
<path d="M69.1223 70.1376V72.2266H68.7045V71.958C68.6746 71.8088 68.6149 71.6894 68.4956 71.5999C68.3762 71.4805 68.2867 71.391 68.1673 71.3014C68.0479 71.2119 67.8987 71.1821 67.7495 71.1821C67.6003 71.1821 67.4809 71.2418 67.4212 71.391C67.4212 71.4208 67.4212 71.4208 67.4212 71.4507C67.4212 71.5103 67.4511 71.57 67.5108 71.5999C67.5705 71.6297 67.6301 71.6596 67.6898 71.6596C67.8092 71.6297 67.8987 71.5999 68.0181 71.57L68.1375 71.958C67.9882 72.0475 67.839 72.0773 67.66 72.1072C67.5108 72.1072 67.3914 72.0773 67.272 71.9878C67.1527 71.8983 67.0631 71.8088 67.0333 71.6894C67.0035 71.6297 67.0035 71.57 67.0035 71.4805C67.0035 71.2716 67.1228 71.0627 67.3019 70.9433C67.4212 70.8538 67.6003 70.824 67.7495 70.824H67.7794C67.7794 70.7344 67.7197 70.6449 67.66 70.5852C67.6003 70.4957 67.5406 70.4659 67.4511 70.436H66.9736V70.1674H66.7946V69.8093H69.5102V70.1674L69.1223 70.1376ZM68.7045 70.1376H67.7197C67.9883 70.2868 68.1375 70.5554 68.1673 70.8538C68.3762 70.9433 68.5851 71.0925 68.7343 71.2716L68.7045 70.1376Z" fill="#722979"/>
<path d="M69.9279 70.1379V72.2269H69.5102V70.1379H69.1819V69.7798H70.1965V70.1379H69.9279Z" fill="#722979"/>
<path d="M71.987 70.1379H70.0472V69.7798H72.6734V70.1379H72.3749V72.2269H72.0168C71.987 72.1075 71.8079 71.9583 71.4797 71.7195C71.3006 71.6002 71.1216 71.5106 70.9127 71.451C70.7336 71.3614 70.5247 71.3316 70.3158 71.3017L70.1965 70.884C70.465 70.7347 70.7336 70.5855 71.0022 70.496C71.2111 70.4363 71.5394 70.3169 71.987 70.1379ZM71.987 70.5855L71.7483 70.6751L71.032 70.9735L70.9425 71.0033C71.3006 71.1227 71.599 71.3017 71.8975 71.5106L71.987 71.6002V70.5855Z" fill="#722979"/>
<path d="M73.2105 70.1379V72.2269H72.7927V70.1379H72.4645V69.7798H73.4791V70.1379H73.2105Z" fill="#722979"/>
<path d="M73.3596 70.1378V69.7797H74.613C74.613 69.7797 74.613 69.7797 74.613 69.7498C74.613 69.5708 74.5235 69.4216 74.3444 69.3619H74.2549C74.1952 69.3619 74.1355 69.3619 74.1057 69.3619C74.046 69.3917 73.9863 69.3917 73.9565 69.3917C73.8968 69.3917 73.8371 69.4216 73.7774 69.4514C73.7177 69.5111 73.6282 69.5409 73.5387 69.5708L73.4193 69.2724C73.5984 69.153 73.8073 69.0635 74.0162 68.9739C74.1057 68.9441 74.225 68.9441 74.3444 68.9441C74.4638 68.9441 74.5832 68.9739 74.7025 69.0635C74.9413 69.2127 75.0606 69.4813 75.0606 69.7498H75.2994V70.1079L73.3596 70.1378ZM74.8219 72.5849C74.6428 72.4357 74.4638 72.2864 74.2847 72.1671C74.1355 72.0775 73.9863 71.988 73.8371 71.9582C73.7476 71.9283 73.6282 71.8985 73.5387 71.8686V71.3613H73.6879H73.8371C73.9863 71.3613 74.1654 71.3315 74.3146 71.2718C74.5533 71.1823 74.6727 71.0629 74.6727 70.9435C74.6727 70.854 74.613 70.7645 74.5533 70.7048L74.3146 70.5556C74.2847 70.5556 74.2549 70.5556 74.2549 70.5556C74.1952 70.5556 74.1355 70.5556 74.0758 70.5854C74.0161 70.6153 73.9863 70.6451 73.9863 70.7048C73.9863 70.7346 74.1057 70.854 74.3444 70.854L74.1057 71.2121C74.0162 71.2121 73.8968 71.1823 73.8073 71.1226C73.658 71.0331 73.5387 70.8838 73.5387 70.7048C73.5387 70.5257 73.658 70.3765 73.8073 70.3168C73.9565 70.2273 74.1355 70.1975 74.2847 70.1975C74.3444 70.1975 74.4339 70.1975 74.4936 70.2273L74.6727 70.3168C74.9413 70.4362 75.1203 70.7048 75.0905 70.9734C75.0905 71.1823 75.0009 71.3613 74.8219 71.4807C74.6428 71.6001 74.4339 71.6597 74.225 71.6896C74.3444 71.7493 74.4339 71.809 74.5533 71.8686C74.7622 72.0179 74.9711 72.1671 75.1502 72.3461L74.8219 72.5849Z" fill="#722979"/>
<path d="M77.7762 70.1376V72.2266H77.3584V71.391C77.3584 71.3014 77.3286 71.2418 77.2689 71.1821C77.2391 71.1224 77.1495 71.0627 77.06 71.0627C76.9705 71.0627 76.9108 71.1224 76.8809 71.1821C76.8213 71.2716 76.7914 71.3611 76.7914 71.4507H76.3438C76.3438 71.3313 76.3139 71.2418 76.2543 71.1522C76.2244 71.0925 76.1349 71.0329 76.0454 71.0329C75.9857 71.0329 75.926 71.0627 75.8663 71.0925C75.8066 71.1224 75.7768 71.1821 75.7768 71.2418V71.3611V71.391C75.7768 71.5999 75.8961 71.7192 76.1647 71.7192C76.2244 71.7192 76.3139 71.7192 76.3736 71.7192L76.2244 72.137H76.0752C75.8663 72.137 75.6873 72.0475 75.538 71.9281C75.4485 71.8684 75.4187 71.7789 75.3888 71.6894C75.359 71.5999 75.3291 71.4805 75.3291 71.391C75.3291 71.1821 75.3888 71.003 75.538 70.8538C75.6873 70.7046 75.8961 70.6449 76.105 70.6449C76.3139 70.6449 76.5228 70.7643 76.6422 70.9433C76.7616 70.7643 76.9406 70.6449 77.1495 70.6449C77.2689 70.6449 77.3584 70.7046 77.4479 70.7643V70.1674H75.1799V69.8093H78.1343V70.1674L77.7762 70.1376Z" fill="#722979"/>
<path d="M80.9395 70.1379H79.0295V69.7798H81.6557V70.1379H81.3572V72.2269H80.9693C80.9693 72.1075 80.7604 71.9583 80.4321 71.7195C80.2531 71.6002 80.074 71.5106 79.8651 71.451C79.6861 71.3614 79.4772 71.3316 79.2683 71.3017L79.1489 70.884C79.4175 70.7347 79.6861 70.5855 79.9547 70.496C80.1934 70.4363 80.4918 70.3169 80.9395 70.1379ZM80.9395 70.5855L80.7007 70.6751L79.9845 70.9735L79.895 71.0033C80.2531 71.1227 80.5515 71.3017 80.8499 71.5106L80.9395 71.6002V70.5855Z" fill="#722979"/>
<path d="M82.3721 70.1379C82.2527 70.2573 82.193 70.4065 82.1632 70.5855C82.2229 70.8243 82.2826 71.0332 82.3721 71.2421C82.4318 71.3913 82.4616 71.5703 82.4914 71.7195C82.4914 71.9583 82.3124 72.1672 82.0737 72.2269C81.9244 72.2865 81.7752 72.2865 81.626 72.3164L81.6857 71.9583C81.9244 71.8986 82.0438 71.8091 82.0438 71.6897C82.014 71.5106 81.9841 71.3316 81.8946 71.1824C81.8051 71.0332 81.7454 70.8541 81.7454 70.6751C81.7454 70.496 81.8349 70.3169 81.9244 70.1379H81.4768V69.7798H82.7003V70.1379H82.4019H82.3721Z" fill="#722979"/>
<path d="M83.2671 70.1379V72.2269H82.8792V70.1379H82.5509V69.7798H83.5655V70.1379H83.2671Z" fill="#722979"/>
<path d="M84.2519 71.1526C84.0728 71.1526 83.8938 71.0929 83.7744 70.9736C83.655 70.8542 83.5953 70.6751 83.5953 70.4961C83.5953 70.317 83.655 70.1678 83.7744 70.0484C83.8938 69.9291 84.0728 69.8694 84.222 69.8694C84.4608 69.8694 84.6697 70.0186 84.7592 70.2573C84.789 70.3469 84.8189 70.4662 84.8189 70.5558C84.8189 70.7348 84.7592 70.884 84.6697 71.0034C84.5801 71.0929 84.4011 71.1526 84.2519 71.1526ZM84.6995 72.4657C84.3712 72.1672 84.0131 71.8987 83.6252 71.6599V71.0631C84.1623 71.4212 84.6398 71.839 85.0576 72.3165V72.7343L84.6995 72.4657ZM84.3116 70.2573C84.2817 70.2275 84.222 70.2275 84.1922 70.2275C84.043 70.2275 83.9534 70.3469 83.9534 70.4662C83.9534 70.5259 83.9833 70.5856 84.043 70.6453C84.0728 70.705 84.1623 70.7348 84.222 70.7348H84.2817C84.4011 70.705 84.4608 70.6154 84.4608 70.5259C84.4309 70.4364 84.4011 70.3469 84.3116 70.2573Z" fill="#722979"/>
<path d="M87.7139 69.5406C87.3558 69.272 86.938 69.1228 86.4904 69.0631C86.192 69.0333 85.8637 69.1825 85.6846 69.4212C85.625 69.5406 85.5951 69.66 85.5951 69.7793H85.8935V70.1375H85.5951V72.2264H85.1773V70.1375H84.8789V69.7793H85.1773C85.1773 69.5108 85.2967 69.2422 85.4758 69.0631C85.6846 68.8542 85.9532 68.7349 86.2218 68.7349H86.4009H86.4605C86.7291 68.7349 86.9679 68.7945 87.2066 68.9139C87.4453 69.0333 87.6542 69.1527 87.893 69.3019L87.7139 69.5406Z" fill="#722979"/>
<path d="M87.3558 70.1379C87.5348 70.1379 87.7437 70.1976 87.893 70.3169C88.1317 70.4065 88.2809 70.6452 88.3107 70.9138C88.3107 71.063 88.2511 71.1824 88.1615 71.3017C88.072 71.4211 87.9526 71.4808 87.8034 71.5106C87.6841 71.5405 87.5647 71.5405 87.4453 71.5106V71.1227H87.5647C87.7736 71.1227 87.893 71.0332 87.893 70.884C87.893 70.7347 87.7139 70.5855 87.3558 70.5557V72.2269H86.9977C86.938 72.1373 86.8783 72.0478 86.8186 71.9583C86.8186 71.9583 86.7589 71.8688 86.6694 71.7494C86.6396 71.6897 86.5799 71.6599 86.5202 71.6002C86.4605 71.5703 86.4307 71.5106 86.371 71.451C86.3412 71.4211 86.3113 71.3913 86.2815 71.3913C86.1323 71.3316 85.983 71.3017 85.8338 71.3017L85.7145 70.884C85.9234 70.7347 86.1024 70.6154 86.3113 70.496L86.6097 70.3169L86.938 70.1379H85.5951V69.7798H88.4898V70.1379H87.3558ZM86.938 70.6154C86.8485 70.7049 86.7291 70.7646 86.6396 70.8243C86.5799 70.8541 86.55 70.884 86.5202 70.9138C86.4605 70.9436 86.4307 71.0033 86.4008 71.0332L86.6097 71.2122L86.9678 71.6002L86.938 70.6154Z" fill="#722979"/>
<path d="M89.1165 71.1526C88.9374 71.1526 88.7584 71.0929 88.639 70.9736C88.5196 70.8542 88.46 70.6751 88.46 70.4961C88.46 70.317 88.5196 70.1678 88.639 70.0484C88.7584 69.9291 88.9076 69.8694 89.0867 69.8694C89.3254 69.8694 89.5343 70.0186 89.6238 70.2573C89.6835 70.3469 89.6835 70.4662 89.6835 70.5558C89.6835 70.7348 89.6238 70.884 89.5343 71.0034C89.4448 71.0929 89.2955 71.1526 89.1165 71.1526ZM89.594 72.4657C89.2657 72.1672 88.9076 71.8987 88.5196 71.6599V71.0631C89.0568 71.4212 89.5343 71.839 89.9521 72.3165V72.7343L89.594 72.4657ZM89.206 70.2573C89.1762 70.2275 89.1165 70.2275 89.0867 70.2275C88.9374 70.2275 88.8479 70.3469 88.8479 70.4662C88.8479 70.5259 88.8778 70.5856 88.9374 70.6453C88.9673 70.705 89.0568 70.7348 89.1165 70.7348H89.1762C89.2955 70.705 89.3552 70.6154 89.3552 70.5259C89.3552 70.4364 89.2955 70.3469 89.206 70.2573Z" fill="#722979"/>
<path d="M42.5924 72.4358L43.3683 72.7044L43.6966 72.4358L42.9207 72.1672L42.5924 72.4358Z" fill="#722979"/>
<path d="M42.8607 70.2573V69.7798H36.6833V70.2573H37.7278V71.3017H38.6231C38.6231 71.3017 38.8618 71.2122 38.9215 71.0929V71.5106C38.9215 71.6897 38.8022 71.8389 38.6231 71.8687H37.31C37.2205 71.8687 37.1608 71.8389 37.1608 71.5106V70.5258H36.7132V71.7792C36.7132 71.8687 36.7729 72.2567 37.1011 72.2567H38.8618C39.1304 72.2269 39.3393 72.018 39.3692 71.7494V70.5557H38.9514C38.9215 70.7347 38.9514 70.8541 38.7425 70.9138H38.2053V70.2573H39.7273V72.2567H40.2644V70.2573H40.6225V72.2567H42.3534C42.6518 72.2567 42.8906 72.018 42.8906 71.7195V70.5258H42.4728C42.4728 70.6452 42.4728 70.8243 42.2639 70.8243H41.1V70.2573H42.8607ZM42.1743 71.2719C42.2639 71.2719 42.3534 71.1824 42.4429 71.063V71.5405C42.4429 71.7195 42.2937 71.8986 42.1743 71.8986H41.0702V71.2719H42.1743Z" fill="#722979"/>
<path d="M43.4277 70.8245H44.4722V71.3915H43.4277V70.8245Z" fill="#722979"/>
<path d="M45.0393 69.7798V70.2573H46.7702V70.5258H45.0393V71.6599C45.0691 72.018 45.278 72.2567 45.6362 72.2567H47.188V70.2573H47.5461V72.2567H48.0235V69.7798H45.0393ZM46.7702 71.9284H45.7257C45.5765 71.9284 45.4571 71.7195 45.4571 71.5106V70.9436H46.7702C46.7702 70.9735 46.7702 71.9284 46.7702 71.9284Z" fill="#722979"/>
<path d="M50.2915 70.2573H52.4103V70.5258H51.8135C51.8135 70.6452 51.7239 70.7347 51.6046 70.7347C51.4852 70.7347 51.3957 70.6452 51.3957 70.5258H50.2915V71.7195C50.2915 71.8389 50.2915 72.197 50.6198 72.2567H51.4852V71.8389H50.8884C50.769 71.8091 50.6496 71.6897 50.6795 71.5703V70.9735H51.2763V71.3017H51.7836V71.063C51.7538 70.9436 52.3208 70.9436 52.3805 71.063V72.2865H52.8579V70.2573H53.1862V72.2567H53.6637V69.7798H50.2915V70.2573Z" fill="#722979"/>
<path d="M49.5453 69.9287H48.4412V70.5852C48.471 70.8538 48.7097 71.0627 48.9783 71.0627H49.8736V70.257C49.8438 70.0779 49.7244 69.9586 49.5453 69.9287ZM49.2171 70.6151C49.0082 70.6151 48.859 70.5554 48.859 70.4659C48.859 70.3763 49.0082 70.3167 49.2171 70.3167C49.426 70.3167 49.5752 70.3763 49.5752 70.4659C49.5752 70.5554 49.3961 70.6151 49.2171 70.6151Z" fill="#722979"/>
<path d="M48.5009 71.302V71.7198L49.8438 72.2868V71.8988L48.5009 71.302Z" fill="#722979"/>
<path d="M60.826 69.9287H59.7218V70.5852C59.7516 70.8538 59.9904 71.0627 60.259 71.0627H61.1542V70.257C61.0946 70.0779 60.9752 69.9586 60.826 69.9287ZM60.4679 70.6151C60.259 70.6151 60.1098 70.5554 60.1098 70.4659C60.1098 70.3763 60.259 70.3167 60.4679 70.3167C60.6768 70.3167 60.826 70.3763 60.826 70.4659C60.826 70.5554 60.6768 70.6151 60.4679 70.6151Z" fill="#722979"/>
<path d="M59.7815 71.302V71.7198L61.1244 72.2868V71.8988L59.7815 71.302Z" fill="#722979"/>
<path d="M63.6611 70.5258V70.2573H64.5265V69.7798H61.5125V70.2573H63.2433V70.5258H61.5423V71.6599C61.5721 72.018 61.781 72.2567 62.1391 72.2567H63.6909V71.0332H64.1087C64.1684 71.0332 64.1983 71.0033 64.1983 71.0929V71.3017C64.1983 71.3913 64.1684 71.4808 64.1087 71.5106H63.9595V71.9284H64.2878C64.437 71.8986 64.5564 71.8091 64.6161 71.6599V70.5258H63.6611ZM63.2433 71.9284H62.1988C62.0496 71.9284 61.9302 71.7195 61.9302 71.5106V70.9436H63.2433V71.9284Z" fill="#722979"/>
<path d="M55.0365 69.7798V70.2573H56.7674V70.5259H55.0365V71.6599C55.0663 72.018 55.2752 72.2568 55.6333 72.2568H57.1851V70.2573H57.7223L57.4836 70.6751V70.9437H57.8417C58.0207 70.9437 58.1103 71.0929 58.1103 71.4212C58.1103 71.6599 58.0506 71.8091 57.8715 71.839H57.5433V72.2568H57.9014C58.0207 72.2568 58.4982 72.3164 58.4982 71.839C58.5579 70.9139 58.5877 70.6453 57.9014 70.5856L57.9909 70.2573H58.7966V72.2568H59.2741V69.75L55.0365 69.7798ZM56.7674 71.9285H55.693C55.5438 71.9285 55.4244 71.7196 55.4244 71.5107V70.9437H56.7375L56.7674 71.9285Z" fill="#722979"/>
</svg>
