<svg width="33" height="33" viewBox="0 0 33 33" fill="none" xmlns="http://www.w3.org/2000/svg">
<path d="M18.2875 23.7531C18.0125 23.4781 17.8805 23.1458 17.8915 22.7562C17.9034 22.3666 18.0469 22.0344 18.3219 21.7594L22.2062 17.875H6.875C6.48542 17.875 6.15863 17.743 5.89463 17.479C5.63154 17.2159 5.5 16.8896 5.5 16.5C5.5 16.1104 5.63154 15.7836 5.89463 15.5196C6.15863 15.2565 6.48542 15.125 6.875 15.125H22.2062L18.2875 11.2062C18.0125 10.9312 17.875 10.6044 17.875 10.2259C17.875 9.84818 18.0125 9.52185 18.2875 9.24685C18.5625 8.97185 18.8893 8.83435 19.2679 8.83435C19.6455 8.83435 19.9719 8.97185 20.2469 9.24685L26.5375 15.5375C26.675 15.675 26.7726 15.8239 26.8304 15.9844C26.8872 16.1448 26.9156 16.3166 26.9156 16.5C26.9156 16.6833 26.8872 16.8552 26.8304 17.0156C26.7726 17.176 26.675 17.325 26.5375 17.4625L20.2125 23.7875C19.9604 24.0396 19.6455 24.1656 19.2679 24.1656C18.8893 24.1656 18.5625 24.0281 18.2875 23.7531V23.7531Z" fill="#39AA35"/>
</svg>
