<svg width="82" height="18" viewBox="0 0 82 18" fill="none" xmlns="http://www.w3.org/2000/svg">
<path d="M15.9613 6.20682L11.4983 5.55819L9.50314 1.51346C9.44864 1.40272 9.359 1.31307 9.24825 1.25858C8.97052 1.12147 8.63302 1.23572 8.49415 1.51346L6.49903 5.55819L2.03595 6.20682C1.9129 6.2244 1.8004 6.2824 1.71427 6.37029C1.61014 6.47732 1.55276 6.62131 1.55474 6.77062C1.55671 6.91993 1.61789 7.06235 1.72482 7.16658L4.95392 10.3148L4.19103 14.7603C4.17314 14.8637 4.18458 14.9701 4.22406 15.0673C4.26354 15.1646 4.32947 15.2488 4.41439 15.3105C4.4993 15.3722 4.5998 15.4088 4.70448 15.4163C4.80917 15.4237 4.91385 15.4017 5.00665 15.3527L8.99864 13.2539L12.9906 15.3527C13.0996 15.4107 13.2262 15.4301 13.3475 15.409C13.6533 15.3562 13.859 15.0662 13.8063 14.7603L13.0434 10.3148L16.2725 7.16658C16.3604 7.08045 16.4184 6.96795 16.4359 6.8449C16.4834 6.53729 16.269 6.25252 15.9613 6.20682Z" fill="#F7DF0D"/>
<path d="M31.9613 6.20682L27.4983 5.55819L25.5031 1.51346C25.4486 1.40272 25.359 1.31307 25.2483 1.25858C24.9705 1.12147 24.633 1.23572 24.4942 1.51346L22.499 5.55819L18.0359 6.20682C17.9129 6.2244 17.8004 6.2824 17.7143 6.37029C17.6101 6.47732 17.5528 6.62131 17.5547 6.77062C17.5567 6.91993 17.6179 7.06235 17.7248 7.16658L20.9539 10.3148L20.191 14.7603C20.1731 14.8637 20.1846 14.9701 20.2241 15.0673C20.2635 15.1646 20.3295 15.2488 20.4144 15.3105C20.4993 15.3722 20.5998 15.4088 20.7045 15.4163C20.8092 15.4237 20.9138 15.4017 21.0067 15.3527L24.9986 13.2539L28.9906 15.3527C29.0996 15.4107 29.2262 15.4301 29.3475 15.409C29.6533 15.3562 29.859 15.0662 29.8063 14.7603L29.0434 10.3148L32.2725 7.16658C32.3604 7.08045 32.4184 6.96795 32.4359 6.8449C32.4834 6.53729 32.269 6.25252 31.9613 6.20682Z" fill="#F7DF0D"/>
<path d="M47.9613 6.20682L43.4983 5.55819L41.5031 1.51346C41.4486 1.40272 41.359 1.31307 41.2483 1.25858C40.9705 1.12147 40.633 1.23572 40.4942 1.51346L38.499 5.55819L34.0359 6.20682C33.9129 6.2244 33.8004 6.2824 33.7143 6.37029C33.6101 6.47732 33.5528 6.62131 33.5547 6.77062C33.5567 6.91993 33.6179 7.06235 33.7248 7.16658L36.9539 10.3148L36.191 14.7603C36.1731 14.8637 36.1846 14.9701 36.2241 15.0673C36.2635 15.1646 36.3295 15.2488 36.4144 15.3105C36.4993 15.3722 36.5998 15.4088 36.7045 15.4163C36.8092 15.4237 36.9138 15.4017 37.0067 15.3527L40.9986 13.2539L44.9906 15.3527C45.0996 15.4107 45.2262 15.4301 45.3475 15.409C45.6533 15.3562 45.859 15.0662 45.8063 14.7603L45.0434 10.3148L48.2725 7.16658C48.3604 7.08045 48.4184 6.96795 48.4359 6.8449C48.4834 6.53729 48.269 6.25252 47.9613 6.20682Z" fill="#F7DF0D"/>
<path d="M63.9613 6.20682L59.4983 5.55819L57.5031 1.51346C57.4486 1.40272 57.359 1.31307 57.2483 1.25858C56.9705 1.12147 56.633 1.23572 56.4942 1.51346L54.499 5.55819L50.0359 6.20682C49.9129 6.2244 49.8004 6.2824 49.7143 6.37029C49.6101 6.47732 49.5528 6.62131 49.5547 6.77062C49.5567 6.91993 49.6179 7.06235 49.7248 7.16658L52.9539 10.3148L52.191 14.7603C52.1731 14.8637 52.1846 14.9701 52.2241 15.0673C52.2635 15.1646 52.3295 15.2488 52.4144 15.3105C52.4993 15.3722 52.5998 15.4088 52.7045 15.4163C52.8092 15.4237 52.9138 15.4017 53.0067 15.3527L56.9986 13.2539L60.9906 15.3527C61.0996 15.4107 61.2262 15.4301 61.3475 15.409C61.6533 15.3562 61.859 15.0662 61.8063 14.7603L61.0434 10.3148L64.2725 7.16658C64.3604 7.08045 64.4184 6.96795 64.4359 6.8449C64.4834 6.53729 64.269 6.25252 63.9613 6.20682Z" fill="#F7DF0D"/>
<path d="M79.9613 6.20682L75.4983 5.55819L73.5031 1.51346C73.4486 1.40272 73.359 1.31307 73.2483 1.25858C72.9705 1.12147 72.633 1.23572 72.4942 1.51346L70.499 5.55819L66.0359 6.20682C65.9129 6.2244 65.8004 6.2824 65.7143 6.37029C65.6101 6.47732 65.5528 6.62131 65.5547 6.77062C65.5567 6.91993 65.6179 7.06235 65.7248 7.16658L68.9539 10.3148L68.191 14.7603C68.1731 14.8637 68.1846 14.9701 68.2241 15.0673C68.2635 15.1646 68.3295 15.2488 68.4144 15.3105C68.4993 15.3722 68.5998 15.4088 68.7045 15.4163C68.8092 15.4237 68.9138 15.4017 69.0067 15.3527L72.9986 13.2539L76.9906 15.3527C77.0996 15.4107 77.2262 15.4301 77.3475 15.409C77.6533 15.3562 77.859 15.0662 77.8063 14.7603L77.0434 10.3148L80.2725 7.16658C80.3604 7.08045 80.4184 6.96795 80.4359 6.8449C80.4834 6.53729 80.269 6.25252 79.9613 6.20682Z" fill="#F7DF0D"/>
</svg>
