<svg width="53" height="54" viewBox="0 0 53 54" fill="none" xmlns="http://www.w3.org/2000/svg">
<path style="mix-blend-mode:multiply" d="M39.6861 40.0399C46.9921 32.7338 46.9921 20.8885 39.6861 13.5825C32.3801 6.27646 20.5347 6.27646 13.2287 13.5825C5.92269 20.8885 5.92269 32.7338 13.2287 40.0399C20.5347 47.3459 32.3801 47.3459 39.6861 40.0399Z" fill="url(#paint0_radial_144_356)"/>
<path d="M36.163 11.1863C36.6645 11.3573 37.1265 11.6273 37.5217 11.9801C37.9169 12.333 38.2373 12.7616 38.4639 13.2405C38.6904 13.7194 38.8186 14.239 38.8407 14.7683C38.8628 15.2977 38.7784 15.8261 38.5925 16.3222C38.352 16.9622 38.2814 17.6536 38.3874 18.329C38.4935 19.0045 38.7726 19.6409 39.1977 20.1764C39.5276 20.5916 39.7708 21.0689 39.9128 21.5799C40.0547 22.0909 40.0926 22.6252 40.024 23.1511C39.9555 23.677 39.782 24.1838 39.5139 24.6414C39.2457 25.0989 38.8884 25.498 38.463 25.8148C37.9166 26.2251 37.4855 26.7696 37.2117 27.3956C36.9378 28.0217 36.8304 28.7078 36.8999 29.3876C36.9529 29.9153 36.8994 30.4482 36.7425 30.9548C36.5856 31.4613 36.3285 31.9312 35.9865 32.3365C35.6445 32.7418 35.2246 33.0743 34.7516 33.3142C34.2787 33.5541 33.7624 33.6965 33.2333 33.733C32.5485 33.7795 31.8874 34.0029 31.3147 34.3814C30.7421 34.7599 30.2775 35.2805 29.9664 35.8924C29.7258 36.3649 29.3928 36.7843 28.9871 37.1257C28.5813 37.4671 28.1111 37.7235 27.6044 37.8797C27.0977 38.0359 26.5648 38.0887 26.0372 38.035C25.5097 37.9813 24.9983 37.8222 24.5335 37.5671C23.9342 37.2382 23.26 37.0699 22.5765 37.0785C21.8929 37.0871 21.2232 37.2724 20.6324 37.6163C20.1746 37.8839 19.6676 38.0568 19.1417 38.1247C18.6157 38.1925 18.0815 38.1539 17.5707 38.0113C17.0599 37.8686 16.5831 37.6247 16.1684 37.294C15.7538 36.9634 15.4099 36.5528 15.157 36.0866C14.8307 35.4859 14.3544 34.98 13.7744 34.618C13.1945 34.256 12.5307 34.0504 11.8477 34.0211C11.3184 33.998 10.7992 33.869 10.3206 33.6418C9.84205 33.4145 9.4139 33.0937 9.06146 32.6981C8.70902 32.3026 8.43945 31.8404 8.26868 31.3389C8.09791 30.8374 8.02941 30.3068 8.06722 29.7784C8.1179 29.0968 7.99107 28.4138 7.69913 27.7958C7.40718 27.1779 6.96006 26.6461 6.40139 26.2524C5.96739 25.9473 5.59905 25.5582 5.31821 25.1081C5.03737 24.6581 4.84974 24.1562 4.76645 23.6322C4.68315 23.1083 4.70588 22.573 4.83329 22.058C4.9607 21.543 5.1902 21.0588 5.50819 20.6342C5.92 20.0884 6.18302 19.445 6.27148 18.7671C6.35995 18.0891 6.27082 17.3998 6.01285 16.7666C5.81207 16.2739 5.71259 15.7458 5.72035 15.2138C5.72812 14.6819 5.84296 14.1569 6.05804 13.6703C6.27311 13.1836 6.584 12.7453 6.97217 12.3815C7.36034 12.0176 7.81782 11.7357 8.31732 11.5525C8.95877 11.315 9.52774 10.9153 9.96879 10.3925C10.4098 9.86968 10.7079 9.2415 10.8339 8.5692C10.9329 8.04884 11.1353 7.55363 11.4291 7.1129C11.7229 6.67217 12.1022 6.29488 12.5445 6.00337C12.9867 5.71186 13.483 5.51206 14.0039 5.4158C14.5247 5.31955 15.0596 5.32879 15.5768 5.44298C16.2446 5.58998 16.9391 5.56152 17.5926 5.36037C18.2461 5.15923 18.8364 4.79226 19.306 4.29521C19.6701 3.91 20.1078 3.60183 20.5932 3.38896C21.0787 3.1761 21.6019 3.06287 22.1319 3.056C22.6619 3.04912 23.1879 3.14875 23.6787 3.34896C24.1695 3.54916 24.615 3.84588 24.989 4.22152C25.4716 4.70593 26.0713 5.05718 26.7299 5.24109C27.3885 5.425 28.0834 5.43532 28.7472 5.27104C29.262 5.14378 29.7972 5.12119 30.3209 5.20462C30.8447 5.28805 31.3463 5.4758 31.7962 5.75673C32.246 6.03766 32.6348 6.40606 32.9396 6.84008C33.2444 7.2741 33.4589 7.7649 33.5705 8.28337C33.7161 8.94954 34.0312 9.56681 34.4854 10.0754C34.9396 10.584 35.5175 10.9666 36.163 11.1863Z" fill="url(#paint1_linear_144_356)"/>
<path d="M32.7475 31.3348C38.516 25.5663 38.516 16.2135 32.7475 10.4449C26.9789 4.67635 17.6261 4.67635 11.8576 10.4449C6.08896 16.2135 6.08896 25.5663 11.8576 31.3348C17.6261 37.1034 26.9789 37.1034 32.7475 31.3348Z" fill="url(#paint2_radial_144_356)"/>
<path d="M35.427 26.4337C38.4887 19.1856 35.095 10.8279 27.847 7.76621C20.5989 4.70451 12.2412 8.09823 9.17945 15.3463C6.11774 22.5944 9.51147 30.9521 16.7595 34.0138C24.0076 37.0755 32.3653 33.6818 35.427 26.4337Z" fill="url(#paint3_linear_144_356)"/>
<path d="M28.3457 31.6999C34.3162 28.3631 36.4512 20.818 33.1144 14.8475C29.7776 8.87704 22.2326 6.74201 16.2621 10.0788C10.2916 13.4156 8.15655 20.9606 11.4933 26.9311C14.8301 32.9016 22.3752 35.0367 28.3457 31.6999Z" fill="#2B2D2E"/>
<path style="mix-blend-mode:multiply" d="M28.3457 31.6999C34.3162 28.3631 36.4512 20.818 33.1144 14.8475C29.7776 8.87704 22.2326 6.74201 16.2621 10.0788C10.2916 13.4156 8.15655 20.9606 11.4933 26.9311C14.8301 32.9016 22.3752 35.0367 28.3457 31.6999Z" fill="url(#paint4_radial_144_356)"/>
<path d="M22.3028 11.7083L25.0048 17.1836L31.0451 18.0612L26.675 22.3218L27.7067 28.3375L22.3028 25.4971L16.8989 28.3375L17.9328 22.3218L13.5605 18.0612L19.6009 17.1836L22.3028 11.7083Z" fill="url(#paint5_linear_144_356)"/>
<path d="M23.5196 16.5244V24.6929H21.7926V18.1637H21.7448L19.8741 19.3363V17.8047L21.8963 16.5244H23.5196Z" fill="#282830"/>
<path d="M34.0478 34.5322C36.5732 35.7726 38.9184 37.3502 41.0193 39.2216C39.7306 39.4783 38.4573 39.8071 37.2053 40.2063C36.1603 41.5126 35.0192 43.9511 35.0192 43.9511C33.4807 42.149 31.1784 40.5658 29.0392 39.5364C30.7997 37.962 32.4718 36.2914 34.0478 34.5322Z" fill="url(#paint6_linear_144_356)"/>
<path style="mix-blend-mode:multiply" d="M34.0478 34.5322C36.5732 35.7726 38.9184 37.3502 41.0193 39.2216C39.7306 39.4783 38.4573 39.8071 37.2053 40.2063C36.1603 41.5126 35.0192 43.9511 35.0192 43.9511C33.4807 42.149 31.1784 40.5658 29.0392 39.5364C30.7997 37.962 32.4718 36.2914 34.0478 34.5322Z" fill="url(#paint7_linear_144_356)"/>
<path d="M33.4695 40.414L29.0392 39.5275L31.2543 36.2137L33.4695 40.414Z" fill="url(#paint8_linear_144_356)"/>
<path style="mix-blend-mode:multiply" d="M33.4695 40.414L29.0392 39.5275L31.2543 36.2137L33.4695 40.414Z" fill="url(#paint9_linear_144_356)"/>
<path d="M10.997 34.5322C8.47232 35.7727 6.12782 37.3502 4.02771 39.2216C5.31616 39.4749 6.58947 39.7999 7.8417 40.1952C8.88675 41.5015 10.0256 43.9399 10.0256 43.9399C11.5664 42.1379 13.8686 40.5547 16.0078 39.5252C14.2474 37.9539 12.5746 36.287 10.997 34.5322Z" fill="url(#paint10_linear_144_356)"/>
<path style="mix-blend-mode:multiply" d="M10.997 34.5322C8.47232 35.7727 6.12782 37.3502 4.02771 39.2216C5.31616 39.4749 6.58947 39.7999 7.8417 40.1952C8.88675 41.5015 10.0256 43.9399 10.0256 43.9399C11.5664 42.1379 13.8686 40.5547 16.0078 39.5252C14.2474 37.9539 12.5746 36.287 10.997 34.5322Z" fill="url(#paint11_linear_144_356)"/>
<path d="M11.5752 40.414L16.0077 39.5275L13.7926 36.2137L11.5752 40.414Z" fill="url(#paint12_linear_144_356)"/>
<path style="mix-blend-mode:multiply" d="M11.5752 40.414L16.0077 39.5275L13.7926 36.2137L11.5752 40.414Z" fill="url(#paint13_linear_144_356)"/>
<path d="M33.4697 40.4141L37.3329 34.0924C33.7935 32.0023 31.1563 30.8456 27.0855 30.2851C20.5785 29.3919 14.5159 30.6446 8.55151 34.0924L11.5705 40.4141C13.1806 39.0274 17.1888 37.2878 19.855 37.04C25.0959 36.5621 29.2784 36.9149 33.4697 40.4141Z" fill="url(#paint14_linear_144_356)"/>
<path d="M18.565 35.5114L18.0215 31.9719L19.2589 31.7819C19.5055 31.7441 19.7154 31.7555 19.8886 31.8161C20.0617 31.8756 20.1984 31.9708 20.2987 32.1017C20.3988 32.2313 20.4621 32.3826 20.4886 32.5554C20.512 32.7075 20.5042 32.8373 20.4652 32.9447C20.4275 33.0519 20.3692 33.141 20.2905 33.2121C20.2129 33.283 20.1256 33.34 20.0284 33.3832L20.0337 33.4178C20.1431 33.4081 20.2578 33.4294 20.3779 33.4817C20.498 33.534 20.6048 33.619 20.6983 33.7368C20.7919 33.8545 20.853 34.0067 20.8817 34.1933C20.9089 34.3708 20.8931 34.5365 20.8342 34.6906C20.7753 34.8447 20.6652 34.9766 20.504 35.0863C20.3428 35.196 20.1227 35.2722 19.8439 35.315L18.565 35.5114ZM18.9352 35.0654L19.7855 34.9348C20.0655 34.8918 20.2559 34.8071 20.3568 34.6808C20.4587 34.5531 20.4977 34.4115 20.4738 34.256C20.4554 34.1361 20.4079 34.0302 20.3312 33.9382C20.2544 33.845 20.1549 33.7766 20.0326 33.7329C19.9101 33.688 19.7717 33.6774 19.6173 33.7011L18.7463 33.8349L18.9352 35.0654ZM18.6889 33.4616L19.4839 33.3395C19.613 33.3197 19.7255 33.2764 19.8214 33.2098C19.9184 33.143 19.9904 33.0589 20.0373 32.9573C20.0854 32.8556 20.0999 32.7425 20.0808 32.6181C20.0569 32.4625 19.9825 32.3389 19.8575 32.2472C19.7324 32.1544 19.5523 32.126 19.3173 32.1621L18.5085 32.2863L18.6889 33.4616Z" fill="#14181B"/>
<path d="M21.152 35.1616L20.9664 31.5855L23.1247 31.4735L23.1446 31.8577L21.4194 31.9472L21.4821 33.1555L23.0955 33.0718L23.1155 33.456L21.502 33.5397L21.5651 34.755L23.3182 34.664L23.3381 35.0482L21.152 35.1616Z" fill="#14181B"/>
<path d="M25.5954 32.4651C25.5815 32.2871 25.5019 32.1461 25.3566 32.0422C25.2113 31.9383 25.0302 31.8821 24.8134 31.8734C24.6549 31.867 24.5152 31.8871 24.3942 31.9337C24.2744 31.9802 24.1795 32.0471 24.1095 32.1342C24.0406 32.2213 24.0039 32.322 23.9993 32.4363C23.9955 32.5318 24.0149 32.6149 24.0577 32.6855C24.1016 32.755 24.1588 32.8139 24.2292 32.8623C24.2997 32.9095 24.374 32.9492 24.4521 32.9815C24.5303 33.0127 24.6022 33.0383 24.668 33.0584L25.0277 33.1709C25.12 33.1991 25.2224 33.2371 25.3349 33.2848C25.4486 33.3325 25.5564 33.3958 25.6583 33.4746C25.7615 33.5523 25.8451 33.6502 25.9093 33.7683C25.9734 33.8865 26.0021 34.0295 25.9954 34.1974C25.9877 34.3909 25.93 34.5637 25.8223 34.7158C25.7158 34.868 25.564 34.9863 25.3668 35.0706C25.1708 35.155 24.9352 35.1917 24.6601 35.1807C24.4037 35.1705 24.1833 35.1202 23.9989 35.0299C23.8157 34.9397 23.6735 34.8184 23.5721 34.6661C23.472 34.5138 23.4188 34.3395 23.4127 34.1431L23.8603 34.161C23.8665 34.2967 23.9075 34.4104 23.9832 34.5022C24.0602 34.5928 24.159 34.6621 24.2796 34.7102C24.4015 34.7571 24.5336 34.7834 24.6758 34.7891C24.8413 34.7957 24.991 34.7748 25.1249 34.7265C25.2588 34.6769 25.3661 34.6053 25.447 34.5117C25.5278 34.4168 25.5708 34.3041 25.5761 34.1736C25.5808 34.0547 25.5515 33.9566 25.488 33.8793C25.4245 33.8021 25.3395 33.738 25.233 33.687C25.1265 33.636 25.0109 33.5906 24.8865 33.5505L24.4509 33.407C24.1743 33.3154 23.9574 33.1917 23.8002 33.036C23.643 32.8803 23.5692 32.6817 23.5788 32.4405C23.5869 32.24 23.6481 32.0673 23.7624 31.9224C23.878 31.7764 24.0296 31.6657 24.2171 31.5903C24.4058 31.5138 24.6143 31.4801 24.8428 31.4893C25.0736 31.4985 25.2771 31.5481 25.4533 31.638C25.6296 31.7268 25.7673 31.8444 25.8665 31.9908C25.9669 32.1373 26.0164 32.3009 26.015 32.4819L25.5954 32.4651Z" fill="#14181B"/>
<path d="M26.1569 32.0231L26.2117 31.6424L28.8701 32.025L28.8153 32.4057L27.7007 32.2453L27.2454 35.409L26.8162 35.3472L27.2715 32.1835L26.1569 32.0231Z" fill="#14181B"/>
<defs>
<radialGradient id="paint0_radial_144_356" cx="0" cy="0" r="1" gradientUnits="userSpaceOnUse" gradientTransform="translate(26.4578 26.8126) scale(18.7082)">
<stop offset="0.2" stop-color="#291E06"/>
<stop offset="0.44" stop-color="#4E4531" stop-opacity="0.83"/>
<stop offset="0.8" stop-color="#B5B2A9" stop-opacity="0.34"/>
<stop offset="1" stop-color="white" stop-opacity="0"/>
</radialGradient>
<linearGradient id="paint1_linear_144_356" x1="9.46169" y1="6.77162" x2="33.0562" y2="33.2908" gradientUnits="userSpaceOnUse">
<stop offset="0.03" stop-color="#92693A"/>
<stop offset="0.1" stop-color="#A17A44"/>
<stop offset="0.24" stop-color="#C9A75D"/>
<stop offset="0.31" stop-color="#E0C06C"/>
<stop offset="0.5" stop-color="#B58B42"/>
<stop offset="0.56" stop-color="#BD964D"/>
<stop offset="0.65" stop-color="#D2B36A"/>
<stop offset="0.77" stop-color="#F4E198"/>
<stop offset="0.79" stop-color="#F8E69D"/>
<stop offset="0.81" stop-color="#E7D18C"/>
<stop offset="0.85" stop-color="#C8AB6E"/>
<stop offset="0.89" stop-color="#B08D57"/>
<stop offset="0.93" stop-color="#9F7846"/>
<stop offset="0.96" stop-color="#946B3C"/>
<stop offset="1" stop-color="#916739"/>
</linearGradient>
<radialGradient id="paint2_radial_144_356" cx="0" cy="0" r="1" gradientUnits="userSpaceOnUse" gradientTransform="translate(22.2997 20.8882) rotate(31.65) scale(14.7714)">
<stop offset="0.24" stop-color="#282830"/>
<stop offset="0.5" stop-color="#25252C"/>
<stop offset="0.74" stop-color="#1C1C22"/>
<stop offset="0.96" stop-color="#0D0D0F"/>
<stop offset="1" stop-color="#09090B"/>
</radialGradient>
<linearGradient id="paint3_linear_144_356" x1="12.2292" y1="10.8172" x2="32.377" y2="30.965" gradientUnits="userSpaceOnUse">
<stop offset="0.03" stop-color="#92693A"/>
<stop offset="0.1" stop-color="#A17A44"/>
<stop offset="0.24" stop-color="#C9A75D"/>
<stop offset="0.31" stop-color="#E0C06C"/>
<stop offset="0.5" stop-color="#B58B42"/>
<stop offset="0.56" stop-color="#BD964D"/>
<stop offset="0.65" stop-color="#D2B36A"/>
<stop offset="0.77" stop-color="#F4E198"/>
<stop offset="0.79" stop-color="#F8E69D"/>
<stop offset="0.81" stop-color="#E7D18C"/>
<stop offset="0.85" stop-color="#C8AB6E"/>
<stop offset="0.89" stop-color="#B08D57"/>
<stop offset="0.93" stop-color="#9F7846"/>
<stop offset="0.96" stop-color="#946B3C"/>
<stop offset="1" stop-color="#916739"/>
</linearGradient>
<radialGradient id="paint4_radial_144_356" cx="0" cy="0" r="1" gradientUnits="userSpaceOnUse" gradientTransform="translate(22.3024 20.89) rotate(45) scale(12.8063)">
<stop offset="0.8" stop-color="white" stop-opacity="0"/>
<stop offset="1" stop-color="#291E06"/>
</radialGradient>
<linearGradient id="paint5_linear_144_356" x1="13.5605" y1="20.024" x2="31.0451" y2="20.024" gradientUnits="userSpaceOnUse">
<stop offset="0.03" stop-color="#92693A"/>
<stop offset="0.1" stop-color="#A17A44"/>
<stop offset="0.24" stop-color="#C9A75D"/>
<stop offset="0.31" stop-color="#E0C06C"/>
<stop offset="0.5" stop-color="#B58B42"/>
<stop offset="0.56" stop-color="#BD964D"/>
<stop offset="0.65" stop-color="#D2B36A"/>
<stop offset="0.77" stop-color="#F4E198"/>
<stop offset="0.79" stop-color="#F8E69D"/>
<stop offset="0.81" stop-color="#E7D18C"/>
<stop offset="0.85" stop-color="#C8AB6E"/>
<stop offset="0.89" stop-color="#B08D57"/>
<stop offset="0.93" stop-color="#9F7846"/>
<stop offset="0.96" stop-color="#946B3C"/>
<stop offset="1" stop-color="#916739"/>
</linearGradient>
<linearGradient id="paint6_linear_144_356" x1="37.6899" y1="42.6537" x2="33.0653" y2="36.9439" gradientUnits="userSpaceOnUse">
<stop stop-color="#E1C999"/>
<stop offset="0.08" stop-color="#DDC393"/>
<stop offset="0.2" stop-color="#D0B480"/>
<stop offset="0.34" stop-color="#BC9963"/>
<stop offset="0.49" stop-color="#9F7438"/>
<stop offset="0.76" stop-color="#745437"/>
<stop offset="0.8" stop-color="#7D5C3C"/>
<stop offset="0.87" stop-color="#95734A"/>
<stop offset="0.96" stop-color="#BC9760"/>
<stop offset="0.97" stop-color="#BD9860"/>
</linearGradient>
<linearGradient id="paint7_linear_144_356" x1="33.3541" y1="36.6086" x2="36.6587" y2="43.1024" gradientUnits="userSpaceOnUse">
<stop stop-color="#613211" stop-opacity="0.95"/>
<stop offset="0.36" stop-color="#A28672" stop-opacity="0.56"/>
<stop offset="0.78" stop-color="#E5DDD8" stop-opacity="0.16"/>
<stop offset="1" stop-color="white" stop-opacity="0"/>
</linearGradient>
<linearGradient id="paint8_linear_144_356" x1="33.2953" y1="38.1609" x2="28.7891" y2="38.9001" gradientUnits="userSpaceOnUse">
<stop stop-color="#745437"/>
<stop offset="1" stop-color="#9F7438"/>
</linearGradient>
<linearGradient id="paint9_linear_144_356" x1="31.5" y1="39.0541" x2="30.6291" y2="42.2987" gradientUnits="userSpaceOnUse">
<stop stop-color="#613211" stop-opacity="0.95"/>
<stop offset="0.36" stop-color="#A28672" stop-opacity="0.56"/>
<stop offset="0.78" stop-color="#E5DDD8" stop-opacity="0.16"/>
<stop offset="1" stop-color="white" stop-opacity="0"/>
</linearGradient>
<linearGradient id="paint10_linear_144_356" x1="7.35714" y1="42.6537" x2="11.9817" y2="36.9439" gradientUnits="userSpaceOnUse">
<stop stop-color="#E1C999"/>
<stop offset="0.08" stop-color="#DDC393"/>
<stop offset="0.2" stop-color="#D0B480"/>
<stop offset="0.34" stop-color="#BC9963"/>
<stop offset="0.49" stop-color="#9F7438"/>
<stop offset="0.76" stop-color="#745437"/>
<stop offset="0.8" stop-color="#7D5C3C"/>
<stop offset="0.87" stop-color="#95734A"/>
<stop offset="0.96" stop-color="#BC9760"/>
<stop offset="0.97" stop-color="#BD9860"/>
</linearGradient>
<linearGradient id="paint11_linear_144_356" x1="11.5877" y1="36.706" x2="8.28304" y2="43.1999" gradientUnits="userSpaceOnUse">
<stop stop-color="#613211" stop-opacity="0.95"/>
<stop offset="0.36" stop-color="#A28672" stop-opacity="0.56"/>
<stop offset="0.78" stop-color="#E5DDD8" stop-opacity="0.16"/>
<stop offset="1" stop-color="white" stop-opacity="0"/>
</linearGradient>
<linearGradient id="paint12_linear_144_356" x1="11.7516" y1="38.1609" x2="16.2578" y2="38.9001" gradientUnits="userSpaceOnUse">
<stop stop-color="#745437"/>
<stop offset="1" stop-color="#9F7438"/>
</linearGradient>
<linearGradient id="paint13_linear_144_356" x1="13.5469" y1="39.0541" x2="14.4178" y2="42.2987" gradientUnits="userSpaceOnUse">
<stop stop-color="#613211" stop-opacity="0.95"/>
<stop offset="0.36" stop-color="#A28672" stop-opacity="0.56"/>
<stop offset="0.78" stop-color="#E5DDD8" stop-opacity="0.16"/>
<stop offset="1" stop-color="white" stop-opacity="0"/>
</linearGradient>
<linearGradient id="paint14_linear_144_356" x1="8.15404" y1="34.9901" x2="38.3511" y2="35.7002" gradientUnits="userSpaceOnUse">
<stop offset="0.03" stop-color="#92693A"/>
<stop offset="0.1" stop-color="#A17A44"/>
<stop offset="0.24" stop-color="#C9A75D"/>
<stop offset="0.31" stop-color="#E0C06C"/>
<stop offset="0.5" stop-color="#B58B42"/>
<stop offset="0.56" stop-color="#BD964D"/>
<stop offset="0.65" stop-color="#D2B36A"/>
<stop offset="0.77" stop-color="#F4E198"/>
<stop offset="0.79" stop-color="#F8E69D"/>
<stop offset="0.81" stop-color="#E7D18C"/>
<stop offset="0.85" stop-color="#C8AB6E"/>
<stop offset="0.89" stop-color="#B08D57"/>
<stop offset="0.93" stop-color="#9F7846"/>
<stop offset="0.96" stop-color="#946B3C"/>
<stop offset="1" stop-color="#916739"/>
</linearGradient>
</defs>
</svg>
