<svg width="50" height="50" viewBox="0 0 50 50" fill="none" xmlns="http://www.w3.org/2000/svg">
<g clip-path="url(#clip0_545_537)">
<path d="M46.2508 12.0999L25.5466 0.1464C25.2084 -0.0488002 24.7918 -0.0488002 24.4537 0.1464L3.7496 12.0999C3.41144 12.2951 3.20312 12.6559 3.20312 13.0464V36.9534C3.20312 37.3439 3.41144 37.7047 3.7496 37.8999L24.4538 49.8535C24.6228 49.9511 24.8115 49.9999 25.0002 49.9999C25.189 49.9999 25.3776 49.9511 25.5467 49.8535L46.2509 37.8999C46.589 37.7047 46.7974 37.3439 46.7974 36.9534V13.0464C46.7972 12.656 46.5888 12.2951 46.2508 12.0999ZM44.6113 34.7112L43.9054 34.3037C43.3829 34.0018 42.7143 34.1809 42.4124 34.7037C42.1106 35.2264 42.2897 35.8949 42.8125 36.1968L43.8208 36.779L26.0931 47.0141V26.397C26.1071 26.3975 26.1209 26.3996 26.1349 26.3996C26.5127 26.3996 26.88 26.2036 27.0825 25.853C27.2378 25.5841 27.2649 25.2769 27.1844 25.0006L44.6113 14.9391V34.7112ZM7.58804 34.7037C7.28627 34.181 6.61815 34.0018 6.09507 34.3037L5.38902 34.7112V14.9392L22.816 25.0007C22.7354 25.2769 22.7626 25.5841 22.9178 25.853C23.1204 26.2036 23.4876 26.3996 23.8654 26.3996C23.8793 26.3996 23.8933 26.3974 23.9073 26.397V47.014L6.17944 36.7789L7.18791 36.1967C7.71077 35.8949 7.8898 35.2264 7.58804 34.7037ZM25.0002 4.54475C25.6038 4.54475 26.0932 4.05544 26.0932 3.45181V2.98588L43.5182 13.0463L26.071 23.1194C25.9692 22.6211 25.5285 22.2463 25.0002 22.2463C24.4719 22.2463 24.0311 22.6211 23.9294 23.1195L6.48208 13.0463L23.9073 2.98588V3.45191C23.9073 4.05544 24.3967 4.54475 25.0002 4.54475Z" fill="black"/>
<path d="M33.2264 30.6619L35.1761 31.7876C35.3482 31.887 35.5361 31.9342 35.7214 31.9342C36.0992 31.9342 36.4665 31.7382 36.669 31.3876C36.9709 30.8649 36.7918 30.1965 36.269 29.8946L34.3193 28.7689C33.7964 28.4671 33.1282 28.6462 32.8263 29.1689C32.5245 29.6917 32.7036 30.36 33.2264 30.6619Z" fill="black"/>
<path d="M28.4324 27.8947L30.3822 29.0203C30.5544 29.1197 30.7422 29.1669 30.9276 29.1669C31.3053 29.1669 31.6728 28.9709 31.8752 28.6203C32.1771 28.0975 31.9979 27.4291 31.4752 27.1273L29.5254 26.0017C29.0025 25.6997 28.3342 25.8789 28.0324 26.4017C27.7305 26.9245 27.9097 27.5929 28.4324 27.8947Z" fill="black"/>
<path d="M38.0193 33.4293L39.9691 34.555C40.1413 34.6544 40.3292 34.7016 40.5145 34.7016C40.8922 34.7016 41.2597 34.5056 41.4621 34.155C41.764 33.6322 41.5848 32.9638 41.0621 32.662L39.1123 31.5363C38.5894 31.2344 37.921 31.4136 37.6193 31.9363C37.3174 32.4591 37.4966 33.1275 38.0193 33.4293Z" fill="black"/>
<path d="M19.0718 29.1669C19.2571 29.1669 19.4451 29.1197 19.6172 29.0203L21.567 27.8946C22.0897 27.5928 22.2689 26.9244 21.967 26.4016C21.6652 25.8788 20.9968 25.6998 20.474 26.0016L18.5242 27.1273C18.0014 27.4291 17.8223 28.0975 18.1242 28.6203C18.3266 28.971 18.6939 29.1669 19.0718 29.1669Z" fill="black"/>
<path d="M9.48583 34.7016C9.6712 34.7016 9.85908 34.6544 10.0312 34.5551L11.981 33.4295C12.5038 33.1277 12.6829 32.4592 12.3811 31.9365C12.0794 31.4138 11.4112 31.2347 10.8881 31.5365L8.93827 32.6621C8.41551 32.9639 8.23638 33.6323 8.53825 34.1551C8.74066 34.5057 9.108 34.7016 9.48583 34.7016Z" fill="black"/>
<path d="M14.2788 31.9342C14.4642 31.9342 14.6522 31.887 14.8242 31.7876L16.7739 30.6619C17.2967 30.36 17.4758 29.6917 17.1739 29.1689C16.8722 28.6462 16.2037 28.4671 15.6809 28.7689L13.7312 29.8946C13.2085 30.1965 13.0293 30.8649 13.3312 31.3876C13.5337 31.7382 13.901 31.9342 14.2788 31.9342Z" fill="black"/>
<path d="M23.9072 8.9864C23.9072 9.59004 24.3966 10.0794 25.0002 10.0794C25.6037 10.0794 26.0931 9.59004 26.0931 8.9864V6.73504C26.0931 6.1314 25.6037 5.64209 25.0002 5.64209C24.3966 5.64209 23.9072 6.1314 23.9072 6.73504V8.9864Z" fill="black"/>
<path d="M25.0002 11.1768C24.3966 11.1768 23.9072 11.6661 23.9072 12.2697V14.5211C23.9072 15.1247 24.3966 15.614 25.0002 15.614C25.6037 15.614 26.0931 15.1247 26.0931 14.5211V12.2697C26.0931 11.6661 25.6038 11.1768 25.0002 11.1768Z" fill="black"/>
<path d="M25.0002 16.7117C24.3966 16.7117 23.9072 17.201 23.9072 17.8046V20.056C23.9072 20.6596 24.3966 21.1489 25.0002 21.1489C25.6037 21.1489 26.0931 20.6596 26.0931 20.056V17.8046C26.0931 17.201 25.6038 16.7117 25.0002 16.7117Z" fill="black"/>
</g>
<defs>
<clipPath id="clip0_545_537">
<rect width="50" height="50" fill="white"/>
</clipPath>
</defs>
</svg>
