<svg width="42" height="42" viewBox="0 0 42 42" fill="none" xmlns="http://www.w3.org/2000/svg">
<path d="M29.9937 42H11.933C9.66246 42 7.76186 40.3843 7.32097 38.2422H6.45942C5.04412 38.2422 3.89307 37.0909 3.89307 35.6758V27.5277C3.89307 26.1126 5.04433 24.9613 6.45942 24.9613H7.22454V16.6951C6.26024 16.33 5.57281 15.3968 5.57281 14.3062V7.17016C5.57281 5.76223 6.71818 4.61686 8.1261 4.61686H10.1802V3.79699C10.1802 2.65541 11.1089 1.72669 12.2507 1.72669H15.9191C17.0606 1.72669 17.9894 2.65541 17.9894 3.79699V4.61686H23.6181V2.0703C23.6181 0.92872 24.5468 0 25.6884 0H29.3568C30.4985 0 31.4273 0.92872 31.4273 2.0703V4.61686H33.8005C35.2085 4.61686 36.3538 5.76223 36.3538 7.17016V14.3062C36.3538 15.3968 35.6664 16.33 34.7021 16.6951V24.9613H35.5409C36.9562 24.9613 38.1073 26.1126 38.1073 27.5277V35.6758C38.1073 37.0909 36.956 38.2422 35.5409 38.2422H34.6057C34.1646 40.3843 32.2642 42 29.9937 42ZM8.31917 37.847C8.58762 39.6002 10.1059 40.9473 11.9328 40.9473H29.9934C32.0092 40.9473 33.6492 39.3071 33.6492 37.2913V16.8595H23.2911V17.9472C23.2911 19.1688 22.2971 20.1626 21.0758 20.1626H20.8507C19.6291 20.1626 18.6353 19.1688 18.6353 17.9472V16.8595H8.27706V25.2462C8.31454 25.3186 8.3356 25.4007 8.3356 25.4877V37.716C8.3356 37.7611 8.32991 37.8051 8.31917 37.847ZM34.7173 37.1894H35.5409C36.3755 37.1894 37.0545 36.5104 37.0545 35.6758V27.5277C37.0545 26.6931 36.3753 26.0141 35.5409 26.0141H34.7173V37.1894ZM6.45921 26.0141C5.6246 26.0141 4.94559 26.6931 4.94559 27.5277V35.6758C4.94559 36.5104 5.62481 37.1894 6.45921 37.1894H7.22433V26.0138H6.45921V26.0141ZM19.6878 16.5925V17.9472C19.6878 18.5883 20.2096 19.1098 20.8505 19.1098H21.0755C21.7167 19.1098 22.2382 18.5881 22.2382 17.9472V16.5925H21.4893V17.3048C21.4893 17.5956 21.2537 17.8312 20.9629 17.8312C20.6721 17.8312 20.4365 17.5956 20.4365 17.3048V16.5925H19.6878ZM23.2913 15.8068H33.8005C34.628 15.8068 35.3011 15.1337 35.3011 14.3062V7.17016C35.3011 6.34271 34.628 5.66959 33.8005 5.66959H8.12589C7.29844 5.66959 6.62533 6.34271 6.62533 7.17016V14.3062C6.62533 15.1337 7.29844 15.8068 8.12589 15.8068H18.6351V14.7191C18.6351 13.4975 19.6291 12.5037 20.8505 12.5037H21.0755C22.2971 12.5037 23.2909 13.4975 23.2909 14.7191V15.8068H23.2913ZM20.9633 15.5398H22.2386V14.7191C22.2386 14.078 21.7169 13.5564 21.076 13.5564H20.8509C20.2098 13.5564 19.6883 14.0782 19.6883 14.7191V15.5398H20.9633ZM24.6706 4.61686H30.3743V2.0703C30.3743 1.5092 29.9177 1.05273 29.3565 1.05273H25.6882C25.1271 1.05273 24.6706 1.5092 24.6706 2.0703V4.61686ZM11.2327 4.61686H16.9364V3.79699C16.9364 3.23589 16.48 2.77942 15.9188 2.77942H12.2505C11.6894 2.77942 11.2327 3.23589 11.2327 3.79699V4.61686ZM26.5794 40.119H15.347C13.838 40.119 12.6105 38.8915 12.6105 37.3827V26.8447C12.6105 25.1485 13.9904 23.7686 15.6866 23.7686H26.2396C27.936 23.7686 29.3157 25.1485 29.3157 26.8447V37.3827C29.3159 38.8915 28.0884 40.119 26.5794 40.119ZM13.6633 30.589V37.3827C13.6633 38.311 14.4187 39.0662 15.347 39.0662H26.5794C27.5077 39.0662 28.2632 38.311 28.2632 37.3827V30.589H13.6633ZM13.6633 29.5363H28.2632V26.8447C28.2632 25.729 27.3553 24.8213 26.2398 24.8213H15.6866C14.5709 24.8213 13.6633 25.729 13.6633 26.8447V29.5363Z" fill="black"/>
</svg>
