<svg width="105" height="105" viewBox="0 0 105 105" fill="none" xmlns="http://www.w3.org/2000/svg">
<rect width="105" height="105" rx="8" fill="#B5EBCD"/>
<path d="M77.2647 56.9888H75.8276C74.0996 53.2846 74.0994 49.6691 75.8276 45.9395H77.2647C77.6705 45.9395 77.999 45.6106 77.999 45.2051C77.999 44.7995 77.6705 44.4707 77.2647 44.4707H50.0182V43.9249H73.4486C73.8545 43.9249 74.183 43.5962 74.183 43.1906C74.183 42.785 73.8545 42.4562 73.4486 42.4562H72.0116C70.2834 38.7522 70.2841 35.137 72.0118 31.4065H73.4486C73.8545 31.4065 74.183 31.0777 74.183 30.6721C74.183 30.2666 73.8545 29.9377 73.4486 29.9377H34.8509C34.5841 29.9377 34.3382 30.0826 34.2083 30.3161C31.5405 35.13 31.5519 39.5994 34.2413 43.6004C34.3776 43.8034 34.6063 43.9249 34.8509 43.9249H42.29V44.4707H38.6669C38.4001 44.4707 38.1542 44.6156 38.0243 44.849C35.3558 49.6626 35.3672 54.132 38.0573 58.133C38.1936 58.336 38.4224 58.4576 38.6669 58.4576H77.2647C77.6705 58.4576 77.999 58.1287 77.999 57.7232C77.999 57.3176 77.6705 56.9888 77.2647 56.9888ZM43.7588 36.5507H48.5494V49.2818L46.4575 48.3333C46.2638 48.2459 46.0444 48.2459 45.8507 48.3333L43.7588 49.2818V36.5507ZM35.2497 42.4562C33.1383 39.0953 33.1513 35.4732 35.2891 31.4065H70.4082C68.8771 35.087 68.8762 38.7974 70.406 42.4562H50.0182V36.5507H61.8019C62.2078 36.5507 62.5362 36.2219 62.5362 35.8163C62.5362 35.4108 62.2078 35.082 61.8019 35.082H39.8947C39.4888 35.082 39.1604 35.4108 39.1604 35.8163C39.1604 36.2219 39.4888 36.5507 39.8947 36.5507H42.29V42.4562H35.2497ZM39.1051 45.9395H42.29V50.421C42.29 50.6706 42.4169 50.903 42.6264 51.0381C42.8365 51.1737 43.1012 51.1934 43.3278 51.0898L46.1541 49.8085L48.9804 51.0898C49.0773 51.1339 49.1805 51.1554 49.2838 51.1554C49.423 51.1554 49.5614 51.1159 49.6818 51.0381C49.8913 50.903 50.0182 50.6706 50.0182 50.421V45.9395H74.224C72.6924 49.6192 72.692 53.3295 74.2223 56.9888H39.065C36.9536 53.6278 36.9666 50.0062 39.1051 45.9395Z" fill="black"/>
<path d="M70.7968 60.5442H72.2338C72.6397 60.5442 72.9682 60.2153 72.9682 59.8098C72.9682 59.4042 72.6397 59.0754 72.2338 59.0754H33.6361C33.3693 59.0754 33.1234 59.2202 32.9935 59.4537C30.3243 64.2673 30.3358 68.7366 33.0265 72.7377C33.1635 72.9407 33.3916 73.0622 33.6361 73.0622H72.2338C72.6397 73.0622 72.9682 72.7334 72.9682 72.3279C72.9682 71.9223 72.6397 71.5935 72.2338 71.5935H70.7968C69.0688 67.8889 69.0687 64.2738 70.7968 60.5442ZM34.0342 71.5935C31.9221 68.2325 31.935 64.6105 34.0743 60.5442H69.1932C67.6615 64.2239 67.6614 67.934 69.1915 71.5935H34.0342Z" fill="black"/>
</svg>
