<svg width="105" height="105" viewBox="0 0 105 105" fill="none" xmlns="http://www.w3.org/2000/svg">
<rect width="105" height="105" rx="8" fill="#B1E5FC"/>
<path d="M63.277 79H39.6261C36.6528 79 34.1639 76.8842 33.5866 74.079H32.4584C30.605 74.079 29.0977 72.5714 29.0977 70.7183V60.0481C29.0977 58.1951 30.6053 56.6874 32.4584 56.6874H33.4603V45.8626C32.1975 45.3845 31.2973 44.1625 31.2973 42.7343V33.3895C31.2973 31.5458 32.7972 30.0459 34.6409 30.0459H37.3308V28.9723C37.3308 27.4773 38.547 26.2611 40.0422 26.2611H44.846C46.3409 26.2611 47.5571 27.4773 47.5571 28.9723V30.0459H54.9281V26.7111C54.9281 25.2162 56.1442 24 57.6392 24H62.443C63.9382 24 65.1543 25.2162 65.1543 26.7111V30.0459H68.2622C70.1059 30.0459 71.6058 31.5458 71.6058 33.3895V42.7343C71.6058 44.1625 70.7056 45.3845 69.4428 45.8626V56.6874H70.5413C72.3946 56.6874 73.902 58.1951 73.902 60.0481V70.7183C73.902 72.5714 72.3944 74.079 70.5413 74.079H69.3165C68.7389 76.8842 66.2503 79 63.277 79ZM34.8937 73.5615C35.2453 75.8574 37.2335 77.6214 39.6259 77.6214H63.2767C65.9164 77.6214 68.064 75.4736 68.064 72.8339V46.0779H54.4999V47.5023C54.4999 49.102 53.1982 50.4033 51.5988 50.4033H51.3041C49.7044 50.4033 48.403 49.102 48.403 47.5023V46.0779H34.8386V57.0605C34.8877 57.1553 34.9153 57.2629 34.9153 57.3767V73.39C34.9153 73.449 34.9078 73.5066 34.8937 73.5615ZM69.4627 72.7005H70.5413C71.6342 72.7005 72.5234 71.8113 72.5234 70.7183V60.0481C72.5234 58.9552 71.6339 58.066 70.5413 58.066H69.4627V72.7005ZM32.4581 58.066C31.3651 58.066 30.476 58.9552 30.476 60.0481V70.7183C30.476 71.8113 31.3654 72.7005 32.4581 72.7005H33.46V58.0658L32.4581 58.066ZM49.7813 45.7283V47.5023C49.7813 48.3418 50.4645 49.0248 51.3038 49.0248H51.5985C52.4381 49.0248 53.121 48.3415 53.121 47.5023V45.7283H52.1403V46.6611C52.1403 47.0418 51.8318 47.3503 51.451 47.3503C51.0703 47.3503 50.7617 47.0418 50.7617 46.6611V45.7283H49.7813ZM54.5002 44.6993H68.2622C69.3458 44.6993 70.2272 43.8179 70.2272 42.7343V33.3895C70.2272 32.3059 69.3458 31.4245 68.2622 31.4245H34.6406C33.5571 31.4245 32.6756 32.3059 32.6756 33.3895V42.7343C32.6756 43.8179 33.5571 44.6993 34.6406 44.6993H48.4027V43.275C48.4027 41.6753 49.7044 40.3739 51.3038 40.3739H51.5985C53.1982 40.3739 54.4996 41.6753 54.4996 43.275L54.5002 44.6993ZM51.4516 44.3497H53.1216V43.275C53.1216 42.4354 52.4383 41.7525 51.5991 41.7525H51.3043C50.4648 41.7525 49.7818 42.4357 49.7818 43.275V44.3497H51.4516ZM56.3064 30.0459H63.7755V26.7111C63.7755 25.9763 63.1775 25.3786 62.4427 25.3786H57.6389C56.9041 25.3786 56.3064 25.9763 56.3064 26.7111V30.0459ZM38.7091 30.0459H46.1782V28.9723C46.1782 28.2375 45.5805 27.6397 44.8457 27.6397H40.0419C39.3071 27.6397 38.7091 28.2375 38.7091 28.9723V30.0459ZM58.806 76.5368H44.0969C42.1208 76.5368 40.5134 74.9293 40.5134 72.9536V59.1537C40.5134 56.9326 42.3204 55.1255 44.5416 55.1255H58.361C60.5824 55.1255 62.3892 56.9326 62.3892 59.1537V72.9536C62.3895 74.9293 60.7821 76.5368 58.806 76.5368ZM41.892 64.057V72.9536C41.892 74.1692 42.8812 75.1582 44.0969 75.1582H58.806C60.0216 75.1582 61.0109 74.1692 61.0109 72.9536V64.057H41.892ZM41.892 62.6785H61.0109V59.1537C61.0109 57.6927 59.822 56.5041 58.3613 56.5041H44.5416C43.0806 56.5041 41.892 57.6927 41.892 59.1537V62.6785Z" fill="black"/>
</svg>
