<svg width="112" height="108" viewBox="0 0 112 108" fill="none" xmlns="http://www.w3.org/2000/svg">
<rect x="4" width="108" height="108" rx="8" fill="#E2136E" fill-opacity="0.12"/>
<path d="M72.0534 59.4989L48.7776 55.884L51.8632 69.63L72.0534 59.4989Z" fill="#D12053"/>
<path d="M72.0535 59.4991L54.5143 35.3479L48.782 55.8886L72.0535 59.4991Z" fill="#E2136E"/>
<path d="M48.2378 55.6101L29.8602 32.3333L53.9261 35.1825L48.2378 55.6101Z" fill="#D12053"/>
<path d="M39.8676 45.8834L29.6627 36.3525H32.3489L39.8676 45.8834Z" fill="#9E1638"/>
<path d="M77.0177 47.7583L72.6988 59.3684L65.698 49.7724L77.0177 47.7583Z" fill="#D12053"/>
<path d="M54.5802 68.9341L71.5269 62.1873L72.2379 60.0427L54.5802 68.9341Z" fill="#E2136E"/>
<path d="M41.0264 81.6667L48.2861 56.428L51.9686 72.8492L41.0264 81.6667Z" fill="#9E1638"/>
<path d="M77.6936 47.8496L75.9116 52.6433L82.3374 52.5389L77.6936 47.8496Z" fill="#E2136E"/>
</svg>
