<svg width="30" height="30" viewBox="0 0 30 30" fill="none" xmlns="http://www.w3.org/2000/svg">
<path d="M27.092 23.1917C26.2884 22.4754 25.5849 21.6541 25.0003 20.7501C24.3622 19.5022 23.9797 18.1394 23.8753 16.7417V12.6251C23.8808 10.4298 23.0845 8.30798 21.6359 6.65839C20.1874 5.00881 18.1863 3.94497 16.0087 3.66675V2.59175C16.0087 2.29669 15.8914 2.01373 15.6828 1.80509C15.4742 1.59646 15.1912 1.47925 14.8962 1.47925C14.6011 1.47925 14.3181 1.59646 14.1095 1.80509C13.9009 2.01373 13.7837 2.29669 13.7837 2.59175V3.68341C11.6255 3.98169 9.64863 5.05196 8.2191 6.696C6.78956 8.34005 6.00427 10.4465 6.00866 12.6251V16.7417C5.90429 18.1394 5.52181 19.5022 4.88366 20.7501C4.30939 21.652 3.61715 22.4732 2.82533 23.1917C2.73644 23.2698 2.66519 23.366 2.61634 23.4737C2.56749 23.5815 2.54214 23.6984 2.54199 23.8167V24.9501C2.54199 25.1711 2.62979 25.3831 2.78607 25.5393C2.94235 25.6956 3.15431 25.7834 3.37533 25.7834H26.542C26.763 25.7834 26.975 25.6956 27.1312 25.5393C27.2875 25.3831 27.3753 25.1711 27.3753 24.9501V23.8167C27.3752 23.6984 27.3498 23.5815 27.301 23.4737C27.2521 23.366 27.1809 23.2698 27.092 23.1917ZM4.27533 24.1167C5.05067 23.3678 5.73332 22.5284 6.30866 21.6167C7.1125 20.1096 7.58152 18.4468 7.68366 16.7417V12.6251C7.65061 11.6484 7.81443 10.6751 8.16536 9.76314C8.5163 8.85113 9.04717 8.01907 9.72636 7.3165C10.4056 6.61393 11.2192 6.05522 12.1188 5.67364C13.0184 5.29206 13.9856 5.09542 14.9628 5.09542C15.94 5.09542 16.9072 5.29206 17.8068 5.67364C18.7065 6.05522 19.5201 6.61393 20.1993 7.3165C20.8785 8.01907 21.4094 8.85113 21.7603 9.76314C22.1112 10.6751 22.275 11.6484 22.242 12.6251V16.7417C22.3441 18.4468 22.8131 20.1096 23.617 21.6167C24.1923 22.5284 24.875 23.3678 25.6503 24.1167H4.27533Z" fill="#5A5A5A"/>
<path d="M14.9999 28.5667C15.5249 28.5547 16.0286 28.3573 16.4221 28.0096C16.8156 27.6619 17.0734 27.1862 17.1499 26.6667H12.7666C12.8453 27.2003 13.1152 27.6872 13.526 28.0367C13.9368 28.3862 14.4606 28.5745 14.9999 28.5667Z" fill="#5A5A5A"/>
</svg>
