<svg width="97" height="85" viewBox="0 0 97 85" fill="none" xmlns="http://www.w3.org/2000/svg">
<path d="M3.41414 1H1V3.41414H3.41414V1Z" stroke="#8F9294" stroke-width="1.0782" stroke-miterlimit="10"/>
<path d="M21.8634 1H19.4492V3.41414H21.8634V1Z" stroke="#8F9294" stroke-width="1.0782" stroke-miterlimit="10"/>
<path d="M40.3077 1H37.8936V3.41414H40.3077V1Z" stroke="#8F9294" stroke-width="1.0782" stroke-miterlimit="10"/>
<path d="M58.7569 1H56.3428V3.41414H58.7569V1Z" stroke="#8F9294" stroke-width="1.0782" stroke-miterlimit="10"/>
<path d="M77.2061 1H74.792V3.41414H77.2061V1Z" stroke="#8F9294" stroke-width="1.0782" stroke-miterlimit="10"/>
<path d="M95.6505 1H93.2363V3.41414H95.6505V1Z" stroke="#8F9294" stroke-width="1.0782" stroke-miterlimit="10"/>
<path d="M3.41414 14.451H1V16.8652H3.41414V14.451Z" stroke="#8F9294" stroke-width="1.0782" stroke-miterlimit="10"/>
<path d="M21.8634 14.451H19.4492V16.8652H21.8634V14.451Z" stroke="#FF2C2C" stroke-width="1.0782" stroke-miterlimit="10"/>
<path d="M40.3077 14.451H37.8936V16.8652H40.3077V14.451Z" stroke="#8F9294" stroke-width="1.0782" stroke-miterlimit="10"/>
<path d="M58.7569 14.451H56.3428V16.8652H58.7569V14.451Z" stroke="#8F9294" stroke-width="1.0782" stroke-miterlimit="10"/>
<path d="M77.2061 14.451H74.792V16.8652H77.2061V14.451Z" stroke="#8F9294" stroke-width="1.0782" stroke-miterlimit="10"/>
<path d="M95.6505 14.451H93.2363V16.8652H95.6505V14.451Z" stroke="#8F9294" stroke-width="1.0782" stroke-miterlimit="10"/>
<path d="M3.41414 27.896H1V30.3101H3.41414V27.896Z" stroke="#8F9294" stroke-width="1.0782" stroke-miterlimit="10"/>
<path d="M21.8634 27.896H19.4492V30.3101H21.8634V27.896Z" stroke="#8F9294" stroke-width="1.0782" stroke-miterlimit="10"/>
<path d="M40.3077 27.896H37.8936V30.3101H40.3077V27.896Z" stroke="#8F9294" stroke-width="1.0782" stroke-miterlimit="10"/>
<path d="M58.7569 27.896H56.3428V30.3101H58.7569V27.896Z" stroke="#FF2C2C" stroke-width="1.0782" stroke-miterlimit="10"/>
<path d="M77.2061 27.896H74.792V30.3101H77.2061V27.896Z" stroke="#8F9294" stroke-width="1.0782" stroke-miterlimit="10"/>
<path d="M95.6505 27.896H93.2363V30.3101H95.6505V27.896Z" stroke="#8F9294" stroke-width="1.0782" stroke-miterlimit="10"/>
<path d="M3.41414 41.3411H1V43.7552H3.41414V41.3411Z" stroke="#8F9294" stroke-width="1.0782" stroke-miterlimit="10"/>
<path d="M21.8634 41.3411H19.4492V43.7552H21.8634V41.3411Z" stroke="#8F9294" stroke-width="1.0782" stroke-miterlimit="10"/>
<path d="M40.3077 41.3411H37.8936V43.7552H40.3077V41.3411Z" stroke="#8F9294" stroke-width="1.0782" stroke-miterlimit="10"/>
<path d="M58.7569 41.3411H56.3428V43.7552H58.7569V41.3411Z" stroke="#8F9294" stroke-width="1.0782" stroke-miterlimit="10"/>
<path d="M77.2061 41.3411H74.792V43.7552H77.2061V41.3411Z" stroke="#8F9294" stroke-width="1.0782" stroke-miterlimit="10"/>
<path d="M95.6505 41.3411H93.2363V43.7552H95.6505V41.3411Z" stroke="#8F9294" stroke-width="1.0782" stroke-miterlimit="10"/>
<path d="M3.41414 54.7921H1V57.2063H3.41414V54.7921Z" stroke="#8F9294" stroke-width="1.0782" stroke-miterlimit="10"/>
<path d="M21.8634 54.7921H19.4492V57.2063H21.8634V54.7921Z" fill="#0F1027"/>
<path d="M40.3077 54.7921H37.8936V57.2063H40.3077V54.7921Z" fill="#0F1027"/>
<path d="M58.7569 54.7921H56.3428V57.2063H58.7569V54.7921Z" stroke="#8F9294" stroke-width="1.0782" stroke-miterlimit="10"/>
<path d="M77.2061 54.7921H74.792V57.2063H77.2061V54.7921Z" stroke="#FF2C2C" stroke-width="1.0782" stroke-miterlimit="10"/>
<path d="M95.6505 54.7921H93.2363V57.2063H95.6505V54.7921Z" stroke="#8F9294" stroke-width="1.0782" stroke-miterlimit="10"/>
<path d="M3.41414 68.2371H1V70.6512H3.41414V68.2371Z" stroke="#8F9294" stroke-width="1.0782" stroke-miterlimit="10"/>
<path d="M21.8634 68.2371H19.4492V70.6512H21.8634V68.2371Z" stroke="#8F9294" stroke-width="1.0782" stroke-miterlimit="10"/>
<path d="M40.3077 68.2371H37.8936V70.6512H40.3077V68.2371Z" stroke="#8F9294" stroke-width="1.0782" stroke-miterlimit="10"/>
<path d="M58.7569 68.2371H56.3428V70.6512H58.7569V68.2371Z" fill="#0F1027"/>
<path d="M77.2061 68.2371H74.792V70.6512H77.2061V68.2371Z" stroke="#8F9294" stroke-width="1.0782" stroke-miterlimit="10"/>
<path d="M95.6505 68.2371H93.2363V70.6512H95.6505V68.2371Z" stroke="#8F9294" stroke-width="1.0782" stroke-miterlimit="10"/>
<path d="M3.41414 81.682H1V84.0961H3.41414V81.682Z" stroke="#8F9294" stroke-width="1.0782" stroke-miterlimit="10"/>
<path d="M21.8634 81.682H19.4492V84.0961H21.8634V81.682Z" stroke="#8F9294" stroke-width="1.0782" stroke-miterlimit="10"/>
<path d="M40.3077 81.682H37.8936V84.0961H40.3077V81.682Z" stroke="#8F9294" stroke-width="1.0782" stroke-miterlimit="10"/>
<path d="M58.7569 81.682H56.3428V84.0961H58.7569V81.682Z" stroke="#8F9294" stroke-width="1.0782" stroke-miterlimit="10"/>
<path d="M77.2061 81.682H74.792V84.0961H77.2061V81.682Z" fill="#0F1027"/>
<path d="M95.6505 81.682H93.2363V84.0961H95.6505V81.682Z" stroke="#8F9294" stroke-width="1.0782" stroke-miterlimit="10"/>
</svg>
