<svg width="126" height="48" viewBox="0 0 126 48" fill="none" xmlns="http://www.w3.org/2000/svg">
<g clip-path="url(#clip0_503_814)">
<path d="M0 11.4731H1.78639V14.8975H0V11.4731ZM0 19.8439H1.78639V37.4927H0V19.8439Z" fill="white"/>
<path d="M49.3642 22.5366C49.3642 18.1756 49.3047 16.3025 49.3047 15.483H51.895C51.9545 16.3025 52.014 17.9708 52.014 21.2781C53.5325 17.3854 56.9266 15.0439 61.1842 14.8391V17.6488C55.7059 18 52.014 21.7464 52.014 27.922V41.3854H49.3642V22.5366Z" fill="white"/>
<path d="M84.0495 36.4976C84.0198 38.1366 84.1686 39.8049 84.4068 41.4146H81.8761C81.6677 40.8 81.5188 39.6585 81.3997 37.4341C80.5065 39.3659 78.1842 42.0585 72.7357 42.0585C66.6322 42.0585 63.9824 38.1658 63.9824 34.2732C63.9824 28.5658 68.4484 25.961 76.3681 25.961H81.3699V23.3268C81.3699 20.7219 80.5661 17.2683 74.5519 17.2683C69.2225 17.2683 68.4484 20.0195 67.8529 22.1268H65.2031C65.5306 19.2878 67.317 14.8683 74.5817 14.8683C80.5958 14.8683 83.9602 17.3561 83.9602 23.0634V36.4976H84.0495ZM81.4593 28.1854H76.2787C70.4134 28.1854 66.7811 29.678 66.7811 34.1561C66.7811 37.4341 69.163 39.6585 72.8548 39.6585C80.3874 39.6585 81.4593 34.7415 81.4593 29.1219V28.1854Z" fill="white"/>
<path d="M92.8026 15.4829C96.7029 28.8585 98.9656 36.5268 99.4122 38.8097H99.4718C99.8886 36.7317 102.538 28.5951 106.647 15.4829H109.505C114.418 31.4927 115.877 36.1171 116.353 38.1366H116.413C117.157 35.2975 118.348 31.4049 123.231 15.4829H126.029L117.693 41.4146H114.775C111.947 32.2244 108.493 20.9853 107.987 18.6146H107.927C107.391 21.161 104.384 30.439 100.96 41.4146H97.8045L90.0635 15.4829H92.8026Z" fill="white"/>
<path d="M16.9711 0L11.6715 6.81951C11.6715 6.81951 21.1394 2.78049 26.0519 7.49268V9.74634C26.0519 9.74634 21.8539 4.1561 9.55762 8.45854L16.9711 0Z" fill="#39AA35"/>
<path d="M35.0725 0L40.4019 6.81951C40.4019 6.81951 30.9341 2.78049 26.0215 7.49268V9.74634C26.0215 9.74634 30.2195 4.1561 42.5158 8.45854L35.0725 0Z" fill="#39AA35"/>
<path d="M26.0219 2.63413C26.0219 2.63413 23.1934 -0.702454 16.0479 1.90242C16.0479 1.90242 21.7048 -0.0878202 26.0219 3.19023V2.63413Z" fill="#39AA35"/>
<path d="M26.022 4.21461C26.022 4.21461 21.9729 0.936562 15.6907 3.13168L15.1846 3.80485C15.1846 3.80485 20.0971 1.14144 26.022 4.21461Z" fill="#39AA35"/>
<path d="M26.0214 5.59027C26.0214 5.59027 20.6623 2.57564 15.184 5.15125L14.9756 5.44393C14.9756 5.41466 20.7814 3.161 26.0214 5.59027Z" fill="#39AA35"/>
<path d="M26.0215 2.63413C26.0215 2.63413 28.8499 -0.702454 35.9955 1.90242C35.9955 1.90242 30.3386 -0.0878202 26.0215 3.19023V2.63413Z" fill="#39AA35"/>
<path d="M26.0215 4.21461C26.0215 4.21461 30.0706 0.936562 36.323 3.13168L36.8589 3.80485C36.8887 3.80485 31.9761 1.14144 26.0215 4.21461Z" fill="#39AA35"/>
<path d="M26.0215 5.59027C26.0215 5.59027 31.3509 2.57564 36.8589 5.15125L37.0673 5.44393C37.0971 5.41466 31.2616 3.161 26.0215 5.59027Z" fill="#39AA35"/>
<path d="M52.6088 10.6537L50.4056 8.22442C50.3758 8.19515 50.346 8.13661 50.3163 8.10734V10.6537H49.959V5.59027H50.3163V7.99027C50.346 7.93173 50.3758 7.90247 50.4056 7.8732L52.4897 5.59027H52.9661L50.7033 8.04881L53.1149 10.6537H52.6088Z" fill="white"/>
<path d="M57.4912 10.6537L54.4246 6.55612C54.365 6.46832 54.3055 6.38051 54.2459 6.32198L54.1864 6.26344C54.1864 6.32198 54.1864 6.40978 54.1864 6.49759V10.683H53.8291V5.59027H54.0971L57.1637 9.65856C57.2232 9.74637 57.3126 9.86344 57.3721 9.98051H57.4019C57.4019 9.8049 57.3721 9.65856 57.3721 9.54149V5.59027H57.7294V10.6537H57.4912Z" fill="white"/>
<path d="M61.1831 10.7415C60.4686 10.7415 59.8731 10.5073 59.4265 10.0391C58.9799 9.57076 58.7715 8.95613 58.7715 8.19515C58.7715 7.37564 58.9799 6.73174 59.4265 6.26345C59.8731 5.79515 60.4686 5.53174 61.2427 5.53174C61.9274 5.53174 62.4931 5.76588 62.9397 6.23418C63.3566 6.70247 63.5947 7.3171 63.5947 8.07808C63.5947 8.92686 63.3863 9.57076 62.9397 10.0683C62.5229 10.5073 61.9274 10.7415 61.1831 10.7415ZM61.2129 5.82442C60.6174 5.82442 60.1113 6.0293 59.7242 6.46832C59.3372 6.90735 59.1288 7.46345 59.1288 8.13662C59.1288 8.83906 59.3074 9.39515 59.6647 9.80491C60.022 10.2147 60.5281 10.4195 61.1236 10.4195C61.7488 10.4195 62.2549 10.2147 62.642 9.80491C62.9993 9.39515 63.2077 8.83906 63.2077 8.10735C63.2077 7.40491 63.029 6.81954 62.6718 6.43906C62.3145 6.05857 61.8381 5.82442 61.2129 5.82442Z" fill="white"/>
<path d="M68.8946 10.6537H68.5969L67.4655 6.84878C67.4059 6.6439 67.3762 6.49756 67.3762 6.38048H67.3464C67.3464 6.49756 67.3166 6.6439 67.2273 6.84878L66.0066 10.6829H65.7089L64.1904 5.61951H64.5775L65.7386 9.6878C65.7982 9.86341 65.828 10.0098 65.8577 10.1268C65.8577 10.039 65.9173 9.89268 65.9768 9.6878L67.2571 5.61951H67.4357L68.5969 9.6878C68.6564 9.86341 68.6862 10.039 68.7159 10.1268C68.7159 10.0683 68.7457 9.98048 68.7755 9.89268L69.9962 5.61951H70.3832L68.8946 10.6537Z" fill="white"/>
<path d="M71.2764 10.6537V5.59027H71.6336V10.3317H73.688V10.6537H71.2764Z" fill="white"/>
<path d="M74.6406 10.6537V5.59027H77.0522V5.91222H74.9979V7.93173H76.9034V8.25369H74.9979V10.3317H77.1713V10.6537H74.6406Z" fill="white"/>
<path d="M78.333 10.6537V5.59027H79.6132C80.4767 5.59027 81.1317 5.79515 81.5783 6.23417C82.0249 6.6732 82.2333 7.25856 82.2333 8.07808C82.2333 8.83905 81.9951 9.48295 81.5187 9.95125C81.0424 10.4195 80.3874 10.683 79.5239 10.683H78.333V10.6537ZM78.6903 5.91222V10.3317H79.4942C80.2683 10.3317 80.8339 10.1269 81.2508 9.74637C81.6676 9.36588 81.876 8.78051 81.876 8.04881C81.876 6.61466 81.1019 5.88295 79.5537 5.88295H78.6903V5.91222Z" fill="white"/>
<path d="M87.0267 10.3024C86.4908 10.5951 85.9549 10.7415 85.3892 10.7415C84.6746 10.7415 84.1089 10.5073 83.6921 10.039C83.2455 9.57073 83.0371 8.9561 83.0371 8.19512C83.0371 7.43415 83.2753 6.79025 83.7517 6.26342C84.228 5.73659 84.8533 5.50244 85.6274 5.50244C86.074 5.50244 86.5206 5.59025 86.9374 5.76586V6.14634C86.461 5.9122 86.0144 5.82439 85.5678 5.82439C84.9128 5.82439 84.4067 6.02927 83.9899 6.4683C83.6028 6.90732 83.3944 7.46342 83.3944 8.13659C83.3944 8.83903 83.573 9.39512 83.9601 9.80488C84.3174 10.2146 84.8235 10.4195 85.4487 10.4195C85.9251 10.4195 86.3122 10.3317 86.6694 10.1268V8.45854H85.4487V8.13659H87.0267V10.3024Z" fill="white"/>
<path d="M88.2178 10.6537V5.59027H90.6294V5.91222H88.5751V7.93173H90.4805V8.25369H88.5751V10.3317H90.7485V10.6537H88.2178Z" fill="white"/>
<path d="M93.9043 10.6537V5.59027H94.2616V10.6537H93.9043Z" fill="white"/>
<path d="M95.4229 10.4781V10.0683C95.7801 10.3024 96.1672 10.4195 96.5542 10.4195C96.9711 10.4195 97.2688 10.3317 97.4772 10.1854C97.6856 10.0098 97.7749 9.80488 97.7749 9.5122C97.7749 9.24878 97.7154 9.04391 97.5665 8.89756C97.4177 8.75122 97.1199 8.54634 96.6436 8.25366C96.1076 7.96098 95.7801 7.69756 95.661 7.49269C95.5419 7.28781 95.4526 7.05366 95.4526 6.79025C95.4526 6.43903 95.6015 6.11708 95.8694 5.88293C96.1672 5.61951 96.5245 5.50244 97.0008 5.50244C97.2986 5.50244 97.6261 5.56098 97.9238 5.64878V6.02927C97.6261 5.88293 97.2986 5.82439 96.9413 5.82439C96.584 5.82439 96.316 5.9122 96.1076 6.08781C95.8992 6.26342 95.8099 6.49756 95.8099 6.76098C95.8099 7.02439 95.8694 7.22927 96.0183 7.37561C96.1672 7.52195 96.4649 7.72683 96.9413 7.99025C97.4177 8.25366 97.7452 8.48781 97.894 8.69269C98.0429 8.89756 98.1322 9.13171 98.1322 9.42439C98.1322 9.80488 97.9833 10.1268 97.7154 10.3902C97.4474 10.6244 97.0604 10.7707 96.5542 10.7707C96.3756 10.7707 96.1672 10.7415 95.929 10.6829C95.6908 10.6244 95.5419 10.5659 95.4229 10.4781Z" fill="white"/>
<path d="M101.615 8.63417V10.6537H101.258V5.59027H102.508C103.044 5.59027 103.431 5.70734 103.729 5.94149C103.997 6.17564 104.146 6.52686 104.146 6.99515C104.146 7.46344 103.997 7.84393 103.669 8.16588C103.342 8.45856 102.925 8.63417 102.359 8.63417H101.615ZM101.615 5.91222V8.31222H102.359C102.836 8.31222 103.163 8.19515 103.431 7.99027C103.669 7.78539 103.789 7.46344 103.789 7.05369C103.789 6.29271 103.342 5.91222 102.449 5.91222H101.615Z" fill="white"/>
<path d="M107.391 10.7415C106.677 10.7415 106.081 10.5073 105.634 10.0391C105.188 9.57076 104.979 8.95613 104.979 8.19515C104.979 7.37564 105.188 6.73174 105.634 6.26345C106.081 5.76588 106.677 5.53174 107.451 5.53174C108.135 5.53174 108.701 5.76588 109.148 6.23418C109.565 6.70247 109.803 7.3171 109.803 8.07808C109.803 8.92686 109.594 9.57076 109.148 10.0683C108.731 10.5073 108.135 10.7415 107.391 10.7415ZM107.421 5.82442C106.825 5.82442 106.319 6.0293 105.932 6.46832C105.545 6.90735 105.337 7.46345 105.337 8.13662C105.337 8.83906 105.515 9.39515 105.873 9.80491C106.23 10.2147 106.736 10.4195 107.332 10.4195C107.957 10.4195 108.463 10.2147 108.85 9.80491C109.207 9.39515 109.416 8.83906 109.416 8.10735C109.416 7.40491 109.237 6.81954 108.88 6.43906C108.552 6.0293 108.046 5.82442 107.421 5.82442Z" fill="white"/>
<path d="M115.103 10.6537H114.805L113.673 6.84878C113.614 6.6439 113.584 6.49756 113.584 6.38048H113.554C113.554 6.49756 113.525 6.6439 113.435 6.84878L112.215 10.6829H111.917L110.398 5.61951H110.785L111.947 9.6878C112.006 9.86341 112.036 10.0098 112.066 10.1268C112.066 10.039 112.125 9.89268 112.185 9.6878L113.465 5.61951H113.644L114.805 9.6878C114.864 9.86341 114.894 10.039 114.924 10.1268C114.924 10.0683 114.954 9.98048 114.984 9.89268L116.204 5.61951H116.591L115.103 10.6537Z" fill="white"/>
<path d="M117.484 10.6537V5.59027H119.896V5.91222H117.842V7.93173H119.747V8.25369H117.842V10.3317H120.015V10.6537H117.484Z" fill="white"/>
<path d="M123.797 10.6537L123.112 9.161C122.963 8.86832 122.814 8.66344 122.695 8.54637C122.546 8.4293 122.368 8.40003 122.159 8.40003H121.534V10.6537H121.177V5.59027H122.606C123.052 5.59027 123.41 5.70734 123.678 5.94149C123.946 6.17564 124.065 6.49759 124.065 6.90734C124.065 7.28783 123.946 7.58052 123.737 7.81466C123.529 8.04881 123.231 8.22442 122.844 8.28295C123.052 8.37076 123.261 8.6049 123.44 9.01466L124.214 10.6244H123.797V10.6537ZM121.504 5.91222V8.07808H122.397C122.785 8.07808 123.112 7.99027 123.35 7.78539C123.588 7.58052 123.707 7.3171 123.707 6.93661C123.707 6.61466 123.588 6.35125 123.38 6.17564C123.172 6.00003 122.874 5.91222 122.487 5.91222H121.504Z" fill="white"/>
<path d="M43.7372 45.8927L34.2396 39.161C39.1521 35.7366 41.534 29.5903 41.534 23.0342C41.534 17.6488 39.9262 12.9951 37.0085 9.71709C36.4725 9.13172 35.5496 9.04391 34.9243 9.57074C34.3289 10.0976 34.2693 10.9756 34.7755 11.5903C37.2467 14.5171 38.4971 18.6732 38.4971 23.0927C38.4971 31.6976 34.4777 39.3659 24.9503 39.3659C16.0779 39.3659 11.4035 31.4927 11.4035 23.1512C11.4035 18.439 12.7731 13.9025 15.7504 10.8878C16.2566 10.361 16.2566 9.54147 15.7504 9.04391C15.1847 8.48782 14.2915 8.48782 13.6961 9.01465C10.1828 12.439 8.33691 17.5903 8.33691 23.2976C8.33691 33.7171 14.4106 41.9707 24.8015 41.9707C27.094 42 29.3568 41.561 31.4707 40.7122L41.8913 48.0293L43.7372 45.8927Z" fill="#39AA35"/>
</g>
<defs>
<clipPath id="clip0_503_814">
<rect width="126" height="48" fill="white"/>
</clipPath>
</defs>
</svg>
