<svg width="168" height="36" viewBox="0 0 168 36" fill="none" xmlns="http://www.w3.org/2000/svg">
<path d="M72 30.9998L72.2012 31.4575L72 30.9998ZM58.5 19.5L58.9876 19.3895L58.5 19.5ZM168 16.4987L163.217 13.2647L162.808 19.0237L168 16.4987ZM0.5 6.49858C1.371 6.49858 2.21934 6.51854 3.04602 6.55738L3.09294 5.55848C2.25028 5.51889 1.38628 5.49858 0.5 5.49858V6.49858ZM8.04285 7.05191C9.78022 7.32072 11.4099 7.68119 12.9446 8.11942L13.2192 7.15785C11.6438 6.708 9.97342 6.33872 8.19575 6.06367L8.04285 7.05191ZM17.6645 9.82174C19.2464 10.5195 20.7178 11.305 22.0991 12.1563L22.6238 11.305C21.2061 10.4313 19.6944 9.62411 18.0681 8.90679L17.6645 9.82174ZM26.2019 15.0512C27.5385 16.1151 28.7929 17.2313 29.9926 18.3715L30.6815 17.6466C29.4659 16.4914 28.1893 15.3549 26.8247 14.2687L26.2019 15.0512ZM33.5696 21.9531C34.7648 23.1937 35.9371 24.4348 37.1048 25.6229L37.818 24.922C36.6544 23.7379 35.4948 22.5101 34.2898 21.2593L33.5696 21.9531ZM40.8146 29.1577C42.1303 30.3016 43.4942 31.3481 44.9487 32.2455L45.4738 31.3945C44.0767 30.5325 42.7568 29.5211 41.4707 28.403L40.8146 29.1577ZM49.6484 34.4464C51.2276 34.96 52.9203 35.2948 54.7612 35.4117L54.8246 34.4137C53.0671 34.3021 51.457 33.9831 49.9577 33.4954L49.6484 34.4464ZM59.9308 35.195C61.5058 34.9782 63.1769 34.6233 64.9587 34.1154L64.6845 33.1537C62.9431 33.6502 61.3181 33.9946 59.7945 34.2043L59.9308 35.195ZM69.8005 32.4596C70.5812 32.1517 71.3812 31.818 72.2012 31.4575L71.7988 30.5421C70.9899 30.8976 70.2018 31.2263 69.4336 31.5293L69.8005 32.4596ZM72.2012 31.4575C73.0668 31.0771 73.8924 30.6931 74.6792 30.3061L74.2379 29.4088C73.4646 29.7891 72.652 30.1671 71.7988 30.5421L72.2012 31.4575ZM79.3004 27.7271C80.989 26.6486 82.4146 25.554 83.5999 24.4525L82.9192 23.7199C81.7842 24.7746 80.4078 25.8332 78.7621 26.8844L79.3004 27.7271ZM86.9983 20.2444C87.9923 18.4511 88.4269 16.6722 88.3967 14.9571L87.3969 14.9747C87.4238 16.5013 87.0391 18.1082 86.1237 19.7596L86.9983 20.2444ZM86.8018 9.7093C85.8894 8.20756 84.6345 6.84573 83.163 5.66627L82.5376 6.44656C83.9348 7.56651 85.1056 8.84342 85.9472 10.2286L86.8018 9.7093ZM78.5473 2.85929C76.9045 2.11469 75.1618 1.5531 73.4086 1.21096L73.2171 2.19245C74.8919 2.5193 76.5605 3.05668 78.1345 3.7701L78.5473 2.85929ZM67.9975 0.897161C66.1186 1.06998 64.3298 1.56645 62.7662 2.44858L63.2576 3.31953C64.6768 2.51883 66.3241 2.0553 68.0891 1.89296L67.9975 0.897161ZM58.8827 6.3348C58.0765 7.76974 57.5404 9.49747 57.3391 11.5381L58.3342 11.6363C58.5238 9.71429 59.0248 8.12333 59.7545 6.82464L58.8827 6.3348ZM57.5145 16.9339C57.6363 17.788 57.8014 18.6798 58.0124 19.6105L58.9876 19.3895C58.7822 18.4833 58.6222 17.6181 58.5044 16.7927L57.5145 16.9339ZM58.0124 19.6105C58.2277 20.5605 58.554 21.4092 58.9911 22.161L59.8556 21.6585C59.4749 21.0035 59.183 20.2515 58.9876 19.3895L58.0124 19.6105ZM63.1053 25.6061C64.5712 26.2083 66.302 26.5563 68.2627 26.7082L68.34 25.7112C66.4453 25.5644 64.8248 25.2314 63.4853 24.6811L63.1053 25.6061ZM73.4803 26.7205C75.0933 26.6301 76.8157 26.4656 78.6396 26.2423L78.5181 25.2498C76.71 25.4711 75.0102 25.6332 73.4243 25.7221L73.4803 26.7205ZM83.7674 25.5138C85.3986 25.2557 87.0947 24.9673 88.8515 24.6564L88.6772 23.6717C86.9245 23.9819 85.2347 24.2692 83.6111 24.526L83.7674 25.5138ZM93.9346 23.7324C95.5753 23.4285 97.2615 23.1128 98.9889 22.791L98.8057 21.8079C97.0771 22.13 95.3925 22.4454 93.7525 22.7491L93.9346 23.7324ZM104.056 21.8556C105.715 21.5533 107.408 21.25 109.133 20.9499L108.961 19.9647C107.234 20.2654 105.538 20.5692 103.877 20.8718L104.056 21.8556ZM114.208 20.0943C115.875 19.8231 117.568 19.5581 119.286 19.3027L119.139 18.3136C117.416 18.5697 115.718 18.8354 114.047 19.1073L114.208 20.0943ZM124.378 18.5865C126.058 18.3642 127.76 18.1535 129.481 17.9576L129.368 16.964C127.641 17.1607 125.933 17.3721 124.246 17.5952L124.378 18.5865ZM134.595 17.4265C136.287 17.2682 137.995 17.1263 139.719 17.0031L139.648 16.0057C137.916 16.1293 136.201 16.2719 134.502 16.4308L134.595 17.4265ZM144.85 16.6969C146.549 16.6159 148.261 16.5551 149.986 16.5167L149.964 15.5169C148.23 15.5555 146.51 15.6167 144.802 15.698L144.85 16.6969ZM155.124 16.4709C156.826 16.4789 158.538 16.5104 160.261 16.5676L160.294 15.5682C158.562 15.5106 156.84 15.4789 155.129 15.4709L155.124 16.4709Z" fill="white"/>
</svg>
