<svg width="27" height="27" viewBox="0 0 27 27" fill="none" xmlns="http://www.w3.org/2000/svg">
<path d="M20.2391 1.79552C19.1043 1.67513 17.9637 1.61655 16.8225 1.62002C13.0391 1.62002 10.6879 4.02977 10.6879 7.90877V10.5424H7.50977C7.36058 10.5424 7.21751 10.6017 7.11202 10.7071C7.00653 10.8126 6.94727 10.9557 6.94727 11.1049V15.4361C6.94727 15.5853 7.00653 15.7284 7.11202 15.8339C7.21751 15.9394 7.36058 15.9986 7.50977 15.9986H10.6879V24.6836C10.6879 24.8328 10.7472 24.9759 10.8526 25.0814C10.9581 25.1869 11.1012 25.2461 11.2504 25.2461H15.7256C15.8748 25.2461 16.0179 25.1869 16.1234 25.0814C16.2289 24.9759 16.2881 24.8328 16.2881 24.6836V15.9986H19.4561C19.5927 15.9987 19.7246 15.9491 19.8273 15.859C19.93 15.769 19.9964 15.6447 20.0141 15.5093L20.5733 11.178C20.5837 11.0986 20.577 11.0179 20.5537 10.9413C20.5304 10.8647 20.4911 10.794 20.4383 10.7338C20.3854 10.6736 20.3204 10.6254 20.2474 10.5924C20.1745 10.5594 20.0953 10.5424 20.0153 10.5424H16.2881V8.33852C16.2881 7.24727 16.5075 6.79164 17.8721 6.79164H20.166C20.3152 6.79164 20.4583 6.73238 20.5638 6.62689C20.6693 6.5214 20.7285 6.37833 20.7285 6.22914V2.35352C20.7286 2.21695 20.679 2.08503 20.5889 1.98235C20.4989 1.87968 20.3745 1.81327 20.2391 1.79552ZM19.6035 5.66552L17.871 5.66664C15.4444 5.66664 15.1631 7.19214 15.1631 8.33852V11.106C15.1631 11.255 15.2222 11.3979 15.3275 11.5034C15.4327 11.6088 15.5755 11.6682 15.7245 11.6685H19.3763L18.9611 14.8748H15.7256C15.5765 14.8748 15.4334 14.934 15.3279 15.0395C15.2224 15.145 15.1631 15.2881 15.1631 15.4373V24.12H11.8129V15.4373C11.8129 15.2881 11.7536 15.145 11.6481 15.0395C11.5426 14.934 11.3996 14.8748 11.2504 14.8748H8.07339V11.6685H11.2504C11.3996 11.6685 11.5426 11.6093 11.6481 11.5038C11.7536 11.3983 11.8129 11.2552 11.8129 11.106V7.90877C11.8129 4.67552 13.686 2.74502 16.8225 2.74502C17.9576 2.74502 18.9825 2.80689 19.6035 2.86089V5.66552Z" fill="white"/>
</svg>
