<svg width="34" height="34" viewBox="0 0 34 34" fill="none" xmlns="http://www.w3.org/2000/svg">
<path d="M28.1562 14.875C28.1562 17.7305 27.1601 20.3469 25.3539 22.2195C23.5476 24.0922 21.4094 24.9687 19.125 24.9687C16.2828 24.9687 14.6758 23.8 13.839 22.8969L12.2054 29.8695C12.1807 29.9878 12.1154 30.0937 12.0208 30.1689C11.9262 30.244 11.8083 30.2838 11.6875 30.2812H11.5679C11.4999 30.2656 11.4356 30.2367 11.3788 30.1961C11.3219 30.1556 11.2736 30.1043 11.2366 30.0451C11.1996 29.9859 11.1746 29.9199 11.1631 29.8511C11.1516 29.7822 11.1538 29.7118 11.1695 29.6437L15.4195 11.5812C15.4512 11.4439 15.5362 11.3247 15.6557 11.25C15.7753 11.1753 15.9196 11.1511 16.057 11.1828C16.1944 11.2145 16.3135 11.2995 16.3883 11.419C16.463 11.5386 16.4872 11.6829 16.4554 11.8203L14.1578 21.582C14.4765 22.1133 15.7914 23.9195 19.125 23.9195C23.0429 23.9195 27.0937 20.5461 27.0937 14.8883C27.0937 12.2112 26.0303 9.64385 24.1373 7.75091C22.2444 5.85796 19.677 4.79452 17 4.79452C14.323 4.79452 11.7556 5.85796 9.86262 7.75091C7.96968 9.64385 6.90623 12.2112 6.90623 14.8883C6.89804 16.8908 7.49524 18.8491 8.61951 20.5062C8.65875 20.5647 8.6861 20.6302 8.7 20.6992C8.7139 20.7682 8.71407 20.8393 8.7005 20.9084C8.68693 20.9774 8.6599 21.0431 8.62093 21.1018C8.58197 21.1604 8.53184 21.2107 8.47342 21.25C8.41499 21.2892 8.3494 21.3166 8.28041 21.3305C8.21141 21.3444 8.14035 21.3445 8.07129 21.331C8.00222 21.3174 7.93651 21.2904 7.87789 21.2514C7.81928 21.2124 7.76891 21.1623 7.72967 21.1039C6.76077 19.6567 6.14412 18.0028 5.92911 16.2746C5.71409 14.5464 5.90667 12.7918 6.49142 11.1513C7.07618 9.51087 8.03688 8.0301 9.2966 6.82755C10.5563 5.625 12.0801 4.73407 13.7459 4.22609C15.4118 3.71811 17.1734 3.60718 18.8898 3.90219C20.6062 4.1972 22.2297 4.88994 23.6303 5.92497C25.0309 6.96001 26.1698 8.30857 26.9557 9.86272C27.7416 11.4169 28.1528 13.1334 28.1562 14.875Z" fill="white"/>
</svg>
