<svg width="33" height="33" viewBox="0 0 33 33" fill="none" xmlns="http://www.w3.org/2000/svg">
<path d="M26.6338 11.3781V12.0656C26.6338 18.9887 21.3813 26.9225 11.77 26.9225C8.93265 26.9286 6.15555 26.1041 3.78125 24.5506C4.1936 24.6066 4.60953 24.6319 5.02562 24.6262C7.37757 24.6327 9.66338 23.8482 11.5156 22.3987C10.423 22.3826 9.36318 22.0225 8.48688 21.3696C7.61059 20.7167 6.96238 19.8043 6.63437 18.7619C6.95985 18.8309 7.29167 18.8654 7.62438 18.865C8.08896 18.8651 8.55145 18.8027 8.99938 18.6794C7.8159 18.4434 6.75119 17.8036 5.98743 16.8693C5.22368 15.9349 4.80834 14.7642 4.8125 13.5575V13.4887C5.53658 13.8932 6.34835 14.115 7.1775 14.135C6.07378 13.4087 5.28906 12.2883 4.98367 11.0029C4.67827 9.71741 4.87526 8.36384 5.53438 7.21873C6.84768 8.83401 8.48622 10.1548 10.3435 11.0953C12.2007 12.0358 14.2351 12.5748 16.3144 12.6775C16.2114 12.2873 16.1629 11.8847 16.17 11.4812C16.1313 10.4149 16.4222 9.36246 17.003 8.46734C17.5839 7.57222 18.4266 6.87788 19.4162 6.47886C20.4059 6.07984 21.4945 5.99553 22.5338 6.23741C23.5731 6.47929 24.5126 7.0356 25.2244 7.83061C26.3943 7.5945 27.5167 7.16463 28.545 6.55873C28.155 7.7903 27.3254 8.83526 26.2144 9.49436C27.2522 9.35135 28.2641 9.0596 29.2188 8.62811C28.5269 9.69074 27.6516 10.6219 26.6338 11.3781V11.3781Z" stroke="#FFFCFC" stroke-linecap="round" stroke-linejoin="round"/>
</svg>
