<svg width="109" height="130" viewBox="0 0 109 130" fill="none" xmlns="http://www.w3.org/2000/svg">
<rect width="105" height="105" rx="8" fill="#FFD88D"/>
<path d="M7.23438 115.625V127H5.08594V115.625H7.23438ZM14.0625 115.625L9.5 121.172L6.89062 123.961L6.50781 121.875L8.32031 119.523L11.4297 115.625H14.0625ZM11.6719 127L8.13281 121.672L9.67188 120.281L14.2266 127H11.6719ZM17.2578 118.547V127H15.1875V118.547H17.2578ZM15.0469 116.336C15.0469 116.029 15.151 115.773 15.3594 115.57C15.5729 115.367 15.8594 115.266 16.2188 115.266C16.5781 115.266 16.862 115.367 17.0703 115.57C17.2839 115.773 17.3906 116.029 17.3906 116.336C17.3906 116.638 17.2839 116.891 17.0703 117.094C16.862 117.297 16.5781 117.398 16.2188 117.398C15.8594 117.398 15.5729 117.297 15.3594 117.094C15.151 116.891 15.0469 116.638 15.0469 116.336ZM24.2969 125.203V115H26.375V127H24.5L24.2969 125.203ZM18.8672 122.875V122.711C18.8672 122.065 18.9401 121.479 19.0859 120.953C19.237 120.422 19.4557 119.966 19.7422 119.586C20.0286 119.206 20.375 118.911 20.7812 118.703C21.1927 118.495 21.6589 118.391 22.1797 118.391C22.6849 118.391 23.125 118.492 23.5 118.695C23.8802 118.898 24.2031 119.188 24.4688 119.562C24.7396 119.938 24.9557 120.383 25.1172 120.898C25.2786 121.409 25.3958 121.971 25.4688 122.586V123.031C25.3958 123.63 25.2786 124.18 25.1172 124.68C24.9557 125.18 24.7396 125.617 24.4688 125.992C24.2031 126.362 23.8802 126.648 23.5 126.852C23.1198 127.055 22.6745 127.156 22.1641 127.156C21.6484 127.156 21.1849 127.049 20.7734 126.836C20.3672 126.622 20.0208 126.323 19.7344 125.938C19.4531 125.552 19.237 125.099 19.0859 124.578C18.9401 124.057 18.8672 123.49 18.8672 122.875ZM20.9375 122.711V122.875C20.9375 123.24 20.9688 123.581 21.0312 123.898C21.0938 124.216 21.1953 124.497 21.3359 124.742C21.4766 124.982 21.6562 125.169 21.875 125.305C22.099 125.44 22.3698 125.508 22.6875 125.508C23.0938 125.508 23.4271 125.419 23.6875 125.242C23.9531 125.06 24.1589 124.812 24.3047 124.5C24.4505 124.182 24.5443 123.826 24.5859 123.43V122.203C24.5651 121.891 24.5104 121.602 24.4219 121.336C24.3385 121.07 24.2188 120.841 24.0625 120.648C23.9115 120.456 23.724 120.305 23.5 120.195C23.276 120.086 23.0104 120.031 22.7031 120.031C22.3854 120.031 22.1146 120.102 21.8906 120.242C21.6667 120.378 21.4844 120.568 21.3438 120.812C21.2031 121.057 21.099 121.341 21.0312 121.664C20.9688 121.987 20.9375 122.336 20.9375 122.711ZM32.8906 124.688C32.8906 124.51 32.8438 124.352 32.75 124.211C32.6562 124.07 32.4792 123.943 32.2188 123.828C31.9635 123.708 31.5885 123.596 31.0938 123.492C30.6562 123.398 30.2526 123.281 29.8828 123.141C29.513 123 29.1953 122.831 28.9297 122.633C28.6641 122.43 28.4557 122.193 28.3047 121.922C28.1589 121.646 28.0859 121.328 28.0859 120.969C28.0859 120.62 28.1615 120.292 28.3125 119.984C28.4635 119.672 28.6823 119.398 28.9688 119.164C29.2552 118.924 29.6042 118.737 30.0156 118.602C30.4271 118.461 30.8906 118.391 31.4062 118.391C32.125 118.391 32.7422 118.508 33.2578 118.742C33.7786 118.977 34.1771 119.299 34.4531 119.711C34.7292 120.117 34.8672 120.576 34.8672 121.086H32.8047C32.8047 120.862 32.7526 120.659 32.6484 120.477C32.5495 120.294 32.3958 120.148 32.1875 120.039C31.9792 119.924 31.7161 119.867 31.3984 119.867C31.112 119.867 30.8698 119.914 30.6719 120.008C30.4792 120.102 30.3333 120.224 30.2344 120.375C30.1354 120.526 30.0859 120.693 30.0859 120.875C30.0859 121.01 30.112 121.133 30.1641 121.242C30.2214 121.346 30.3125 121.443 30.4375 121.531C30.5625 121.62 30.7318 121.701 30.9453 121.773C31.1641 121.846 31.4323 121.917 31.75 121.984C32.3802 122.109 32.9297 122.276 33.3984 122.484C33.8724 122.688 34.2422 122.958 34.5078 123.297C34.7734 123.635 34.9062 124.068 34.9062 124.594C34.9062 124.969 34.8255 125.312 34.6641 125.625C34.5026 125.932 34.2682 126.201 33.9609 126.43C33.6536 126.659 33.2865 126.839 32.8594 126.969C32.4323 127.094 31.9505 127.156 31.4141 127.156C30.638 127.156 29.9818 127.018 29.4453 126.742C28.9089 126.461 28.5026 126.107 28.2266 125.68C27.9505 125.247 27.8125 124.799 27.8125 124.336H29.7891C29.8047 124.664 29.8932 124.927 30.0547 125.125C30.2161 125.323 30.4193 125.466 30.6641 125.555C30.9141 125.638 31.1771 125.68 31.4531 125.68C31.7656 125.68 32.0286 125.638 32.2422 125.555C32.4557 125.466 32.6172 125.349 32.7266 125.203C32.8359 125.052 32.8906 124.88 32.8906 124.688ZM42.3203 120.859L44.3906 119.5C44.7188 119.281 44.9453 119.07 45.0703 118.867C45.1953 118.664 45.2578 118.419 45.2578 118.133C45.2578 117.878 45.1589 117.641 44.9609 117.422C44.7682 117.198 44.4948 117.086 44.1406 117.086C43.8906 117.086 43.6797 117.143 43.5078 117.258C43.3359 117.372 43.2057 117.526 43.1172 117.719C43.0339 117.906 42.9922 118.115 42.9922 118.344C42.9922 118.578 43.0521 118.818 43.1719 119.062C43.2969 119.307 43.4635 119.565 43.6719 119.836C43.8854 120.102 44.1224 120.391 44.3828 120.703L49.75 127H47.3906L43 121.891C42.6302 121.432 42.3021 121.01 42.0156 120.625C41.7292 120.24 41.5052 119.867 41.3438 119.508C41.1875 119.143 41.1094 118.768 41.1094 118.383C41.1094 117.789 41.2344 117.273 41.4844 116.836C41.7344 116.398 42.0859 116.06 42.5391 115.82C42.9974 115.581 43.5339 115.461 44.1484 115.461C44.7318 115.461 45.2344 115.581 45.6562 115.82C46.0833 116.055 46.4141 116.367 46.6484 116.758C46.8828 117.148 47 117.576 47 118.039C47 118.393 46.9349 118.721 46.8047 119.023C46.6745 119.32 46.4948 119.594 46.2656 119.844C46.0365 120.089 45.7708 120.32 45.4688 120.539L43.0312 122.289C42.7969 122.487 42.6198 122.682 42.5 122.875C42.3854 123.062 42.3073 123.237 42.2656 123.398C42.2292 123.56 42.2109 123.711 42.2109 123.852C42.2109 124.169 42.2786 124.456 42.4141 124.711C42.5547 124.961 42.7526 125.161 43.0078 125.312C43.2682 125.458 43.5755 125.531 43.9297 125.531C44.362 125.531 44.7786 125.435 45.1797 125.242C45.5807 125.049 45.9401 124.776 46.2578 124.422C46.5807 124.068 46.8359 123.646 47.0234 123.156C47.2161 122.661 47.3125 122.117 47.3125 121.523H49.0781C49.0781 122.091 49.0234 122.63 48.9141 123.141C48.8047 123.646 48.6276 124.115 48.3828 124.547C48.138 124.979 47.8177 125.365 47.4219 125.703C47.3854 125.734 47.3411 125.776 47.2891 125.828C47.2422 125.88 47.2005 125.922 47.1641 125.953C46.6901 126.359 46.1771 126.664 45.625 126.867C45.0781 127.065 44.4818 127.164 43.8359 127.164C43.0755 127.164 42.4193 127.026 41.8672 126.75C41.3151 126.474 40.888 126.094 40.5859 125.609C40.2891 125.125 40.1406 124.57 40.1406 123.945C40.1406 123.482 40.2318 123.078 40.4141 122.734C40.6016 122.385 40.8594 122.062 41.1875 121.766C41.5156 121.464 41.8932 121.161 42.3203 120.859ZM59.3516 121.93H56.4453L56.4297 120.414H58.9219C59.349 120.414 59.7057 120.354 59.9922 120.234C60.2786 120.115 60.4948 119.94 60.6406 119.711C60.7917 119.482 60.8672 119.203 60.8672 118.875C60.8672 118.51 60.7969 118.214 60.6562 117.984C60.5208 117.755 60.3073 117.589 60.0156 117.484C59.724 117.375 59.3542 117.32 58.9062 117.32H57.1406V127H54.9922V115.625H58.9062C59.5521 115.625 60.1276 115.688 60.6328 115.812C61.1432 115.932 61.5755 116.12 61.9297 116.375C62.2839 116.63 62.5521 116.951 62.7344 117.336C62.9219 117.721 63.0156 118.18 63.0156 118.711C63.0156 119.18 62.9062 119.612 62.6875 120.008C62.474 120.398 62.1432 120.716 61.6953 120.961C61.2526 121.206 60.6901 121.346 60.0078 121.383L59.3516 121.93ZM59.2578 127H55.8125L56.7109 125.312H59.2578C59.6849 125.312 60.0365 125.242 60.3125 125.102C60.5938 124.961 60.8021 124.768 60.9375 124.523C61.0781 124.273 61.1484 123.987 61.1484 123.664C61.1484 123.31 61.0859 123.003 60.9609 122.742C60.8411 122.482 60.6484 122.281 60.3828 122.141C60.1224 122 59.7786 121.93 59.3516 121.93H57.1172L57.1328 120.414H59.9766L60.4688 121C61.125 121.005 61.6589 121.135 62.0703 121.391C62.487 121.646 62.7943 121.974 62.9922 122.375C63.1901 122.776 63.2891 123.208 63.2891 123.672C63.2891 124.401 63.1302 125.013 62.8125 125.508C62.5 126.003 62.0417 126.375 61.4375 126.625C60.8385 126.875 60.112 127 59.2578 127ZM69.6484 125.203V121.305C69.6484 121.018 69.599 120.771 69.5 120.562C69.401 120.354 69.25 120.193 69.0469 120.078C68.8438 119.964 68.5859 119.906 68.2734 119.906C67.9974 119.906 67.7552 119.953 67.5469 120.047C67.3438 120.141 67.1875 120.273 67.0781 120.445C66.9688 120.612 66.9141 120.805 66.9141 121.023H64.8438C64.8438 120.674 64.9271 120.344 65.0938 120.031C65.2604 119.714 65.4974 119.432 65.8047 119.188C66.1172 118.938 66.4896 118.742 66.9219 118.602C67.3594 118.461 67.849 118.391 68.3906 118.391C69.0312 118.391 69.6016 118.5 70.1016 118.719C70.6068 118.932 71.0026 119.255 71.2891 119.688C71.5807 120.12 71.7266 120.664 71.7266 121.32V125.008C71.7266 125.43 71.7526 125.792 71.8047 126.094C71.862 126.391 71.9453 126.648 72.0547 126.867V127H69.9531C69.8542 126.786 69.7786 126.516 69.7266 126.188C69.6745 125.854 69.6484 125.526 69.6484 125.203ZM69.9375 121.852L69.9531 123.078H68.6484C68.3255 123.078 68.0417 123.112 67.7969 123.18C67.5521 123.242 67.3516 123.336 67.1953 123.461C67.0391 123.581 66.9219 123.727 66.8438 123.898C66.7656 124.065 66.7266 124.255 66.7266 124.469C66.7266 124.677 66.7734 124.865 66.8672 125.031C66.9661 125.198 67.1068 125.331 67.2891 125.43C67.4766 125.523 67.6953 125.57 67.9453 125.57C68.3099 125.57 68.6276 125.497 68.8984 125.352C69.1693 125.201 69.3802 125.018 69.5312 124.805C69.6823 124.591 69.763 124.388 69.7734 124.195L70.3672 125.086C70.2943 125.299 70.1849 125.526 70.0391 125.766C69.8932 126.005 69.7057 126.229 69.4766 126.438C69.2474 126.646 68.9714 126.818 68.6484 126.953C68.3255 127.089 67.9505 127.156 67.5234 127.156C66.9766 127.156 66.487 127.047 66.0547 126.828C65.6224 126.609 65.2812 126.31 65.0312 125.93C64.7812 125.549 64.6562 125.117 64.6562 124.633C64.6562 124.185 64.7396 123.789 64.9062 123.445C65.0729 123.102 65.3203 122.812 65.6484 122.578C65.9766 122.339 66.3828 122.159 66.8672 122.039C67.3568 121.914 67.9167 121.852 68.5469 121.852H69.9375ZM73.5781 115H75.6484V125.133L75.4453 127H73.5781V115ZM81.0859 122.688V122.852C81.0859 123.482 81.0156 124.06 80.875 124.586C80.7396 125.112 80.5339 125.568 80.2578 125.953C79.9818 126.333 79.638 126.63 79.2266 126.844C78.8203 127.052 78.3438 127.156 77.7969 127.156C77.276 127.156 76.8229 127.055 76.4375 126.852C76.0573 126.648 75.737 126.362 75.4766 125.992C75.2161 125.617 75.0078 125.177 74.8516 124.672C74.6953 124.161 74.5781 123.604 74.5 123V122.555C74.5781 121.945 74.6953 121.388 74.8516 120.883C75.0078 120.378 75.2161 119.938 75.4766 119.562C75.737 119.188 76.0573 118.898 76.4375 118.695C76.8177 118.492 77.2656 118.391 77.7812 118.391C78.3333 118.391 78.8151 118.497 79.2266 118.711C79.6432 118.919 79.987 119.216 80.2578 119.602C80.5339 119.982 80.7396 120.435 80.875 120.961C81.0156 121.482 81.0859 122.057 81.0859 122.688ZM79.0156 122.852V122.688C79.0156 122.328 78.987 121.99 78.9297 121.672C78.8724 121.349 78.7786 121.065 78.6484 120.82C78.5182 120.576 78.3411 120.383 78.1172 120.242C77.8932 120.102 77.612 120.031 77.2734 120.031C76.9505 120.031 76.6745 120.086 76.4453 120.195C76.2214 120.305 76.0339 120.456 75.8828 120.648C75.737 120.841 75.6224 121.068 75.5391 121.328C75.4609 121.589 75.4089 121.87 75.3828 122.172V123.391C75.4193 123.792 75.5052 124.154 75.6406 124.477C75.776 124.794 75.9766 125.047 76.2422 125.234C76.513 125.422 76.862 125.516 77.2891 125.516C77.6224 125.516 77.901 125.451 78.125 125.32C78.349 125.185 78.526 124.997 78.6562 124.758C78.7865 124.513 78.8776 124.229 78.9297 123.906C78.987 123.583 79.0156 123.232 79.0156 122.852ZM84.7734 118.547V127H82.7031V118.547H84.7734ZM82.5625 116.336C82.5625 116.029 82.6667 115.773 82.875 115.57C83.0885 115.367 83.375 115.266 83.7344 115.266C84.0938 115.266 84.3776 115.367 84.5859 115.57C84.7995 115.773 84.9062 116.029 84.9062 116.336C84.9062 116.638 84.7995 116.891 84.5859 117.094C84.3776 117.297 84.0938 117.398 83.7344 117.398C83.375 117.398 83.0885 117.297 82.875 117.094C82.6667 116.891 82.5625 116.638 82.5625 116.336ZM90.5391 127.156C89.8984 127.156 89.3229 127.052 88.8125 126.844C88.3021 126.635 87.8672 126.346 87.5078 125.977C87.1536 125.602 86.8802 125.167 86.6875 124.672C86.5 124.172 86.4062 123.635 86.4062 123.062V122.75C86.4062 122.099 86.5 121.508 86.6875 120.977C86.875 120.44 87.1406 119.979 87.4844 119.594C87.8281 119.208 88.2396 118.911 88.7188 118.703C89.1979 118.495 89.7266 118.391 90.3047 118.391C90.9036 118.391 91.4323 118.492 91.8906 118.695C92.349 118.893 92.7318 119.174 93.0391 119.539C93.3464 119.904 93.5781 120.341 93.7344 120.852C93.8906 121.357 93.9688 121.917 93.9688 122.531V123.398H87.3438V121.977H91.9375V121.82C91.9271 121.492 91.8646 121.193 91.75 120.922C91.6354 120.646 91.4583 120.427 91.2188 120.266C90.9792 120.099 90.6693 120.016 90.2891 120.016C89.9818 120.016 89.7135 120.083 89.4844 120.219C89.2604 120.349 89.0729 120.536 88.9219 120.781C88.776 121.021 88.6667 121.307 88.5938 121.641C88.5208 121.974 88.4844 122.344 88.4844 122.75V123.062C88.4844 123.417 88.5312 123.745 88.625 124.047C88.724 124.349 88.8672 124.612 89.0547 124.836C89.2474 125.055 89.4766 125.227 89.7422 125.352C90.013 125.471 90.3203 125.531 90.6641 125.531C91.0964 125.531 91.487 125.448 91.8359 125.281C92.1901 125.109 92.4974 124.857 92.7578 124.523L93.7969 125.602C93.6198 125.862 93.3802 126.112 93.0781 126.352C92.7812 126.591 92.4219 126.786 92 126.938C91.5781 127.083 91.0911 127.156 90.5391 127.156ZM100 124.688C100 124.51 99.9531 124.352 99.8594 124.211C99.7656 124.07 99.5885 123.943 99.3281 123.828C99.0729 123.708 98.6979 123.596 98.2031 123.492C97.7656 123.398 97.362 123.281 96.9922 123.141C96.6224 123 96.3047 122.831 96.0391 122.633C95.7734 122.43 95.5651 122.193 95.4141 121.922C95.2682 121.646 95.1953 121.328 95.1953 120.969C95.1953 120.62 95.2708 120.292 95.4219 119.984C95.5729 119.672 95.7917 119.398 96.0781 119.164C96.3646 118.924 96.7135 118.737 97.125 118.602C97.5365 118.461 98 118.391 98.5156 118.391C99.2344 118.391 99.8516 118.508 100.367 118.742C100.888 118.977 101.286 119.299 101.562 119.711C101.839 120.117 101.977 120.576 101.977 121.086H99.9141C99.9141 120.862 99.862 120.659 99.7578 120.477C99.6589 120.294 99.5052 120.148 99.2969 120.039C99.0885 119.924 98.8255 119.867 98.5078 119.867C98.2214 119.867 97.9792 119.914 97.7812 120.008C97.5885 120.102 97.4427 120.224 97.3438 120.375C97.2448 120.526 97.1953 120.693 97.1953 120.875C97.1953 121.01 97.2214 121.133 97.2734 121.242C97.3307 121.346 97.4219 121.443 97.5469 121.531C97.6719 121.62 97.8411 121.701 98.0547 121.773C98.2734 121.846 98.5417 121.917 98.8594 121.984C99.4896 122.109 100.039 122.276 100.508 122.484C100.982 122.688 101.352 122.958 101.617 123.297C101.883 123.635 102.016 124.068 102.016 124.594C102.016 124.969 101.935 125.312 101.773 125.625C101.612 125.932 101.378 126.201 101.07 126.43C100.763 126.659 100.396 126.839 99.9688 126.969C99.5417 127.094 99.0599 127.156 98.5234 127.156C97.7474 127.156 97.0911 127.018 96.5547 126.742C96.0182 126.461 95.612 126.107 95.3359 125.68C95.0599 125.247 94.9219 124.799 94.9219 124.336H96.8984C96.9141 124.664 97.0026 124.927 97.1641 125.125C97.3255 125.323 97.5286 125.466 97.7734 125.555C98.0234 125.638 98.2865 125.68 98.5625 125.68C98.875 125.68 99.138 125.638 99.3516 125.555C99.5651 125.466 99.7266 125.349 99.8359 125.203C99.9453 125.052 100 124.88 100 124.688Z" fill="#777777"/>
<path d="M73.3265 48.7318C70.6448 40.0534 62.547 33.73 52.9995 33.73C43.452 33.73 35.354 40.0534 32.6726 48.7319C29.9336 49.5471 28 52.0975 28 54.9999C28 57.9021 29.9336 60.4525 32.6725 61.2677C35.3539 69.9465 43.452 76.27 52.9995 76.27C62.5471 76.27 70.645 69.9465 73.3266 61.2679C76.066 60.4535 78 57.9032 78 54.9999C78 52.0964 76.0659 49.5461 73.3265 48.7318ZM32.1063 58.9896C30.7504 58.1586 29.8656 56.6598 29.8656 54.9998C29.8656 53.3397 30.7503 51.8409 32.1064 51.01C31.8601 52.3029 31.7295 53.6363 31.7295 54.9999C31.7295 56.3635 31.86 57.6969 32.1063 58.9896ZM52.9995 74.4043C42.3 74.4043 33.5952 65.6995 33.5952 55C33.5952 47.6005 37.7591 41.1561 43.866 37.884C44.7938 39.8581 47.712 44.7976 54.6296 47.5646C54.7432 47.6102 54.8603 47.6316 54.9757 47.6316C55.3458 47.6316 55.6962 47.4098 55.8421 47.0449C56.0334 46.5666 55.8007 46.0237 55.3223 45.8323C49.0369 43.3182 46.361 38.7624 45.5564 37.0808C47.6754 36.1973 49.9831 35.6794 52.4008 35.6058C53.0473 36.917 54.9035 39.9953 58.739 41.7388C58.8643 41.7957 58.9953 41.8226 59.1244 41.8226C59.479 41.8226 59.818 41.6193 59.9743 41.2755C60.1875 40.8064 59.9801 40.2535 59.511 40.0403C56.9269 38.8657 55.3761 36.9448 54.5725 35.6599C64.5391 36.4634 72.4035 44.8302 72.4035 55.0001C72.4038 65.6995 63.6992 74.4043 52.9995 74.4043ZM73.8924 58.9904C74.1389 57.6974 74.2693 56.3637 74.2693 55C74.2693 53.6362 74.1388 52.3023 73.8922 51.0092C75.2489 51.8396 76.1341 53.3388 76.1341 54.9999C76.1343 56.6608 75.2492 58.16 73.8924 58.9904Z" fill="black"/>
<path d="M45.0116 53.8568C42.7813 53.8568 40.9668 55.6713 40.9668 57.9017C40.9668 58.4168 41.3844 58.8345 41.8996 58.8345C42.4148 58.8345 42.8324 58.4168 42.8324 57.9017C42.8324 56.7 43.81 55.7226 45.0115 55.7226C46.2131 55.7226 47.1907 56.7001 47.1907 57.9017C47.1907 58.4168 47.6083 58.8345 48.1235 58.8345C48.6388 58.8345 49.0563 58.4168 49.0563 57.9017C49.0565 55.6713 47.242 53.8568 45.0116 53.8568Z" fill="black"/>
<path d="M60.9873 53.8568C58.7569 53.8568 56.9424 55.6713 56.9424 57.9017C56.9424 58.4168 57.36 58.8345 57.8752 58.8345C58.3905 58.8345 58.808 58.4168 58.808 57.9017C58.808 56.7 59.7855 55.7226 60.9872 55.7226C62.189 55.7226 63.1664 56.7001 63.1664 57.9017C63.1664 58.4168 63.584 58.8345 64.0992 58.8345C64.6146 58.8345 65.032 58.4168 65.032 57.9017C65.032 55.6713 63.2177 53.8568 60.9873 53.8568Z" fill="black"/>
<path d="M58.7091 64.18C58.3447 63.8157 57.7541 63.8157 57.3897 64.18C55.0187 66.551 51.1608 66.551 48.7898 64.18C48.4253 63.8157 47.8348 63.8157 47.4705 64.18C47.1062 64.5443 47.1062 65.135 47.4705 65.4991C48.9725 67.0011 50.9682 67.8283 53.0899 67.8283C55.2115 67.8283 57.2072 67.0012 58.7092 65.4991C59.0735 65.1349 59.0735 64.5443 58.7091 64.18Z" fill="black"/>
<path d="M54.2446 59.2509H51.7551C51.2397 59.2509 50.8223 59.6686 50.8223 60.1837C50.8223 60.6988 51.2399 61.1165 51.7551 61.1165H54.2446C54.76 61.1165 55.1774 60.6988 55.1774 60.1837C55.1774 59.6686 54.7599 59.2509 54.2446 59.2509Z" fill="black"/>
</svg>
