<svg width="105" height="105" viewBox="0 0 105 105" fill="none" xmlns="http://www.w3.org/2000/svg">
<rect width="105" height="105" rx="8" fill="#CBEBA4"/>
<path d="M31.9249 67.8205C31.9339 67.9708 31.9745 68.1122 32.0399 68.2383C32.1014 68.3568 32.1865 68.4654 32.2945 68.5562C32.3086 68.5683 32.3232 68.5798 32.338 68.591C33.6444 69.5924 36.7624 69.9495 39.2493 69.9495C39.516 69.9495 39.7873 69.9455 40.0553 69.9375C40.6321 69.9206 41.086 69.439 41.0691 68.862C41.0521 68.2851 40.569 67.8288 39.9937 67.8483C39.7462 67.8557 39.4957 67.8594 39.2493 67.8594C36.5877 67.8594 34.8018 67.4742 33.9936 67.1376L33.1633 41.5733C33.4277 41.6732 33.716 41.7662 34.0283 41.8523C35.574 42.2779 37.6105 42.5123 39.7632 42.5123C40.3511 42.5123 40.9306 42.4949 41.4936 42.4607L41.0816 55.9971C41.0641 56.574 41.5174 57.0558 42.0944 57.0735C42.6717 57.0932 43.1533 56.6376 43.1708 56.0606L43.5913 42.2452C44.2818 42.1421 44.9241 42.0104 45.4981 41.8523C45.8114 41.766 46.1006 41.6725 46.3657 41.5722L46.0631 51.258C46.0451 51.835 46.4981 52.3172 47.0749 52.3351C47.6534 52.358 48.134 51.9001 48.1521 51.3233L48.5232 39.4437C48.5252 39.4099 48.5261 39.3759 48.5261 39.3416C48.5261 38.4539 47.8798 37.7351 46.6051 37.205C46.0726 36.9834 45.4606 37.2358 45.2389 37.7687C45.0172 38.3017 45.2696 38.9132 45.8025 39.135C45.9933 39.2143 46.1335 39.2866 46.2355 39.3472C45.8164 39.5959 44.9428 39.8988 43.6557 40.1196L43.9237 31.3156C43.9412 30.7387 43.4879 30.2568 42.9109 30.2392C42.3366 30.2243 41.8521 30.6752 41.8345 31.2521L41.6829 36.2347C41.0577 36.1924 40.4155 36.1709 39.763 36.1709C37.6103 36.1709 35.5737 36.4054 34.0281 36.831C32.0252 37.3827 31.0065 38.2239 31 39.3312C31 39.3372 31 39.3432 31 39.3493C31.0001 39.3789 31.0009 39.4083 31.0026 39.4375L31.9232 67.7839C31.9236 67.7962 31.9241 67.8083 31.9249 67.8205ZM39.763 38.2611C40.3958 38.2611 41.017 38.2827 41.6193 38.3256L41.5572 40.3634C41.0022 40.4009 40.4036 40.4222 39.763 40.4222C36.2706 40.4222 34.0288 39.7911 33.2812 39.3417C34.0288 38.8923 36.2707 38.2611 39.763 38.2611ZM35.7955 55.2215C35.3874 54.8134 35.3875 54.1518 35.7956 53.7436C36.2039 53.3357 36.8655 53.3356 37.2736 53.7437L37.6532 54.1234C38.0613 54.5316 38.0612 55.1932 37.653 55.6014C37.449 55.8054 37.1816 55.9074 36.9142 55.9074C36.6467 55.9074 36.3792 55.8054 36.1752 55.6012L35.7955 55.2215ZM55.1284 42.1026C55.2944 40.9191 55.9106 39.6775 56.5065 38.4769C57.9061 35.6572 58.1476 34.6715 56.9328 33.9982C56.4279 33.7184 56.2456 33.0823 56.5253 32.5776C56.805 32.0728 57.4412 31.8907 57.9459 32.1701C59.3518 32.9494 59.9789 34.1946 59.7591 35.771C59.5935 36.9585 58.9758 38.2028 58.3785 39.4063C56.9837 42.2164 56.742 43.1981 57.9459 43.8654C58.4506 44.1452 58.6331 44.7813 58.3532 45.2861C58.1623 45.6304 57.8059 45.8248 57.4382 45.8248C57.2668 45.8248 57.093 45.7825 56.9325 45.6934C55.5319 44.917 54.908 43.6752 55.1284 42.1026ZM45.5627 72.0203C45.6867 72.5839 45.3304 73.1415 44.7667 73.2657C43.315 73.5851 41.4157 73.761 39.4186 73.761C36.6788 73.761 33.2476 73.4103 31.8338 72.4265C31.3601 72.0967 31.2434 71.4455 31.5732 70.9718C31.9028 70.4981 32.5542 70.3814 33.0279 70.7111C33.6965 71.1765 36.1634 71.671 39.4186 71.671C41.2692 71.671 43.0089 71.5125 44.3176 71.2244C44.8811 71.1008 45.4387 71.4567 45.5627 72.0203ZM74.2178 59.4489C73.9734 59.2372 73.6446 59.1505 73.3276 59.2143C72.529 59.375 71.7096 59.523 70.8727 59.658C70.6867 59.3415 70.4605 59.0496 70.1957 58.7847L68.3555 56.9447C70.0709 56.4015 71.6597 55.3366 72.8778 53.8238C75.3616 50.7393 75.6974 46.5489 73.7137 43.3964C73.5896 43.1992 73.4034 43.0492 73.1843 42.97C69.6815 41.7048 65.6592 42.9267 63.1753 46.0112C60.861 48.8854 60.4112 52.7191 61.9652 55.7787L61.7484 56.0478C61.3863 56.4973 61.4574 57.1552 61.9069 57.5172C62.3565 57.8793 63.0144 57.808 63.3762 57.3587L63.593 57.0896C64.3232 57.2798 65.0687 57.3674 65.813 57.358L68.4605 60.0053C64.9561 60.4516 61.2059 60.683 57.3926 60.683C53.5793 60.683 49.829 60.4515 46.3247 60.0053L55.769 50.5611C56.4862 49.8439 57.6103 49.6853 58.503 50.1757C59.0087 50.4535 59.6442 50.2688 59.9221 49.7628C60.2 49.257 60.0151 48.6216 59.5093 48.3436C57.807 47.4087 55.6612 47.7127 54.2911 49.0831L44.5894 58.7847C44.3248 59.0495 44.0986 59.3415 43.9127 59.6579C43.0759 59.5229 42.2565 59.3748 41.458 59.2142C41.141 59.1508 40.8122 59.237 40.5677 59.4488C40.3232 59.6606 40.1905 59.9735 40.2083 60.2964C40.5154 65.864 45.0862 70.5003 51.4061 72.324C51.3572 72.4448 51.3302 72.577 51.3302 72.7154C51.3302 73.2926 51.7981 73.7604 52.3753 73.7604H62.4097C62.9869 73.7604 63.4547 73.2926 63.4547 72.7154C63.4547 72.577 63.4279 72.4448 63.379 72.324C69.6988 70.5003 74.2699 65.864 74.5772 60.2964C74.595 59.9735 74.4623 59.6606 74.2178 59.4489ZM65.0837 55.2387L69.2709 50.0387C69.6329 49.5892 69.5619 48.9312 69.1124 48.5693C68.663 48.2074 68.005 48.2783 67.6431 48.7278L63.4559 53.9279C62.7585 51.7717 63.2335 49.272 64.8034 47.3223C66.6453 45.0349 69.5481 44.0587 72.1291 44.8227C73.4265 47.1816 73.0917 50.2259 71.2501 52.5131C69.9537 54.123 68.1319 55.0836 66.2664 55.2448C66.1887 55.2417 65.3997 55.2698 65.0837 55.2387ZM67.9648 67.8099C65.1199 69.9091 61.3654 71.0651 57.3927 71.0651C53.42 71.0651 49.6655 69.9091 46.8206 67.8099C44.498 66.0961 42.9918 63.9051 42.4784 61.5347C43.0921 61.6439 43.7154 61.746 44.3481 61.8413C44.3668 61.8445 44.3854 61.8474 44.404 61.8496C48.4613 62.4567 52.887 62.7733 57.3927 62.7733C61.8987 62.7733 66.3247 62.4564 70.3825 61.8495C70.4004 61.8472 70.4183 61.8445 70.4361 61.8415C71.0692 61.7463 71.6932 61.6441 72.3071 61.5347C71.7937 63.9051 70.2874 66.0961 67.9648 67.8099ZM38.5045 51.4798C38.3005 51.6838 38.0331 51.7857 37.7657 51.7857C37.4981 51.7857 37.2307 51.6837 37.0266 51.4795C36.6186 51.0713 36.6186 50.4096 37.0268 50.0015L37.4066 49.6218C37.8148 49.2136 38.4765 49.2139 38.8846 49.622C39.2926 50.0303 39.2926 50.6919 38.8843 51.1001L38.5045 51.4798ZM35.8083 46.9236L35.4287 46.5439C35.0206 46.1357 35.0207 45.4741 35.4288 45.0659C35.837 44.6579 36.4986 44.6578 36.9068 45.0661L37.2863 45.4458C37.6945 45.8539 37.6944 46.5155 37.2862 46.9237C37.0822 47.1277 36.8148 47.2298 36.5474 47.2298C36.2797 47.2297 36.0123 47.1276 35.8083 46.9236Z" fill="black"/>
</svg>
