<svg width="31" height="43" viewBox="0 0 31 43" fill="none" xmlns="http://www.w3.org/2000/svg">
<path d="M9.22919 26.5264L8.38377 25.8664C8.24195 25.7556 8.04448 25.7832 7.93354 25.9299L7.62074 26.3431L7.38204 26.053C7.27333 25.9206 7.09135 25.8941 6.95408 25.9907L6.13806 26.5639C5.98464 26.6716 5.94118 26.8933 6.04086 27.0591C6.14046 27.225 6.34571 27.2719 6.49896 27.1641L6.60676 27.0884C6.74188 27.6152 7.19046 27.9936 7.70544 27.9936C7.72291 27.9936 7.74038 27.9931 7.75801 27.9922C8.00805 27.9798 8.24211 27.8824 8.43593 27.7097C8.61535 27.5485 8.74583 27.3263 8.80768 27.0804L8.84138 27.1067C8.98958 27.2225 9.19673 27.1865 9.3037 27.0261C9.41084 26.8658 9.37747 26.6421 9.22919 26.5264Z" fill="black"/>
<path d="M6.97975 24.8147C7.11688 24.8147 7.22804 24.6495 7.22804 24.4456C7.22804 24.2418 7.11688 24.0766 6.97975 24.0766C6.84261 24.0766 6.73145 24.2418 6.73145 24.4456C6.73145 24.6495 6.84261 24.8147 6.97975 24.8147Z" fill="black"/>
<path d="M7.87916 24.7812C8.01629 24.7812 8.12746 24.616 8.12746 24.4122C8.12746 24.2084 8.01629 24.0432 7.87916 24.0432C7.74203 24.0432 7.63086 24.2084 7.63086 24.4122C7.63086 24.616 7.74203 24.7812 7.87916 24.7812Z" fill="black"/>
<path d="M28.3574 13.8779C30.4739 10.1683 31.3641 6.28814 30.8643 2.95193C30.8485 2.84571 30.7892 2.75291 30.7031 2.69922C30.6166 2.64526 30.5127 2.63622 30.4197 2.67461C27.9949 3.67104 25.8439 5.61538 24.0985 8.36322C24.3915 5.14415 24.1535 2.6407 23.387 0.908786C23.3083 0.730799 23.1113 0.655094 22.9463 0.739748C20.8952 1.79156 19.2572 3.65886 18.2099 6.13995C17.6938 7.36268 17.4393 8.44466 17.3233 9.06363C16.2362 8.38721 14.9777 8.00188 13.6406 8.00188C13.6222 8.00188 13.6036 8.00188 13.5852 8.00206L11.5037 8.0187C8.90399 7.59651 6.30077 8.7362 4.70491 10.9962L4.59347 11.1539C4.25029 11.2278 3.92639 11.3912 3.6521 11.6321L2.76736 12.409C2.57403 12.5787 2.46243 12.8423 2.49323 13.1094C2.50771 13.2349 2.54919 13.3482 2.60963 13.4449L1.97924 13.8002C1.97071 13.8056 1.96218 13.8109 1.95365 13.8163C0.786587 14.6335 0.283612 16.1986 0.730204 17.6217C1.02917 18.5739 0.995974 19.6093 0.636729 20.5369C0.273263 21.475 0.471058 22.5433 1.14053 23.2583L2.78665 25.0163L2.78673 25.0164C2.77994 25.0926 2.77663 25.1702 2.77663 25.2534C2.77663 25.8919 2.99173 26.5083 3.38202 26.9891L6.24703 30.5232C6.8208 31.2292 7.63599 31.6229 8.48885 31.6229C8.58879 31.6229 8.68947 31.6155 8.79014 31.6045L9.01841 33.0139C9.11511 33.6109 9.00499 34.2211 8.70834 34.7322C8.22408 35.5664 7.34878 36.7258 5.92852 37.5121C3.71841 38.7355 3.36016 41.3777 3.30519 42.3805C3.2936 42.5913 3.45091 42.7676 3.6463 42.7615C3.81777 42.7562 3.95711 42.6112 3.9682 42.4262C3.99122 42.0426 4.06632 41.3651 4.30733 40.6383C6.95145 41.3343 9.43933 41.6855 11.729 41.6855C12.2416 41.6855 12.7446 41.668 13.2368 41.6327C15.4952 41.4712 17.5418 40.9406 19.3199 40.0555C21.6867 38.8774 22.9359 37.3979 23.4014 36.7517C24.0518 37.3195 24.5585 37.8504 24.8295 38.1482C24.9541 38.285 25.1565 38.2909 25.2882 38.162C25.4278 38.0255 25.4349 37.7914 25.3034 37.6459C24.6322 36.9036 22.6394 34.8539 20.4333 34.0591L20.3582 34.0317C18.7933 33.4512 17.6642 31.9265 17.4816 30.1474L17.3661 29.0234C17.7785 29.0042 18.1899 28.9102 18.5873 28.7399C18.7401 28.6744 18.8929 28.5851 18.9176 28.5695C20.8483 27.3566 21.8904 24.9595 21.5152 22.5741L21.3081 21.2578C23.8763 19.8784 26.4961 17.1403 28.3574 13.8779ZM5.4951 40.1971C5.18048 40.1245 4.87315 40.0492 4.57401 39.9716C4.82438 39.4497 5.17717 38.941 5.67161 38.5317L5.4951 40.1971ZM29.7044 3.79462L21.5194 18.2466C21.5141 18.0212 21.4873 17.7722 21.4309 17.4981C21.4024 17.3591 21.3624 17.2232 21.3129 17.0915C21.3931 16.6951 21.9358 14.1621 23.2443 11.3441C24.4288 8.79311 26.4823 5.52438 29.7044 3.79462ZM22.3029 1.94253C21.4938 3.74951 19.953 7.59239 19.6194 11.3002C19.1494 10.5971 18.5763 9.98372 17.9257 9.48198C18.0879 8.48779 18.9598 4.25583 22.3029 1.94253ZM11.8354 8.73182L13.59 8.71786C13.607 8.71768 13.6235 8.71768 13.6405 8.71768C17.0596 8.71768 19.9224 11.4754 20.3097 15.1531L20.3843 15.8613C20.3579 15.8421 20.3315 15.8229 20.3044 15.8048C16.943 13.5522 13.5984 12.0698 10.3595 11.3928C10.3014 9.67715 11.5461 8.89065 11.8354 8.73182ZM20.4242 16.862C20.5989 17.0945 20.725 17.3647 20.7844 17.6535C20.9572 18.4936 20.7933 18.9958 20.6564 19.2455C20.1769 18.927 19.6906 18.62 19.1984 18.3241L20.4242 16.862ZM18.9348 17.5724L18.7764 15.6629C19.2475 15.9486 19.6355 16.1993 19.9243 16.3923L18.9348 17.5724ZM18.1113 15.6636L18.2881 17.7932C17.7133 17.4687 17.1306 17.1602 16.5413 16.8665L18.1113 15.6636ZM16.0668 16.3524L15.3607 13.8466C16.2444 14.2529 17.0503 14.6727 17.7486 15.0639L16.0668 16.3524ZM14.639 13.7425L15.3601 16.3016C14.4278 15.8757 13.4799 15.4888 12.5201 15.1405L14.639 13.7425ZM11.9548 14.6748L11.433 12.3811C12.345 12.6375 13.2275 12.9484 14.061 13.2851L11.9548 14.6748ZM10.7597 12.4201L11.2817 14.7147C10.2484 14.3796 9.20279 14.0901 8.14865 13.847L10.7597 12.4201ZM7.40657 13.4505L7.15504 11.6894C8.1099 11.7155 9.0656 11.839 10.0023 12.0319L7.40657 13.4505ZM10.7973 8.65898C10.2748 9.16726 9.69782 10.011 9.69401 11.2633C7.90375 10.95 6.49153 10.9522 5.53534 11.0315C6.86344 9.41039 8.80322 8.53844 10.7973 8.65898ZM6.75109 13.5534C6.23014 13.4543 5.70763 13.3666 5.18387 13.2906L6.53441 12.0365L6.75109 13.5534ZM4.77288 11.8453C4.77735 11.8445 4.78174 11.8433 4.78621 11.8426C5.14297 11.7834 5.50213 11.7422 5.8627 11.7164L4.75169 12.7481L4.77288 11.8453ZM3.16618 12.9812L4.06988 12.1877C4.08064 12.1783 4.0919 12.1697 4.10291 12.1606L4.07973 13.1474C3.85544 13.1233 3.55771 13.0951 3.18919 13.0628C3.18 13.0619 3.1608 13.0602 3.15243 13.0307C3.14382 13.0007 3.15889 12.9876 3.16618 12.9812ZM2.83906 24.0658L1.60608 22.7491C1.12985 22.2405 0.989185 21.4807 1.24767 20.8133C1.66942 19.7244 1.70834 18.5093 1.35745 17.3917C1.01005 16.285 1.39744 15.0683 2.2999 14.4269L3.41059 13.8008C3.74524 13.8313 4.00629 13.8577 4.1862 13.879C4.55604 13.923 4.92539 13.9731 5.29407 14.0288L5.08626 15.2294C4.93673 16.1028 4.44493 16.8654 3.73738 17.3217L2.37127 18.2004C2.247 18.2804 2.18507 18.4383 2.21835 18.5904L2.4154 19.4905C2.74434 20.9943 2.88575 22.5296 2.83906 24.0658ZM3.23763 20.2472C3.45215 20.2035 3.67892 20.1745 3.91803 20.163C3.92747 20.1625 3.93674 20.1626 3.94618 20.1622C3.92673 20.2504 3.91555 20.3414 3.91555 20.4346C3.91555 20.9884 4.27504 21.4523 4.75475 21.5705C4.31404 21.6921 3.83905 21.6606 3.40371 21.4562C3.36124 21.0518 3.30544 20.6486 3.23763 20.2472ZM4.5779 20.4346C4.5779 20.3727 4.58949 20.3128 4.61135 20.2577C4.90585 20.3541 5.1539 20.5095 5.34913 20.668C5.2752 20.7981 5.14297 20.8846 4.99436 20.8846C4.76477 20.8846 4.5779 20.6827 4.5779 20.4346ZM6.74479 30.0512L3.87995 26.5171C3.59547 26.1669 3.4389 25.7181 3.4389 25.2535C3.4389 25.1943 3.44114 25.1401 3.44594 25.0853C3.50895 24.3114 3.52501 23.5366 3.49611 22.7644C3.52915 22.7412 3.56003 22.7134 3.58462 22.6769L3.82249 22.3237C3.9047 22.3372 3.98716 22.3479 4.06963 22.3533L4.04239 22.6679C4.02533 22.8647 4.15913 23.0392 4.34119 23.0576C4.35171 23.0587 4.36214 23.0592 4.37249 23.0592C4.54139 23.0592 4.6857 22.9201 4.70184 22.7347L4.73885 22.3075C4.85973 22.2833 4.97896 22.2505 5.09595 22.2091L5.26054 22.5366C5.32065 22.6561 5.43441 22.7238 5.55198 22.7238C5.60538 22.7238 5.65953 22.7099 5.7097 22.6804C5.8704 22.586 5.92993 22.3687 5.84267 22.195L5.69761 21.9063C5.9575 21.7312 6.19396 21.5074 6.39424 21.2368C6.48532 21.1139 6.49128 20.941 6.40906 20.8111C6.4036 20.8025 6.37884 20.764 6.33546 20.7054L6.58351 20.3788C6.69951 20.2261 6.67906 20.0005 6.53764 19.875C6.39631 19.7498 6.18759 19.7718 6.07151 19.9246L5.86651 20.1945C5.77544 20.1132 5.67319 20.0307 5.56001 19.9515L5.64446 19.7064C5.70829 19.5212 5.62119 19.3151 5.44973 19.246C5.27851 19.177 5.08767 19.2712 5.02375 19.4565L4.96447 19.6284C4.77288 19.5524 4.56333 19.4949 4.33614 19.4659L4.3306 19.0726C4.32778 18.8768 4.18008 18.7202 3.9995 18.7202C3.99776 18.7202 3.99611 18.7202 3.99429 18.7202C3.81139 18.7233 3.66543 18.886 3.66824 19.0837L3.67362 19.4639C3.47773 19.481 3.28805 19.5083 3.10565 19.5458C3.0905 19.4725 3.07568 19.3992 3.0597 19.326L2.91862 18.6814L4.07617 17.9369C4.11541 17.9115 4.1535 17.8846 4.19158 17.8578C4.52251 17.8645 4.79871 18.0329 5.03104 18.3736C5.2367 18.6756 5.32288 18.9972 5.3252 19.006C5.36577 19.1644 5.49899 19.2685 5.64429 19.2685C5.67319 19.2685 5.70258 19.2644 5.73189 19.2557C5.90832 19.2035 6.01223 19.0067 5.96396 18.816C5.8483 18.3592 5.48491 17.6056 4.82645 17.288C5.292 16.7586 5.61217 16.0911 5.73727 15.3605L5.94939 14.1347C7.39829 14.3811 8.83568 14.7175 10.2519 15.1398L10.4209 16.8668C8.83286 17.0493 8.02405 18.1731 7.98812 18.2243C7.87775 18.3812 7.90607 18.6043 8.05071 18.7242C8.11065 18.7739 8.18136 18.7979 8.25165 18.7979C8.35092 18.7979 8.44928 18.7499 8.5146 18.6587C8.54391 18.6178 9.20519 17.7157 10.515 17.5755C10.6467 18.119 10.9596 18.5812 11.3846 18.8826C11.291 18.9246 11.216 19.0111 11.1896 19.1254L11.1055 19.4891C10.9907 19.4677 10.8743 19.4531 10.7566 19.4477C10.6697 19.4434 10.5832 19.4443 10.4971 19.4489L10.4761 18.9283C10.4681 18.7308 10.3161 18.5772 10.1307 18.5864C9.94802 18.595 9.80636 18.7621 9.81439 18.9596L9.83915 19.5719C9.6613 19.6299 9.48926 19.7067 9.32566 19.8022L9.18573 19.364C9.12604 19.1771 8.9376 19.0779 8.76464 19.1423C8.59177 19.2069 8.49995 19.4106 8.55956 19.5975L8.76365 20.2367C8.72051 20.2797 8.67812 20.3239 8.6373 20.3702L8.47834 20.5504L8.29503 20.1831C8.20826 20.0092 8.00741 19.9439 7.84637 20.0379C7.68542 20.1318 7.62523 20.3489 7.71208 20.5228L7.9988 21.0974C7.94655 21.1652 7.91782 21.2507 7.92097 21.3394C7.92436 21.436 7.96386 21.5271 8.03034 21.5918C8.04731 21.6083 8.29437 21.8427 8.80339 22.0483L8.70379 22.5604C8.66612 22.7539 8.7807 22.9437 8.95971 22.9843C8.98264 22.9896 9.00566 22.9921 9.02818 22.9921C9.18151 22.9921 9.3192 22.8763 9.3519 22.7077L9.44206 22.2443C9.68316 22.2977 9.95663 22.3373 10.2644 22.353L10.2799 22.7498C10.2875 22.9422 10.4341 23.0926 10.6105 23.0926C10.6153 23.0926 10.62 23.0925 10.6248 23.0922C10.8076 23.0839 10.9494 22.917 10.9416 22.7195L10.9254 22.3049C11.268 22.2349 11.5668 22.1009 11.8192 21.944L11.9142 22.2216C11.9636 22.366 12.0902 22.4554 12.2248 22.4554C12.263 22.4554 12.3019 22.4482 12.3398 22.433C12.5112 22.3644 12.5989 22.1585 12.5353 21.973L12.3755 21.5061C12.6463 21.2426 12.7938 21.0142 12.8085 20.9911C12.8908 20.8612 12.8848 20.6883 12.7937 20.5653C12.7826 20.5502 12.7705 20.5359 12.7591 20.521L13.0783 20.066C13.0926 20.0456 13.1044 20.024 13.1141 20.0018C13.3254 20.4058 13.3681 20.8888 13.2303 21.3286L13.0276 21.9761C12.7349 22.911 12.7766 23.9231 13.1452 24.8259C13.269 25.1294 13.426 25.5302 13.5419 25.94L13.5918 26.1169C13.6856 26.4489 13.8182 26.7638 13.9832 27.0559C13.6647 27.6693 13.2711 28.2313 12.8093 28.7279C11.7214 29.8992 10.3426 30.6439 8.82235 30.8813C8.0421 31.0019 7.26549 30.6918 6.74479 30.0512ZM11.83 19.1226C11.9194 19.1568 12.0115 19.1851 12.1065 19.2064C12.3305 19.2566 12.5376 19.3619 12.7156 19.5089C12.6522 19.5303 12.594 19.5719 12.5508 19.6334L12.2748 20.0268C12.1086 19.8946 11.9296 19.783 11.741 19.6941L11.8324 19.2992C11.8462 19.2388 11.8436 19.1788 11.83 19.1226ZM12.098 20.8003C11.8217 21.1209 11.2067 21.681 10.3148 21.6391C9.56576 21.6038 9.06096 21.4097 8.7716 21.2553L9.1166 20.8642C9.25785 20.7041 9.41847 20.5696 9.59234 20.4619C9.64682 21.0501 10.1074 21.5109 10.6658 21.5109C11.2122 21.5109 11.6639 21.0684 11.7334 20.4974C11.864 20.5839 11.987 20.6841 12.098 20.8003ZM10.2492 20.3449C10.2492 20.2933 10.2582 20.2429 10.274 20.1949C10.4223 20.1669 10.5744 20.1557 10.7278 20.1629C10.841 20.1683 10.9525 20.1851 11.0619 20.2095C11.0745 20.2531 11.0813 20.2986 11.0813 20.3449C11.0813 20.5931 10.8949 20.795 10.6657 20.795C10.4361 20.795 10.2492 20.5931 10.2492 20.3449ZM6.38861 38.057C6.51802 37.9811 6.64445 37.9032 6.76533 37.8221C7.17508 37.9261 7.57845 38.0123 7.9752 38.0827L6.20903 39.7517L6.38861 38.057ZM6.51264 40.4157L8.41368 38.6192L8.97477 40.7995C8.12737 40.7041 7.30192 40.572 6.51264 40.4157ZM9.0016 38.2319C9.63464 38.3037 10.2482 38.3364 10.8396 38.3364C10.9983 38.3364 11.1555 38.334 11.311 38.3295L9.57983 40.4788L9.0016 38.2319ZM10.1162 40.9031L12.0233 38.5353L13.3934 40.8947C12.2934 40.983 11.1924 40.9771 10.1162 40.9031ZM12.6323 38.2373C13.5509 38.1357 14.397 37.9629 15.1607 37.7553L13.93 40.4722L12.6323 38.2373ZM14.5336 40.7679L15.8834 37.788L18.0064 39.8655C16.8829 40.3096 15.7144 40.5988 14.5336 40.7679ZM18.3793 39.2647L16.4294 37.3565C16.6209 37.2878 16.8056 37.218 16.9816 37.1477C17.6374 36.8857 18.2201 36.6063 18.7251 36.3359L18.3793 39.2647ZM19.0296 39.4114L19.3734 36.4992L20.9082 38.2584C20.3967 38.642 19.7726 39.0425 19.0296 39.4114ZM21.8443 35.5658C22.2073 35.8006 22.554 36.0553 22.8764 36.3131C22.7266 36.5199 22.4797 36.8323 22.1232 37.1976C22.0191 37.3043 21.9009 37.4198 21.7697 37.5412L21.8443 35.5658ZM20.8182 34.9878C20.9452 35.0481 21.0712 35.1122 21.196 35.1798L21.1105 37.4466L19.6664 35.7914C20.2253 35.4422 20.6152 35.1489 20.8182 34.9878ZM20.0676 34.6795C19.4602 35.116 18.3159 35.8514 16.7517 36.4764C14.6567 37.3134 11.3912 38.0993 7.50037 37.2614C8.33246 36.543 8.90349 35.7428 9.26927 35.1128C9.31158 35.0398 9.35049 34.965 9.38692 34.8892L9.44811 35.2177C9.47974 35.3876 9.61792 35.5051 9.77241 35.5051C9.79402 35.5051 9.81605 35.5028 9.83807 35.4979C10.0174 35.4589 10.1335 35.2703 10.0974 35.0764L9.53976 32.0821L9.44331 31.4865C10.8973 31.1497 12.214 30.3792 13.2766 29.2352C13.7129 28.7659 14.0934 28.243 14.4139 27.6768C14.7405 28.066 15.135 28.3892 15.5805 28.6208C15.94 28.8079 16.3153 28.9289 16.6957 28.987L16.8229 30.2266C17.0307 32.2506 18.3006 33.9886 20.0676 34.6795ZM18.5223 27.9892C18.5074 27.9974 18.4449 28.0309 18.3428 28.0746C17.535 28.4208 16.6558 28.3859 15.8676 27.9758C15.0794 27.5659 14.4807 26.8122 14.2253 25.908L14.1752 25.7311C14.0493 25.2851 13.8824 24.8587 13.7511 24.5371C13.4496 23.7985 13.4154 22.9704 13.655 22.2056L13.8577 21.5582C14.0571 20.9216 13.9943 20.2217 13.6854 19.6384C13.3764 19.0549 12.8499 18.642 12.2409 18.5054C11.6333 18.3692 11.1812 17.8294 11.1159 17.1624L10.9387 15.3524C14.2731 16.4177 17.4796 17.9609 20.4279 19.9354L20.8618 22.6943C21.195 24.8113 20.2547 26.9386 18.5223 27.9892ZM20.9679 15.0722C20.8659 14.1037 20.6062 13.1943 20.2208 12.3698C20.2835 9.73925 21.1258 6.87749 21.8263 4.93001C22.2905 3.6398 22.7543 2.57206 23.0525 1.92159C23.6338 3.77323 23.7109 6.46541 23.2723 9.78086C23.0553 10.1866 22.8456 10.6057 22.6445 11.0396C21.8364 12.7833 21.3182 14.3954 21.0133 15.5039L20.9679 15.0722ZM21.1916 20.5186L21.1519 20.2665L30.3154 4.08688C30.6888 10.4562 25.984 17.8313 21.1916 20.5186Z" fill="black"/>
</svg>
