<svg width="105" height="105" viewBox="0 0 105 105" fill="none" xmlns="http://www.w3.org/2000/svg">
<rect width="105" height="105" rx="8" fill="#FFD88D"/>
<path d="M73.3265 48.7318C70.6448 40.0534 62.547 33.73 52.9995 33.73C43.452 33.73 35.354 40.0534 32.6726 48.7319C29.9336 49.5471 28 52.0975 28 54.9999C28 57.9021 29.9336 60.4525 32.6725 61.2677C35.3539 69.9465 43.452 76.27 52.9995 76.27C62.5471 76.27 70.645 69.9465 73.3266 61.2679C76.066 60.4535 78 57.9032 78 54.9999C78 52.0964 76.0659 49.5461 73.3265 48.7318ZM32.1063 58.9896C30.7504 58.1586 29.8656 56.6598 29.8656 54.9998C29.8656 53.3397 30.7503 51.8409 32.1064 51.01C31.8601 52.3029 31.7295 53.6363 31.7295 54.9999C31.7295 56.3635 31.86 57.6969 32.1063 58.9896ZM52.9995 74.4043C42.3 74.4043 33.5952 65.6995 33.5952 55C33.5952 47.6005 37.7591 41.1561 43.866 37.884C44.7938 39.8581 47.712 44.7976 54.6296 47.5646C54.7432 47.6102 54.8604 47.6316 54.9757 47.6316C55.3458 47.6316 55.6962 47.4098 55.8421 47.0449C56.0334 46.5666 55.8007 46.0237 55.3223 45.8323C49.0369 43.3182 46.361 38.7624 45.5564 37.0808C47.6754 36.1973 49.9831 35.6794 52.4008 35.6058C53.0473 36.917 54.9035 39.9953 58.739 41.7388C58.8643 41.7957 58.9953 41.8226 59.1244 41.8226C59.479 41.8226 59.818 41.6193 59.9743 41.2755C60.1875 40.8064 59.9801 40.2535 59.511 40.0403C56.9269 38.8657 55.3761 36.9448 54.5725 35.6599C64.5391 36.4634 72.4035 44.8302 72.4035 55.0001C72.4038 65.6995 63.6992 74.4043 52.9995 74.4043ZM73.8924 58.9904C74.1389 57.6974 74.2693 56.3637 74.2693 55C74.2693 53.6362 74.1388 52.3023 73.8922 51.0092C75.2489 51.8396 76.1341 53.3388 76.1341 54.9999C76.1343 56.6608 75.2492 58.16 73.8924 58.9904Z" fill="black"/>
<path d="M45.0116 53.8568C42.7813 53.8568 40.9668 55.6713 40.9668 57.9017C40.9668 58.4168 41.3844 58.8345 41.8996 58.8345C42.4148 58.8345 42.8324 58.4168 42.8324 57.9017C42.8324 56.7 43.81 55.7226 45.0115 55.7226C46.2131 55.7226 47.1907 56.7001 47.1907 57.9017C47.1907 58.4168 47.6083 58.8345 48.1235 58.8345C48.6388 58.8345 49.0563 58.4168 49.0563 57.9017C49.0565 55.6713 47.242 53.8568 45.0116 53.8568Z" fill="black"/>
<path d="M60.9873 53.8568C58.7569 53.8568 56.9424 55.6713 56.9424 57.9017C56.9424 58.4168 57.36 58.8345 57.8752 58.8345C58.3905 58.8345 58.808 58.4168 58.808 57.9017C58.808 56.7 59.7855 55.7226 60.9872 55.7226C62.189 55.7226 63.1664 56.7001 63.1664 57.9017C63.1664 58.4168 63.584 58.8345 64.0992 58.8345C64.6146 58.8345 65.032 58.4168 65.032 57.9017C65.032 55.6713 63.2177 53.8568 60.9873 53.8568Z" fill="black"/>
<path d="M58.7091 64.18C58.3447 63.8157 57.7541 63.8157 57.3897 64.18C55.0187 66.551 51.1608 66.551 48.7898 64.18C48.4253 63.8157 47.8348 63.8157 47.4705 64.18C47.1062 64.5443 47.1062 65.135 47.4705 65.4991C48.9725 67.0011 50.9682 67.8283 53.0899 67.8283C55.2115 67.8283 57.2072 67.0012 58.7092 65.4991C59.0735 65.1349 59.0735 64.5443 58.7091 64.18Z" fill="black"/>
<path d="M54.2446 59.2509H51.7551C51.2397 59.2509 50.8223 59.6686 50.8223 60.1837C50.8223 60.6988 51.2399 61.1165 51.7551 61.1165H54.2446C54.76 61.1165 55.1774 60.6988 55.1774 60.1837C55.1774 59.6686 54.7599 59.2509 54.2446 59.2509Z" fill="black"/>
</svg>
