<svg width="126" height="49" viewBox="0 0 126 49" fill="none" xmlns="http://www.w3.org/2000/svg">
<g clip-path="url(#clip0_503_511)">
<path d="M0 11.6711H1.78639V15.1546H0V11.6711ZM0 20.1863H1.78639V38.1395H0V20.1863Z" fill="#1D1D1B"/>
<path d="M49.3642 22.9253C49.3642 18.4891 49.3047 16.5836 49.3047 15.75H51.895C51.9545 16.5836 52.014 18.2807 52.014 21.6451C53.5325 17.6852 56.9266 15.3034 61.1842 15.095V17.9532C55.7059 18.3105 52.014 22.1214 52.014 28.4036V42.0992H49.3642V22.9253Z" fill="#1D1D1B"/>
<path d="M84.0495 37.1271C84.0198 38.7944 84.1686 40.4915 84.4068 42.129H81.8761C81.6677 41.5038 81.5188 40.3426 81.3997 38.0799C80.5065 40.0449 78.1842 42.784 72.7357 42.784C66.6322 42.784 63.9824 38.8242 63.9824 34.8644C63.9824 29.0586 68.4484 26.4088 76.3681 26.4088H81.3699V23.7292C81.3699 21.0794 80.5661 17.5662 74.5519 17.5662C69.2225 17.5662 68.4484 20.3648 67.8529 22.5085H65.2031C65.5306 19.6205 67.317 15.1248 74.5817 15.1248C80.5958 15.1248 83.9602 17.6555 83.9602 23.4612V37.1271H84.0495ZM81.4593 28.6715H76.2787C70.4134 28.6715 66.7811 30.19 66.7811 34.7453C66.7811 38.0799 69.163 40.3426 72.8548 40.3426C80.3874 40.3426 81.4593 35.3407 81.4593 29.6243V28.6715Z" fill="#1D1D1B"/>
<path d="M92.8026 15.75C96.7029 29.3563 98.9656 37.1569 99.4122 39.4792H99.4718C99.8886 37.3653 102.538 29.0884 106.647 15.75H109.505C114.418 32.0359 115.877 36.7401 116.353 38.7944H116.413C117.157 35.9064 118.348 31.9466 123.231 15.75H126.029L117.693 42.129H114.775C111.947 32.7802 108.493 21.3474 107.987 18.9357H107.927C107.391 21.526 104.384 30.9641 100.96 42.129H97.8045L90.0635 15.75H92.8026Z" fill="#1D1D1B"/>
<path d="M16.9711 0L11.6715 6.93715C11.6715 6.93715 21.1394 2.82845 26.0519 7.62193V9.91446C26.0519 9.91446 21.8539 4.22779 9.55762 8.60444L16.9711 0Z" fill="#39AA35"/>
<path d="M35.0725 0L40.4019 6.93715C40.4019 6.93715 30.9341 2.82845 26.0215 7.62193V9.91446C26.0215 9.91446 30.2195 4.22779 42.5158 8.60444L35.0725 0Z" fill="#39AA35"/>
<path d="M26.0219 2.67965C26.0219 2.67965 23.1934 -0.714488 16.0479 1.93532C16.0479 1.93532 21.7048 -0.0892519 26.0219 3.24534V2.67965Z" fill="#39AA35"/>
<path d="M26.022 4.2873C26.022 4.2873 21.9729 0.952707 15.6907 3.18569L15.1846 3.87048C15.1846 3.87048 20.0971 1.16112 26.022 4.2873Z" fill="#39AA35"/>
<path d="M26.0214 5.68673C26.0214 5.68673 20.6623 2.62009 15.184 5.24013L14.9756 5.53786C14.9756 5.50809 20.7814 3.21555 26.0214 5.68673Z" fill="#39AA35"/>
<path d="M26.0215 2.67965C26.0215 2.67965 28.8499 -0.714488 35.9955 1.93532C35.9955 1.93532 30.3386 -0.0892519 26.0215 3.24534V2.67965Z" fill="#39AA35"/>
<path d="M26.0215 4.2873C26.0215 4.2873 30.0706 0.952707 36.323 3.18569L36.8589 3.87048C36.8887 3.87048 31.9761 1.16112 26.0215 4.2873Z" fill="#39AA35"/>
<path d="M26.0215 5.68673C26.0215 5.68673 31.3509 2.62009 36.8589 5.24013L37.0673 5.53786C37.0971 5.50809 31.2616 3.21555 26.0215 5.68673Z" fill="#39AA35"/>
<path d="M52.6088 10.8375L50.4056 8.36635C50.3758 8.33658 50.346 8.27703 50.3163 8.24726V10.8375H49.959V5.68677H50.3163V8.12817C50.346 8.06862 50.3758 8.03885 50.4056 8.00907L52.4897 5.68677H52.9661L50.7033 8.18771L53.1149 10.8375H52.6088Z" fill="#1D1D1B"/>
<path d="M57.4912 10.8375L54.4246 6.66928C54.365 6.57996 54.3055 6.49064 54.2459 6.4311L54.1864 6.37155C54.1864 6.4311 54.1864 6.52042 54.1864 6.60974V10.8673H53.8291V5.68677H54.0971L57.1637 9.82524C57.2232 9.91456 57.3126 10.0336 57.3721 10.1527H57.4019C57.4019 9.9741 57.3721 9.82524 57.3721 9.70614V5.68677H57.7294V10.8375H57.4912Z" fill="#1D1D1B"/>
<path d="M61.1831 10.9268C60.4686 10.9268 59.8731 10.6886 59.4265 10.2123C58.9799 9.73589 58.7715 9.11066 58.7715 8.33655C58.7715 7.50291 58.9799 6.8479 59.4265 6.37153C59.8731 5.89516 60.4686 5.6272 61.2427 5.6272C61.9274 5.6272 62.4931 5.86538 62.9397 6.34175C63.3566 6.81812 63.5947 7.44336 63.5947 8.21746C63.5947 9.08088 63.3863 9.73589 62.9397 10.242C62.5229 10.6886 61.9274 10.9268 61.1831 10.9268ZM61.2129 5.92493C60.6174 5.92493 60.1113 6.13334 59.7242 6.57994C59.3372 7.02654 59.1288 7.59223 59.1288 8.27701C59.1288 8.99156 59.3074 9.55725 59.6647 9.97408C60.022 10.3909 60.5281 10.5993 61.1236 10.5993C61.7488 10.5993 62.2549 10.3909 62.642 9.97408C62.9993 9.55725 63.2077 8.99156 63.2077 8.24724C63.2077 7.53268 63.029 6.93722 62.6718 6.55017C62.3145 6.16311 61.8381 5.92493 61.2129 5.92493Z" fill="#1D1D1B"/>
<path d="M68.8946 10.8375H68.5969L67.4655 6.96703C67.4059 6.75861 67.3762 6.60975 67.3762 6.49065H67.3464C67.3464 6.60975 67.3166 6.75861 67.2273 6.96703L66.0066 10.8673H65.7089L64.1904 5.71655H64.5775L65.7386 9.85502C65.7982 10.0337 65.828 10.1825 65.8577 10.3016C65.8577 10.2123 65.9173 10.0634 65.9768 9.85502L67.2571 5.71655H67.4357L68.5969 9.85502C68.6564 10.0337 68.6862 10.2123 68.7159 10.3016C68.7159 10.2421 68.7457 10.1528 68.7755 10.0634L69.9962 5.71655H70.3832L68.8946 10.8375Z" fill="#1D1D1B"/>
<path d="M71.2764 10.8375V5.68677H71.6336V10.51H73.688V10.8375H71.2764Z" fill="#1D1D1B"/>
<path d="M74.6406 10.8375V5.68677H77.0522V6.01427H74.9979V8.06862H76.9034V8.39613H74.9979V10.51H77.1713V10.8375H74.6406Z" fill="#1D1D1B"/>
<path d="M78.333 10.8375V5.68677H79.6132C80.4767 5.68677 81.1317 5.89518 81.5783 6.34178C82.0249 6.78837 82.2333 7.38384 82.2333 8.21749C82.2333 8.99159 81.9951 9.6466 81.5187 10.123C81.0424 10.5993 80.3874 10.8673 79.5239 10.8673H78.333V10.8375ZM78.6903 6.01427V10.51H79.4942C80.2683 10.51 80.8339 10.3016 81.2508 9.91456C81.6676 9.5275 81.876 8.93204 81.876 8.18771C81.876 6.72883 81.1019 5.9845 79.5537 5.9845H78.6903V6.01427Z" fill="#1D1D1B"/>
<path d="M87.0267 10.4802C86.4908 10.7779 85.9549 10.9268 85.3892 10.9268C84.6746 10.9268 84.1089 10.6886 83.6921 10.2123C83.2455 9.73588 83.0371 9.11064 83.0371 8.33654C83.0371 7.56244 83.2753 6.90743 83.7517 6.37151C84.228 5.8356 84.8533 5.59741 85.6274 5.59741C86.074 5.59741 86.5206 5.68673 86.9374 5.86537V6.25242C86.461 6.01424 86.0144 5.92492 85.5678 5.92492C84.9128 5.92492 84.4067 6.13333 83.9899 6.57993C83.6028 7.02652 83.3944 7.59221 83.3944 8.277C83.3944 8.99155 83.573 9.55724 83.9601 9.97407C84.3174 10.3909 84.8235 10.5993 85.4487 10.5993C85.9251 10.5993 86.3122 10.51 86.6694 10.3016V8.6045H85.4487V8.277H87.0267V10.4802Z" fill="#1D1D1B"/>
<path d="M88.2178 10.8375V5.68677H90.6294V6.01427H88.5751V8.06862H90.4805V8.39613H88.5751V10.51H90.7485V10.8375H88.2178Z" fill="#1D1D1B"/>
<path d="M93.9043 10.8375V5.68677H94.2616V10.8375H93.9043Z" fill="#1D1D1B"/>
<path d="M95.4229 10.6588V10.242C95.7801 10.4802 96.1672 10.5993 96.5542 10.5993C96.9711 10.5993 97.2688 10.51 97.4772 10.3611C97.6856 10.1825 97.7749 9.97407 97.7749 9.67634C97.7749 9.40838 97.7154 9.19996 97.5665 9.0511C97.4177 8.90223 97.1199 8.69382 96.6436 8.39609C96.1076 8.09836 95.7801 7.8304 95.661 7.62199C95.5419 7.41358 95.4526 7.17539 95.4526 6.90743C95.4526 6.55015 95.6015 6.22265 95.8694 5.98446C96.1672 5.71651 96.5245 5.59741 97.0008 5.59741C97.2986 5.59741 97.6261 5.65696 97.9238 5.74628V6.13333C97.6261 5.98446 97.2986 5.92492 96.9413 5.92492C96.584 5.92492 96.316 6.01424 96.1076 6.19288C95.8992 6.37151 95.8099 6.6097 95.8099 6.87766C95.8099 7.14562 95.8694 7.35403 96.0183 7.50289C96.1672 7.65176 96.4649 7.86017 96.9413 8.12813C97.4177 8.39609 97.7452 8.63427 97.894 8.84269C98.0429 9.0511 98.1322 9.28928 98.1322 9.58702C98.1322 9.97407 97.9833 10.3016 97.7154 10.5695C97.4474 10.8077 97.0604 10.9566 96.5542 10.9566C96.3756 10.9566 96.1672 10.9268 95.929 10.8673C95.6908 10.8077 95.5419 10.7482 95.4229 10.6588Z" fill="#1D1D1B"/>
<path d="M101.615 8.78318V10.8375H101.258V5.68677H102.508C103.044 5.68677 103.431 5.80586 103.729 6.04405C103.997 6.28223 104.146 6.63951 104.146 7.11588C104.146 7.59225 103.997 7.9793 103.669 8.30681C103.342 8.60454 102.925 8.78318 102.359 8.78318H101.615ZM101.615 6.01427V8.45567H102.359C102.836 8.45567 103.163 8.33658 103.431 8.12817C103.669 7.91975 103.789 7.59225 103.789 7.17543C103.789 6.40132 103.342 6.01427 102.449 6.01427H101.615Z" fill="#1D1D1B"/>
<path d="M107.391 10.9268C106.677 10.9268 106.081 10.6886 105.634 10.2123C105.188 9.73589 104.979 9.11066 104.979 8.33655C104.979 7.50291 105.188 6.8479 105.634 6.37153C106.081 5.86538 106.677 5.6272 107.451 5.6272C108.135 5.6272 108.701 5.86538 109.148 6.34175C109.565 6.81812 109.803 7.44336 109.803 8.21746C109.803 9.08088 109.594 9.73589 109.148 10.242C108.731 10.6886 108.135 10.9268 107.391 10.9268ZM107.421 5.92493C106.825 5.92493 106.319 6.13334 105.932 6.57994C105.545 7.02654 105.337 7.59223 105.337 8.27701C105.337 8.99156 105.515 9.55725 105.873 9.97408C106.23 10.3909 106.736 10.5993 107.332 10.5993C107.957 10.5993 108.463 10.3909 108.85 9.97408C109.207 9.55725 109.416 8.99156 109.416 8.24724C109.416 7.53268 109.237 6.93722 108.88 6.55017C108.552 6.13334 108.046 5.92493 107.421 5.92493Z" fill="#1D1D1B"/>
<path d="M115.103 10.8375H114.805L113.673 6.96703C113.614 6.75861 113.584 6.60975 113.584 6.49065H113.554C113.554 6.60975 113.525 6.75861 113.435 6.96703L112.215 10.8673H111.917L110.398 5.71655H110.785L111.947 9.85502C112.006 10.0337 112.036 10.1825 112.066 10.3016C112.066 10.2123 112.125 10.0634 112.185 9.85502L113.465 5.71655H113.644L114.805 9.85502C114.864 10.0337 114.894 10.2123 114.924 10.3016C114.924 10.2421 114.954 10.1528 114.984 10.0634L116.204 5.71655H116.591L115.103 10.8375Z" fill="#1D1D1B"/>
<path d="M117.484 10.8375V5.68677H119.896V6.01427H117.842V8.06862H119.747V8.39613H117.842V10.51H120.015V10.8375H117.484Z" fill="#1D1D1B"/>
<path d="M123.797 10.8375L123.112 9.31909C122.963 9.02136 122.814 8.81295 122.695 8.69386C122.546 8.57476 122.368 8.54499 122.159 8.54499H121.534V10.8375H121.177V5.68677H122.606C123.052 5.68677 123.41 5.80586 123.678 6.04405C123.946 6.28223 124.065 6.60974 124.065 7.02656C124.065 7.41361 123.946 7.71134 123.737 7.94953C123.529 8.18771 123.231 8.36635 122.844 8.4259C123.052 8.51522 123.261 8.7534 123.44 9.17023L124.214 10.8078H123.797V10.8375ZM121.504 6.01427V8.21749H122.397C122.785 8.21749 123.112 8.12817 123.35 7.91975C123.588 7.71134 123.707 7.44338 123.707 7.05633C123.707 6.72883 123.588 6.46087 123.38 6.28223C123.172 6.10359 122.874 6.01427 122.487 6.01427H121.504Z" fill="#1D1D1B"/>
<path d="M43.7372 46.6842L34.2396 39.8364C39.1521 36.3529 41.534 30.1006 41.534 23.4314C41.534 17.9531 39.9262 13.2192 37.0085 9.88458C36.4725 9.28911 35.5496 9.19979 34.9243 9.73571C34.3289 10.2716 34.2693 11.1648 34.7755 11.7901C37.2467 14.7674 38.4971 18.9952 38.4971 23.4909C38.4971 32.2442 34.4777 40.0448 24.9503 40.0448C16.0779 40.0448 11.4035 32.0358 11.4035 23.5505C11.4035 18.757 12.7731 14.1421 15.7504 11.0755C16.2566 10.5396 16.2566 9.70594 15.7504 9.19979C15.1847 8.6341 14.2915 8.6341 13.6961 9.17002C10.1828 12.6535 8.33691 17.8936 8.33691 23.6993C8.33691 34.2986 14.4106 42.6946 24.8015 42.6946C27.094 42.7244 29.3568 42.2778 31.4707 41.4144L41.8913 48.8576L43.7372 46.6842Z" fill="#39AA35"/>
</g>
<defs>
<clipPath id="clip0_503_511">
<rect width="126" height="48.828" fill="white"/>
</clipPath>
</defs>
</svg>
