<svg width="42" height="42" viewBox="0 0 42 42" fill="none" xmlns="http://www.w3.org/2000/svg">
<g clip-path="url(#clip0_124_479)">
<path d="M23.6229 9.0419C24.4472 10.2461 25.8315 11.0382 27.3977 11.0382C28.9659 11.0382 30.3518 10.2443 31.1756 9.03755C33.0649 8.01896 33.0424 6.28612 33.0322 5.54097C32.9902 2.46679 30.6924 0.138351 27.5687 0.00449052C25.9202 -0.0670894 24.9665 0.7365 24.6745 1.03033C24.4193 1.08817 23.8519 1.26111 23.2843 1.73401C22.6092 2.29633 21.7955 3.41021 21.7522 5.52271C21.7369 6.27102 21.7026 8.01214 23.6229 9.0419ZM27.3977 10.3131C25.2769 10.3131 23.5513 8.58759 23.5513 6.46665V5.39516C24.5458 5.01815 25.1587 3.9698 25.4598 3.30075C26.2796 4.16355 28.2948 5.90723 31.2441 5.99758V6.46656C31.2441 8.58759 29.5187 10.3131 27.3977 10.3131ZM22.4772 5.53764C22.5477 2.0931 24.8112 1.73674 24.9054 1.7236C24.9957 1.712 25.0799 1.66508 25.1385 1.59546C25.1706 1.55724 25.9414 0.661166 27.5377 0.729077C30.2647 0.845874 32.2705 2.87374 32.307 5.55095C32.3138 6.04109 32.3238 6.81704 31.846 7.51774C31.9259 7.17997 31.9693 6.82847 31.9693 6.46673V5.96908C32.1112 5.91448 32.2095 5.77525 32.202 5.61494C32.1925 5.41496 32.0242 5.26122 31.8226 5.27001C27.9999 5.45361 25.6517 2.42285 25.6287 2.39256L25.6278 2.39316C25.5834 2.33446 25.5216 2.28831 25.4459 2.26502C25.2549 2.20615 25.0519 2.31382 24.9928 2.50501C24.9862 2.52668 24.3106 4.66938 22.9267 4.80504C22.7275 4.82457 22.5816 5.00195 22.6013 5.20124C22.6148 5.34014 22.7053 5.45258 22.8262 5.50172V6.46673C22.8262 6.83888 22.8719 7.20045 22.9562 7.547C22.5302 6.941 22.4629 6.23553 22.4772 5.53764Z" fill="black"/>
<path d="M27.5242 7.43188H27.0641C26.1877 7.43188 25.4746 8.14487 25.4746 9.0214V9.49678C25.4746 9.6971 25.6369 9.85937 25.8372 9.85937C26.0375 9.85937 26.1998 9.6971 26.1998 9.49678V9.0214C26.1998 8.54483 26.5876 8.15707 27.0641 8.15707H27.5242C28.0008 8.15707 28.3886 8.54483 28.3886 9.0214V9.49678C28.3886 9.6971 28.5508 9.85937 28.7512 9.85937C28.9515 9.85937 29.1138 9.6971 29.1138 9.49678V9.0214C29.1138 8.14495 28.4007 7.43188 27.5242 7.43188Z" fill="black"/>
<path d="M27.7213 8.83667H26.8665C26.6662 8.83667 26.5039 8.99894 26.5039 9.19926C26.5039 9.39958 26.6662 9.56185 26.8665 9.56185H27.7213C27.9216 9.56185 28.0839 9.39958 28.0839 9.19926C28.0839 8.99894 27.9216 8.83667 27.7213 8.83667Z" fill="black"/>
<path d="M6.57048 17.0737C5.86944 17.0737 5.25934 17.3962 4.79753 17.8555C4.79497 17.858 4.7919 17.8596 4.78925 17.8621C4.02721 18.6222 1.73768 20.899 1.73768 20.899C1.59973 21.0363 1.59478 21.2581 1.72642 21.4014L4.16261 24.0531C4.16338 24.0539 4.16432 24.0544 4.165 24.0552V30.5648C4.165 30.7651 4.32727 30.9274 4.52759 30.9274H15.7947C15.9951 30.9274 16.1573 30.7651 16.1573 30.5648V23.9086L18.5293 21.4055C18.6638 21.2635 18.6615 21.0404 18.5239 20.9013C18.5239 20.9013 16.3031 18.7203 15.6079 17.9509C15.1427 17.4359 14.4981 17.0738 13.7516 17.0738H10.4933V15.7454C11.1216 15.6204 11.6359 15.1767 11.8618 14.591C12.2337 14.986 12.7608 15.2333 13.3449 15.2333H21.4036V24.6493C21.4036 24.8496 21.5658 25.0119 21.7661 25.0119H21.9814V39.351C21.9814 40.8117 23.1699 42.0002 24.6307 42.0002C26.0915 42.0002 27.28 40.8117 27.28 39.351V29.7863H27.5195V39.3509C27.5195 40.8117 28.708 42.0001 30.1688 42.0001C31.6296 42.0001 32.8181 40.8117 32.8181 39.3509V25.0118H33.0334C33.2337 25.0118 33.396 24.8495 33.396 24.6492V18.3649L36.8924 21.8438C37.2895 22.2411 37.8114 22.4397 38.3331 22.4397C38.8549 22.4397 39.3767 22.2411 39.7739 21.8438C40.5683 21.0494 40.5683 19.7568 39.7739 18.9623C39.7739 18.9623 34.5604 13.8117 32.846 12.0344C32.3645 11.5352 31.7366 11.1582 30.9904 11.1582H28.9708C28.7855 11.1582 28.6301 11.2979 28.6103 11.4821C28.5539 12.0068 28.0222 12.4178 27.3997 12.4178C26.7773 12.4178 26.2457 12.0068 26.1893 11.4821C26.1694 11.2979 26.0139 11.1582 25.8287 11.1582H13.3449C12.437 11.1582 11.6662 11.7552 11.4036 12.577C11.0711 12.2629 10.6232 12.0697 10.1307 12.0697C9.10751 12.0697 8.27508 12.9021 8.27508 13.9253C8.27508 14.1257 8.43736 14.2879 8.63768 14.2879C8.838 14.2879 9.00027 14.1257 9.00027 13.9253C9.00027 13.302 9.50739 12.7949 10.1307 12.7949C10.754 12.7949 11.2611 13.302 11.2611 13.9253C11.2611 14.5487 10.754 15.0558 10.1307 15.0558C9.93038 15.0558 9.76811 15.218 9.76811 15.4184V17.0738H6.57048V17.0737ZM11.2235 17.7989C11.0141 18.1172 10.6119 18.3333 10.1611 18.3333C9.71035 18.3333 9.30817 18.1172 9.09864 17.7989H11.2235ZM2.49614 21.1673L4.165 19.5065V22.9837L2.49614 21.1673ZM16.1573 22.8543V19.5383L17.7615 21.1614L16.1573 22.8543ZM15.4321 19.4792V30.2022H4.89018V28.3943H9.37668C9.577 28.3943 9.73927 28.232 9.73927 28.0317C9.73927 27.8314 9.577 27.6691 9.37668 27.6691H4.89018V26.7013H6.54753C6.74785 26.7013 6.91012 26.539 6.91012 26.3387C6.91012 26.1384 6.74785 25.9761 6.54753 25.9761H4.89018V19.4793C4.89018 18.5528 5.64395 17.799 6.57048 17.799H8.29812C8.53462 18.5359 9.28113 19.0586 10.1611 19.0586C11.041 19.0586 11.7875 18.5359 12.024 17.799H13.7517C14.6783 17.7989 15.4321 18.5527 15.4321 19.4792ZM33.396 13.6098L35.0653 15.2793L33.396 16.9487V13.6098ZM27.3997 13.1429C28.2798 13.1429 29.0263 12.6202 29.2627 11.8833H30.9903C31.9169 11.8833 32.6708 12.6371 32.6708 13.5636V24.2866H22.1287V22.4787H26.6152C26.8156 22.4787 26.9778 22.3164 26.9778 22.1161C26.9778 21.9158 26.8156 21.7535 26.6152 21.7535H22.1287V13.5636C22.1287 12.6371 22.8825 11.8833 23.809 11.8833H25.5367C25.7733 12.6202 26.5198 13.1429 27.3997 13.1429ZM12.0326 13.1957C12.0326 12.4721 12.6212 11.8833 13.345 11.8833H18.5653V14.508H13.345C12.6212 14.508 12.0326 13.9193 12.0326 13.1957ZM19.2904 14.508V11.8833H22.09C21.6657 12.3172 21.4036 12.9102 21.4036 13.5636V14.508H19.2904V14.508ZM32.0929 26.7161L30.8157 25.4389C30.6742 25.2972 30.4444 25.2972 30.3029 25.4389C30.1613 25.5804 30.1613 25.8101 30.3029 25.9516L32.0929 27.7415V37.1956H31.477C31.2766 37.1956 31.1144 37.3579 31.1144 37.5582C31.1144 37.7585 31.2766 37.9208 31.477 37.9208H32.0929V38.5339H29.5101C29.3098 38.5339 29.1475 38.6962 29.1475 38.8965C29.1475 39.0968 29.3098 39.2591 29.5101 39.2591H32.0929V39.3509C32.0929 40.4119 31.2297 41.2749 30.1687 41.2749C29.1077 41.2749 28.2446 40.4119 28.2446 39.3509V29.4237C28.2446 29.2234 28.0823 29.0611 27.882 29.0611H26.9173C26.717 29.0611 26.5548 29.2234 26.5548 29.4237V39.3509C26.5548 40.4119 25.6916 41.2749 24.6306 41.2749C23.5696 41.2749 22.7065 40.4119 22.7065 39.3509V39.2591H25.2988C25.4991 39.2591 25.6614 39.0968 25.6614 38.8965C25.6614 38.6962 25.4991 38.5339 25.2988 38.5339H22.7065V27.7206L24.4755 25.9516C24.6171 25.8101 24.6171 25.5805 24.4755 25.4389C24.3341 25.2972 24.1042 25.2972 23.9628 25.4389L22.7064 26.6952V25.0119H32.0927V26.7161H32.0929ZM39.2611 21.3311C39.0132 21.5789 38.6836 21.7154 38.3331 21.7154C37.9825 21.7154 37.6529 21.5789 37.4044 21.3304L33.7128 17.6572L35.578 15.792L39.2609 19.475C39.7727 19.9868 39.7727 20.8194 39.2611 21.3311Z" fill="black"/>
<path d="M28.6121 16.9037L29.8385 17.7569C29.9007 17.8001 29.9731 17.8218 30.0455 17.8218C30.1179 17.8218 30.1902 17.8002 30.2524 17.7571L31.4812 16.9039C31.5788 16.8362 31.6369 16.7248 31.6369 16.6061V15.0064C31.6369 14.8061 31.4747 14.6438 31.2744 14.6438H28.8191C28.6188 14.6438 28.4565 14.8061 28.4565 15.0064V16.6061C28.4565 16.7247 28.5146 16.8359 28.6121 16.9037ZM29.1816 15.369H30.9117V16.4163L30.0456 17.0176L29.1816 16.4166V15.369Z" fill="black"/>
<path d="M29.4876 14.4874H31.2744C31.4748 14.4874 31.637 14.3251 31.637 14.1248C31.637 13.9245 31.4748 13.7622 31.2744 13.7622H29.4876C29.2873 13.7622 29.125 13.9245 29.125 14.1248C29.125 14.325 29.2874 14.4874 29.4876 14.4874Z" fill="black"/>
<path d="M14.0361 20.5593H11.5809C11.3805 20.5593 11.2183 20.7216 11.2183 20.9219V22.5216C11.2183 22.6403 11.2764 22.7514 11.3738 22.8193L12.6002 23.6724C12.6624 23.7157 12.7348 23.7373 12.8073 23.7373C12.8796 23.7373 12.9519 23.7158 13.0141 23.6726L14.2429 22.8194C14.3405 22.7517 14.3987 22.6403 14.3987 22.5216V20.9219C14.3987 20.7217 14.2364 20.5593 14.0361 20.5593ZM13.6735 22.3319L12.8074 22.9332L11.9434 22.3322V21.2846H13.6735V22.3319Z" fill="black"/>
<path d="M11.8862 20.0403C11.8862 20.2406 12.0485 20.4029 12.2488 20.4029H14.0357C14.236 20.4029 14.3983 20.2406 14.3983 20.0403C14.3983 19.84 14.236 19.6777 14.0357 19.6777H12.2488C12.0485 19.6777 11.8862 19.8401 11.8862 20.0403Z" fill="black"/>
<path d="M24.0096 30.1282C23.8092 30.1282 23.647 30.2904 23.647 30.4908V35.951C23.647 36.1513 23.8092 36.3136 24.0096 36.3136C24.2099 36.3136 24.3722 36.1513 24.3722 35.951V30.4908C24.3722 30.2904 24.2099 30.1282 24.0096 30.1282Z" fill="black"/>
</g>
<defs>
<clipPath id="clip0_124_479">
<rect width="42" height="42" fill="white"/>
</clipPath>
</defs>
</svg>
