<svg width="105" height="105" viewBox="0 0 105 105" fill="none" xmlns="http://www.w3.org/2000/svg">
<rect width="105" height="105" rx="8" fill="#F9B0ED"/>
<path d="M32.9688 75H51.3438C51.706 75 52 74.706 52 74.3438C52 73.9815 51.706 73.6875 51.3438 73.6875H32.9688C32.6065 73.6875 32.3125 73.3935 32.3125 73.0312V34.9688C32.3125 34.6065 32.6065 34.3125 32.9688 34.3125H60.5312C60.8935 34.3125 61.1875 34.6065 61.1875 34.9688V41.5312C61.1875 41.8935 61.4815 42.1875 61.8438 42.1875C62.206 42.1875 62.5 41.8935 62.5 41.5312V34.9688C62.5 33.8833 61.6167 33 60.5312 33H32.9688C31.8833 33 31 33.8833 31 34.9688V73.0312C31 74.1167 31.8833 75 32.9688 75Z" fill="black"/>
<path d="M54.625 46.7812V73.0312C54.625 74.1167 55.5083 75 56.5938 75H71.0312C72.1167 75 73 74.1167 73 73.0312V46.7812C73 45.6958 72.1167 44.8125 71.0312 44.8125H56.5938C55.5083 44.8125 54.625 45.6958 54.625 46.7812ZM71.6875 46.7812V73.0312C71.6875 73.3935 71.3935 73.6875 71.0312 73.6875H56.5938C56.2315 73.6875 55.9375 73.3935 55.9375 73.0312V46.7812C55.9375 46.419 56.2315 46.125 56.5938 46.125H71.0312C71.3935 46.125 71.6875 46.419 71.6875 46.7812Z" fill="black"/>
<path d="M46.75 71.0625C47.4749 71.0625 48.0625 70.4749 48.0625 69.75C48.0625 69.0251 47.4749 68.4375 46.75 68.4375C46.0251 68.4375 45.4375 69.0251 45.4375 69.75C45.4375 70.4749 46.0251 71.0625 46.75 71.0625Z" fill="black"/>
<path d="M63.8125 71.0625C64.5374 71.0625 65.125 70.4749 65.125 69.75C65.125 69.0251 64.5374 68.4375 63.8125 68.4375C63.0876 68.4375 62.5 69.0251 62.5 69.75C62.5 70.4749 63.0876 71.0625 63.8125 71.0625Z" fill="black"/>
</svg>
