<svg width="32" height="32" viewBox="0 0 32 32" fill="none" xmlns="http://www.w3.org/2000/svg">
<path d="M1.5 32H15.5C15.776 32 16 31.776 16 31.5C16 31.224 15.776 31 15.5 31H1.5C1.224 31 1 30.776 1 30.5V1.5C1 1.224 1.224 1 1.5 1H22.5C22.776 1 23 1.224 23 1.5V6.5C23 6.776 23.224 7 23.5 7C23.776 7 24 6.776 24 6.5V1.5C24 0.673 23.327 0 22.5 0H1.5C0.673 0 0 0.673 0 1.5V30.5C0 31.327 0.673 32 1.5 32Z" fill="black"/>
<path d="M18 10.5V30.5C18 31.327 18.673 32 19.5 32H30.5C31.327 32 32 31.327 32 30.5V10.5C32 9.673 31.327 9 30.5 9H19.5C18.673 9 18 9.673 18 10.5ZM31 10.5V30.5C31 30.776 30.776 31 30.5 31H19.5C19.224 31 19 30.776 19 30.5V10.5C19 10.224 19.224 10 19.5 10H30.5C30.776 10 31 10.224 31 10.5Z" fill="black"/>
<path d="M12 29C12.5523 29 13 28.5523 13 28C13 27.4477 12.5523 27 12 27C11.4477 27 11 27.4477 11 28C11 28.5523 11.4477 29 12 29Z" fill="black"/>
<path d="M25 29C25.5523 29 26 28.5523 26 28C26 27.4477 25.5523 27 25 27C24.4477 27 24 27.4477 24 28C24 28.5523 24.4477 29 25 29Z" fill="black"/>
</svg>
