<svg width="108" height="108" viewBox="0 0 108 108" fill="none" xmlns="http://www.w3.org/2000/svg">
<rect width="108" height="108" rx="8" fill="#F89624" fill-opacity="0.21"/>
<path d="M65.8967 50.0037H51.5921C51.3341 50.0037 51.1621 50.1762 51.1621 50.4062V51.5562C51.1334 51.7574 51.3054 51.9587 51.5347 51.9874H62.2847V57.9387C61.9694 57.5074 61.6541 57.0762 61.2814 56.6737C59.9914 55.4087 58.6727 54.7474 57.2394 54.7474C56.1214 54.7474 55.1754 55.3224 54.4014 56.2999C53.7707 57.1049 53.4267 58.0824 53.3981 59.0599C53.3694 60.2099 53.6561 61.3312 54.2581 62.3374C54.9747 63.4587 56.3507 64.1487 57.8127 64.0912C59.4467 64.0912 60.7654 62.9412 60.7654 61.5037V61.4462C60.7654 60.6412 60.3067 59.8649 59.5614 59.3762L58.7874 58.9449V60.2099C58.6154 60.6987 58.0994 61.0437 57.4974 61.0437C56.9527 61.0437 56.4367 60.8424 56.0641 60.4687C55.8347 60.2099 55.7487 59.8937 55.8061 59.5774C55.8061 59.1749 55.9494 58.7724 56.2361 58.4562C56.4941 58.0537 56.9814 57.8237 57.4974 57.8237C58.9021 57.8237 60.1061 58.4562 61.1381 59.8937C61.9121 60.9862 62.3134 62.2224 62.3421 63.5162V66.4774L64.4347 67.7712C64.4921 67.8287 64.5781 67.8574 64.6354 67.8574C64.8934 67.8574 65.0654 67.6562 65.0654 67.4549V52.1024H65.9254C66.1834 52.1024 66.3554 51.9012 66.3554 51.6999V50.4924C66.4127 50.2624 66.2121 50.0324 65.8967 50.0037Z" fill="#EA272A"/>
<path d="M94.5347 50.0037H76.36C76.102 50.0037 75.93 50.1762 75.93 50.4062V52.4474C74.1527 50.6074 72.6047 49.6874 71.1714 49.6874C69.91 49.6299 68.6487 50.0037 67.7027 50.7512C66.7854 51.4124 66.2407 52.3899 66.212 53.4537C66.212 56.6449 69.7667 56.5587 70.684 56.1562C70.856 56.0412 71.0567 55.9837 71.2574 55.9549C71.974 55.9549 72.2607 56.5299 72.2607 57.0187C72.2607 57.7374 71.2 58.3699 69.91 58.3699C69.3367 58.4274 68.792 58.1687 68.5054 57.7374L67.9607 56.8749L67.6167 57.8524C67.502 58.1112 67.416 58.3987 67.416 58.6862C67.4447 59.4624 67.8174 60.2099 68.4767 60.7562C69.0787 61.3024 69.8814 61.6187 70.7414 61.6187C72.0314 61.6474 73.2354 61.0724 73.9234 60.1237C74.554 59.3187 74.8694 58.3412 74.8407 57.3637C74.812 56.6737 74.554 56.0124 74.124 55.4374C73.5507 54.6037 72.8627 54.1724 72.06 54.1724C71.716 54.1724 71.372 54.2587 71.0567 54.4024C70.8847 54.4599 70.7414 54.5174 70.5694 54.5462C70.3687 54.5462 70.168 54.4312 70.082 54.2587C69.8814 54.0574 69.7954 53.7987 69.7954 53.5399C69.7954 52.6487 70.598 51.9587 71.6014 51.9587H71.7734H71.8307C72.8054 52.0162 73.7227 52.4762 74.296 53.1662C74.898 53.7699 75.4427 54.4312 75.844 55.1499V66.4487L77.9654 67.7137C78.0227 67.7712 78.1087 67.7999 78.166 67.7712C78.424 67.7712 78.596 67.5699 78.596 67.3687V52.0449H81.864V61.9062L84.4154 62.9699H84.5587C84.8167 62.9699 84.9887 62.7974 84.9887 62.5674V62.5099C85.4187 59.6062 86.68 57.6224 88.8014 56.4149V56.9899C88.8014 57.4212 88.8014 58.4849 88.8874 59.0599C88.8587 59.3187 88.8874 59.5774 88.9734 59.8362C88.9734 61.2162 89.1454 62.5962 89.4607 63.9474C90.1774 66.3624 91.3814 66.9087 92.2127 66.9087H92.2987C93.1014 66.9662 93.7894 66.4487 93.8467 65.7587C93.8467 65.7012 93.8467 65.6149 93.8467 65.5574C93.8467 65.1837 93.7894 64.8387 93.646 64.4937L93.4454 64.1487L93.0154 64.2062C92.5854 64.3499 92.3847 64.3499 92.3847 64.2924H92.3274C92.184 64.2924 92.184 64.2924 92.1267 64.2062C91.7827 63.9187 91.5534 63.5449 91.496 63.1424C91.3527 62.5674 91.2954 61.9637 91.2954 61.3599C91.2954 58.1687 91.926 55.7537 92.9867 55.2649H93.0727C93.2447 55.1787 93.3594 55.0062 93.3594 54.8337C93.3594 54.7474 93.3307 54.6899 93.2734 54.6324V54.5462C92.6714 53.5112 91.582 52.7349 90.292 52.5049H90.034C88.8874 52.7062 87.5687 53.4824 85.8487 54.9199C85.4187 55.2649 84.9887 55.6387 84.6447 55.9837V52.0449H94.5634C94.8214 52.0449 94.9934 51.8437 94.9934 51.6424V50.4924C95.0507 50.2912 94.936 50.0612 94.7067 50.0037C94.6494 50.0037 94.592 50.0037 94.5347 50.0037Z" fill="#EA272A"/>
<path d="M46.4607 55.2362C46.4894 55.6962 46.4607 56.1274 46.4034 56.5874C46.26 58.4849 45.8014 60.3537 44.9987 62.1074C44.712 62.7974 44.368 63.4587 43.938 64.0912C40.9567 68.7774 35.7107 71.8824 29.748 71.8824C27.2827 71.8824 24.846 71.3362 22.6674 70.3299C16.9627 67.6849 13.0067 61.8774 13.0067 55.2362C13.0067 48.5949 16.848 42.9887 22.2947 40.3149C21.836 40.8899 21.4347 41.4649 21.0907 42.0974C21.0907 42.1837 21.0047 42.1837 21.0047 42.2412C20.804 42.4424 20.5747 42.5862 20.374 42.8162C20.1447 43.0749 19.8867 43.3049 19.6 43.5062L19.3134 43.7937C19.2274 43.9087 19.1414 43.9949 19.0267 44.0812C18.8834 44.2824 18.6827 44.5124 18.5394 44.7137C17.8227 45.6337 17.2494 46.6399 16.848 47.6749C16.762 47.7324 16.762 47.8762 16.7047 47.9624C16.6187 48.0199 16.6474 48.2499 16.5614 48.3074C16.504 48.3649 16.4754 48.4512 16.4754 48.5087C16.418 48.7099 16.332 48.8537 16.2747 49.0837C16.1887 49.2849 16.1887 49.3712 16.1314 49.4287C16.074 49.4862 16.0454 49.5724 16.0454 49.6299C16.0454 49.6874 15.9594 49.9174 15.9594 50.0612L15.7587 51.3549C15.7587 51.4699 15.7587 51.5849 15.7014 51.6999V53.4249C15.7014 57.9674 17.7654 62.0787 21.0907 64.6949C23.5847 66.7937 26.8527 67.9724 30.3214 68.0299C33.446 68.0299 36.4274 67.0524 38.8067 65.2699C40.6127 63.9474 42.046 62.3087 43.0494 60.4399C43.1927 60.1524 43.336 59.9512 43.4794 59.6637C44.368 57.8524 44.8267 55.8974 44.8267 53.9137V53.4249C44.8267 52.9649 44.8267 52.4762 44.7407 52.0162L44.8267 52.1024C45.0274 52.3037 45.2567 52.4474 45.4287 52.6774C45.6294 52.3324 45.8587 52.0449 46.0307 51.6712C46.174 52.3324 46.26 52.9937 46.3174 53.6549C46.4034 54.1724 46.432 54.6899 46.4607 55.2362Z" fill="#EA272A"/>
<path d="M31.726 41.8387L28.6013 36.1174C23.4413 38.4462 19.8867 43.6212 19.8867 49.6587C19.858 52.5337 20.718 55.3799 22.352 57.8812C22.2373 57.0762 22.18 56.2712 22.2087 55.4662C22.2947 49.3137 26.1933 44.0524 31.726 41.8387Z" fill="#F89624"/>
<path d="M34.1913 44.6849C36.3413 44.1386 38.5773 44.0524 40.7847 44.3974L40.6987 41.8386L40.5553 36.7211C39.9533 36.6349 39.3513 36.5774 38.7493 36.5774C35.9687 36.6061 33.3027 37.4399 31.1527 38.9924L32.844 42.1261C29.7193 43.2761 27.1967 45.4036 25.7633 48.0774C24.932 49.4861 24.416 51.0386 24.2153 52.6199C24.6167 51.8149 25.1327 51.0386 25.706 50.3199C27.684 47.6174 30.694 45.6336 34.1913 44.6849Z" fill="#EA272A"/>
<path d="M41.6447 41.7812L41.788 45.4037C40.584 45.03 39.294 44.8287 38.0327 44.8287C35.5673 44.8575 33.188 45.5187 31.1527 46.755C28.458 48.4512 26.5087 50.895 25.62 53.6838C26.566 52.3325 27.8273 51.1538 29.2607 50.205C31.3247 48.825 33.8473 48.0775 36.4273 48.0775C38.348 48.0775 40.2687 48.5087 41.96 49.3138C43.25 49.8888 44.4253 50.6938 45.3713 51.6425L47.3493 48.6525L49.9007 44.7425C47.6933 42.9025 44.7407 41.81 41.6447 41.7812Z" fill="#F89624"/>
<path d="M44.8267 53.5687V54.0287C44.798 55.9837 44.3394 57.9387 43.4794 59.75C43.336 60.0375 43.1927 60.2387 43.0494 60.5262C42.046 62.3949 40.6127 64.0337 38.8067 65.3562C36.4274 67.11 33.4174 68.0875 30.3214 68.1162C26.8814 68.1162 23.556 66.9087 21.0907 64.7812C17.622 61.82 15.6727 57.7662 15.7014 53.5112V51.815C15.7014 51.7 15.7014 51.585 15.7587 51.4699L15.9594 50.205C15.9594 50.0612 16.0454 49.9175 16.0454 49.7737C16.0454 49.63 16.1314 49.63 16.1314 49.5725C16.1314 49.4575 16.1887 49.3137 16.2747 49.2275C16.3607 49.0262 16.418 48.7962 16.4754 48.6525C16.5327 48.5087 16.5614 48.5087 16.5614 48.4512C16.59 48.3362 16.6187 48.1925 16.7047 48.1062C16.762 48.0487 16.7907 47.905 16.848 47.8187C17.3067 46.7837 17.8514 45.7775 18.5394 44.8575C18.6827 44.6562 18.8834 44.4262 19.0267 44.225C19.1127 44.1675 19.17 44.0237 19.3134 43.9375C19.4567 43.88 19.3994 43.7937 19.4567 43.7937C19.5427 43.7937 19.514 43.65 19.6 43.65C19.8294 43.3912 20.0874 43.1325 20.374 42.9312C20.5747 42.73 20.804 42.5862 21.0047 42.3562C21.0047 42.4137 20.9187 42.4137 20.9187 42.5C20.9187 42.5575 20.89 42.5862 20.8614 42.6437C19.9727 44.5125 19.3994 46.4962 19.2274 48.5375C19.1414 49.1412 19.1127 49.745 19.1127 50.3487C19.1127 57.9675 23.5847 64.1199 29.1174 64.1199H29.6907C30.4934 64.0912 31.2674 64.0049 32.0414 63.8324C35.7967 62.8262 38.5774 59.3762 38.5774 55.3512V55.15C38.5487 52.9075 37.6027 50.7225 35.8827 49.055C37.0007 49.0837 38.1474 49.2275 39.208 49.5437C41.272 50.09 43.164 51.0387 44.7407 52.3037L44.8267 52.3612C44.798 52.7637 44.798 53.1662 44.8267 53.5687Z" fill="#F89624"/>
<path d="M44.8267 53.5686V54.0286C44.7694 56.0411 44.3107 58.0249 43.422 59.8649C43.2787 60.1524 43.1354 60.3536 42.992 60.6411C41.96 62.5099 40.4694 64.1486 38.6634 65.4711C36.284 67.2536 33.2454 68.2599 30.0921 68.2311C26.6234 68.2024 23.2981 66.9949 20.8041 64.8961C17.3067 61.9349 15.3574 57.8236 15.4147 53.5686C15.3287 49.2849 17.2781 45.1736 20.8041 42.2124L20.9474 42.0686C20.9474 42.1549 20.89 42.1549 20.89 42.2124C20.89 42.2699 20.8041 42.2699 20.8041 42.3561C17.3641 45.2886 15.4721 49.3424 15.5581 53.5686C15.4721 57.7949 17.4214 61.8774 20.89 64.8386C23.384 66.9086 26.6807 68.0874 30.1207 68.0874C33.2454 68.0874 36.2554 67.1099 38.6061 65.3274C40.4121 64.0049 41.8454 62.3661 42.8487 60.4974C42.992 60.2386 43.1067 59.9799 43.2214 59.7211C44.1101 57.9099 44.5974 55.9549 44.6261 53.9711V53.4824C44.6261 53.0224 44.626 52.5336 44.54 52.0736V51.9874L44.6834 52.1311C44.7694 52.6199 44.8267 53.0799 44.8267 53.5686Z" fill="#F89624"/>
</svg>
