<svg width="108" height="108" viewBox="0 0 108 108" fill="none" xmlns="http://www.w3.org/2000/svg">
<rect width="108" height="108" rx="8" fill="#F89624" fill-opacity="0.21"/>
<path d="M65.897 50.0037H51.5923C51.3343 50.0037 51.1623 50.1762 51.1623 50.4062V51.5562C51.1336 51.7574 51.3056 51.9587 51.535 51.9874H62.285V57.9387C61.9696 57.5074 61.6543 57.0762 61.2816 56.6737C59.9916 55.4087 58.673 54.7474 57.2396 54.7474C56.1216 54.7474 55.1756 55.3224 54.4016 56.2999C53.771 57.1049 53.427 58.0824 53.3983 59.0599C53.3696 60.2099 53.6563 61.3312 54.2583 62.3374C54.975 63.4587 56.351 64.1487 57.813 64.0912C59.447 64.0912 60.7656 62.9412 60.7656 61.5037V61.4462C60.7656 60.6412 60.307 59.8649 59.5616 59.3762L58.7876 58.9449V60.2099C58.6156 60.6987 58.0996 61.0437 57.4976 61.0437C56.953 61.0437 56.437 60.8424 56.0643 60.4687C55.835 60.2099 55.749 59.8937 55.8063 59.5774C55.8063 59.1749 55.9496 58.7724 56.2363 58.4562C56.4943 58.0537 56.9816 57.8237 57.4976 57.8237C58.9023 57.8237 60.1063 58.4562 61.1383 59.8937C61.9123 60.9862 62.3136 62.2224 62.3423 63.5162V66.4774L64.435 67.7712C64.4923 67.8287 64.5783 67.8574 64.6356 67.8574C64.8936 67.8574 65.0656 67.6562 65.0656 67.4549V52.1024H65.9256C66.1836 52.1024 66.3556 51.9012 66.3556 51.6999V50.4924C66.413 50.2624 66.2123 50.0324 65.897 50.0037Z" fill="#EA272A"/>
<path d="M94.5346 50.0037H76.3599C76.1019 50.0037 75.9299 50.1762 75.9299 50.4062V52.4474C74.1526 50.6074 72.6046 49.6874 71.1712 49.6874C69.9099 49.6299 68.6486 50.0037 67.7026 50.7512C66.7852 51.4124 66.2406 52.3899 66.2119 53.4537C66.2119 56.6449 69.7666 56.5587 70.6839 56.1562C70.8559 56.0412 71.0566 55.9837 71.2572 55.9549C71.9739 55.9549 72.2606 56.5299 72.2606 57.0187C72.2606 57.7374 71.1999 58.3699 69.9099 58.3699C69.3366 58.4274 68.7919 58.1687 68.5052 57.7374L67.9606 56.8749L67.6166 57.8524C67.5019 58.1112 67.4159 58.3987 67.4159 58.6862C67.4446 59.4624 67.8172 60.2099 68.4766 60.7562C69.0786 61.3024 69.8812 61.6187 70.7412 61.6187C72.0312 61.6474 73.2352 61.0724 73.9232 60.1237C74.5539 59.3187 74.8692 58.3412 74.8406 57.3637C74.8119 56.6737 74.5539 56.0124 74.1239 55.4374C73.5506 54.6037 72.8626 54.1724 72.0599 54.1724C71.7159 54.1724 71.3719 54.2587 71.0566 54.4024C70.8846 54.4599 70.7412 54.5174 70.5692 54.5462C70.3686 54.5462 70.1679 54.4312 70.0819 54.2587C69.8812 54.0574 69.7952 53.7987 69.7952 53.5399C69.7952 52.6487 70.5979 51.9587 71.6012 51.9587H71.7732H71.8306C72.8052 52.0162 73.7226 52.4762 74.2959 53.1662C74.8979 53.7699 75.4426 54.4312 75.8439 55.1499V66.4487L77.9652 67.7137C78.0226 67.7712 78.1086 67.7999 78.1659 67.7712C78.4239 67.7712 78.5959 67.5699 78.5959 67.3687V52.0449H81.8639V61.9062L84.4152 62.9699H84.5586C84.8166 62.9699 84.9886 62.7974 84.9886 62.5674V62.5099C85.4186 59.6062 86.6799 57.6224 88.8012 56.4149V56.9899C88.8012 57.4212 88.8012 58.4849 88.8872 59.0599C88.8586 59.3187 88.8872 59.5774 88.9732 59.8362C88.9732 61.2162 89.1452 62.5962 89.4606 63.9474C90.1772 66.3624 91.3812 66.9087 92.2126 66.9087H92.2986C93.1012 66.9662 93.7892 66.4487 93.8466 65.7587C93.8466 65.7012 93.8466 65.6149 93.8466 65.5574C93.8466 65.1837 93.7892 64.8387 93.6459 64.4937L93.4452 64.1487L93.0152 64.2062C92.5852 64.3499 92.3846 64.3499 92.3846 64.2924H92.3272C92.1839 64.2924 92.1839 64.2924 92.1266 64.2062C91.7826 63.9187 91.5532 63.5449 91.4959 63.1424C91.3526 62.5674 91.2952 61.9637 91.2952 61.3599C91.2952 58.1687 91.9259 55.7537 92.9866 55.2649H93.0726C93.2446 55.1787 93.3592 55.0062 93.3592 54.8337C93.3592 54.7474 93.3306 54.6899 93.2732 54.6324V54.5462C92.6712 53.5112 91.5819 52.7349 90.2919 52.5049H90.0339C88.8872 52.7062 87.5686 53.4824 85.8486 54.9199C85.4186 55.2649 84.9886 55.6387 84.6446 55.9837V52.0449H94.5632C94.8212 52.0449 94.9932 51.8437 94.9932 51.6424V50.4924C95.0506 50.2912 94.9359 50.0612 94.7066 50.0037C94.6492 50.0037 94.5919 50.0037 94.5346 50.0037Z" fill="#EA272A"/>
<path d="M46.4608 55.2362C46.4895 55.6962 46.4608 56.1274 46.4035 56.5874C46.2602 58.4849 45.8015 60.3537 44.9988 62.1074C44.7122 62.7974 44.3682 63.4587 43.9382 64.0912C40.9568 68.7774 35.7108 71.8824 29.7482 71.8824C27.2828 71.8824 24.8462 71.3362 22.6675 70.3299C16.9628 67.6849 13.0068 61.8774 13.0068 55.2362C13.0068 48.5949 16.8482 42.9887 22.2948 40.3149C21.8362 40.8899 21.4348 41.4649 21.0908 42.0974C21.0908 42.1837 21.0048 42.1837 21.0048 42.2412C20.8042 42.4424 20.5748 42.5862 20.3742 42.8162C20.1448 43.0749 19.8868 43.3049 19.6002 43.5062L19.3135 43.7937C19.2275 43.9087 19.1415 43.9949 19.0268 44.0812C18.8835 44.2824 18.6828 44.5124 18.5395 44.7137C17.8228 45.6337 17.2495 46.6399 16.8482 47.6749C16.7622 47.7324 16.7622 47.8762 16.7048 47.9624C16.6188 48.0199 16.6475 48.2499 16.5615 48.3074C16.5042 48.3649 16.4755 48.4512 16.4755 48.5087C16.4182 48.7099 16.3322 48.8537 16.2748 49.0837C16.1888 49.2849 16.1888 49.3712 16.1315 49.4287C16.0742 49.4862 16.0455 49.5724 16.0455 49.6299C16.0455 49.6874 15.9595 49.9174 15.9595 50.0612L15.7588 51.3549C15.7588 51.4699 15.7588 51.5849 15.7015 51.6999V53.4249C15.7015 57.9674 17.7655 62.0787 21.0908 64.6949C23.5848 66.7937 26.8528 67.9724 30.3215 68.0299C33.4462 68.0299 36.4275 67.0524 38.8068 65.2699C40.6128 63.9474 42.0462 62.3087 43.0495 60.4399C43.1928 60.1524 43.3362 59.9512 43.4795 59.6637C44.3682 57.8524 44.8268 55.8974 44.8268 53.9137V53.4249C44.8268 52.9649 44.8268 52.4762 44.7408 52.0162L44.8268 52.1024C45.0275 52.3037 45.2568 52.4474 45.4288 52.6774C45.6295 52.3324 45.8588 52.0449 46.0308 51.6712C46.1742 52.3324 46.2602 52.9937 46.3175 53.6549C46.4035 54.1724 46.4322 54.6899 46.4608 55.2362Z" fill="#EA272A"/>
<path d="M31.7258 41.8387L28.6011 36.1174C23.4411 38.4462 19.8864 43.6212 19.8864 49.6587C19.8578 52.5337 20.7178 55.3799 22.3518 57.8812C22.2371 57.0762 22.1798 56.2712 22.2084 55.4662C22.2944 49.3137 26.1931 44.0524 31.7258 41.8387Z" fill="#F89624"/>
<path d="M34.1918 44.6849C36.3418 44.1386 38.5778 44.0524 40.7852 44.3974L40.6992 41.8386L40.5558 36.7211C39.9538 36.6349 39.3518 36.5774 38.7498 36.5774C35.9692 36.6061 33.3032 37.4399 31.1532 38.9924L32.8445 42.1261C29.7198 43.2761 27.1972 45.4036 25.7638 48.0774C24.9325 49.4861 24.4165 51.0386 24.2158 52.6199C24.6172 51.8149 25.1332 51.0386 25.7065 50.3199C27.6845 47.6174 30.6945 45.6336 34.1918 44.6849Z" fill="#EA272A"/>
<path d="M41.6448 41.7812L41.7881 45.4037C40.5841 45.03 39.2941 44.8287 38.0328 44.8287C35.5675 44.8575 33.1881 45.5187 31.1528 46.755C28.4581 48.4512 26.5088 50.895 25.6201 53.6838C26.5661 52.3325 27.8275 51.1538 29.2608 50.205C31.3248 48.825 33.8474 48.0775 36.4274 48.0775C38.3481 48.0775 40.2688 48.5087 41.9601 49.3138C43.2501 49.8888 44.4255 50.6938 45.3715 51.6425L47.3495 48.6525L49.9008 44.7425C47.6934 42.9025 44.7408 41.81 41.6448 41.7812Z" fill="#F89624"/>
<path d="M44.8268 53.5687V54.0287C44.7982 55.9837 44.3395 57.9387 43.4795 59.75C43.3362 60.0375 43.1928 60.2387 43.0495 60.5262C42.0462 62.3949 40.6128 64.0337 38.8068 65.3562C36.4275 67.11 33.4175 68.0875 30.3215 68.1162C26.8815 68.1162 23.5562 66.9087 21.0908 64.7812C17.6222 61.82 15.6728 57.7662 15.7015 53.5112V51.815C15.7015 51.7 15.7015 51.585 15.7588 51.4699L15.9595 50.205C15.9595 50.0612 16.0455 49.9175 16.0455 49.7737C16.0455 49.63 16.1315 49.63 16.1315 49.5725C16.1315 49.4575 16.1888 49.3137 16.2748 49.2275C16.3608 49.0262 16.4182 48.7962 16.4755 48.6525C16.5328 48.5087 16.5615 48.5087 16.5615 48.4512C16.5902 48.3362 16.6188 48.1925 16.7048 48.1062C16.7622 48.0487 16.7908 47.905 16.8482 47.8187C17.3068 46.7837 17.8515 45.7775 18.5395 44.8575C18.6828 44.6562 18.8835 44.4262 19.0268 44.225C19.1128 44.1675 19.1702 44.0237 19.3135 43.9375C19.4568 43.88 19.3995 43.7937 19.4568 43.7937C19.5428 43.7937 19.5142 43.65 19.6002 43.65C19.8295 43.3912 20.0875 43.1325 20.3742 42.9312C20.5748 42.73 20.8042 42.5862 21.0048 42.3562C21.0048 42.4137 20.9188 42.4137 20.9188 42.5C20.9188 42.5575 20.8902 42.5862 20.8615 42.6437C19.9728 44.5125 19.3995 46.4962 19.2275 48.5375C19.1415 49.1412 19.1128 49.745 19.1128 50.3487C19.1128 57.9675 23.5848 64.1199 29.1175 64.1199H29.6908C30.4935 64.0912 31.2675 64.0049 32.0415 63.8324C35.7968 62.8262 38.5775 59.3762 38.5775 55.3512V55.15C38.5488 52.9075 37.6028 50.7225 35.8828 49.055C37.0008 49.0837 38.1475 49.2275 39.2082 49.5437C41.2722 50.09 43.1642 51.0387 44.7408 52.3037L44.8268 52.3612C44.7982 52.7637 44.7982 53.1662 44.8268 53.5687Z" fill="#F89624"/>
<path d="M44.8268 53.5686V54.0286C44.7695 56.0411 44.3108 58.0249 43.4222 59.8649C43.2788 60.1524 43.1355 60.3536 42.9922 60.6411C41.9602 62.5099 40.4695 64.1486 38.6635 65.4711C36.2842 67.2536 33.2455 68.2599 30.0922 68.2311C26.6235 68.2024 23.2982 66.9949 20.8042 64.8961C17.3068 61.9349 15.3575 57.8236 15.4148 53.5686C15.3288 49.2849 17.2782 45.1736 20.8042 42.2124L20.9475 42.0686C20.9475 42.1549 20.8902 42.1549 20.8902 42.2124C20.8902 42.2699 20.8042 42.2699 20.8042 42.3561C17.3642 45.2886 15.4722 49.3424 15.5582 53.5686C15.4722 57.7949 17.4215 61.8774 20.8902 64.8386C23.3842 66.9086 26.6808 68.0874 30.1208 68.0874C33.2455 68.0874 36.2555 67.1099 38.6062 65.3274C40.4122 64.0049 41.8455 62.3661 42.8488 60.4974C42.9922 60.2386 43.1068 59.9799 43.2215 59.7211C44.1102 57.9099 44.5975 55.9549 44.6262 53.9711V53.4824C44.6262 53.0224 44.6262 52.5336 44.5402 52.0736V51.9874L44.6835 52.1311C44.7695 52.6199 44.8268 53.0799 44.8268 53.5686Z" fill="#F89624"/>
</svg>
