<svg width="30" height="30" viewBox="0 0 30 30" fill="none" xmlns="http://www.w3.org/2000/svg">
<path d="M17.5062 12.8058C17.2553 12.8058 17.0519 13.0045 17.0519 13.2498V16.5668C17.0519 16.812 17.2553 17.0108 17.5062 17.0108H27.5012C27.7522 17.0108 27.9556 16.812 27.9556 16.5668V13.2498C27.9556 13.0045 27.7522 12.8058 27.5012 12.8058H17.5062ZM23.6341 2.25118C25.017 2.31689 26.0122 2.59041 26.641 3.16917C27.2637 3.74236 27.584 4.5725 27.6467 5.67005V8.81517C27.6467 9.36692 27.189 9.81421 26.6244 9.81421C26.0599 9.81421 25.6022 9.36692 25.6022 8.81517L25.6039 5.72717C25.5704 5.15561 25.4345 4.80335 25.2393 4.62372C25.0503 4.44967 24.475 4.29158 23.5845 4.24808L3.9709 4.24733C3.16431 4.2779 2.64131 4.4306 2.38755 4.64789C2.19239 4.81499 2.04609 5.27419 2.04444 6.06756L2.03989 23.7221C2.11465 24.494 2.2851 25.0076 2.50227 25.2647C2.66695 25.4597 3.1788 25.6555 3.93128 25.7499L23.6054 25.7501C24.5264 25.7686 25.0698 25.6307 25.2521 25.4458C25.4543 25.2407 25.6022 24.7008 25.6022 23.8163V20.7501C25.6022 20.1983 26.0599 19.751 26.6244 19.751C27.189 19.751 27.6467 20.1983 27.6467 20.7501V23.8163C27.6467 25.1684 27.3704 26.177 26.7242 26.8323C26.0581 27.5079 24.999 27.7765 23.5845 27.7479L3.81074 27.741C2.46498 27.5848 1.49859 27.2151 0.925588 26.5367C0.405073 25.9204 0.114383 25.0444 0 23.8163V6.06553C0.00273555 4.75205 0.317575 3.76384 1.04031 3.145C1.70444 2.57635 2.65968 2.29745 3.93128 2.25L23.6341 2.25118ZM27.5012 10.8077C28.8813 10.8077 30 11.901 30 13.2498V16.5668C30 17.9155 28.8813 19.0089 27.5012 19.0089H17.5062C16.1262 19.0089 15.0074 17.9155 15.0074 16.5668V13.2498C15.0074 11.901 16.1262 10.8077 17.5062 10.8077H27.5012ZM20.005 13.7166C19.315 13.7166 18.7556 14.2562 18.7556 14.9218C18.7556 15.5874 19.315 16.127 20.005 16.127C20.695 16.127 21.2543 15.5874 21.2543 14.9218C21.2543 14.2562 20.695 13.7166 20.005 13.7166Z" fill="#5A5A5A"/>
</svg>
