<svg width="108" height="108" viewBox="0 0 108 108" fill="none" xmlns="http://www.w3.org/2000/svg">
<rect width="108" height="108" rx="8" fill="#EB89F4" fill-opacity="0.42"/>
<path fill-rule="evenodd" clip-rule="evenodd" d="M72.8227 35.5507L62.7061 45.6076L63.4223 51.2478L65.2726 47.3682L71.0321 54.6498L79.0896 30L52.2314 41.1014L59.4831 44.8913L72.8227 35.5507Z" fill="#722979"/>
<path d="M64.0488 53.1572H53.4249C45.3078 54.3808 44.4722 66.1088 53.3354 67.6905H64.0488V57.1263C67.6299 57.2456 68.3461 61.6623 65.72 63.3036C66.2571 63.9005 68.3759 66.1983 68.3759 66.1983C73.9565 61.4236 70.7932 53.5452 64.0488 53.1572ZM60.1394 63.7214H54.2008C50.5302 63.9303 49.3365 57.9022 53.8427 57.1263H60.1394V63.7214Z" fill="#722979"/>
<path fill-rule="evenodd" clip-rule="evenodd" d="M86.281 58.4397H82.3717L80.7005 62.3192H85.6543C86.0721 62.2893 86.4302 62.5878 86.4601 63.0056C86.4899 63.4234 86.1915 63.7815 85.7737 63.8113C85.7439 63.8113 85.6842 63.8113 85.6543 63.8113H77.0597V57.1266H90.2799V53.1576H88.3103C87.7433 44.9808 77.8655 44.7719 75.2692 49.1886C75.7765 49.6063 78.1937 51.7252 78.1937 51.7252C79.1785 50.1734 81.2675 49.6959 82.8492 50.6807C83.7146 51.2178 84.2816 52.1429 84.401 53.1576H73.1504V67.6908H85.8334C88.1313 67.6908 90.071 65.9898 90.3694 63.7218C90.6679 61.1553 88.8475 58.8276 86.281 58.4397Z" fill="#722979"/>
<path fill-rule="evenodd" clip-rule="evenodd" d="M48.352 53.1572H43.2191C41.5778 55.1268 38.7427 63.1544 44.3829 69.1826C44.3829 69.1826 46.8002 67.1234 47.3075 66.7057C45.5468 65.0643 42.6819 58.2304 48.352 53.1572Z" fill="#722979"/>
<path fill-rule="evenodd" clip-rule="evenodd" d="M35.2809 69.332C35.2809 71.0927 33.8186 72.5252 32.0579 72.5252C30.2674 72.5252 28.835 71.0927 28.835 69.332C28.835 67.5713 30.2674 66.1389 32.0579 66.1389C33.8186 66.1389 35.2809 67.5713 35.2809 69.332Z" fill="#722979"/>
<path fill-rule="evenodd" clip-rule="evenodd" d="M28.4171 53.1572C20.3 54.3808 19.4644 66.1088 28.3276 67.6905H28.3873C29.2825 65.691 31.6699 64.7957 33.6992 65.691C34.5945 66.079 35.3107 66.7952 35.7285 67.6905H39.0708V53.1572H28.4171ZM35.1316 63.7214H29.193C25.5224 63.9303 24.3287 57.9022 28.8349 57.1263H35.1018L35.1316 63.7214Z" fill="#722979"/>
<path fill-rule="evenodd" clip-rule="evenodd" d="M32.2072 49.7254C33.5202 49.5165 34.1469 46.8307 32.0281 46.2339H28.5664V51.3071H29.9988V49.7254L31.5805 51.3071H33.8187L32.2072 49.7254ZM32.058 47.9349C32.058 48.114 31.9088 48.2632 31.7297 48.2632H30.0287V47.5768H31.7297C31.9088 47.547 32.058 47.6962 32.058 47.9349Z" fill="#722979"/>
<path fill-rule="evenodd" clip-rule="evenodd" d="M36.2652 46.1746C34.8328 46.1746 33.6689 47.3086 33.6689 48.741C33.6689 50.1436 34.8328 51.3074 36.2354 51.3074C37.6678 51.3074 38.8317 50.1734 38.8317 48.741C38.8615 47.3086 37.6977 46.1746 36.2652 46.1746ZM36.2652 49.875C35.6385 49.875 35.1312 49.3677 35.1312 48.741C35.1312 48.1143 35.6385 47.607 36.2652 47.607C36.8919 47.607 37.3992 48.1143 37.3992 48.741C37.4291 49.3677 36.9218 49.875 36.2652 49.875Z" fill="#722979"/>
<path fill-rule="evenodd" clip-rule="evenodd" d="M50.9188 47.6069H53.2465V46.1147H51.2769C49.7847 46.0551 48.5314 47.2189 48.4717 48.6812C48.5314 50.1435 49.7847 51.3073 51.2769 51.2476H53.2465V49.7555H50.9188C50.5905 49.7555 50.2921 49.6063 50.0832 49.3377H53.2465V47.9948H50.0832C50.2921 47.7859 50.5905 47.6367 50.9188 47.6069Z" fill="#722979"/>
<path fill-rule="evenodd" clip-rule="evenodd" d="M41.6973 49.7854C41.1005 49.7854 40.623 49.3079 40.623 48.7409V48.6812C40.623 48.0843 41.1005 47.6367 41.6973 47.6069H43.9056V46.1147H41.936C40.4439 46.0551 39.1905 47.2189 39.1309 48.6812C39.1905 50.1435 40.4439 51.3073 41.936 51.2476H43.9056V49.7555L41.6973 49.7854Z" fill="#722979"/>
<path fill-rule="evenodd" clip-rule="evenodd" d="M58.6473 46.2339H53.6338V47.5469H55.4542V51.1877H56.7971V47.5768H58.6175L58.6473 46.2339Z" fill="#722979"/>
<path d="M46.7401 48.7108L49.217 46.2339H47.2474L45.8449 47.6066V46.2339H44.502V51.2176H45.8449V49.7851L47.2474 51.2176H49.2469L46.7401 48.7108Z" fill="#722979"/>
<path d="M66.8841 70.1679C66.6454 70.2276 66.4066 70.3768 66.2873 70.5857C66.1381 70.7946 66.0485 71.0333 66.0485 71.272C66.0485 71.4212 66.0784 71.5406 66.1381 71.66C66.1977 71.8092 66.3171 71.8987 66.4365 71.8987C66.526 71.8987 66.6155 71.839 66.6752 71.8092L66.8244 72.1673C66.7051 72.227 66.5857 72.2867 66.4663 72.2867C66.2873 72.2867 66.1381 72.227 65.9889 72.1076C65.8695 71.9883 65.78 71.8689 65.7501 71.7197C65.7203 71.5705 65.6904 71.4212 65.6904 71.3019V71.1825C65.7203 70.7946 65.8993 70.4364 66.1679 70.1679C66.2276 70.0783 66.347 69.9888 66.526 69.8396H67.0333V70.1977L66.8841 70.1679Z" fill="#722979"/>
<path d="M69.1226 70.1376V72.2266H68.7048V71.958C68.675 71.8088 68.6153 71.6894 68.4959 71.5999C68.3766 71.4805 68.287 71.391 68.1677 71.3014C68.0483 71.2119 67.8991 71.1821 67.7499 71.1821C67.6007 71.1821 67.4813 71.2418 67.4216 71.391C67.4216 71.4208 67.4216 71.4208 67.4216 71.4507C67.4216 71.5103 67.4515 71.57 67.5111 71.5999C67.5708 71.6297 67.6305 71.6596 67.6902 71.6596C67.8096 71.6297 67.8991 71.5999 68.0185 71.57L68.1378 71.958C67.9886 72.0475 67.8394 72.0773 67.6603 72.1072C67.5111 72.1072 67.3918 72.0773 67.2724 71.9878C67.153 71.8983 67.0635 71.8088 67.0337 71.6894C67.0038 71.6297 67.0038 71.57 67.0038 71.4805C67.0038 71.2716 67.1232 71.0627 67.3022 70.9433C67.4216 70.8538 67.6007 70.824 67.7499 70.824H67.7797C67.7797 70.7344 67.72 70.6449 67.6603 70.5852C67.6007 70.4957 67.541 70.4659 67.4515 70.436H66.974V70.1674H66.7949V69.8093H69.5106V70.1674L69.1226 70.1376ZM68.7048 70.1376H67.72C67.9886 70.2868 68.1378 70.5554 68.1677 70.8538C68.3766 70.9433 68.5855 71.0925 68.7347 71.2716L68.7048 70.1376Z" fill="#722979"/>
<path d="M69.9277 70.1379V72.2269H69.5099V70.1379H69.1816V69.7798H70.1963V70.1379H69.9277Z" fill="#722979"/>
<path d="M71.9866 70.1379H70.0469V69.7798H72.673V70.1379H72.3746V72.2269H72.0165C71.9866 72.1075 71.8076 71.9583 71.4793 71.7195C71.3003 71.6002 71.1212 71.5106 70.9123 71.451C70.7333 71.3614 70.5244 71.3316 70.3155 71.3017L70.1961 70.884C70.4647 70.7347 70.7333 70.5855 71.0018 70.496C71.2107 70.4363 71.539 70.3169 71.9866 70.1379ZM71.9866 70.5855L71.7479 70.6751L71.0317 70.9735L70.9421 71.0033C71.3003 71.1227 71.5987 71.3017 71.8971 71.5106L71.9866 71.6002V70.5855Z" fill="#722979"/>
<path d="M73.2109 70.1379V72.2269H72.7931V70.1379H72.4648V69.7798H73.4795V70.1379H73.2109Z" fill="#722979"/>
<path d="M73.3594 70.1378V69.7797H74.6128C74.6128 69.7797 74.6128 69.7797 74.6128 69.7498C74.6128 69.5708 74.5232 69.4216 74.3442 69.3619H74.2546C74.195 69.3619 74.1353 69.3619 74.1054 69.3619C74.0457 69.3917 73.9861 69.3917 73.9562 69.3917C73.8965 69.3917 73.8369 69.4216 73.7772 69.4514C73.7175 69.5111 73.628 69.5409 73.5384 69.5708L73.4191 69.2724C73.5981 69.153 73.807 69.0635 74.0159 68.9739C74.1054 68.9441 74.2248 68.9441 74.3442 68.9441C74.4635 68.9441 74.5829 68.9739 74.7023 69.0635C74.941 69.2127 75.0604 69.4813 75.0604 69.7498H75.2991V70.1079L73.3594 70.1378ZM74.8216 72.5849C74.6426 72.4357 74.4635 72.2864 74.2845 72.1671C74.1353 72.0775 73.9861 71.988 73.8369 71.9582C73.7473 71.9283 73.628 71.8985 73.5384 71.8686V71.3613H73.6876H73.8369C73.9861 71.3613 74.1651 71.3315 74.3143 71.2718C74.5531 71.1823 74.6724 71.0629 74.6724 70.9435C74.6724 70.854 74.6128 70.7645 74.5531 70.7048L74.3143 70.5556C74.2845 70.5556 74.2546 70.5556 74.2546 70.5556C74.195 70.5556 74.1353 70.5556 74.0756 70.5854C74.0159 70.6153 73.9861 70.6451 73.9861 70.7048C73.9861 70.7346 74.1054 70.854 74.3442 70.854L74.1054 71.2121C74.0159 71.2121 73.8965 71.1823 73.807 71.1226C73.6578 71.0331 73.5384 70.8838 73.5384 70.7048C73.5384 70.5257 73.6578 70.3765 73.807 70.3168C73.9562 70.2273 74.1353 70.1975 74.2845 70.1975C74.3442 70.1975 74.4337 70.1975 74.4934 70.2273L74.6724 70.3168C74.941 70.4362 75.1201 70.7048 75.0902 70.9734C75.0902 71.1823 75.0007 71.3613 74.8216 71.4807C74.6426 71.6001 74.4337 71.6597 74.2248 71.6896C74.3442 71.7493 74.4337 71.809 74.5531 71.8686C74.762 72.0179 74.9709 72.1671 75.1499 72.3461L74.8216 72.5849Z" fill="#722979"/>
<path d="M77.776 70.1376V72.2266H77.3582V71.391C77.3582 71.3014 77.3283 71.2418 77.2687 71.1821C77.2388 71.1224 77.1493 71.0627 77.0598 71.0627C76.9702 71.0627 76.9105 71.1224 76.8807 71.1821C76.821 71.2716 76.7912 71.3611 76.7912 71.4507H76.3435C76.3435 71.3313 76.3137 71.2418 76.254 71.1522C76.2242 71.0925 76.1346 71.0329 76.0451 71.0329C75.9854 71.0329 75.9257 71.0627 75.8661 71.0925C75.8064 71.1224 75.7765 71.1821 75.7765 71.2418V71.3611V71.391C75.7765 71.5999 75.8959 71.7192 76.1645 71.7192C76.2242 71.7192 76.3137 71.7192 76.3734 71.7192L76.2242 72.137H76.075C75.8661 72.137 75.687 72.0475 75.5378 71.9281C75.4483 71.8684 75.4184 71.7789 75.3886 71.6894C75.3587 71.5999 75.3289 71.4805 75.3289 71.391C75.3289 71.1821 75.3886 71.003 75.5378 70.8538C75.687 70.7046 75.8959 70.6449 76.1048 70.6449C76.3137 70.6449 76.5226 70.7643 76.642 70.9433C76.7613 70.7643 76.9404 70.6449 77.1493 70.6449C77.2686 70.6449 77.3582 70.7046 77.4477 70.7643V70.1674H75.1797V69.8093H78.1341V70.1674L77.776 70.1376Z" fill="#722979"/>
<path d="M80.9392 70.1379H79.0293V69.7798H81.6554V70.1379H81.357V72.2269H80.9691C80.9691 72.1075 80.7602 71.9583 80.4319 71.7195C80.2528 71.6002 80.0738 71.5106 79.8649 71.451C79.6858 71.3614 79.4769 71.3316 79.268 71.3017L79.1487 70.884C79.4172 70.7347 79.6858 70.5855 79.9544 70.496C80.1932 70.4363 80.4916 70.3169 80.9392 70.1379ZM80.9392 70.5855L80.7005 70.6751L79.9843 70.9735L79.8947 71.0033C80.2528 71.1227 80.5513 71.3017 80.8497 71.5106L80.9392 71.6002V70.5855Z" fill="#722979"/>
<path d="M82.3718 70.1379C82.2525 70.2573 82.1928 70.4065 82.1629 70.5855C82.2226 70.8243 82.2823 71.0332 82.3718 71.2421C82.4315 71.3913 82.4614 71.5703 82.4912 71.7195C82.4912 71.9583 82.3121 72.1672 82.0734 72.2269C81.9242 72.2865 81.775 72.2865 81.6258 72.3164L81.6855 71.9583C81.9242 71.8986 82.0436 71.8091 82.0436 71.6897C82.0137 71.5106 81.9839 71.3316 81.8944 71.1824C81.8048 71.0332 81.7451 70.8541 81.7451 70.6751C81.7451 70.496 81.8347 70.3169 81.9242 70.1379H81.4766V69.7798H82.7001V70.1379H82.4017H82.3718Z" fill="#722979"/>
<path d="M83.267 70.1379V72.2269H82.879V70.1379H82.5508V69.7798H83.5654V70.1379H83.267Z" fill="#722979"/>
<path d="M84.2522 71.1526C84.0732 71.1526 83.8941 71.0929 83.7748 70.9736C83.6554 70.8542 83.5957 70.6751 83.5957 70.4961C83.5957 70.317 83.6554 70.1678 83.7748 70.0484C83.8941 69.9291 84.0732 69.8694 84.2224 69.8694C84.4611 69.8694 84.67 70.0186 84.7596 70.2573C84.7894 70.3469 84.8192 70.4662 84.8192 70.5558C84.8192 70.7348 84.7596 70.884 84.67 71.0034C84.5805 71.0929 84.4014 71.1526 84.2522 71.1526ZM84.6999 72.4657C84.3716 72.1672 84.0135 71.8987 83.6255 71.6599V71.0631C84.1627 71.4212 84.6402 71.839 85.058 72.3165V72.7343L84.6999 72.4657ZM84.3119 70.2573C84.2821 70.2275 84.2224 70.2275 84.1926 70.2275C84.0433 70.2275 83.9538 70.3469 83.9538 70.4662C83.9538 70.5259 83.9837 70.5856 84.0433 70.6453C84.0732 70.705 84.1627 70.7348 84.2224 70.7348H84.2821C84.4014 70.705 84.4611 70.6154 84.4611 70.5259C84.4313 70.4364 84.4014 70.3469 84.3119 70.2573Z" fill="#722979"/>
<path d="M87.7139 69.5406C87.3558 69.272 86.938 69.1228 86.4904 69.0631C86.192 69.0333 85.8637 69.1825 85.6846 69.4212C85.625 69.5406 85.5951 69.66 85.5951 69.7793H85.8935V70.1375H85.5951V72.2264H85.1773V70.1375H84.8789V69.7793H85.1773C85.1773 69.5108 85.2967 69.2422 85.4758 69.0631C85.6846 68.8542 85.9532 68.7349 86.2218 68.7349H86.4009H86.4605C86.7291 68.7349 86.9679 68.7945 87.2066 68.9139C87.4453 69.0333 87.6542 69.1527 87.893 69.3019L87.7139 69.5406Z" fill="#722979"/>
<path d="M87.3554 70.1379C87.5345 70.1379 87.7434 70.1976 87.8926 70.3169C88.1313 70.4065 88.2805 70.6452 88.3104 70.9138C88.3104 71.063 88.2507 71.1824 88.1612 71.3017C88.0716 71.4211 87.9523 71.4808 87.8031 71.5106C87.6837 71.5405 87.5643 71.5405 87.445 71.5106V71.1227H87.5643C87.7732 71.1227 87.8926 71.0332 87.8926 70.884C87.8926 70.7347 87.7135 70.5855 87.3554 70.5557V72.2269H86.9973C86.9376 72.1373 86.8779 72.0478 86.8183 71.9583C86.8183 71.9583 86.7586 71.8688 86.6691 71.7494C86.6392 71.6897 86.5795 71.6599 86.5198 71.6002C86.4602 71.5703 86.4303 71.5106 86.3706 71.451C86.3408 71.4211 86.3109 71.3913 86.2811 71.3913C86.1319 71.3316 85.9827 71.3017 85.8335 71.3017L85.7141 70.884C85.923 70.7347 86.102 70.6154 86.3109 70.496L86.6094 70.3169L86.9376 70.1379H85.5947V69.7798H88.4894V70.1379H87.3554ZM86.9376 70.6154C86.8481 70.7049 86.7287 70.7646 86.6392 70.8243C86.5795 70.8541 86.5497 70.884 86.5198 70.9138C86.4602 70.9436 86.4303 71.0033 86.4005 71.0332L86.6094 71.2122L86.9675 71.6002L86.9376 70.6154Z" fill="#722979"/>
<path d="M89.1165 71.1526C88.9374 71.1526 88.7584 71.0929 88.639 70.9736C88.5196 70.8542 88.46 70.6751 88.46 70.4961C88.46 70.317 88.5196 70.1678 88.639 70.0484C88.7584 69.9291 88.9076 69.8694 89.0867 69.8694C89.3254 69.8694 89.5343 70.0186 89.6238 70.2573C89.6835 70.3469 89.6835 70.4662 89.6835 70.5558C89.6835 70.7348 89.6238 70.884 89.5343 71.0034C89.4448 71.0929 89.2955 71.1526 89.1165 71.1526ZM89.594 72.4657C89.2657 72.1672 88.9076 71.8987 88.5196 71.6599V71.0631C89.0568 71.4212 89.5343 71.839 89.9521 72.3165V72.7343L89.594 72.4657ZM89.206 70.2573C89.1762 70.2275 89.1165 70.2275 89.0867 70.2275C88.9374 70.2275 88.8479 70.3469 88.8479 70.4662C88.8479 70.5259 88.8778 70.5856 88.9374 70.6453C88.9673 70.705 89.0568 70.7348 89.1165 70.7348H89.1762C89.2955 70.705 89.3552 70.6154 89.3552 70.5259C89.3552 70.4364 89.2955 70.3469 89.206 70.2573Z" fill="#722979"/>
<path d="M42.5928 72.4358L43.3687 72.7044L43.6969 72.4358L42.921 72.1672L42.5928 72.4358Z" fill="#722979"/>
<path d="M42.861 70.2573V69.7798H36.6836V70.2573H37.7281V71.3017H38.6233C38.6233 71.3017 38.8621 71.2122 38.9218 71.0929V71.5106C38.9218 71.6897 38.8024 71.8389 38.6233 71.8687H37.3103C37.2208 71.8687 37.1611 71.8389 37.1611 71.5106V70.5258H36.7134V71.7792C36.7134 71.8687 36.7731 72.2567 37.1014 72.2567H38.8621C39.1307 72.2269 39.3396 72.018 39.3694 71.7494V70.5557H38.9516C38.9218 70.7347 38.9516 70.8541 38.7427 70.9138H38.2056V70.2573H39.7275V72.2567H40.2647V70.2573H40.6228V72.2567H42.3536C42.6521 72.2567 42.8908 72.018 42.8908 71.7195V70.5258H42.473C42.473 70.6452 42.473 70.8243 42.2641 70.8243H41.1003V70.2573H42.861ZM42.1746 71.2719C42.2641 71.2719 42.3536 71.1824 42.4432 71.063V71.5405C42.4432 71.7195 42.294 71.8986 42.1746 71.8986H41.0704V71.2719H42.1746Z" fill="#722979"/>
<path d="M43.4277 70.8245H44.4722V71.3915H43.4277V70.8245Z" fill="#722979"/>
<path d="M45.0391 69.7798V70.2573H46.7699V70.5258H45.0391V71.6599C45.0689 72.018 45.2778 72.2567 45.6359 72.2567H47.1877V70.2573H47.5458V72.2567H48.0233V69.7798H45.0391ZM46.7699 71.9284H45.7254C45.5762 71.9284 45.4569 71.7195 45.4569 71.5106V70.9436H46.7699C46.7699 70.9735 46.7699 71.9284 46.7699 71.9284Z" fill="#722979"/>
<path d="M50.291 70.2573H52.4098V70.5258H51.813C51.813 70.6452 51.7235 70.7347 51.6041 70.7347C51.4847 70.7347 51.3952 70.6452 51.3952 70.5258H50.291V71.7195C50.291 71.8389 50.291 72.197 50.6193 72.2567H51.4847V71.8389H50.8879C50.7685 71.8091 50.6491 71.6897 50.679 71.5703V70.9735H51.2758V71.3017H51.7831V71.063C51.7533 70.9436 52.3203 70.9436 52.38 71.063V72.2865H52.8575V70.2573H53.1857V72.2567H53.6632V69.7798H50.291V70.2573Z" fill="#722979"/>
<path d="M49.5456 69.9287H48.4414V70.5852C48.4712 70.8538 48.71 71.0627 48.9786 71.0627H49.8738V70.257C49.844 70.0779 49.7246 69.9586 49.5456 69.9287ZM49.2173 70.6151C49.0084 70.6151 48.8592 70.5554 48.8592 70.4659C48.8592 70.3763 49.0084 70.3167 49.2173 70.3167C49.4262 70.3167 49.5754 70.3763 49.5754 70.4659C49.5754 70.5554 49.3964 70.6151 49.2173 70.6151Z" fill="#722979"/>
<path d="M48.501 71.302V71.7198L49.8439 72.2868V71.8988L48.501 71.302Z" fill="#722979"/>
<path d="M60.8258 69.9287H59.7217V70.5852C59.7515 70.8538 59.9903 71.0627 60.2588 71.0627H61.1541V70.257C61.0944 70.0779 60.9751 69.9586 60.8258 69.9287ZM60.4677 70.6151C60.2588 70.6151 60.1096 70.5554 60.1096 70.4659C60.1096 70.3763 60.2588 70.3167 60.4677 70.3167C60.6766 70.3167 60.8258 70.3763 60.8258 70.4659C60.8258 70.5554 60.6766 70.6151 60.4677 70.6151Z" fill="#722979"/>
<path d="M59.7812 71.302V71.7198L61.1242 72.2868V71.8988L59.7812 71.302Z" fill="#722979"/>
<path d="M63.6613 70.5258V70.2573H64.5268V69.7798H61.5127V70.2573H63.2436V70.5258H61.5425V71.6599C61.5724 72.018 61.7813 72.2567 62.1394 72.2567H63.6912V71.0332H64.109C64.1687 71.0332 64.1985 71.0033 64.1985 71.0929V71.3017C64.1985 71.3913 64.1687 71.4808 64.109 71.5106H63.9598V71.9284H64.288C64.4372 71.8986 64.5566 71.8091 64.6163 71.6599V70.5258H63.6613ZM63.2436 71.9284H62.1991C62.0499 71.9284 61.9305 71.7195 61.9305 71.5106V70.9436H63.2436V71.9284Z" fill="#722979"/>
<path d="M55.0361 69.7798V70.2573H56.767V70.5259H55.0361V71.6599C55.066 72.018 55.2749 72.2568 55.633 72.2568H57.1848V70.2573H57.7219L57.4832 70.6751V70.9437H57.8413C58.0204 70.9437 58.1099 71.0929 58.1099 71.4212C58.1099 71.6599 58.0502 71.8091 57.8712 71.839H57.5429V72.2568H57.901C58.0204 72.2568 58.4978 72.3164 58.4978 71.839C58.5575 70.9139 58.5874 70.6453 57.901 70.5856L57.9905 70.2573H58.7963V72.2568H59.2737V69.75L55.0361 69.7798ZM56.767 71.9285H55.6927C55.5435 71.9285 55.4241 71.7196 55.4241 71.5107V70.9437H56.7371L56.767 71.9285Z" fill="#722979"/>
</svg>
