<svg width="105" height="105" viewBox="0 0 105 105" fill="none" xmlns="http://www.w3.org/2000/svg">
<rect width="105" height="105" rx="8" fill="#FFD88D"/>
<g clip-path="url(#clip0_606_311)">
<path d="M25 78.8312L26.0811 79.9122L27.8663 78.127L26.7852 77.046L25 78.8312Z" fill="black"/>
<path d="M71.4171 43.128L72.498 44.2089L73.6882 43.0188L72.6072 41.9378L71.4171 43.128Z" fill="black"/>
<path d="M74.2844 38.9598C74.0545 38.7301 73.7897 38.5566 73.5073 38.4375L74.8249 37.1198L67.7929 30.088L48.8588 49.022L49.4539 49.6171L31.6011 67.4698L32.1962 68.065L28.0306 72.2306L29.8158 74.0159L27.3809 76.4509L28.4618 77.5319L30.8967 75.0969L32.682 76.8822L36.8477 72.7165L37.4428 73.3116L55.2956 55.4587L55.8907 56.0538L71.8179 40.1266L71.9038 40.0407C72.0772 39.8672 72.308 39.7717 72.5535 39.7717C72.7989 39.7717 73.0296 39.8673 73.2032 40.0407C73.5615 40.399 73.5615 40.9817 73.2032 41.34L74.2843 42.4211C75.2386 41.467 75.2386 39.9142 74.2844 38.9598ZM32.6821 74.7202L30.1926 72.2306L33.2773 69.146L35.7668 71.6355L32.6821 74.7202ZM37.443 71.1496L33.7632 67.4698L35.0625 66.1705L38.7423 69.8503L37.443 71.1496ZM39.8232 68.7692L36.1435 65.0895L50.535 50.698L54.2147 54.3777L39.8232 68.7692ZM55.8909 53.8919L51.0211 49.022L52.3204 47.7227L57.1902 52.5925L55.8909 53.8919ZM58.2712 51.5114L53.4013 46.6414L65.4124 34.6305L70.2823 39.5004L58.2712 51.5114ZM71.3634 38.4193L66.4936 33.5494L67.7929 32.2501L72.6627 37.1199L71.3634 38.4193Z" fill="black"/>
<path d="M70.8235 43.7207L59.5713 54.9728L61.3019 56.7036L62.3831 55.6225L61.7334 54.9728L71.9046 44.8016L70.8235 43.7207Z" fill="black"/>
</g>
<defs>
<clipPath id="clip0_606_311">
<rect width="50" height="50" fill="white" transform="translate(25 30)"/>
</clipPath>
</defs>
</svg>
