<svg width="50" height="50" viewBox="0 0 50 50" fill="none" xmlns="http://www.w3.org/2000/svg">
<g clip-path="url(#clip0_545_507)">
<path d="M47.418 7.4939H2.58203C1.15833 7.4939 0 8.65223 0 10.0759V35.4854C0 36.9091 1.15833 38.0674 2.58203 38.0674H16.2235V41.1527H13.6297C13.256 41.1527 12.953 41.4558 12.953 41.8294C12.953 42.203 13.256 42.5061 13.6297 42.5061H36.2978C36.6715 42.5061 36.9745 42.203 36.9745 41.8294C36.9745 41.4558 36.6715 41.1527 36.2978 41.1527H33.704V38.0674H47.4181C48.8418 38.0674 50.0001 36.9091 50.0001 35.4854V10.0759C50 8.65223 48.8417 7.4939 47.418 7.4939ZM2.58203 8.84722H47.418C48.0954 8.84722 48.6467 9.39836 48.6467 10.0759V33.3711H1.35332V10.0759C1.35332 9.39836 1.90446 8.84722 2.58203 8.84722ZM32.3505 41.1526H17.5767V38.0673H32.3505V41.1526ZM47.418 36.714H2.58203C1.90458 36.714 1.35332 36.1628 1.35332 35.4852V34.7242H48.6467V35.4852C48.6467 36.1628 48.0954 36.714 47.418 36.714Z" fill="#263238"/>
<path d="M12.3894 11.9434H4.04395V13.2967H12.3894V11.9434Z" fill="#263238"/>
<path d="M26.9377 14.3118H4.04395V15.6651H26.9377V14.3118Z" fill="#263238"/>
<path d="M31.4487 16.7927H4.04395V18.146H31.4487V16.7927Z" fill="#263238"/>
<path d="M7.2017 19.0483H4.04395V20.4017H7.2017V19.0483Z" fill="#263238"/>
<path d="M23.4416 21.5295H4.04395V22.8829H23.4416V21.5295Z" fill="#263238"/>
<path d="M12.1639 23.8977H4.04395V25.251H12.1639V23.8977Z" fill="#263238"/>
<path d="M6.07393 26.3789H4.04395V27.7322H6.07393V26.3789Z" fill="#263238"/>
<path d="M32.351 28.7471H4.04395V30.1004H32.351V28.7471Z" fill="#263238"/>
</g>
<defs>
<clipPath id="clip0_545_507">
<rect width="50" height="50" fill="white"/>
</clipPath>
</defs>
</svg>
