<svg width="50" height="50" viewBox="0 0 50 50" fill="none" xmlns="http://www.w3.org/2000/svg">
<path d="M22.4079 10.2592C23.5241 10.2592 24.4736 9.53457 24.8125 8.53133H29.3194C29.7667 8.53133 30.1293 8.16869 30.1293 7.72139C30.1293 7.27409 29.7667 6.91146 29.3194 6.91146H24.8125C24.4736 5.90822 23.5241 5.18359 22.4079 5.18359C21.0086 5.18359 19.8701 6.32204 19.8701 7.72139C19.8701 9.12074 21.0086 10.2592 22.4079 10.2592ZM22.4079 6.80346C22.9141 6.80346 23.3258 7.21524 23.3258 7.72139C23.3258 8.22755 22.9141 8.63932 22.4079 8.63932C21.9018 8.63932 21.49 8.22755 21.49 7.72139C21.49 7.21524 21.9018 6.80346 22.4079 6.80346Z" fill="#263238"/>
<path d="M21.5437 15.5508H19.8158C19.3685 15.5508 19.0059 15.9134 19.0059 16.3607C19.0059 16.808 19.3685 17.1707 19.8158 17.1707H21.5437C21.991 17.1707 22.3536 16.808 22.3536 16.3607C22.3536 15.9134 21.991 15.5508 21.5437 15.5508Z" fill="#263238"/>
<path d="M25.864 15.5508H24.1361C23.6888 15.5508 23.3262 15.9134 23.3262 16.3607C23.3262 16.808 23.6888 17.1707 24.1361 17.1707H25.864C26.3113 17.1707 26.6739 16.808 26.6739 16.3607C26.6739 15.9134 26.3113 15.5508 25.864 15.5508Z" fill="#263238"/>
<path d="M30.1833 15.5508H28.4554C28.0081 15.5508 27.6455 15.9134 27.6455 16.3607C27.6455 16.808 28.0081 17.1707 28.4554 17.1707H30.1833C30.6306 17.1707 30.9932 16.808 30.9932 16.3607C30.9932 15.9134 30.6306 15.5508 30.1833 15.5508Z" fill="#263238"/>
<path d="M37.9047 29.4722V15.4428H37.9587C39.358 15.4428 40.4965 14.3043 40.4965 12.905C40.4965 11.5056 39.358 10.3672 37.9587 10.3672H34.4489V9.44924C34.4489 4.23888 30.2101 0 24.9997 0C19.7893 0 15.5504 4.23888 15.5504 9.44924V10.3672H12.0407C10.6414 10.3672 9.50293 11.5056 9.50293 12.905C9.50293 14.3043 10.6414 15.4428 12.0407 15.4428H12.0947V29.4722C11.5096 29.6147 10.9553 29.9139 10.4993 30.37C9.17291 31.6963 9.17291 33.8544 10.4993 35.1808C10.8156 35.4971 11.3284 35.4971 11.6446 35.1808C11.9609 34.8645 11.9609 34.3516 11.6446 34.0354C10.9499 33.3406 10.9499 32.2103 11.6446 31.5154C11.9812 31.1789 12.4286 30.9935 12.9045 30.9935C13.3805 30.9935 13.828 31.1788 14.1645 31.5154C14.8592 32.2103 14.8592 33.3406 14.1645 34.0354C13.8482 34.3517 13.8482 34.8646 14.1645 35.1808C14.3226 35.3389 14.5299 35.418 14.7372 35.418C14.9444 35.418 15.1517 35.339 15.3098 35.1808C16.6362 33.8544 16.6362 31.6963 15.3098 30.37C14.8538 29.9139 14.2995 29.6147 13.7144 29.4722V15.4428H15.5502V25C15.5502 26.3994 16.6887 27.5378 18.088 27.5378H19.8701V28.4557C19.8701 29.7177 20.7961 30.7672 22.0043 30.9611L22.4012 33.3422C19.905 34.3682 18.1422 36.8251 18.1422 39.6868V43.1425C18.1422 43.5898 18.5049 43.9525 18.9522 43.9525H21.598V46.5983C21.598 48.474 23.124 50 24.9997 50C26.8754 50 28.4014 48.474 28.4014 46.5983V43.9525H31.0472C31.4945 43.9525 31.8571 43.5898 31.8571 43.1425V39.6868C31.8571 36.8251 30.0944 34.3682 27.5982 33.3422L27.995 30.9611C29.2033 30.7672 30.1293 29.7177 30.1293 28.4557V27.5378H31.9111C33.3105 27.5378 34.4489 26.3994 34.4489 25V15.4428H36.2848V29.4722C35.6997 29.6147 35.1454 29.9139 34.6893 30.37C33.363 31.6963 33.363 33.8544 34.6893 35.1808C35.0056 35.4971 35.5185 35.4971 35.8347 35.1808C36.151 34.8645 36.151 34.3516 35.8347 34.0354C35.14 33.3406 35.14 32.2103 35.8347 31.5154C36.1713 31.1789 36.6187 30.9935 37.0946 30.9935C37.5705 30.9935 38.018 31.1788 38.3545 31.5154C39.0493 32.2103 39.0493 33.3406 38.3545 34.0354C38.0382 34.3517 38.0382 34.8646 38.3545 35.1808C38.5126 35.3389 38.72 35.418 38.9272 35.418C39.1345 35.418 39.3418 35.339 39.4999 35.1808C40.8263 33.8544 40.8263 31.6963 39.4999 30.37C39.0441 29.9139 38.4898 29.6147 37.9047 29.4722ZM17.1703 13.7149H32.8291V22.4622H17.1703V13.7149ZM17.1703 9.44924C17.1703 5.13207 20.6825 1.61987 24.9997 1.61987C29.3169 1.61987 32.8291 5.13207 32.8291 9.44924V12.095H17.1703V9.44924ZM12.0407 13.8229C11.5346 13.8229 11.1228 13.4111 11.1228 12.905C11.1228 12.3988 11.5346 11.987 12.0407 11.987H15.5504V13.8229H12.0407ZM26.7815 46.5983C26.7815 47.5808 25.9822 48.3801 24.9997 48.3801C24.0172 48.3801 23.2178 47.5808 23.2178 46.5983V39.6868C23.2178 38.7043 24.0172 37.905 24.9997 37.905C25.9822 37.905 26.7815 38.7043 26.7815 39.6868V46.5983ZM30.2373 39.6868V42.3326H28.4014V39.6868C28.4014 37.8111 26.8754 36.2851 24.9997 36.2851C23.124 36.2851 21.598 37.8111 21.598 39.6868V42.3326H19.7621V39.6868C19.7621 36.7988 22.1117 34.4492 24.9997 34.4492C27.8877 34.4492 30.2373 36.7988 30.2373 39.6868ZM24.9997 32.8294C24.65 32.8294 24.3065 32.856 23.9709 32.9067L23.652 30.9935H26.3474L26.0285 32.9067C25.6929 32.856 25.3494 32.8294 24.9997 32.8294ZM28.5094 28.4557C28.5094 28.9619 28.0976 29.3736 27.5915 29.3736H22.4079C21.9017 29.3736 21.49 28.9619 21.49 28.4557V27.5378H28.5094V28.4557ZM31.9111 25.9179H29.3193H20.68H18.0882C17.5821 25.9179 17.1703 25.5062 17.1703 25V24.0821H32.8291V25C32.8291 25.5062 32.4173 25.9179 31.9111 25.9179ZM34.4489 11.987H37.9587C38.4648 11.987 38.8766 12.3988 38.8766 12.905C38.8766 13.4111 38.4648 13.8229 37.9587 13.8229H34.4489V11.987Z" fill="#263238"/>
</svg>
