<svg width="31" height="31" viewBox="0 0 31 31" fill="none" xmlns="http://www.w3.org/2000/svg">
<circle cx="15.5" cy="15.5" r="15.5" fill="#454545"/>
<path d="M14.2782 11.2222H11.8338C11.6717 11.2222 11.5163 11.2866 11.4016 11.4012C11.287 11.5158 11.2227 11.6713 11.2227 11.8333V14.2778C11.2227 14.4399 11.287 14.5953 11.4016 14.7099C11.5163 14.8245 11.6717 14.8889 11.8338 14.8889H14.2782C14.4403 14.8889 14.5957 14.8245 14.7103 14.7099C14.8249 14.5953 14.8893 14.4399 14.8893 14.2778V11.8333C14.8893 11.6713 14.8249 11.5158 14.7103 11.4012C14.5957 11.2866 14.4403 11.2222 14.2782 11.2222ZM11.8338 14.2778V11.8333H14.2782V14.2778H11.8338Z" fill="white"/>
<path d="M19.1669 11.2222H16.7224C16.5604 11.2222 16.4049 11.2866 16.2903 11.4012C16.1757 11.5158 16.1113 11.6713 16.1113 11.8333V14.2778C16.1113 14.4399 16.1757 14.5953 16.2903 14.7099C16.4049 14.8245 16.5604 14.8889 16.7224 14.8889H19.1669C19.329 14.8889 19.4844 14.8245 19.599 14.7099C19.7136 14.5953 19.778 14.4399 19.778 14.2778V11.8333C19.778 11.6713 19.7136 11.5158 19.599 11.4012C19.4844 11.2866 19.329 11.2222 19.1669 11.2222ZM16.7224 14.2778V11.8333H19.1669V14.2778H16.7224Z" fill="white"/>
<path d="M14.2782 16.1111H11.8338C11.6717 16.1111 11.5163 16.1755 11.4016 16.2901C11.287 16.4047 11.2227 16.5601 11.2227 16.7222V19.1666C11.2227 19.3287 11.287 19.4842 11.4016 19.5988C11.5163 19.7134 11.6717 19.7778 11.8338 19.7778H14.2782C14.4403 19.7778 14.5957 19.7134 14.7103 19.5988C14.8249 19.4842 14.8893 19.3287 14.8893 19.1666V16.7222C14.8893 16.5601 14.8249 16.4047 14.7103 16.2901C14.5957 16.1755 14.4403 16.1111 14.2782 16.1111ZM11.8338 19.1666V16.7222H14.2782V19.1666H11.8338Z" fill="white"/>
<path d="M19.1669 16.1111H16.7224C16.5604 16.1111 16.4049 16.1755 16.2903 16.2901C16.1757 16.4047 16.1113 16.5601 16.1113 16.7222V19.1666C16.1113 19.3287 16.1757 19.4842 16.2903 19.5988C16.4049 19.7134 16.5604 19.7778 16.7224 19.7778H19.1669C19.329 19.7778 19.4844 19.7134 19.599 19.5988C19.7136 19.4842 19.778 19.3287 19.778 19.1666V16.7222C19.778 16.5601 19.7136 16.4047 19.599 16.2901C19.4844 16.1755 19.329 16.1111 19.1669 16.1111ZM16.7224 19.1666V16.7222H19.1669V19.1666H16.7224Z" fill="white"/>
</svg>
