<svg width="31" height="31" viewBox="0 0 31 31" fill="none" xmlns="http://www.w3.org/2000/svg">
<circle cx="15.5" cy="15.5" r="15.5" fill="#454545"/>
<path d="M18.5237 11.8125C18.865 11.8122 19.2029 11.8801 19.5176 12.0121C19.8324 12.1441 20.1176 12.3376 20.3565 12.5813C20.8489 13.0811 21.1249 13.7546 21.1249 14.4563C21.1249 15.1579 20.8489 15.8314 20.3565 16.3313L15.5003 21.2484L10.644 16.3313C10.1517 15.8314 9.87566 15.1579 9.87566 14.4563C9.87566 13.7546 10.1517 13.0811 10.644 12.5813C10.8831 12.3378 11.1684 12.1444 11.4831 12.0123C11.7978 11.8803 12.1356 11.8123 12.4769 11.8123C12.8181 11.8123 13.156 11.8803 13.4706 12.0123C13.7853 12.1444 14.0706 12.3378 14.3097 12.5813L15.5003 13.8L16.6862 12.5906C16.9245 12.3441 17.21 12.1481 17.5257 12.0144C17.8414 11.8807 18.1809 11.812 18.5237 11.8125ZM18.5237 10.875C18.0576 10.8746 17.5961 10.9673 17.1663 11.1476C16.7365 11.3279 16.3469 11.5922 16.0206 11.925L15.5003 12.45L14.98 11.925C14.6532 11.5928 14.2636 11.3289 13.8339 11.1488C13.4041 10.9687 12.9428 10.876 12.4769 10.876C12.0109 10.876 11.5496 10.9687 11.1198 11.1488C10.6901 11.3289 10.3005 11.5928 9.97373 11.925C9.30898 12.6017 8.93652 13.5124 8.93652 14.4609C8.93652 15.4095 9.30898 16.3202 9.97373 16.9969L15.5003 22.5938L21.0269 16.9969C21.6916 16.3202 22.0641 15.4095 22.0641 14.4609C22.0641 13.5124 21.6916 12.6017 21.0269 11.925C20.7002 11.5926 20.3106 11.3286 19.8809 11.1483C19.4511 10.968 18.9898 10.8751 18.5237 10.875Z" fill="white"/>
</svg>
