<svg width="31" height="31" viewBox="0 0 31 31" fill="none" xmlns="http://www.w3.org/2000/svg">
<circle cx="15.5" cy="15.5" r="15.5" fill="#454545"/>
<path d="M9 10.2188C9 10.111 9.0428 10.0077 9.11899 9.93149C9.19517 9.8553 9.29851 9.8125 9.40625 9.8125H10.625C10.7156 9.81253 10.8036 9.84285 10.875 9.89865C10.9464 9.95444 10.9971 10.0325 11.0191 10.1204L11.3481 11.4375H20.7812C20.8409 11.4376 20.8998 11.4507 20.9538 11.4761C21.0078 11.5015 21.0555 11.5385 21.0936 11.5844C21.1316 11.6303 21.1592 11.6841 21.1741 11.7418C21.1891 11.7995 21.1912 11.8599 21.1802 11.9185L19.9614 18.4185C19.944 18.5116 19.8946 18.5957 19.8218 18.6562C19.7489 18.7167 19.6572 18.7499 19.5625 18.75H12.25C12.1553 18.7499 12.0636 18.7167 11.9907 18.6562C11.9179 18.5957 11.8685 18.5116 11.8511 18.4185L10.6331 11.9307L10.3081 10.625H9.40625C9.29851 10.625 9.19517 10.5822 9.11899 10.506C9.0428 10.4298 9 10.3265 9 10.2188ZM11.5204 12.25L12.5872 17.9375H19.2253L20.2921 12.25H11.5204ZM13.0625 18.75C12.6315 18.75 12.2182 18.9212 11.9135 19.226C11.6087 19.5307 11.4375 19.944 11.4375 20.375C11.4375 20.806 11.6087 21.2193 11.9135 21.524C12.2182 21.8288 12.6315 22 13.0625 22C13.4935 22 13.9068 21.8288 14.2115 21.524C14.5163 21.2193 14.6875 20.806 14.6875 20.375C14.6875 19.944 14.5163 19.5307 14.2115 19.226C13.9068 18.9212 13.4935 18.75 13.0625 18.75ZM18.75 18.75C18.319 18.75 17.9057 18.9212 17.601 19.226C17.2962 19.5307 17.125 19.944 17.125 20.375C17.125 20.806 17.2962 21.2193 17.601 21.524C17.9057 21.8288 18.319 22 18.75 22C19.181 22 19.5943 21.8288 19.899 21.524C20.2038 21.2193 20.375 20.806 20.375 20.375C20.375 19.944 20.2038 19.5307 19.899 19.226C19.5943 18.9212 19.181 18.75 18.75 18.75ZM13.0625 19.5625C13.278 19.5625 13.4847 19.6481 13.637 19.8005C13.7894 19.9528 13.875 20.1595 13.875 20.375C13.875 20.5905 13.7894 20.7972 13.637 20.9495C13.4847 21.1019 13.278 21.1875 13.0625 21.1875C12.847 21.1875 12.6403 21.1019 12.488 20.9495C12.3356 20.7972 12.25 20.5905 12.25 20.375C12.25 20.1595 12.3356 19.9528 12.488 19.8005C12.6403 19.6481 12.847 19.5625 13.0625 19.5625ZM18.75 19.5625C18.9655 19.5625 19.1722 19.6481 19.3245 19.8005C19.4769 19.9528 19.5625 20.1595 19.5625 20.375C19.5625 20.5905 19.4769 20.7972 19.3245 20.9495C19.1722 21.1019 18.9655 21.1875 18.75 21.1875C18.5345 21.1875 18.3278 21.1019 18.1755 20.9495C18.0231 20.7972 17.9375 20.5905 17.9375 20.375C17.9375 20.1595 18.0231 19.9528 18.1755 19.8005C18.3278 19.6481 18.5345 19.5625 18.75 19.5625Z" fill="#FFFEFE"/>
</svg>
