<svg width="105" height="105" viewBox="0 0 105 105" fill="none" xmlns="http://www.w3.org/2000/svg">
<rect width="105" height="105" rx="8" fill="#FFBC99"/>
<g clip-path="url(#clip0_587_309)">
<path d="M51.9344 36.8405C53.0137 38.4175 54.8266 39.4547 56.8776 39.4547C58.9312 39.4547 60.746 38.415 61.8248 36.8348C64.2989 35.501 64.2694 33.2318 64.2561 32.256C64.201 28.2303 61.1921 25.1811 57.1015 25.0058C54.9428 24.9121 53.6938 25.9644 53.3115 26.3492C52.9773 26.4249 52.2343 26.6514 51.491 27.2707C50.6069 28.007 49.5413 29.4657 49.4846 32.2321C49.4646 33.212 49.4196 35.492 51.9344 36.8405ZM56.8776 38.5052C54.1002 38.5052 51.8407 36.2456 51.8407 33.4682V32.065C53.1429 31.5713 53.9455 30.1985 54.3398 29.3223C55.4133 30.4522 58.0523 32.7356 61.9145 32.8539V33.4681C61.9145 36.2456 59.655 38.5052 56.8776 38.5052ZM50.4341 32.2516C50.5263 27.7409 53.4905 27.2742 53.6138 27.257C53.7321 27.2418 53.8423 27.1804 53.919 27.0892C53.9612 27.0392 54.9705 25.8658 57.0609 25.9547C60.6319 26.1076 63.2586 28.7632 63.3064 32.269C63.3153 32.9109 63.3283 33.927 62.7027 34.8446C62.8073 34.4023 62.8641 33.942 62.8641 33.4683V32.8166C63.05 32.7451 63.1787 32.5628 63.1689 32.3528C63.1564 32.091 62.9361 31.8896 62.6721 31.9011C57.6661 32.1416 54.5912 28.1727 54.561 28.1331L54.5599 28.1338C54.5017 28.057 54.4208 27.9965 54.3216 27.966C54.0715 27.8889 53.8056 28.0299 53.7283 28.2803C53.7196 28.3087 52.8349 31.1146 51.0227 31.2922C50.7617 31.3178 50.5708 31.5501 50.5965 31.8111C50.6143 31.993 50.7327 32.1402 50.891 32.2046V33.4683C50.891 33.9556 50.9509 34.4291 51.0613 34.8829C50.5034 34.0893 50.4153 33.1655 50.4341 32.2516Z" fill="black"/>
<path d="M57.0434 34.7321H56.4409C55.2932 34.7321 54.3594 35.6658 54.3594 36.8136V37.4361C54.3594 37.6984 54.5719 37.9109 54.8342 37.9109C55.0965 37.9109 55.309 37.6984 55.309 37.4361V36.8136C55.309 36.1895 55.8168 35.6817 56.4409 35.6817H57.0434C57.6675 35.6817 58.1753 36.1895 58.1753 36.8136V37.4361C58.1753 37.6984 58.3878 37.9109 58.6501 37.9109C58.9124 37.9109 59.1249 37.6984 59.1249 37.4361V36.8136C59.1249 35.6659 58.1911 34.7321 57.0434 34.7321Z" fill="black"/>
<path d="M57.3022 36.5717H56.1828C55.9205 36.5717 55.708 36.7842 55.708 37.0465C55.708 37.3089 55.9205 37.5214 56.1828 37.5214H57.3022C57.5645 37.5214 57.777 37.3089 57.777 37.0465C57.777 36.7842 57.5645 36.5717 57.3022 36.5717Z" fill="black"/>
<path d="M29.6043 47.3584C28.6863 47.3584 27.8873 47.7807 27.2826 48.3821C27.2792 48.3853 27.2752 48.3874 27.2717 48.3908C26.2738 49.3861 23.2756 52.3677 23.2756 52.3677C23.095 52.5474 23.0885 52.8378 23.2609 53.0255L26.4511 56.498C26.4521 56.4991 26.4534 56.4998 26.4543 56.5008V65.0252C26.4543 65.2875 26.6668 65.5 26.9291 65.5H41.6837C41.946 65.5 42.1585 65.2875 42.1585 65.0252V56.3088L45.2646 53.0309C45.4408 52.845 45.4378 52.5528 45.2576 52.3706C45.2576 52.3706 42.3494 49.5146 41.439 48.507C40.8298 47.8326 39.9857 47.3585 39.0081 47.3585H34.7413V45.6188C35.5642 45.4552 36.2376 44.8742 36.5335 44.1071C37.0205 44.6244 37.7107 44.9483 38.4755 44.9483H49.0286V57.2787C49.0286 57.541 49.2411 57.7535 49.5034 57.7535H49.7853V76.5309C49.7853 78.4438 51.3417 80.0001 53.2546 80.0001C55.1675 80.0001 56.7239 78.4438 56.7239 76.5309V64.0058H57.0375V76.5308C57.0375 78.4437 58.594 80 60.5069 80C62.4198 80 63.9762 78.4437 63.9762 76.5308V57.7534H64.2581C64.5204 57.7534 64.7329 57.5409 64.7329 57.2786V49.0492L69.3115 53.6049C69.8316 54.1251 70.515 54.3852 71.1982 54.3852C71.8815 54.3852 72.5648 54.1251 73.085 53.6049C74.1252 52.5645 74.1252 50.8718 73.085 49.8315C73.085 49.8315 66.2578 43.0866 64.0127 40.7592C63.3822 40.1055 62.5599 39.6118 61.5828 39.6118H58.9381C58.6954 39.6118 58.4918 39.7947 58.4659 40.0359C58.3921 40.723 57.6958 41.2613 56.8807 41.2613C56.0657 41.2613 55.3694 40.7231 55.2956 40.0359C55.2695 39.7947 55.066 39.6118 54.8234 39.6118H38.4755C37.2867 39.6118 36.2773 40.3935 35.9334 41.4698C35.498 41.0584 34.9115 40.8055 34.2665 40.8055C32.9266 40.8055 31.8365 41.8955 31.8365 43.2354C31.8365 43.4978 32.049 43.7103 32.3113 43.7103C32.5737 43.7103 32.7862 43.4978 32.7862 43.2354C32.7862 42.4192 33.4502 41.7551 34.2665 41.7551C35.0827 41.7551 35.7468 42.4192 35.7468 43.2354C35.7468 44.0517 35.0827 44.7158 34.2665 44.7158C34.0042 44.7158 33.7917 44.9283 33.7917 45.1906V47.3585H29.6043V47.3584ZM35.6975 48.308C35.4233 48.7247 34.8966 49.0078 34.3063 49.0078C33.716 49.0078 33.1894 48.7248 32.915 48.308H35.6975ZM24.2688 52.7189L26.4543 50.5441V55.0976L24.2688 52.7189ZM42.1585 54.9281V50.5857L44.2592 52.7112L42.1585 54.9281ZM41.2088 50.5084V64.5504H27.4039V62.1829H33.2791C33.5414 62.1829 33.7539 61.9704 33.7539 61.7081C33.7539 61.4457 33.5414 61.2332 33.2791 61.2332H27.4039V59.9658H29.5742C29.8366 59.9658 30.0491 59.7533 30.0491 59.491C30.0491 59.2287 29.8366 59.0162 29.5742 59.0162H27.4039V50.5085C27.4039 49.2952 28.391 48.3081 29.6043 48.3081H31.8667C32.1764 49.2731 33.154 49.9576 34.3063 49.9576C35.4586 49.9576 36.4362 49.2731 36.7458 48.3081H39.0082C40.2217 48.308 41.2088 49.2951 41.2088 50.5084ZM64.7329 42.8223L66.919 45.0085L64.7329 47.1946V42.8223ZM56.8807 42.2108C58.0331 42.2108 59.0107 41.5263 59.3203 40.5614H61.5827C62.7961 40.5614 63.7833 41.5484 63.7833 42.7617V56.8038H49.9782V54.4362H55.8534C56.1157 54.4362 56.3282 54.2237 56.3282 53.9614C56.3282 53.6991 56.1157 53.4866 55.8534 53.4866H49.9782V42.7617C49.9782 41.5484 50.9653 40.5614 52.1786 40.5614H54.441C54.7508 41.5263 55.7284 42.2108 56.8807 42.2108ZM36.757 42.28C36.757 41.3324 37.5279 40.5614 38.4757 40.5614H45.3118V43.9985H38.4757C37.5279 43.9985 36.757 43.2275 36.757 42.28ZM46.2613 43.9985V40.5614H49.9275C49.3719 41.1296 49.0286 41.9062 49.0286 42.7617V43.9984H46.2613V43.9985ZM63.0265 59.9853L61.354 58.3127C61.1687 58.1272 60.8677 58.1272 60.6825 58.3127C60.497 58.498 60.497 58.7988 60.6825 58.9841L63.0265 61.3281V73.7085H62.2199C61.9576 73.7085 61.7451 73.9209 61.7451 74.1833C61.7451 74.4456 61.9576 74.6581 62.2199 74.6581H63.0265V75.4609H59.6443C59.3819 75.4609 59.1694 75.6734 59.1694 75.9358C59.1694 76.1981 59.3819 76.4106 59.6443 76.4106H63.0265V76.5308C63.0265 77.9202 61.8961 79.0504 60.5068 79.0504C59.1174 79.0504 57.9871 77.9202 57.9871 76.5308V63.5309C57.9871 63.2686 57.7746 63.0561 57.5123 63.0561H56.249C55.9867 63.0561 55.7742 63.2686 55.7742 63.5309V76.5308C55.7742 77.9202 54.6439 79.0504 53.2545 79.0504C51.8651 79.0504 50.7348 77.9202 50.7348 76.5308V76.4106H54.1295C54.3918 76.4106 54.6043 76.1981 54.6043 75.9358C54.6043 75.6734 54.3918 75.4609 54.1295 75.4609H50.7348V61.3007L53.0514 58.9841C53.2368 58.7988 53.2368 58.4981 53.0514 58.3127C52.8661 58.1272 52.5652 58.1272 52.3799 58.3127L50.7347 59.9579V57.7535H63.0262V59.9853H63.0265ZM72.4134 52.9334C72.0889 53.258 71.6572 53.4368 71.1982 53.4368C70.7391 53.4368 70.3074 53.258 69.9821 52.9326L65.1478 48.1224L67.5903 45.6799L72.4132 50.5028C73.0834 51.1731 73.0834 52.2633 72.4134 52.9334Z" fill="black"/>
<path d="M58.4683 47.1357L60.0743 48.2529C60.1558 48.3096 60.2506 48.338 60.3455 48.338C60.4402 48.338 60.5349 48.3097 60.6163 48.2532L62.2255 47.1359C62.3533 47.0472 62.4295 46.9014 62.4295 46.7459V44.6511C62.4295 44.3888 62.217 44.1763 61.9546 44.1763H58.7395C58.4771 44.1763 58.2646 44.3888 58.2646 44.6511V46.7459C58.2645 46.9013 58.3406 47.0469 58.4683 47.1357ZM59.2142 45.1259H61.4797V46.4974L60.3456 47.2848L59.2142 46.4978V45.1259Z" fill="black"/>
<path d="M59.6145 43.9715H61.9544C62.2167 43.9715 62.4292 43.759 62.4292 43.4966C62.4292 43.2343 62.2167 43.0218 61.9544 43.0218H59.6145C59.3521 43.0218 59.1396 43.2343 59.1396 43.4966C59.1396 43.7589 59.3523 43.9715 59.6145 43.9715Z" fill="black"/>
<path d="M39.3804 51.9228H36.1653C35.9029 51.9228 35.6904 52.1353 35.6904 52.3976V54.4924C35.6904 54.6479 35.7665 54.7934 35.8941 54.8822L37.5001 55.9995C37.5816 56.0561 37.6764 56.0845 37.7713 56.0845C37.866 56.0845 37.9606 56.0562 38.0421 55.9997L39.6512 54.8824C39.779 54.7937 39.8552 54.6479 39.8552 54.4924V52.3976C39.8552 52.1354 39.6427 51.9228 39.3804 51.9228ZM38.9056 54.2441L37.7715 55.0315L36.6401 54.2444V52.8725H38.9056V54.2441Z" fill="black"/>
<path d="M36.5654 51.2432C36.5654 51.5055 36.7779 51.718 37.0403 51.718H39.3802C39.6425 51.718 39.855 51.5055 39.855 51.2432C39.855 50.9809 39.6425 50.7684 39.3802 50.7684H37.0403C36.7779 50.7684 36.5654 50.981 36.5654 51.2432Z" fill="black"/>
<path d="M52.4416 64.4536C52.1793 64.4536 51.9668 64.6661 51.9668 64.9284V72.0787C51.9668 72.341 52.1793 72.5535 52.4416 72.5535C52.7039 72.5535 52.9164 72.341 52.9164 72.0787V64.9284C52.9164 64.6661 52.7039 64.4536 52.4416 64.4536Z" fill="black"/>
</g>
<defs>
<clipPath id="clip0_587_309">
<rect width="55" height="55" fill="white" transform="translate(21 25)"/>
</clipPath>
</defs>
</svg>
