<svg width="105" height="105" viewBox="0 0 105 105" fill="none" xmlns="http://www.w3.org/2000/svg">
<rect width="105" height="105" rx="8" fill="#CABDFF"/>
<path d="M44.5031 57.1563L43.393 56.2896C43.2067 56.1442 42.9474 56.1804 42.8018 56.3731L42.391 56.9156L42.0776 56.5346C41.9348 56.3609 41.6959 56.3261 41.5156 56.4529L40.4441 57.2056C40.2426 57.347 40.1855 57.6382 40.3164 57.8558C40.4472 58.0736 40.7167 58.1352 40.918 57.9937L41.0595 57.8943C41.2369 58.5861 41.826 59.0829 42.5022 59.0829C42.5252 59.0829 42.5481 59.0823 42.5713 59.0811C42.8996 59.0648 43.207 58.937 43.4615 58.7102C43.6971 58.4984 43.8684 58.2067 43.9496 57.8837L43.9939 57.9183C44.1885 58.0703 44.4605 58.0231 44.601 57.8125C44.7416 57.602 44.6978 57.3082 44.5031 57.1563Z" fill="black"/>
<path d="M41.5487 54.9087C41.7288 54.9087 41.8748 54.6917 41.8748 54.424C41.8748 54.1564 41.7288 53.9395 41.5487 53.9395C41.3686 53.9395 41.2227 54.1564 41.2227 54.424C41.2227 54.6917 41.3686 54.9087 41.5487 54.9087Z" fill="black"/>
<path d="M42.7313 54.8647C42.9114 54.8647 43.0574 54.6478 43.0574 54.3801C43.0574 54.1125 42.9114 53.8955 42.7313 53.8955C42.5513 53.8955 42.4053 54.1125 42.4053 54.3801C42.4053 54.6478 42.5513 54.8647 42.7313 54.8647Z" fill="black"/>
<path d="M69.6212 40.5471C72.4004 35.676 73.5694 30.5808 72.9132 26.1999C72.8924 26.0604 72.8145 25.9386 72.7014 25.8681C72.5879 25.7972 72.4514 25.7854 72.3293 25.8358C69.1451 27.1442 66.3206 29.6974 64.0287 33.3057C64.4134 29.0786 64.101 25.7912 63.0945 23.517C62.9911 23.2833 62.7324 23.1839 62.5157 23.295C59.8223 24.6762 57.6715 27.1282 56.2962 30.3862C55.6185 31.9918 55.2844 33.4126 55.1319 34.2254C53.7046 33.3372 52.0519 32.8312 50.2962 32.8312C50.2719 32.8312 50.2476 32.8312 50.2233 32.8314L47.4901 32.8533C44.0763 32.2989 40.658 33.7954 38.5624 36.7631L38.4161 36.9702C37.9654 37.0672 37.5401 37.2819 37.1799 37.5982L36.0181 38.6183C35.7643 38.8412 35.6177 39.1872 35.6582 39.538C35.6772 39.7028 35.7317 39.8516 35.811 39.9785L34.9832 40.4451C34.972 40.4522 34.9608 40.4592 34.9496 40.4663C33.4171 41.5394 32.7567 43.5945 33.3431 45.4633C33.7357 46.7136 33.6921 48.0732 33.2203 49.2913C32.7431 50.5232 33.0028 51.926 33.8819 52.8649L36.0435 55.1733L36.0436 55.1734C36.0347 55.2735 36.0303 55.3754 36.0303 55.4847C36.0303 56.3231 36.3128 57.1325 36.8253 57.7639L40.5874 62.4047C41.3408 63.3317 42.4113 63.8487 43.5312 63.8487C43.6624 63.8487 43.7946 63.8389 43.9268 63.8245L44.2266 65.6752C44.3536 66.4592 44.209 67.2605 43.8194 67.9316C43.1835 69.027 42.0341 70.5495 40.1692 71.5819C37.267 73.1885 36.7966 76.658 36.7244 77.9748C36.7092 78.2516 36.9157 78.4831 37.1723 78.4751C37.3975 78.4682 37.5804 78.2778 37.595 78.0348C37.6252 77.5311 37.7238 76.6414 38.0403 75.687C41.5124 76.601 44.7793 77.0622 47.786 77.0622C48.459 77.0622 49.1195 77.0392 49.7659 76.9929C52.7314 76.7808 55.419 76.0841 57.7538 74.9218C60.8617 73.3748 62.502 71.432 63.1134 70.5835C63.9674 71.3291 64.6327 72.0262 64.9887 72.4173C65.1522 72.597 65.418 72.6046 65.591 72.4354C65.7743 72.2562 65.7836 71.9488 65.6109 71.7577C64.7296 70.7829 62.1127 68.0914 59.2159 67.0477L59.1173 67.0117C57.0624 66.2495 55.5796 64.2474 55.3398 61.9111L55.1883 60.4351C55.7298 60.41 56.2699 60.2865 56.7918 60.0629C56.9925 59.9769 57.193 59.8596 57.2256 59.8391C59.7608 58.2465 61.1292 55.0988 60.6365 51.9664L60.3646 50.2379C63.7369 48.4267 67.1771 44.8311 69.6212 40.5471ZM39.6 75.1077C39.1869 75.0124 38.7833 74.9135 38.3905 74.8116C38.7193 74.1263 39.1825 73.4583 39.8318 72.9208L39.6 75.1077ZM71.39 27.3065L60.6421 46.2838C60.6351 45.9878 60.5999 45.6609 60.5258 45.301C60.4883 45.1184 60.4358 44.94 60.3709 44.767C60.4762 44.2465 61.1888 40.9203 62.907 37.2199C64.4625 33.8702 67.1589 29.5779 71.39 27.3065ZM61.6709 24.8744C60.6085 27.2473 58.5851 32.2935 58.1471 37.1624C57.5299 36.2391 56.7774 35.4336 55.923 34.7747C56.136 33.4692 57.281 27.9121 61.6709 24.8744ZM47.9257 33.7897L50.2297 33.7713C50.252 33.7711 50.2737 33.7711 50.296 33.7711C54.7857 33.7711 58.545 37.3923 59.0536 42.2216L59.1515 43.1517C59.1168 43.1264 59.0822 43.1013 59.0466 43.0774C54.6326 40.1194 50.2407 38.1729 45.9876 37.2839C45.9113 35.031 47.5458 33.9982 47.9257 33.7897ZM59.2039 44.4656C59.4333 44.771 59.5989 45.1258 59.6769 45.505C59.9038 46.6081 59.6886 47.2677 59.5088 47.5955C58.8792 47.1773 58.2406 46.7742 57.5942 46.3856L59.2039 44.4656ZM57.2482 45.3985L57.0401 42.8912C57.6587 43.2662 58.1683 43.5955 58.5475 43.8488L57.2482 45.3985ZM56.1667 42.892L56.3988 45.6884C55.6441 45.2623 54.8789 44.8573 54.1052 44.4716L56.1667 42.892ZM53.4821 43.7965L52.5548 40.506C53.7152 41.0396 54.7735 41.5908 55.6904 42.1046L53.4821 43.7965ZM51.6071 40.3693L52.5541 43.7298C51.3298 43.1706 50.0851 42.6625 48.8248 42.2051L51.6071 40.3693ZM48.0824 41.5935L47.3973 38.5816C48.5948 38.9184 49.7537 39.3266 50.8482 39.7688L48.0824 41.5935ZM46.5132 38.6328L47.1985 41.6459C45.8417 41.206 44.4687 40.8259 43.0845 40.5066L46.5132 38.6328ZM42.11 39.9859L41.7797 37.6734C43.0336 37.7077 44.2886 37.8699 45.5186 38.1231L42.11 39.9859ZM46.5625 33.694C45.8764 34.3615 45.1187 35.4694 45.1137 37.1138C42.7629 36.7024 40.9085 36.7054 39.6529 36.8095C41.3968 34.6807 43.944 33.5357 46.5625 33.694ZM41.2493 40.1211C40.5652 39.991 39.8791 39.8758 39.1913 39.7759L40.9648 38.1292L41.2493 40.1211ZM38.6517 37.8781C38.6575 37.877 38.6633 37.8755 38.6692 37.8746C39.1376 37.7968 39.6093 37.7427 40.0827 37.7089L38.6238 39.0636L38.6517 37.8781ZM36.5418 39.3697L37.7285 38.3277C37.7426 38.3153 37.7574 38.304 37.7719 38.2921L37.7415 39.5879C37.4469 39.5563 37.056 39.5192 36.5721 39.4768C36.56 39.4756 36.5348 39.4735 36.5238 39.4347C36.5125 39.3953 36.5323 39.3781 36.5418 39.3697ZM36.1123 53.9253L34.4932 52.1962C33.8679 51.5284 33.6832 50.5306 34.0226 49.6542C34.5764 48.2244 34.6275 46.6288 34.1667 45.1613C33.7106 43.7079 34.2193 42.1103 35.4043 41.268L36.8628 40.446C37.3022 40.486 37.645 40.5206 37.8813 40.5487C38.3669 40.6064 38.8519 40.6722 39.336 40.7452L39.0632 42.3218C38.8668 43.4687 38.221 44.4701 37.2919 45.0693L35.498 46.2232C35.3348 46.3282 35.2535 46.5355 35.2972 46.7353L35.556 47.9173C35.9879 49.892 36.1736 51.908 36.1123 53.9253ZM36.6357 48.9109C36.9174 48.8536 37.2151 48.8154 37.5291 48.8003C37.5415 48.7996 37.5537 48.7997 37.5661 48.7993C37.5405 48.9151 37.5259 49.0345 37.5259 49.157C37.5259 49.8842 37.9979 50.4934 38.6278 50.6486C38.0491 50.8082 37.4254 50.7668 36.8538 50.4984C36.798 49.9674 36.7247 49.438 36.6357 48.9109ZM38.3956 49.157C38.3956 49.0756 38.4108 48.997 38.4395 48.9247C38.8263 49.0512 39.152 49.2553 39.4083 49.4634C39.3113 49.6343 39.1376 49.7479 38.9425 49.7479C38.641 49.7479 38.3956 49.4828 38.3956 49.157ZM41.241 61.7848L37.4791 57.1441C37.1056 56.6842 36.9 56.0949 36.9 55.4848C36.9 55.4071 36.9029 55.3359 36.9092 55.2639C36.9919 54.2477 37.013 53.2303 36.9751 52.2162C37.0185 52.1858 37.059 52.1494 37.0913 52.1014L37.4037 51.6376C37.5116 51.6553 37.6199 51.6694 37.7282 51.6764L37.6924 52.0896C37.67 52.348 37.8457 52.5771 38.0848 52.6013C38.0986 52.6027 38.1123 52.6034 38.1259 52.6034C38.3477 52.6034 38.5372 52.4207 38.5584 52.1772L38.607 51.6164C38.7657 51.5845 38.9223 51.5415 39.0759 51.4871L39.292 51.9172C39.3709 52.0741 39.5203 52.163 39.6747 52.163C39.7448 52.163 39.8159 52.1447 39.8818 52.106C40.0928 51.9821 40.171 51.6968 40.0564 51.4686L39.8659 51.0895C40.2072 50.8596 40.5177 50.5656 40.7807 50.2104C40.9003 50.049 40.9081 49.8219 40.8002 49.6513C40.793 49.64 40.7605 49.5895 40.7035 49.5125L41.0292 49.0838C41.1816 48.8832 41.1547 48.5869 40.969 48.4222C40.7834 48.2577 40.5093 48.2866 40.3569 48.4873L40.0877 48.8417C39.9681 48.7349 39.8339 48.6267 39.6853 48.5225L39.7961 48.2008C39.88 47.9576 39.7656 47.687 39.5404 47.5962C39.3156 47.5055 39.065 47.6293 38.9811 47.8726L38.9032 48.0983C38.6517 47.9986 38.3765 47.923 38.0782 47.885L38.0709 47.3685C38.0672 47.1114 37.8732 46.9058 37.6361 46.9058C37.6338 46.9058 37.6316 46.9058 37.6293 46.9058C37.3891 46.9098 37.1974 47.1235 37.2011 47.3831L37.2082 47.8824C36.951 47.9048 36.7019 47.9406 36.4624 47.9899C36.4425 47.8936 36.423 47.7973 36.402 47.7012L36.2168 46.8548L37.7368 45.8771C37.7883 45.8439 37.8383 45.8085 37.8883 45.7732C38.3229 45.7821 38.6856 46.0032 38.9906 46.4507C39.2607 46.8471 39.3739 47.2695 39.3769 47.281C39.4302 47.4891 39.6051 47.6257 39.7959 47.6257C39.8339 47.6257 39.8725 47.6203 39.911 47.6089C40.1426 47.5404 40.2791 47.2819 40.2157 47.0315C40.0638 46.4317 39.5866 45.4421 38.722 45.0251C39.3333 44.3299 39.7537 43.4534 39.918 42.494L40.1966 40.8844C42.0992 41.208 43.9866 41.6497 45.8463 42.2042L46.0683 44.472C43.9829 44.7116 42.9209 46.1873 42.8737 46.2545C42.7288 46.4605 42.7659 46.7535 42.9559 46.9109C43.0346 46.9763 43.1274 47.0078 43.2197 47.0078C43.3501 47.0078 43.4792 46.9448 43.565 46.8249C43.6035 46.7712 44.4719 45.5868 46.1918 45.4026C46.3648 46.1162 46.7756 46.7232 47.3337 47.119C47.2108 47.1742 47.1123 47.2878 47.0777 47.4378L46.9672 47.9154C46.8165 47.8873 46.6636 47.8681 46.509 47.861C46.3949 47.8553 46.2814 47.8566 46.1683 47.8626L46.1407 47.179C46.1302 46.9196 45.9307 46.718 45.6872 46.73C45.4473 46.7414 45.2613 46.9608 45.2718 47.2201L45.3043 48.0241C45.0708 48.1002 44.8449 48.2012 44.63 48.3265L44.4463 47.7511C44.3679 47.5058 44.1205 47.3754 43.8934 47.46C43.6664 47.5448 43.5458 47.8123 43.6241 48.0577L43.8921 48.897C43.8354 48.9536 43.7797 49.0116 43.7261 49.0724L43.5174 49.309L43.2767 48.8267C43.1628 48.5983 42.899 48.5126 42.6875 48.6361C42.4762 48.7593 42.3972 49.0444 42.5112 49.2728L42.8877 50.0273C42.8191 50.1163 42.7814 50.2286 42.7855 50.3451C42.79 50.472 42.8418 50.5916 42.9291 50.6766C42.9514 50.6982 43.2758 51.0059 43.9442 51.276L43.8135 51.9484C43.764 52.2025 43.9144 52.4517 44.1495 52.5051C44.1796 52.512 44.2098 52.5153 44.2394 52.5153C44.4408 52.5153 44.6216 52.3632 44.6645 52.1419L44.7829 51.5333C45.0995 51.6034 45.4586 51.6555 45.8627 51.6761L45.8831 52.1971C45.893 52.4497 46.0856 52.6473 46.3173 52.6473C46.3236 52.6473 46.3297 52.6471 46.336 52.6468C46.576 52.6359 46.7623 52.4167 46.752 52.1574L46.7307 51.613C47.1806 51.521 47.573 51.3451 47.9044 51.1389L48.0292 51.5036C48.0941 51.6931 48.2602 51.8105 48.437 51.8105C48.4872 51.8105 48.5382 51.8011 48.588 51.7811C48.8131 51.691 48.9283 51.4207 48.8448 51.1771L48.6348 50.564C48.9905 50.2179 49.1842 49.9181 49.2034 49.8877C49.3115 49.7171 49.3037 49.4901 49.1841 49.3286C49.1694 49.3088 49.1535 49.29 49.1385 49.2704L49.5578 48.673C49.5766 48.6462 49.592 48.6178 49.6047 48.5886C49.8823 49.1191 49.9383 49.7534 49.7574 50.331L49.4911 51.1811C49.1068 52.4088 49.1616 53.7378 49.6456 54.9234C49.8081 55.3218 50.0144 55.8481 50.1665 56.3863L50.232 56.6186C50.3552 57.0546 50.5293 57.4681 50.7461 57.8516C50.3277 58.657 49.8109 59.3951 49.2045 60.0471C47.776 61.5853 45.9654 62.5631 43.9691 62.8748C42.9446 63.0332 41.9248 62.626 41.241 61.7848ZM47.9186 47.4341C48.0359 47.4791 48.1569 47.5162 48.2816 47.5442C48.5758 47.6101 48.8477 47.7484 49.0815 47.9414C48.9982 47.9696 48.9218 48.0241 48.8651 48.1049L48.5026 48.6215C48.2844 48.4478 48.0494 48.3013 47.8017 48.1846L47.9218 47.666C47.9399 47.5867 47.9364 47.5079 47.9186 47.4341ZM48.2705 49.6372C47.9077 50.0581 47.1 50.7936 45.9289 50.7386C44.9453 50.6923 44.2825 50.4374 43.9025 50.2346L44.3555 49.7211C44.541 49.5109 44.7519 49.3343 44.9802 49.1928C45.0518 49.9652 45.6566 50.5703 46.3898 50.5703C47.1073 50.5703 47.7005 49.9893 47.7917 49.2395C47.9632 49.3531 48.1247 49.4846 48.2705 49.6372ZM45.8428 49.0392C45.8428 48.9714 45.8546 48.9053 45.8753 48.8422C46.0701 48.8054 46.2698 48.7907 46.4712 48.8002C46.6199 48.8073 46.7663 48.8294 46.9099 48.8614C46.9265 48.9187 46.9354 48.9784 46.9354 49.0392C46.9354 49.3651 46.6906 49.6303 46.3897 49.6303C46.0882 49.6303 45.8428 49.3651 45.8428 49.0392ZM40.7733 72.2975C40.9432 72.1978 41.1093 72.0956 41.268 71.9891C41.806 72.1256 42.3357 72.2388 42.8567 72.3313L40.5375 74.5229L40.7733 72.2975ZM40.9362 75.3948L43.4325 73.0357L44.1693 75.8988C43.0565 75.7735 41.9726 75.6 40.9362 75.3948ZM44.2045 72.5272C45.0358 72.6214 45.8415 72.6644 46.6181 72.6644C46.8265 72.6644 47.0329 72.6612 47.237 72.6554L44.9638 75.4776L44.2045 72.5272ZM45.6681 76.0348L48.1725 72.9255L49.9716 76.0238C48.5271 76.1397 47.0813 76.1319 45.6681 76.0348ZM48.9721 72.5342C50.1783 72.4008 51.2893 72.1739 52.2922 71.9013L50.6762 75.4689L48.9721 72.5342ZM51.4687 75.8573L53.2412 71.9443L56.029 74.6722C54.5537 75.2554 53.0193 75.6352 51.4687 75.8573ZM56.5187 73.8833L53.9582 71.3777C54.2097 71.2875 54.4522 71.1958 54.6832 71.1034C55.5444 70.7594 56.3096 70.3925 56.9728 70.0374L56.5187 73.8833ZM57.3726 74.076L57.8241 70.2519L59.8395 72.5619C59.1678 73.0657 58.3482 73.5916 57.3726 74.076ZM61.0687 69.0262C61.5453 69.3345 62.0006 69.669 62.424 70.0076C62.2272 70.2791 61.903 70.6894 61.435 71.169C61.2982 71.3091 61.1429 71.4608 60.9707 71.6202L61.0687 69.0262ZM59.7213 68.2672C59.888 68.3464 60.0535 68.4306 60.2173 68.5194L60.1051 71.4959L58.2088 69.3225C58.9427 68.8639 59.4547 68.4788 59.7213 68.2672ZM58.7357 67.8624C57.938 68.4356 56.4354 69.4012 54.3814 70.2219C51.6304 71.3211 47.3424 72.353 42.2332 71.2528C43.3258 70.3095 44.0757 69.2587 44.556 68.4313C44.6116 68.3356 44.6627 68.2373 44.7105 68.1377L44.7908 68.5691C44.8324 68.7922 45.0138 68.9465 45.2167 68.9465C45.2451 68.9465 45.274 68.9434 45.3029 68.9371C45.5384 68.8859 45.6908 68.6382 45.6434 68.3836L44.9112 64.4516L44.7845 63.6696C46.6938 63.2273 48.4228 62.2156 49.8182 60.7133C50.3911 60.0971 50.8908 59.4104 51.3116 58.6669C51.7404 59.178 52.2585 59.6024 52.8435 59.9066C53.3156 60.1522 53.8084 60.3112 54.3078 60.3874L54.4749 62.0151C54.7478 64.6729 56.4153 66.9551 58.7357 67.8624ZM56.7064 59.0771C56.6868 59.0879 56.6049 59.1319 56.4707 59.1893C55.4099 59.644 54.2555 59.598 53.2205 59.0596C52.1854 58.5213 51.3993 57.5315 51.0639 56.3443L50.9982 56.1119C50.8328 55.5263 50.6137 54.9664 50.4412 54.5441C50.0453 53.5742 50.0005 52.4869 50.315 51.4825L50.5813 50.6324C50.8431 49.7964 50.7605 48.8774 50.3549 48.1115C49.9493 47.3452 49.2578 46.8031 48.4582 46.6236C47.6603 46.4448 47.0666 45.736 46.9809 44.8601L46.7482 42.4834C51.1267 43.8822 55.3372 45.9087 59.2087 48.5014L59.7785 52.1242C60.216 54.9042 58.9814 57.6976 56.7064 59.0771ZM59.9178 42.1154C59.7838 40.8436 59.4429 39.6495 58.9368 38.5668C59.0191 35.1126 60.1252 31.3547 61.0451 28.7974C61.6546 27.1032 62.2636 25.7011 62.6552 24.8469C63.4186 27.2784 63.5198 30.8136 62.9438 35.1672C62.6588 35.7 62.3835 36.2504 62.1195 36.8201C61.0582 39.1098 60.3778 41.2267 59.9775 42.6823L59.9178 42.1154ZM60.2115 49.2673L60.1595 48.9362L72.1923 27.6903C72.6827 36.054 66.5047 45.7385 60.2115 49.2673Z" fill="black"/>
</svg>
