<svg width="30" height="30" viewBox="0 0 30 30" fill="none" xmlns="http://www.w3.org/2000/svg">
<g clip-path="url(#clip0_545_372)">
<path d="M12.5789 23.6033C11.124 23.6033 9.94043 24.7869 9.94043 26.2417C9.94043 27.6965 11.124 28.8801 12.5789 28.8801C14.0337 28.8801 15.2173 27.6965 15.2173 26.2417C15.2172 24.7869 14.0336 23.6033 12.5789 23.6033ZM12.5789 27.4068C11.9363 27.4068 11.4136 26.8841 11.4136 26.2416C11.4136 25.599 11.9364 25.0763 12.5789 25.0763C13.2213 25.0763 13.7441 25.5991 13.7441 26.2416C13.7441 26.8842 13.2213 27.4068 12.5789 27.4068Z" fill="#5A5A5A"/>
<path d="M21.8337 23.6033C20.3789 23.6033 19.1953 24.7869 19.1953 26.2417C19.1953 27.6965 20.3789 28.8801 21.8337 28.8801C23.2886 28.8801 24.4722 27.6965 24.4722 26.2417C24.4721 24.7869 23.2885 23.6033 21.8337 23.6033ZM21.8337 27.4068C21.1912 27.4068 20.6685 26.8841 20.6685 26.2416C20.6685 25.599 21.1913 25.0763 21.8337 25.0763C22.4763 25.0763 22.999 25.5991 22.999 26.2416C22.999 26.8842 22.4762 27.4068 21.8337 27.4068Z" fill="#5A5A5A"/>
<path d="M22.4836 9.71216H11.928C11.5212 9.71216 11.1914 10.0419 11.1914 10.4487C11.1914 10.8556 11.5212 11.1853 11.928 11.1853H22.4836C22.8904 11.1853 23.2202 10.8556 23.2202 10.4487C23.2202 10.0419 22.8904 9.71216 22.4836 9.71216Z" fill="#5A5A5A"/>
<path d="M21.9088 13.5374H12.5022C12.0954 13.5374 11.7656 13.8671 11.7656 14.2739C11.7656 14.6808 12.0954 15.0105 12.5022 15.0105H21.9087C22.3155 15.0105 22.6453 14.6808 22.6453 14.2739C22.6453 13.8672 22.3155 13.5374 21.9088 13.5374Z" fill="#5A5A5A"/>
<path d="M29.6685 6.43024C29.3876 6.08547 28.9714 5.88777 28.5266 5.88777H5.58273L5.11937 3.63841C5.02263 3.16919 4.70259 2.77521 4.26308 2.58437L1.03005 1.18105C0.656805 1.01892 0.223035 1.19019 0.0611398 1.56331C-0.100931 1.93656 0.070339 2.37038 0.443406 2.53228L3.6765 3.93566L7.24053 21.2361C7.38092 21.9175 7.98772 22.412 8.6834 22.412H26.3299C26.7367 22.412 27.0665 22.0822 27.0665 21.6754C27.0665 21.2686 26.7367 20.9388 26.3299 20.9388H8.68346L8.24992 18.8344H26.4663C27.1619 18.8344 27.7688 18.3398 27.9091 17.6585L29.9694 7.65801C30.0591 7.22254 29.9495 6.77494 29.6685 6.43024ZM26.4663 17.3613H7.94647L5.88625 7.36088L28.5265 7.36094L26.4663 17.3613Z" fill="#5A5A5A"/>
</g>
<defs>
<clipPath id="clip0_545_372">
<rect width="30" height="30" fill="white"/>
</clipPath>
</defs>
</svg>
