<svg width="20" height="20" viewBox="0 0 20 20" fill="none" xmlns="http://www.w3.org/2000/svg">
<path d="M3.31416 8.20008C3.34768 7.78242 3.53729 7.39271 3.84522 7.10855C4.15315 6.8244 4.55682 6.66666 4.97582 6.66675H15.0242C15.4432 6.66666 15.8468 6.8244 16.1548 7.10855C16.4627 7.39271 16.6523 7.78242 16.6858 8.20008L17.355 16.5334C17.3734 16.7627 17.3441 16.9934 17.269 17.2109C17.1939 17.4283 17.0746 17.6279 16.9186 17.797C16.7626 17.966 16.5732 18.101 16.3625 18.1933C16.1518 18.2856 15.9242 18.3333 15.6942 18.3334H4.30582C4.07576 18.3333 3.8482 18.2856 3.63747 18.1933C3.42675 18.101 3.23742 17.966 3.0814 17.797C2.92539 17.6279 2.80607 17.4283 2.73097 17.2109C2.65586 16.9934 2.62659 16.7627 2.64499 16.5334L3.31416 8.20008V8.20008Z" stroke="black" stroke-width="2" stroke-linecap="round" stroke-linejoin="round"/>
<path d="M13.3334 9.16675V5.00008C13.3334 4.11603 12.9822 3.26818 12.3571 2.64306C11.732 2.01794 10.8841 1.66675 10.0001 1.66675C9.11603 1.66675 8.26818 2.01794 7.64306 2.64306C7.01794 3.26818 6.66675 4.11603 6.66675 5.00008V9.16675" stroke="black" stroke-width="2" stroke-linecap="round" stroke-linejoin="round"/>
</svg>
