<svg width="50" height="50" viewBox="0 0 50 50" fill="none" xmlns="http://www.w3.org/2000/svg">
<path d="M46.6301 12.2587L44.9599 6.41323C44.864 6.0772 44.5568 5.84546 44.2072 5.84546H43.3721C43.0225 5.84546 42.7154 6.0772 42.6194 6.41323L40.9493 12.2587C40.8305 12.6745 41.0711 13.1078 41.487 13.2266C41.9028 13.3453 42.336 13.1048 42.4548 12.6889L42.7698 11.5866H44.8097L45.1247 12.689C45.2229 13.0329 45.5364 13.257 45.8771 13.257C45.9483 13.257 46.0207 13.2471 46.0925 13.2266C46.5081 13.1078 46.7489 12.6745 46.6301 12.2587ZM43.2169 10.0208L43.7896 8.01665L44.3623 10.0208H43.2169Z" fill="#263238"/>
<path d="M46.7121 1.67012H42.1807C42.1934 1.31279 42.0863 0.960449 41.8673 0.661523C41.5592 0.241113 41.0835 0 40.5622 0H30.8457C29.0326 0 27.5576 1.4751 27.5576 3.28809V12.4739C27.5576 14.0174 28.6265 15.3158 30.0628 15.6679V19.1545C30.0628 19.4711 30.2535 19.7566 30.5461 19.8777C30.643 19.9178 30.7446 19.9373 30.8456 19.9373C31.0493 19.9373 31.2496 19.8577 31.3993 19.708L35.3452 15.762H36.2121C36.1994 16.1193 36.3064 16.4717 36.5255 16.7706C36.8336 17.191 37.3093 17.4322 37.8305 17.4322H46.712C48.5251 17.4322 50.0001 15.9571 50.0001 14.1441V4.9582C50.0002 3.14521 48.5251 1.67012 46.7121 1.67012ZM36.6449 14.1963H35.0211C34.8135 14.1963 34.6144 14.2787 34.4676 14.4256L31.6286 17.2646V14.9792C31.6286 14.5469 31.2781 14.1963 30.8457 14.1963C29.896 14.1963 29.1233 13.4236 29.1233 12.4739V3.28809C29.1233 2.33838 29.896 1.56572 30.8457 1.56572H40.5622C40.5708 1.56572 40.5886 1.56572 40.6043 1.58701C40.6199 1.6084 40.6146 1.62539 40.612 1.63359L37.9281 10.1327C37.893 10.1117 37.8563 10.0924 37.8172 10.0768C37.1533 9.81133 36.5738 9.46133 36.0797 9.03145C36.9586 7.81309 37.2839 6.53496 37.4039 5.74102H38.3614C38.7938 5.74102 39.1443 5.39053 39.1443 4.95811C39.1443 4.52578 38.7938 4.1752 38.3614 4.1752H35.8039V4.12305C35.8039 3.69072 35.4534 3.34014 35.021 3.34014C34.5886 3.34014 34.2381 3.69063 34.2381 4.12305V4.1752H31.6807C31.2483 4.1752 30.8978 4.52568 30.8978 4.95811C30.8978 5.39053 31.2482 5.74102 31.6807 5.74102H35.8133C35.7083 6.27822 35.4861 7.02656 35.0191 7.7793C34.8938 7.57607 34.7789 7.36377 34.6769 7.14023C34.4973 6.74678 34.0326 6.57383 33.6395 6.75342C33.2461 6.93311 33.073 7.39756 33.2526 7.79082C33.4529 8.22949 33.6925 8.63994 33.9676 9.0209C33.5052 9.42666 32.9341 9.79307 32.2249 10.0768C31.8234 10.2374 31.6282 10.693 31.7888 11.0944C31.9112 11.4006 32.2052 11.5868 32.5159 11.5868C32.6127 11.5868 32.7111 11.5687 32.8064 11.5307C33.7115 11.1686 34.4406 10.7028 35.0288 10.1868C35.6622 10.7438 36.4017 11.1971 37.2354 11.5307C37.3123 11.5613 37.3911 11.5785 37.4696 11.5842L36.6449 14.1963ZM48.4345 14.144C48.4345 15.0938 47.6618 15.8664 46.7121 15.8664H37.8307C37.8221 15.8664 37.8043 15.8664 37.7886 15.845C37.773 15.8236 37.7783 15.8067 37.781 15.7984L41.748 3.23594H46.712C47.6617 3.23594 48.4344 4.00859 48.4344 4.9583V14.144H48.4345Z" fill="#263238"/>
<path d="M32.058 40.2275L24.739 37.9756C24.3644 37.8604 24.1127 37.5195 24.1127 37.1275V34.274L24.539 33.9188C25.3048 33.2807 25.8133 32.387 25.9708 31.4027L26.0683 30.7934H26.67C28.0227 30.7934 29.123 29.693 29.123 28.3403V26.6702C29.123 25.4692 28.2553 24.4677 27.1139 24.2582L27.8754 19.4986C28.2212 17.3372 27.6051 15.1425 26.1848 13.477C24.7645 11.8114 22.6946 10.856 20.5058 10.856H14.4628C12.2738 10.856 10.2039 11.8111 8.78369 13.4768C7.36348 15.1423 6.74727 17.3372 7.09307 19.4984L7.85459 24.258C6.71328 24.4676 5.84551 25.4691 5.84551 26.6701V28.3402C5.84551 29.6929 6.9459 30.7933 8.29854 30.7933H8.90029L8.99775 31.4026C9.15527 32.387 9.66377 33.2805 10.4296 33.9188L10.8559 34.274V37.1274C10.8559 37.5194 10.6042 37.8603 10.2296 37.9755L2.91055 40.2274C1.16973 40.7633 0 42.347 0 44.1684V47.5469C0 48.8995 1.10039 49.9999 2.45303 49.9999H32.5156C33.8683 49.9999 34.9687 48.8995 34.9687 47.5469V44.1684C34.9687 42.347 33.7989 40.7633 32.058 40.2275ZM27.5574 26.67V28.3401C27.5574 28.8294 27.1594 29.2274 26.6701 29.2274H26.3188L26.8663 25.8054C27.2615 25.8951 27.5574 26.2483 27.5574 26.67ZM8.29854 29.2274C7.80928 29.2274 7.41123 28.8294 7.41123 28.3401V26.67C7.41123 26.2483 7.70713 25.8951 8.10215 25.8054L8.64971 29.2274H8.29854ZM8.63936 19.2512C8.36602 17.5432 8.85293 15.8088 9.9752 14.4926C11.0976 13.1765 12.7332 12.4216 14.4629 12.4216H20.5059C22.2355 12.4216 23.8712 13.1764 24.9936 14.4926C26.1158 15.8087 26.6028 17.5432 26.3295 19.2512L25.5351 24.217H24.8725C24.8468 24.217 24.8252 24.1986 24.821 24.1733L24.2186 20.5584C24.088 19.7751 23.4168 19.2065 22.6227 19.2065H12.3464C11.5522 19.2065 10.8811 19.7751 10.7505 20.5585L10.148 24.1733C10.1438 24.1986 10.1222 24.217 10.0966 24.217H9.43398L8.63936 19.2512ZM10.5438 31.1553L9.68428 25.7828H10.0964C10.8905 25.7828 11.5617 25.2143 11.6923 24.4309L12.2947 20.816C12.299 20.7907 12.3206 20.7724 12.3462 20.7724H22.6224C22.648 20.7724 22.6696 20.7907 22.6738 20.816L23.2763 24.431C23.4068 25.2143 24.078 25.7828 24.8722 25.7828H25.2843L24.6826 29.5436C24.5 29.749 22.5983 31.7327 17.4844 31.7327C17.052 31.7327 16.7015 32.0832 16.7015 32.5156C16.7015 32.948 17.052 33.2985 17.4844 33.2985C20.7665 33.2985 22.9142 32.5459 24.2229 31.8192C24.065 32.1629 23.8317 32.4701 23.5367 32.716L20.1852 35.509C19.8763 35.7664 19.4847 35.9081 19.0825 35.9081H15.886C15.484 35.9081 15.0923 35.7663 14.7834 35.509L11.4318 32.716C10.957 32.32 10.6415 31.7657 10.5438 31.1553ZM10.69 39.4722C11.7258 39.1535 12.4217 38.2113 12.4217 37.1276V35.579L13.7811 36.7119C14.3708 37.2033 15.1185 37.474 15.886 37.474H19.0825C19.8502 37.474 20.5978 37.2033 21.1875 36.7119L22.5469 35.5789V37.1275C22.5469 38.2112 23.2428 39.1534 24.2785 39.4721L24.6737 39.5937C21.8981 43.8521 18.2089 44.9063 17.4824 45.0771C16.7487 44.9088 13.0801 43.8744 10.2945 39.5938L10.69 39.4722ZM5.84551 48.4342H2.45303C1.96377 48.4342 1.56572 48.0361 1.56572 47.5469V44.1684C1.56572 43.7253 1.67871 43.3058 1.87939 42.9383L5.22578 45.7269C5.61963 46.0551 5.84551 46.5374 5.84551 47.05V48.4342ZM27.5574 47.0501V48.4341H7.41123V47.0501C7.41123 46.0713 6.97998 45.1506 6.22813 44.5241L3.02871 41.8579C3.13838 41.8063 3.25225 41.7605 3.371 41.724L8.74277 40.0713C12.2185 45.7319 17.1419 46.6134 17.3555 46.6489C17.398 46.6561 17.441 46.6596 17.4842 46.6596C17.5273 46.6596 17.5703 46.6561 17.6129 46.6489C17.8265 46.6133 22.7501 45.7319 26.2256 40.0713L31.5974 41.7241C31.7161 41.7606 31.8299 41.8063 31.9396 41.858L28.7404 44.5242C27.9887 45.1507 27.5574 46.0713 27.5574 47.0501ZM33.4029 47.5469C33.4029 48.0361 33.0049 48.4342 32.5156 48.4342H29.1231V47.0502C29.1231 46.5375 29.349 46.0552 29.7429 45.7271L33.0893 42.9385C33.2899 43.3059 33.4029 43.7254 33.4029 44.1686V47.5469Z" fill="#263238"/>
</svg>
