<svg width="180" height="180" viewBox="0 0 180 180" fill="none" xmlns="http://www.w3.org/2000/svg">
<g filter="url(#filter0_f_525_311)">
<rect x="50" y="50" width="80" height="80" rx="8" fill="#FFBC99" fill-opacity="0.3"/>
</g>
<rect x="30" y="55" width="80" height="80" rx="8" fill="#FFBC99"/>
<path d="M64.2292 98.5264L63.3838 97.8664C63.2419 97.7556 63.0445 97.7832 62.9335 97.9299L62.6207 98.3431L62.382 98.053C62.2733 97.9206 62.0914 97.8941 61.9541 97.9907L61.1381 98.5639C60.9846 98.6716 60.9412 98.8933 61.0409 99.0591C61.1405 99.225 61.3457 99.2719 61.499 99.1641L61.6068 99.0884C61.7419 99.6152 62.1905 99.9936 62.7054 99.9936C62.7229 99.9936 62.7404 99.9931 62.758 99.9922C63.0081 99.9798 63.2421 99.8824 63.4359 99.7097C63.6153 99.5485 63.7458 99.3263 63.8077 99.0804L63.8414 99.1067C63.9896 99.2225 64.1967 99.1865 64.3037 99.0261C64.4108 98.8658 64.3775 98.6421 64.2292 98.5264Z" fill="black"/>
<path d="M61.9797 96.8147C62.1169 96.8147 62.228 96.6495 62.228 96.4456C62.228 96.2418 62.1169 96.0766 61.9797 96.0766C61.8426 96.0766 61.7314 96.2418 61.7314 96.4456C61.7314 96.6495 61.8426 96.8147 61.9797 96.8147Z" fill="black"/>
<path d="M62.8792 96.7812C63.0163 96.7812 63.1275 96.616 63.1275 96.4122C63.1275 96.2084 63.0163 96.0432 62.8792 96.0432C62.742 96.0432 62.6309 96.2084 62.6309 96.4122C62.6309 96.616 62.742 96.7812 62.8792 96.7812Z" fill="black"/>
<path d="M83.3574 85.8779C85.4739 82.1683 86.3641 78.2881 85.8643 74.9519C85.8485 74.8457 85.7892 74.7529 85.7031 74.6992C85.6166 74.6453 85.5127 74.6362 85.4197 74.6746C82.9949 75.671 80.8439 77.6154 79.0985 80.3632C79.3915 77.1442 79.1535 74.6407 78.387 72.9088C78.3083 72.7308 78.1113 72.6551 77.9463 72.7397C75.8952 73.7916 74.2572 75.6589 73.2099 78.1399C72.6938 79.3627 72.4393 80.4447 72.3233 81.0636C71.2362 80.3872 69.9777 80.0019 68.6406 80.0019C68.6222 80.0019 68.6036 80.0019 68.5852 80.0021L66.5037 80.0187C63.904 79.5965 61.3008 80.7362 59.7049 82.9962L59.5935 83.1539C59.2503 83.2278 58.9264 83.3912 58.6521 83.6321L57.7674 84.409C57.574 84.5787 57.4624 84.8423 57.4932 85.1094C57.5077 85.2349 57.5492 85.3482 57.6096 85.4449L56.9792 85.8002C56.9707 85.8056 56.9622 85.8109 56.9537 85.8163C55.7866 86.6335 55.2836 88.1986 55.7302 89.6217C56.0292 90.5739 55.996 91.6093 55.6367 92.5369C55.2733 93.475 55.4711 94.5433 56.1405 95.2583L57.7866 97.0163L57.7867 97.0164C57.7799 97.0926 57.7766 97.1702 57.7766 97.2534C57.7766 97.8919 57.9917 98.5083 58.382 98.9891L61.247 102.523C61.8208 103.229 62.636 103.623 63.4889 103.623C63.5888 103.623 63.6895 103.615 63.7901 103.604L64.0184 105.014C64.1151 105.611 64.005 106.221 63.7083 106.732C63.2241 107.566 62.3488 108.726 60.9285 109.512C58.7184 110.736 58.3602 113.378 58.3052 114.38C58.2936 114.591 58.4509 114.768 58.6463 114.761C58.8178 114.756 58.9571 114.611 58.9682 114.426C58.9912 114.043 59.0663 113.365 59.3073 112.638C61.9514 113.334 64.4393 113.686 66.729 113.686C67.2416 113.686 67.7446 113.668 68.2368 113.633C70.4952 113.471 72.5418 112.941 74.3199 112.056C76.6867 110.877 77.9359 109.398 78.4014 108.752C79.0518 109.32 79.5585 109.85 79.8295 110.148C79.9541 110.285 80.1565 110.291 80.2882 110.162C80.4278 110.026 80.4349 109.791 80.3034 109.646C79.6322 108.904 77.6394 106.854 75.4333 106.059L75.3582 106.032C73.7933 105.451 72.6642 103.927 72.4816 102.147L72.3661 101.023C72.7785 101.004 73.1899 100.91 73.5873 100.74C73.7401 100.674 73.8929 100.585 73.9176 100.569C75.8483 99.3566 76.8904 96.9595 76.5152 94.5741L76.3081 93.2578C78.8763 91.8784 81.4961 89.1403 83.3574 85.8779ZM60.4951 112.197C60.1805 112.125 59.8731 112.049 59.574 111.972C59.8244 111.45 60.1772 110.941 60.6716 110.532L60.4951 112.197ZM84.7044 75.7946L76.5194 90.2466C76.5141 90.0212 76.4873 89.7722 76.4309 89.4981C76.4024 89.3591 76.3624 89.2232 76.3129 89.0915C76.3931 88.6951 76.9358 86.1621 78.2443 83.3441C79.4288 80.7931 81.4823 77.5244 84.7044 75.7946ZM77.3029 73.9425C76.4938 75.7495 74.953 79.5924 74.6194 83.3002C74.1494 82.5971 73.5763 81.9837 72.9257 81.482C73.0879 80.4878 73.9598 76.2558 77.3029 73.9425ZM66.8354 80.7318L68.59 80.7179C68.607 80.7177 68.6235 80.7177 68.6405 80.7177C72.0596 80.7177 74.9224 83.4754 75.3097 87.1531L75.3843 87.8613C75.3579 87.8421 75.3315 87.8229 75.3044 87.8048C71.943 85.5522 68.5984 84.0698 65.3595 83.3928C65.3014 81.6771 66.5461 80.8907 66.8354 80.7318ZM75.4242 88.862C75.5989 89.0945 75.725 89.3647 75.7844 89.6535C75.9572 90.4936 75.7933 90.9958 75.6564 91.2455C75.1769 90.927 74.6906 90.62 74.1984 90.3241L75.4242 88.862ZM73.9348 89.5724L73.7764 87.6629C74.2475 87.9486 74.6355 88.1993 74.9243 88.3923L73.9348 89.5724ZM73.1113 87.6636L73.2881 89.7932C72.7133 89.4687 72.1306 89.1602 71.5413 88.8665L73.1113 87.6636ZM71.0668 88.3524L70.3607 85.8466C71.2444 86.2529 72.0503 86.6727 72.7486 87.0639L71.0668 88.3524ZM69.639 85.7425L70.3601 88.3016C69.4278 87.8757 68.4799 87.4888 67.5201 87.1405L69.639 85.7425ZM66.9548 86.6748L66.433 84.3811C67.345 84.6375 68.2275 84.9484 69.061 85.2851L66.9548 86.6748ZM65.7597 84.4201L66.2817 86.7147C65.2484 86.3796 64.2028 86.0901 63.1487 85.847L65.7597 84.4201ZM62.4066 85.4505L62.155 83.6894C63.1099 83.7155 64.0656 83.839 65.0023 84.0319L62.4066 85.4505ZM65.7973 80.659C65.2748 81.1673 64.6978 82.011 64.694 83.2633C62.9037 82.95 61.4915 82.9522 60.5353 83.0315C61.8634 81.4104 63.8032 80.5384 65.7973 80.659ZM61.7511 85.5534C61.2301 85.4543 60.7076 85.3666 60.1839 85.2906L61.5344 84.0365L61.7511 85.5534ZM59.7729 83.8453C59.7774 83.8445 59.7817 83.8433 59.7862 83.8426C60.143 83.7834 60.5021 83.7422 60.8627 83.7164L59.7517 84.7481L59.7729 83.8453ZM58.1662 84.9812L59.0699 84.1877C59.0806 84.1783 59.0919 84.1697 59.1029 84.1606L59.0797 85.1474C58.8554 85.1233 58.5577 85.0951 58.1892 85.0628C58.18 85.0619 58.1608 85.0602 58.1524 85.0307C58.1438 85.0007 58.1589 84.9876 58.1662 84.9812ZM57.8391 96.0658L56.6061 94.7491C56.1299 94.2405 55.9892 93.4807 56.2477 92.8133C56.6694 91.7244 56.7083 90.5093 56.3575 89.3917C56.01 88.285 56.3974 87.0683 57.2999 86.4269L58.4106 85.8008C58.7452 85.8313 59.0063 85.8577 59.1862 85.879C59.556 85.923 59.9254 85.9731 60.2941 86.0288L60.0863 87.2294C59.9367 88.1028 59.4449 88.8654 58.7374 89.3217L57.3713 90.2004C57.247 90.2804 57.1851 90.4383 57.2183 90.5904L57.4154 91.4905C57.7443 92.9943 57.8858 94.5296 57.8391 96.0658ZM58.2376 92.2472C58.4521 92.2035 58.6789 92.1745 58.918 92.163C58.9275 92.1625 58.9367 92.1626 58.9462 92.1622C58.9267 92.2504 58.9155 92.3414 58.9155 92.4346C58.9155 92.9884 59.275 93.4523 59.7548 93.5705C59.314 93.6921 58.839 93.6606 58.4037 93.4562C58.3612 93.0518 58.3054 92.6486 58.2376 92.2472ZM59.5779 92.4346C59.5779 92.3727 59.5895 92.3128 59.6114 92.2577C59.9059 92.3541 60.1539 92.5095 60.3491 92.668C60.2752 92.7981 60.143 92.8846 59.9944 92.8846C59.7648 92.8846 59.5779 92.6827 59.5779 92.4346ZM61.7448 102.051L58.8799 98.5171C58.5955 98.1669 58.4389 97.7181 58.4389 97.2535C58.4389 97.1943 58.4411 97.1401 58.4459 97.0853C58.5089 96.3114 58.525 95.5366 58.4961 94.7644C58.5291 94.7412 58.56 94.7134 58.5846 94.6769L58.8225 94.3237C58.9047 94.3372 58.9872 94.3479 59.0696 94.3533L59.0424 94.6679C59.0253 94.8647 59.1591 95.0392 59.3412 95.0576C59.3517 95.0587 59.3621 95.0592 59.3725 95.0592C59.5414 95.0592 59.6857 94.9201 59.7018 94.7347L59.7389 94.3075C59.8597 94.2833 59.979 94.2505 60.0959 94.2091L60.2605 94.5366C60.3206 94.6561 60.4344 94.7238 60.552 94.7238C60.6054 94.7238 60.6595 94.7099 60.7097 94.6804C60.8704 94.586 60.9299 94.3687 60.8427 94.195L60.6976 93.9063C60.9575 93.7312 61.194 93.5074 61.3942 93.2368C61.4853 93.1139 61.4913 92.941 61.4091 92.8111C61.4036 92.8025 61.3788 92.764 61.3355 92.7054L61.5835 92.3788C61.6995 92.2261 61.6791 92.0005 61.5376 91.875C61.3963 91.7498 61.1876 91.7718 61.0715 91.9246L60.8665 92.1945C60.7754 92.1132 60.6732 92.0307 60.56 91.9515L60.6445 91.7065C60.7083 91.5212 60.6212 91.3151 60.4497 91.246C60.2785 91.177 60.0877 91.2712 60.0237 91.4565L59.9645 91.6284C59.7729 91.5524 59.5633 91.4949 59.3361 91.4659L59.3306 91.0726C59.3278 90.8768 59.1801 90.7202 58.9995 90.7202C58.9978 90.7202 58.9961 90.7202 58.9943 90.7202C58.8114 90.7233 58.6654 90.886 58.6682 91.0837L58.6736 91.4639C58.4777 91.481 58.2881 91.5083 58.1057 91.5458C58.0905 91.4725 58.0757 91.3992 58.0597 91.326L57.9186 90.6814L59.0762 89.9369C59.1154 89.9115 59.1535 89.8846 59.1916 89.8578C59.5225 89.8645 59.7987 90.0329 60.031 90.3736C60.2367 90.6756 60.3229 90.9972 60.3252 91.006C60.3658 91.1644 60.499 91.2685 60.6443 91.2685C60.6732 91.2685 60.7026 91.2644 60.7319 91.2557C60.9083 91.2035 61.0122 91.0067 60.964 90.816C60.8483 90.3592 60.4849 89.6056 59.8265 89.288C60.292 88.7586 60.6122 88.0911 60.7373 87.3605L60.9494 86.1347C62.3983 86.3811 63.8357 86.7175 65.2519 87.1398L65.4209 88.8668C63.8329 89.0493 63.024 90.1731 62.9881 90.2243C62.8778 90.3812 62.9061 90.6043 63.0507 90.7242C63.1107 90.7739 63.1814 90.7979 63.2516 90.7979C63.3509 90.7979 63.4493 90.7499 63.5146 90.6587C63.5439 90.6178 64.2052 89.7157 65.515 89.5755C65.6467 90.119 65.9596 90.5812 66.3846 90.8826C66.291 90.9246 66.216 91.0111 66.1896 91.1254L66.1055 91.4891C65.9907 91.4677 65.8743 91.4531 65.7566 91.4477C65.6697 91.4434 65.5832 91.4443 65.4971 91.4489L65.4761 90.9283C65.4681 90.7308 65.3161 90.5772 65.1307 90.5864C64.948 90.595 64.8064 90.7621 64.8144 90.9596L64.8391 91.5719C64.6613 91.6299 64.4893 91.7067 64.3257 91.8022L64.1857 91.364C64.126 91.1771 63.9376 91.0779 63.7646 91.1423C63.5918 91.2069 63.4999 91.4106 63.5596 91.5975L63.7636 92.2367C63.7205 92.2797 63.6781 92.3239 63.6373 92.3702L63.4783 92.5504L63.295 92.1831C63.2083 92.0092 63.0074 91.9439 62.8464 92.0379C62.6854 92.1318 62.6252 92.3489 62.7121 92.5228L62.9988 93.0974C62.9466 93.1652 62.9178 93.2507 62.921 93.3394C62.9244 93.436 62.9639 93.5271 63.0303 93.5918C63.0473 93.6083 63.2944 93.8427 63.8034 94.0483L63.7038 94.5604C63.6661 94.7539 63.7807 94.9437 63.9597 94.9843C63.9826 94.9896 64.0057 94.9921 64.0282 94.9921C64.1815 94.9921 64.3192 94.8763 64.3519 94.7077L64.4421 94.2443C64.6832 94.2977 64.9566 94.3373 65.2644 94.353L65.2799 94.7498C65.2875 94.9422 65.4341 95.0926 65.6105 95.0926C65.6153 95.0926 65.62 95.0925 65.6248 95.0922C65.8076 95.0839 65.9494 94.917 65.9416 94.7195L65.9254 94.3049C66.268 94.2349 66.5668 94.1009 66.8192 93.944L66.9142 94.2216C66.9636 94.366 67.0902 94.4554 67.2248 94.4554C67.263 94.4554 67.3019 94.4482 67.3398 94.433C67.5112 94.3644 67.5989 94.1585 67.5353 93.973L67.3755 93.5061C67.6463 93.2426 67.7938 93.0142 67.8085 92.9911C67.8908 92.8612 67.8848 92.6883 67.7937 92.5653C67.7826 92.5502 67.7705 92.5359 67.7591 92.521L68.0783 92.066C68.0926 92.0456 68.1044 92.024 68.1141 92.0018C68.3254 92.4058 68.3681 92.8888 68.2303 93.3287L68.0276 93.9761C67.7349 94.911 67.7766 95.9231 68.1452 96.8259C68.269 97.1294 68.426 97.5302 68.5419 97.94L68.5918 98.1169C68.6856 98.4489 68.8182 98.7638 68.9832 99.0559C68.6647 99.6693 68.2711 100.231 67.8093 100.728C66.7214 101.899 65.3426 102.644 63.8223 102.881C63.0421 103.002 62.2655 102.692 61.7448 102.051ZM66.83 91.1226C66.9194 91.1568 67.0115 91.1851 67.1065 91.2064C67.3305 91.2566 67.5376 91.3619 67.7156 91.5089C67.6522 91.5303 67.594 91.5719 67.5508 91.6334L67.2748 92.0268C67.1086 91.8945 66.9296 91.783 66.741 91.6941L66.8324 91.2992C66.8462 91.2388 66.8436 91.1788 66.83 91.1226ZM67.098 92.8003C66.8217 93.1209 66.2067 93.681 65.3148 93.6391C64.5658 93.6038 64.061 93.4097 63.7716 93.2553L64.1166 92.8642C64.2578 92.7041 64.4185 92.5696 64.5923 92.4619C64.6468 93.0501 65.1074 93.5109 65.6658 93.5109C66.2122 93.5109 66.6639 93.0684 66.7334 92.4974C66.864 92.5839 66.987 92.6841 67.098 92.8003ZM65.2492 92.3449C65.2492 92.2933 65.2582 92.2429 65.274 92.1949C65.4223 92.1669 65.5744 92.1557 65.7278 92.1629C65.841 92.1683 65.9525 92.1851 66.0619 92.2095C66.0745 92.2531 66.0813 92.2986 66.0813 92.3449C66.0813 92.5931 65.8949 92.795 65.6657 92.795C65.4361 92.795 65.2492 92.5931 65.2492 92.3449ZM61.3886 110.057C61.518 109.981 61.6444 109.903 61.7653 109.822C62.1751 109.926 62.5784 110.012 62.9752 110.083L61.209 111.752L61.3886 110.057ZM61.5126 112.416L63.4137 110.619L63.9748 112.8C63.1274 112.704 62.3019 112.572 61.5126 112.416ZM64.0016 110.232C64.6346 110.304 65.2482 110.336 65.8396 110.336C65.9983 110.336 66.1555 110.334 66.311 110.33L64.5798 112.479L64.0016 110.232ZM65.1162 112.903L67.0233 110.535L68.3934 112.895C67.2934 112.983 66.1924 112.977 65.1162 112.903ZM67.6323 110.237C68.5509 110.136 69.397 109.963 70.1607 109.755L68.93 112.472L67.6323 110.237ZM69.5336 112.768L70.8834 109.788L73.0064 111.865C71.8829 112.31 70.7144 112.599 69.5336 112.768ZM73.3793 111.265L71.4294 109.357C71.6209 109.288 71.8056 109.218 71.9816 109.148C72.6374 108.886 73.2201 108.606 73.7251 108.336L73.3793 111.265ZM74.0296 111.411L74.3734 108.499L75.9082 110.258C75.3967 110.642 74.7726 111.043 74.0296 111.411ZM76.8443 107.566C77.2073 107.801 77.554 108.055 77.8764 108.313C77.7266 108.52 77.4797 108.832 77.1232 109.198C77.0191 109.304 76.9009 109.42 76.7697 109.541L76.8443 107.566ZM75.8182 106.988C75.9452 107.048 76.0712 107.112 76.196 107.18L76.1105 109.447L74.6664 107.791C75.2253 107.442 75.6152 107.149 75.8182 106.988ZM75.0676 106.679C74.4602 107.116 73.3159 107.851 71.7517 108.476C69.6567 109.313 66.3912 110.099 62.5004 109.261C63.3325 108.543 63.9035 107.743 64.2693 107.113C64.3116 107.04 64.3505 106.965 64.3869 106.889L64.4481 107.218C64.4797 107.388 64.6179 107.505 64.7724 107.505C64.794 107.505 64.816 107.503 64.8381 107.498C65.0174 107.459 65.1335 107.27 65.0974 107.076L64.5398 104.082L64.4433 103.487C65.8973 103.15 67.214 102.379 68.2766 101.235C68.7129 100.766 69.0934 100.243 69.4139 99.6768C69.7405 100.066 70.135 100.389 70.5805 100.621C70.94 100.808 71.3153 100.929 71.6957 100.987L71.8229 102.227C72.0307 104.251 73.3006 105.989 75.0676 106.679ZM73.5223 99.9892C73.5074 99.9974 73.4449 100.031 73.3428 100.075C72.535 100.421 71.6558 100.386 70.8676 99.9758C70.0794 99.5659 69.4807 98.8122 69.2253 97.908L69.1752 97.7311C69.0493 97.2851 68.8824 96.8587 68.7511 96.5371C68.4496 95.7985 68.4154 94.9704 68.655 94.2056L68.8577 93.5582C69.0571 92.9216 68.9943 92.2217 68.6854 91.6384C68.3764 91.0549 67.8499 90.642 67.2409 90.5054C66.6333 90.3692 66.1812 89.8294 66.1159 89.1624L65.9387 87.3524C69.2731 88.4177 72.4796 89.9609 75.4279 91.9354L75.8618 94.6943C76.195 96.8113 75.2547 98.9386 73.5223 99.9892ZM75.9679 87.0722C75.8659 86.1037 75.6062 85.1943 75.2208 84.3698C75.2835 81.7392 76.1258 78.8775 76.8263 76.93C77.2905 75.6398 77.7543 74.5721 78.0525 73.9216C78.6338 75.7732 78.7109 78.4654 78.2723 81.7809C78.0553 82.1866 77.8456 82.6057 77.6445 83.0396C76.8364 84.7833 76.3182 86.3954 76.0133 87.5039L75.9679 87.0722ZM76.1916 92.5186L76.1519 92.2665L85.3154 76.0869C85.6888 82.4562 80.984 89.8313 76.1916 92.5186Z" fill="black"/>
<defs>
<filter id="filter0_f_525_311" x="0" y="0" width="180" height="180" filterUnits="userSpaceOnUse" color-interpolation-filters="sRGB">
<feFlood flood-opacity="0" result="BackgroundImageFix"/>
<feBlend mode="normal" in="SourceGraphic" in2="BackgroundImageFix" result="shape"/>
<feGaussianBlur stdDeviation="25" result="effect1_foregroundBlur_525_311"/>
</filter>
</defs>
</svg>
