<svg width="50" height="50" viewBox="0 0 50 50" fill="none" xmlns="http://www.w3.org/2000/svg">
<path d="M50 0H0V37.0968H8.71532C7.37339 39.5508 6.57339 42.3411 6.46855 45.3048C5.52339 45.6339 4.83871 46.5242 4.83871 47.5806C4.83871 48.9145 5.92419 50 7.25806 50C8.59194 50 9.67742 48.9145 9.67742 47.5806C9.67742 46.5427 9.01694 45.6629 8.09758 45.3202C8.2121 42.3113 9.11048 39.5073 10.6016 37.0968H16.1677C16.3282 38.8839 17.025 40.554 18.1718 41.9355H16.9355V43.5484H18.5484V45.1613H16.9355V46.7742H18.5484V50H31.4516V46.7742H33.0645V45.1613H31.4516V43.5484H33.0645V41.9355H31.829C32.9758 40.554 33.6726 38.8839 33.8331 37.0968H39.3992C40.8895 39.5073 41.7887 42.3113 41.9032 45.3202C40.9831 45.6629 40.3226 46.5427 40.3226 47.5806C40.3226 48.9145 41.4081 50 42.7419 50C44.0758 50 45.1613 48.9145 45.1613 47.5806C45.1613 46.5242 44.4766 45.6339 43.5315 45.3048C43.4266 42.3411 42.6274 39.5508 41.2847 37.0968H50V0ZM7.25806 48.3871C6.81371 48.3871 6.45161 48.025 6.45161 47.5806C6.45161 47.1363 6.81371 46.7742 7.25806 46.7742C7.70242 46.7742 8.06452 47.1363 8.06452 47.5806C8.06452 48.025 7.70242 48.3871 7.25806 48.3871ZM42.7419 46.7742C43.1863 46.7742 43.5484 47.1363 43.5484 47.5806C43.5484 48.025 43.1863 48.3871 42.7419 48.3871C42.2976 48.3871 41.9355 48.025 41.9355 47.5806C41.9355 47.1363 42.2976 46.7742 42.7419 46.7742ZM11.7258 35.4839C13.4831 33.2629 15.775 31.4831 18.4185 30.3637C17.1702 31.7484 16.3484 33.5226 16.1702 35.4839H11.7258ZM29.8387 48.3871H20.1613V46.7742H29.8387V48.3871ZM29.8387 45.1613H20.1613V43.5484H29.8387V45.1613ZM30.0806 41.4694L29.8387 41.7065V41.9355H25.8065V39.4016C27.1935 39.0411 28.2258 37.7887 28.2258 36.2903C28.2258 34.5113 26.779 33.0645 25 33.0645C23.221 33.0645 21.7742 34.5113 21.7742 36.2903C21.7742 37.7887 22.8065 39.0411 24.1935 39.4016V41.9355H20.1613V41.7065L19.9194 41.4694C18.5153 40.0911 17.7419 38.2524 17.7419 36.2903C17.7419 32.2887 20.9984 29.0323 25 29.0323C29.0016 29.0323 32.2581 32.2887 32.2581 36.2903C32.2581 38.2524 31.4847 40.0911 30.0806 41.4694ZM25 37.9032C24.1105 37.9032 23.3871 37.1798 23.3871 36.2903C23.3871 35.4008 24.1105 34.6774 25 34.6774C25.8895 34.6774 26.6129 35.4008 26.6129 36.2903C26.6129 37.1798 25.8895 37.9032 25 37.9032ZM33.8298 35.4839C33.6516 33.5226 32.8298 31.7484 31.5815 30.3637C34.2242 31.4831 36.5169 33.2629 38.2742 35.4839H33.8298ZM48.3871 35.4839H40.2903C38.3629 32.6815 35.6855 30.4355 32.5508 29.0323H42.0839C42.4177 29.9685 43.3048 30.6452 44.3548 30.6452C45.6887 30.6452 46.7742 29.5597 46.7742 28.2258C46.7742 26.8919 45.6887 25.8065 44.3548 25.8065C43.3048 25.8065 42.4177 26.4831 42.0839 27.4194H7.91613C7.58226 26.4831 6.69516 25.8065 5.64516 25.8065C4.31129 25.8065 3.22581 26.8919 3.22581 28.2258C3.22581 29.5597 4.31129 30.6452 5.64516 30.6452C6.69516 30.6452 7.58226 29.9685 7.91613 29.0323H17.4492C14.3145 30.4355 11.6371 32.6815 9.70968 35.4839H1.6129V8.06452H48.3871V35.4839ZM43.5484 28.2258C43.5484 27.7815 43.9105 27.4194 44.3548 27.4194C44.7992 27.4194 45.1613 27.7815 45.1613 28.2258C45.1613 28.6702 44.7992 29.0323 44.3548 29.0323C43.9105 29.0323 43.5484 28.6702 43.5484 28.2258ZM6.45161 28.2258C6.45161 28.6702 6.08952 29.0323 5.64516 29.0323C5.20081 29.0323 4.83871 28.6702 4.83871 28.2258C4.83871 27.7815 5.20081 27.4194 5.64516 27.4194C6.08952 27.4194 6.45161 27.7815 6.45161 28.2258ZM48.3871 6.45161H1.6129V1.6129H48.3871V6.45161Z" fill="#263238"/>
<path d="M8.0643 3.22583H3.22559V4.83873H8.0643V3.22583Z" fill="#263238"/>
<path d="M11.2906 3.22583H9.67773V4.83873H11.2906V3.22583Z" fill="#263238"/>
<path d="M16.1288 9.67749H3.22559V24.1936H16.1288V9.67749ZM14.5159 22.5807H4.83849V11.2904H14.5159V22.5807Z" fill="#263238"/>
<path d="M32.2583 9.67749H17.7422V24.1936H32.2583V9.67749ZM30.6454 22.5807H19.3551V11.2904H30.6454V22.5807Z" fill="#263238"/>
<path d="M46.7743 9.67749H33.8711V24.1936H46.7743V9.67749ZM45.1614 22.5807H35.484V11.2904H45.1614V22.5807Z" fill="#263238"/>
</svg>
